<?xml version="1.0" encoding="UTF-8" standalone="no"?>
<!DOCTYPE svg PUBLIC "-//W3C//DTD SVG 1.1//EN"
 "http://www.w3.org/Graphics/SVG/1.1/DTD/svg11.dtd">
<!-- Generated by graphviz version 14.0.4 (20251115.1723)
 -->
<!-- Title: OperationalState::getInstance Pages: 1 -->
<svg width="316pt" height="64pt"
 viewBox="0.00 0.00 316.00 64.00" xmlns="http://www.w3.org/2000/svg" xmlns:xlink="http://www.w3.org/1999/xlink">
<g id="graph0" class="graph" transform="scale(1 1) rotate(0) translate(4 60.25)">
<title>OperationalState::getInstance</title>
<!-- Node1 -->
<g id="Node000001" class="node">
<title>Node1</title>
<g id="a_Node000001"><a xlink:title=" ">
<polygon fill="#999999" stroke="#666666" points="308,-37.25 162.25,-37.25 162.25,-18 308,-18 308,-37.25"/>
<text xml:space="preserve" text-anchor="middle" x="235.12" y="-23.75" font-family="Helvetica,sans-Serif" font-size="10.00">OperationalState::getInstance</text>
</a>
</g>
</g>
<!-- Node2 -->
<g id="Node000002" class="node">
<title>Node2</title>
<g id="a_Node000002"><a xlink:href="class_suspended_state.html#a98d4671ae0657e7113be352bf3cffc8e" target="_top" xlink:title=" ">
<polygon fill="white" stroke="#666666" points="126.25,-56.25 0,-56.25 0,-37 126.25,-37 126.25,-56.25"/>
<text xml:space="preserve" text-anchor="middle" x="63.12" y="-42.75" font-family="Helvetica,sans-Serif" font-size="10.00">SuspendedState::resume</text>
</a>
</g>
</g>
<!-- Node1&#45;&gt;Node2 -->
<g id="edge1_Node000001_Node000002" class="edge">
<title>Node1&#45;&gt;Node2</title>
<g id="a_edge1_Node000001_Node000002"><a xlink:title=" ">
<path fill="none" stroke="#63b8ff" d="M150.65,-36.95C142.57,-37.86 134.48,-38.76 126.65,-39.64"/>
<polygon fill="#63b8ff" stroke="#63b8ff" points="150.98,-40.44 160.53,-35.85 150.2,-33.48 150.98,-40.44"/>
</a>
</g>
</g>
<!-- Node3 -->
<g id="Node000003" class="node">
<title>Node3</title>
<g id="a_Node000003"><a xlink:href="class_ready_state.html#afca7afc96e449d8a719f3f22e61bc924" target="_top" xlink:title=" ">
<polygon fill="white" stroke="#666666" points="109.75,-19.25 16.5,-19.25 16.5,0 109.75,0 109.75,-19.25"/>
<text xml:space="preserve" text-anchor="middle" x="63.12" y="-5.75" font-family="Helvetica,sans-Serif" font-size="10.00">ReadyState::start</text>
</a>
</g>
</g>
<!-- Node1&#45;&gt;Node3 -->
<g id="edge2_Node000001_Node000003" class="edge">
<title>Node1&#45;&gt;Node3</title>
<g id="a_edge2_Node000001_Node000003"><a xlink:title=" ">
<path fill="none" stroke="#63b8ff" d="M150.85,-18.81C136.85,-17.33 122.8,-15.84 110.2,-14.5"/>
<polygon fill="#63b8ff" stroke="#63b8ff" points="150.21,-22.26 160.52,-19.83 150.95,-15.3 150.21,-22.26"/>
</a>
</g>
</g>
</g>
</svg>
