<?xml version="1.0" encoding="UTF-8" standalone="no"?>
<!DOCTYPE svg PUBLIC "-//W3C//DTD SVG 1.1//EN"
 "http://www.w3.org/Graphics/SVG/1.1/DTD/svg11.dtd">
<!-- Generated by graphviz version 14.0.4 (20251115.1723)
 -->
<!-- Title: SuspendedState Pages: 1 -->
<svg width="588pt" height="663pt"
 viewBox="0.00 0.00 588.00 663.00" xmlns="http://www.w3.org/2000/svg" xmlns:xlink="http://www.w3.org/1999/xlink">
<g id="graph0" class="graph" transform="scale(1 1) rotate(0) translate(4 658.5)">
<title>SuspendedState</title>
<!-- Node1 -->
<g id="Node000001" class="node">
<title>Node1</title>
<g id="a_Node000001"><a xlink:title=" ">
<polygon fill="#999999" stroke="none" points="162,-311.88 0,-311.88 0,-11.62 162,-11.62 162,-311.88"/>
<text xml:space="preserve" text-anchor="start" x="45" y="-298.38" font-family="Helvetica,sans-Serif" font-size="10.00">SuspendedState</text>
<text xml:space="preserve" text-anchor="start" x="79.5" y="-283.12" font-family="Helvetica,sans-Serif" font-size="10.00"> </text>
<text xml:space="preserve" text-anchor="start" x="4" y="-267.88" font-family="Helvetica,sans-Serif" font-size="10.00">+</text>
<text xml:space="preserve" text-anchor="start" x="14" y="-267.88" font-family="Helvetica,sans-Serif" font-size="10.00">void selfTestOk() override</text>
<text xml:space="preserve" text-anchor="start" x="4" y="-252.62" font-family="Helvetica,sans-Serif" font-size="10.00">+</text>
<text xml:space="preserve" text-anchor="start" x="14" y="-252.62" font-family="Helvetica,sans-Serif" font-size="10.00">void initialized()</text>
<text xml:space="preserve" text-anchor="start" x="14" y="-241.38" font-family="Helvetica,sans-Serif" font-size="10.00"> override</text>
<text xml:space="preserve" text-anchor="start" x="4" y="-226.12" font-family="Helvetica,sans-Serif" font-size="10.00">+</text>
<text xml:space="preserve" text-anchor="start" x="14" y="-226.12" font-family="Helvetica,sans-Serif" font-size="10.00">void restart() override</text>
<text xml:space="preserve" text-anchor="start" x="4" y="-210.88" font-family="Helvetica,sans-Serif" font-size="10.00">+</text>
<text xml:space="preserve" text-anchor="start" x="14" y="-210.88" font-family="Helvetica,sans-Serif" font-size="10.00">void selfTestFailed</text>
<text xml:space="preserve" text-anchor="start" x="14" y="-199.62" font-family="Helvetica,sans-Serif" font-size="10.00">(int errorNo) override</text>
<text xml:space="preserve" text-anchor="start" x="4" y="-184.38" font-family="Helvetica,sans-Serif" font-size="10.00">+</text>
<text xml:space="preserve" text-anchor="start" x="14" y="-184.38" font-family="Helvetica,sans-Serif" font-size="10.00">void configure() override</text>
<text xml:space="preserve" text-anchor="start" x="4" y="-169.12" font-family="Helvetica,sans-Serif" font-size="10.00">+</text>
<text xml:space="preserve" text-anchor="start" x="14" y="-169.12" font-family="Helvetica,sans-Serif" font-size="10.00">void configurationEnded</text>
<text xml:space="preserve" text-anchor="start" x="14" y="-157.88" font-family="Helvetica,sans-Serif" font-size="10.00">() override</text>
<text xml:space="preserve" text-anchor="start" x="4" y="-142.62" font-family="Helvetica,sans-Serif" font-size="10.00">+</text>
<text xml:space="preserve" text-anchor="start" x="14" y="-142.62" font-family="Helvetica,sans-Serif" font-size="10.00">void start() override</text>
<text xml:space="preserve" text-anchor="start" x="4" y="-127.38" font-family="Helvetica,sans-Serif" font-size="10.00">+</text>
<text xml:space="preserve" text-anchor="start" x="14" y="-127.38" font-family="Helvetica,sans-Serif" font-size="10.00">void suspend() override</text>
<text xml:space="preserve" text-anchor="start" x="4" y="-112.12" font-family="Helvetica,sans-Serif" font-size="10.00">+</text>
<text xml:space="preserve" text-anchor="start" x="14" y="-112.12" font-family="Helvetica,sans-Serif" font-size="10.00">void resume() override</text>
<text xml:space="preserve" text-anchor="start" x="4" y="-96.88" font-family="Helvetica,sans-Serif" font-size="10.00">+</text>
<text xml:space="preserve" text-anchor="start" x="14" y="-96.88" font-family="Helvetica,sans-Serif" font-size="10.00">void exit() override</text>
<text xml:space="preserve" text-anchor="start" x="4" y="-81.62" font-family="Helvetica,sans-Serif" font-size="10.00">+</text>
<text xml:space="preserve" text-anchor="start" x="14" y="-81.62" font-family="Helvetica,sans-Serif" font-size="10.00">void stop() override</text>
<text xml:space="preserve" text-anchor="start" x="4" y="-66.38" font-family="Helvetica,sans-Serif" font-size="10.00">+</text>
<text xml:space="preserve" text-anchor="start" x="14" y="-66.38" font-family="Helvetica,sans-Serif" font-size="10.00">static SuspendedState</text>
<text xml:space="preserve" text-anchor="start" x="14" y="-55.12" font-family="Helvetica,sans-Serif" font-size="10.00"> * getInstance(EmbeddedSystem</text>
<text xml:space="preserve" text-anchor="start" x="14" y="-43.88" font-family="Helvetica,sans-Serif" font-size="10.00">X *ctx)</text>
<text xml:space="preserve" text-anchor="start" x="5.5" y="-28.62" font-family="Helvetica,sans-Serif" font-size="10.00">&#45;</text>
<text xml:space="preserve" text-anchor="start" x="14" y="-28.62" font-family="Helvetica,sans-Serif" font-size="10.00">SuspendedState(Embedded</text>
<text xml:space="preserve" text-anchor="start" x="14" y="-17.38" font-family="Helvetica,sans-Serif" font-size="10.00">SystemX *ctx)</text>
<polygon fill="#666666" stroke="#666666" points="0,-294.62 0,-294.62 162,-294.62 162,-294.62 0,-294.62"/>
<polygon fill="#666666" stroke="#666666" points="0,-279.38 0,-279.38 162,-279.38 162,-279.38 0,-279.38"/>
<polygon fill="none" stroke="#666666" points="0,-11.62 0,-311.88 162,-311.88 162,-11.62 0,-11.62"/>
</a>
</g>
</g>
<!-- Node1&#45;&gt;Node1 -->
<g id="edge7_Node000001_Node000001" class="edge">
<title>Node1&#45;&gt;Node1</title>
<g id="a_edge7_Node000001_Node000001"><a xlink:title=" ">
<path fill="none" stroke="#63b8ff" d="M161.8,-193.08C172.72,-187.83 180,-177.39 180,-161.75 180,-151.73 177.01,-143.85 171.99,-138.09"/>
<polygon fill="none" stroke="#63b8ff" points="172.1,-138.17 164.9,-137.76 162.52,-130.96 169.72,-131.37 172.1,-138.17"/>
</a>
</g>
<text xml:space="preserve" text-anchor="start" x="183" y="-157.88" font-family="Helvetica,sans-Serif" font-size="10.00" fill="grey">&#45;instance</text>
</g>
<!-- Node2 -->
<g id="Node000002" class="node">
<title>Node2</title>
<g id="a_Node000002"><a xlink:href="class_embedded_system_x_state.html" target="_top" xlink:title=" ">
<polygon fill="white" stroke="none" points="297.75,-654.5 134.25,-654.5 134.25,-376.75 297.75,-376.75 297.75,-654.5"/>
<text xml:space="preserve" text-anchor="start" x="160.88" y="-641" font-family="Helvetica,sans-Serif" font-size="10.00">EmbeddedSystemXState</text>
<text xml:space="preserve" text-anchor="start" x="214.5" y="-625.75" font-family="Helvetica,sans-Serif" font-size="10.00"> </text>
<text xml:space="preserve" text-anchor="start" x="138.25" y="-610.5" font-family="Helvetica,sans-Serif" font-size="10.00">+</text>
<text xml:space="preserve" text-anchor="start" x="148.25" y="-610.5" font-family="Helvetica,sans-Serif" font-size="10.00">EmbeddedSystemXState</text>
<text xml:space="preserve" text-anchor="start" x="148.25" y="-599.25" font-family="Helvetica,sans-Serif" font-size="10.00">(EmbeddedSystemX *ctx)</text>
<text xml:space="preserve" text-anchor="start" x="138.25" y="-584" font-family="Helvetica,sans-Serif" font-size="10.00">+</text>
<text xml:space="preserve" text-anchor="start" x="148.25" y="-584" font-family="Helvetica,sans-Serif" font-size="10.00">virtual ~EmbeddedSystemXState</text>
<text xml:space="preserve" text-anchor="start" x="148.25" y="-572.75" font-family="Helvetica,sans-Serif" font-size="10.00">()=default</text>
<text xml:space="preserve" text-anchor="start" x="138.25" y="-557.5" font-family="Helvetica,sans-Serif" font-size="10.00">+</text>
<text xml:space="preserve" text-anchor="start" x="148.25" y="-557.5" font-family="Helvetica,sans-Serif" font-size="10.00">virtual void selfTestOk()=0</text>
<text xml:space="preserve" text-anchor="start" x="138.25" y="-542.25" font-family="Helvetica,sans-Serif" font-size="10.00">+</text>
<text xml:space="preserve" text-anchor="start" x="148.25" y="-542.25" font-family="Helvetica,sans-Serif" font-size="10.00">virtual void initialized()=0</text>
<text xml:space="preserve" text-anchor="start" x="138.25" y="-527" font-family="Helvetica,sans-Serif" font-size="10.00">+</text>
<text xml:space="preserve" text-anchor="start" x="148.25" y="-527" font-family="Helvetica,sans-Serif" font-size="10.00">virtual void restart()=0</text>
<text xml:space="preserve" text-anchor="start" x="138.25" y="-511.75" font-family="Helvetica,sans-Serif" font-size="10.00">+</text>
<text xml:space="preserve" text-anchor="start" x="148.25" y="-511.75" font-family="Helvetica,sans-Serif" font-size="10.00">virtual void selfTestFailed</text>
<text xml:space="preserve" text-anchor="start" x="148.25" y="-500.5" font-family="Helvetica,sans-Serif" font-size="10.00">(int errorNo)=0</text>
<text xml:space="preserve" text-anchor="start" x="138.25" y="-485.25" font-family="Helvetica,sans-Serif" font-size="10.00">+</text>
<text xml:space="preserve" text-anchor="start" x="148.25" y="-485.25" font-family="Helvetica,sans-Serif" font-size="10.00">virtual void configure()=0</text>
<text xml:space="preserve" text-anchor="start" x="138.25" y="-470" font-family="Helvetica,sans-Serif" font-size="10.00">+</text>
<text xml:space="preserve" text-anchor="start" x="148.25" y="-470" font-family="Helvetica,sans-Serif" font-size="10.00">virtual void configuration</text>
<text xml:space="preserve" text-anchor="start" x="148.25" y="-458.75" font-family="Helvetica,sans-Serif" font-size="10.00">Ended()=0</text>
<text xml:space="preserve" text-anchor="start" x="138.25" y="-443.5" font-family="Helvetica,sans-Serif" font-size="10.00">+</text>
<text xml:space="preserve" text-anchor="start" x="148.25" y="-443.5" font-family="Helvetica,sans-Serif" font-size="10.00">virtual void start()=0</text>
<text xml:space="preserve" text-anchor="start" x="138.25" y="-428.25" font-family="Helvetica,sans-Serif" font-size="10.00">+</text>
<text xml:space="preserve" text-anchor="start" x="148.25" y="-428.25" font-family="Helvetica,sans-Serif" font-size="10.00">virtual void suspend()=0</text>
<text xml:space="preserve" text-anchor="start" x="138.25" y="-413" font-family="Helvetica,sans-Serif" font-size="10.00">+</text>
<text xml:space="preserve" text-anchor="start" x="148.25" y="-413" font-family="Helvetica,sans-Serif" font-size="10.00">virtual void resume()=0</text>
<text xml:space="preserve" text-anchor="start" x="138.25" y="-397.75" font-family="Helvetica,sans-Serif" font-size="10.00">+</text>
<text xml:space="preserve" text-anchor="start" x="148.25" y="-397.75" font-family="Helvetica,sans-Serif" font-size="10.00">virtual void exit()=0</text>
<text xml:space="preserve" text-anchor="start" x="138.25" y="-382.5" font-family="Helvetica,sans-Serif" font-size="10.00">+</text>
<text xml:space="preserve" text-anchor="start" x="148.25" y="-382.5" font-family="Helvetica,sans-Serif" font-size="10.00">virtual void stop()=0</text>
<polygon fill="#666666" stroke="#666666" points="134.25,-637.25 134.25,-637.25 297.75,-637.25 297.75,-637.25 134.25,-637.25"/>
<polygon fill="#666666" stroke="#666666" points="134.25,-622 134.25,-622 297.75,-622 297.75,-622 134.25,-622"/>
<polygon fill="none" stroke="#666666" points="134.25,-376.75 134.25,-654.5 297.75,-654.5 297.75,-376.75 134.25,-376.75"/>
</a>
</g>
</g>
<!-- Node2&#45;&gt;Node1 -->
<g id="edge1_Node000001_Node000002" class="edge">
<title>Node2&#45;&gt;Node1</title>
<g id="a_edge1_Node000001_Node000002"><a xlink:title=" ">
<path fill="none" stroke="#63b8ff" d="M159.07,-366.23C152.14,-348.17 145.06,-329.71 138.12,-311.64"/>
<polygon fill="none" stroke="#63b8ff" points="155.74,-367.32 162.59,-375.4 162.27,-364.81 155.74,-367.32"/>
</a>
</g>
</g>
<!-- Node3 -->
<g id="Node000003" class="node">
<title>Node3</title>
<g id="a_Node000003"><a xlink:href="class_embedded_system_x.html" target="_top" xlink:title=" ">
<polygon fill="white" stroke="none" points="390.12,-323.5 243.88,-323.5 243.88,0 390.12,0 390.12,-323.5"/>
<text xml:space="preserve" text-anchor="start" x="273.5" y="-310" font-family="Helvetica,sans-Serif" font-size="10.00">EmbeddedSystemX</text>
<text xml:space="preserve" text-anchor="start" x="315.5" y="-294.75" font-family="Helvetica,sans-Serif" font-size="10.00"> </text>
<text xml:space="preserve" text-anchor="start" x="247.88" y="-279.5" font-family="Helvetica,sans-Serif" font-size="10.00">+</text>
<text xml:space="preserve" text-anchor="start" x="257.88" y="-279.5" font-family="Helvetica,sans-Serif" font-size="10.00">EmbeddedSystemX()</text>
<text xml:space="preserve" text-anchor="start" x="247.88" y="-264.25" font-family="Helvetica,sans-Serif" font-size="10.00">+</text>
<text xml:space="preserve" text-anchor="start" x="257.88" y="-264.25" font-family="Helvetica,sans-Serif" font-size="10.00">~EmbeddedSystemX()</text>
<text xml:space="preserve" text-anchor="start" x="247.88" y="-249" font-family="Helvetica,sans-Serif" font-size="10.00">+</text>
<text xml:space="preserve" text-anchor="start" x="257.88" y="-249" font-family="Helvetica,sans-Serif" font-size="10.00">void changeState(Embedded</text>
<text xml:space="preserve" text-anchor="start" x="257.88" y="-237.75" font-family="Helvetica,sans-Serif" font-size="10.00">SystemXState *newState)</text>
<text xml:space="preserve" text-anchor="start" x="247.88" y="-222.5" font-family="Helvetica,sans-Serif" font-size="10.00">+</text>
<text xml:space="preserve" text-anchor="start" x="257.88" y="-222.5" font-family="Helvetica,sans-Serif" font-size="10.00">RealTimeLoop * getRealTime</text>
<text xml:space="preserve" text-anchor="start" x="257.88" y="-211.25" font-family="Helvetica,sans-Serif" font-size="10.00">Loop()</text>
<text xml:space="preserve" text-anchor="start" x="247.88" y="-196" font-family="Helvetica,sans-Serif" font-size="10.00">+</text>
<text xml:space="preserve" text-anchor="start" x="257.88" y="-196" font-family="Helvetica,sans-Serif" font-size="10.00">void selfTestOk()</text>
<text xml:space="preserve" text-anchor="start" x="247.88" y="-180.75" font-family="Helvetica,sans-Serif" font-size="10.00">+</text>
<text xml:space="preserve" text-anchor="start" x="257.88" y="-180.75" font-family="Helvetica,sans-Serif" font-size="10.00">void initialized()</text>
<text xml:space="preserve" text-anchor="start" x="247.88" y="-165.5" font-family="Helvetica,sans-Serif" font-size="10.00">+</text>
<text xml:space="preserve" text-anchor="start" x="257.88" y="-165.5" font-family="Helvetica,sans-Serif" font-size="10.00">void restart()</text>
<text xml:space="preserve" text-anchor="start" x="247.88" y="-150.25" font-family="Helvetica,sans-Serif" font-size="10.00">+</text>
<text xml:space="preserve" text-anchor="start" x="257.88" y="-150.25" font-family="Helvetica,sans-Serif" font-size="10.00">void selfTestFailed</text>
<text xml:space="preserve" text-anchor="start" x="257.88" y="-139" font-family="Helvetica,sans-Serif" font-size="10.00">(int errorNo)</text>
<text xml:space="preserve" text-anchor="start" x="247.88" y="-123.75" font-family="Helvetica,sans-Serif" font-size="10.00">+</text>
<text xml:space="preserve" text-anchor="start" x="257.88" y="-123.75" font-family="Helvetica,sans-Serif" font-size="10.00">void configure()</text>
<text xml:space="preserve" text-anchor="start" x="247.88" y="-108.5" font-family="Helvetica,sans-Serif" font-size="10.00">+</text>
<text xml:space="preserve" text-anchor="start" x="257.88" y="-108.5" font-family="Helvetica,sans-Serif" font-size="10.00">void configurationEnded()</text>
<text xml:space="preserve" text-anchor="start" x="247.88" y="-93.25" font-family="Helvetica,sans-Serif" font-size="10.00">+</text>
<text xml:space="preserve" text-anchor="start" x="257.88" y="-93.25" font-family="Helvetica,sans-Serif" font-size="10.00">void start()</text>
<text xml:space="preserve" text-anchor="start" x="247.88" y="-78" font-family="Helvetica,sans-Serif" font-size="10.00">+</text>
<text xml:space="preserve" text-anchor="start" x="257.88" y="-78" font-family="Helvetica,sans-Serif" font-size="10.00">void suspend()</text>
<text xml:space="preserve" text-anchor="start" x="247.88" y="-62.75" font-family="Helvetica,sans-Serif" font-size="10.00">+</text>
<text xml:space="preserve" text-anchor="start" x="257.88" y="-62.75" font-family="Helvetica,sans-Serif" font-size="10.00">void resume()</text>
<text xml:space="preserve" text-anchor="start" x="247.88" y="-47.5" font-family="Helvetica,sans-Serif" font-size="10.00">+</text>
<text xml:space="preserve" text-anchor="start" x="257.88" y="-47.5" font-family="Helvetica,sans-Serif" font-size="10.00">void exit()</text>
<text xml:space="preserve" text-anchor="start" x="247.88" y="-32.25" font-family="Helvetica,sans-Serif" font-size="10.00">+</text>
<text xml:space="preserve" text-anchor="start" x="257.88" y="-32.25" font-family="Helvetica,sans-Serif" font-size="10.00">void stop()</text>
<text xml:space="preserve" text-anchor="start" x="247.88" y="-17" font-family="Helvetica,sans-Serif" font-size="10.00">+</text>
<text xml:space="preserve" text-anchor="start" x="257.88" y="-17" font-family="Helvetica,sans-Serif" font-size="10.00">std::string getStateName</text>
<text xml:space="preserve" text-anchor="start" x="257.88" y="-5.75" font-family="Helvetica,sans-Serif" font-size="10.00">() const</text>
<polygon fill="#666666" stroke="#666666" points="243.88,-306.25 243.88,-306.25 390.12,-306.25 390.12,-306.25 243.88,-306.25"/>
<polygon fill="#666666" stroke="#666666" points="243.88,-291 243.88,-291 390.12,-291 390.12,-291 243.88,-291"/>
<polygon fill="none" stroke="#666666" points="243.88,0 243.88,-323.5 390.12,-323.5 390.12,0 243.88,0"/>
</a>
</g>
</g>
<!-- Node2&#45;&gt;Node3 -->
<g id="edge3_Node000003_Node000002" class="edge">
<title>Node2&#45;&gt;Node3</title>
<g id="a_edge3_Node000003_Node000002"><a xlink:title=" ">
<path fill="none" stroke="#63b8ff" d="M201.74,-376.94C203.92,-364.62 207.44,-352.62 212.75,-341.5 218.23,-330.02 226.99,-333.38 235,-323.5 235.38,-323.03 235.76,-322.55 236.14,-322.08"/>
<polygon fill="none" stroke="#63b8ff" points="236.14,-322.08 236.6,-314.88 243.42,-312.53 242.96,-319.73 236.14,-322.08"/>
</a>
</g>
<text xml:space="preserve" text-anchor="start" x="215.75" y="-346.25" font-family="Helvetica,sans-Serif" font-size="10.00" fill="grey">&#45;currentState</text>
</g>
<!-- Node3&#45;&gt;Node2 -->
<g id="edge2_Node000002_Node000003" class="edge">
<title>Node3&#45;&gt;Node2</title>
<g id="a_edge2_Node000002_Node000003"><a xlink:title=" ">
<path fill="none" stroke="#63b8ff" d="M288.51,-323.28C285.56,-335.35 282.39,-347.28 279,-358.75 278.42,-360.72 277.82,-362.71 277.2,-364.7"/>
<polygon fill="none" stroke="#63b8ff" points="277.19,-364.72 279.17,-371.66 273.53,-376.15 271.55,-369.22 277.19,-364.72"/>
</a>
</g>
<text xml:space="preserve" text-anchor="start" x="286.4" y="-346.25" font-family="Helvetica,sans-Serif" font-size="10.00" fill="grey">#context</text>
</g>
<!-- Node4 -->
<g id="Node000004" class="node">
<title>Node4</title>
<g id="a_Node000004"><a xlink:href="class_real_time_loop.html" target="_top" xlink:title=" ">
<polygon fill="white" stroke="none" points="526.12,-574.62 391.88,-574.62 391.88,-456.62 526.12,-456.62 526.12,-574.62"/>
<text xml:space="preserve" text-anchor="start" x="427.5" y="-561.12" font-family="Helvetica,sans-Serif" font-size="10.00">RealTimeLoop</text>
<text xml:space="preserve" text-anchor="start" x="457.5" y="-545.88" font-family="Helvetica,sans-Serif" font-size="10.00"> </text>
<text xml:space="preserve" text-anchor="start" x="395.88" y="-530.62" font-family="Helvetica,sans-Serif" font-size="10.00">+</text>
<text xml:space="preserve" text-anchor="start" x="405.88" y="-530.62" font-family="Helvetica,sans-Serif" font-size="10.00">RealTimeLoop()</text>
<text xml:space="preserve" text-anchor="start" x="395.88" y="-515.38" font-family="Helvetica,sans-Serif" font-size="10.00">+</text>
<text xml:space="preserve" text-anchor="start" x="405.88" y="-515.38" font-family="Helvetica,sans-Serif" font-size="10.00">void changeMode(int</text>
<text xml:space="preserve" text-anchor="start" x="405.88" y="-504.12" font-family="Helvetica,sans-Serif" font-size="10.00"> modeNumber)</text>
<text xml:space="preserve" text-anchor="start" x="395.88" y="-488.88" font-family="Helvetica,sans-Serif" font-size="10.00">+</text>
<text xml:space="preserve" text-anchor="start" x="405.88" y="-488.88" font-family="Helvetica,sans-Serif" font-size="10.00">void eventX()</text>
<text xml:space="preserve" text-anchor="start" x="395.88" y="-473.62" font-family="Helvetica,sans-Serif" font-size="10.00">+</text>
<text xml:space="preserve" text-anchor="start" x="405.88" y="-473.62" font-family="Helvetica,sans-Serif" font-size="10.00">std::string getCurrentMode</text>
<text xml:space="preserve" text-anchor="start" x="405.88" y="-462.38" font-family="Helvetica,sans-Serif" font-size="10.00">() const</text>
<polygon fill="#666666" stroke="#666666" points="391.88,-557.38 391.88,-557.38 526.12,-557.38 526.12,-557.38 391.88,-557.38"/>
<polygon fill="#666666" stroke="#666666" points="391.88,-542.12 391.88,-542.12 526.12,-542.12 526.12,-542.12 391.88,-542.12"/>
<polygon fill="none" stroke="#666666" points="391.88,-456.62 391.88,-574.62 526.12,-574.62 526.12,-456.62 391.88,-456.62"/>
</a>
</g>
</g>
<!-- Node4&#45;&gt;Node3 -->
<g id="edge4_Node000003_Node000004" class="edge">
<title>Node4&#45;&gt;Node3</title>
<g id="a_edge4_Node000003_Node000004"><a xlink:title=" ">
<path fill="none" stroke="#63b8ff" d="M428.94,-456.93C414.34,-427.87 397.07,-391.86 383.5,-358.75 380.38,-351.13 377.28,-343.31 374.23,-335.38"/>
<polygon fill="none" stroke="#63b8ff" points="374.21,-335.33 368.35,-331.14 369.96,-324.11 375.83,-328.3 374.21,-335.33"/>
</a>
</g>
<text xml:space="preserve" text-anchor="start" x="386.5" y="-346.25" font-family="Helvetica,sans-Serif" font-size="10.00" fill="grey">&#45;realTimeLoop</text>
</g>
<!-- Node5 -->
<g id="Node000005" class="node">
<title>Node5</title>
<g id="a_Node000005"><a xlink:href="class_real_time_loop_state.html" target="_top" xlink:title=" ">
<polygon fill="white" stroke="none" points="579.75,-213.12 440.25,-213.12 440.25,-110.38 579.75,-110.38 579.75,-213.12"/>
<text xml:space="preserve" text-anchor="start" x="466.88" y="-199.62" font-family="Helvetica,sans-Serif" font-size="10.00">RealTimeLoopState</text>
<text xml:space="preserve" text-anchor="start" x="508.5" y="-184.38" font-family="Helvetica,sans-Serif" font-size="10.00"> </text>
<text xml:space="preserve" text-anchor="start" x="444.25" y="-169.12" font-family="Helvetica,sans-Serif" font-size="10.00">+</text>
<text xml:space="preserve" text-anchor="start" x="454.25" y="-169.12" font-family="Helvetica,sans-Serif" font-size="10.00">RealTimeLoopState</text>
<text xml:space="preserve" text-anchor="start" x="454.25" y="-157.88" font-family="Helvetica,sans-Serif" font-size="10.00">(RealTimeLoop *ctx)</text>
<text xml:space="preserve" text-anchor="start" x="444.25" y="-142.62" font-family="Helvetica,sans-Serif" font-size="10.00">+</text>
<text xml:space="preserve" text-anchor="start" x="454.25" y="-142.62" font-family="Helvetica,sans-Serif" font-size="10.00">virtual ~RealTimeLoopState</text>
<text xml:space="preserve" text-anchor="start" x="454.25" y="-131.38" font-family="Helvetica,sans-Serif" font-size="10.00">()=default</text>
<text xml:space="preserve" text-anchor="start" x="444.25" y="-116.12" font-family="Helvetica,sans-Serif" font-size="10.00">+</text>
<text xml:space="preserve" text-anchor="start" x="454.25" y="-116.12" font-family="Helvetica,sans-Serif" font-size="10.00">virtual void eventX()=0</text>
<polygon fill="#666666" stroke="#666666" points="440.25,-195.88 440.25,-195.88 579.75,-195.88 579.75,-195.88 440.25,-195.88"/>
<polygon fill="#666666" stroke="#666666" points="440.25,-180.62 440.25,-180.62 579.75,-180.62 579.75,-180.62 440.25,-180.62"/>
<polygon fill="none" stroke="#666666" points="440.25,-110.38 440.25,-213.12 579.75,-213.12 579.75,-110.38 440.25,-110.38"/>
</a>
</g>
</g>
<!-- Node4&#45;&gt;Node5 -->
<g id="edge6_Node000005_Node000004" class="edge">
<title>Node4&#45;&gt;Node5</title>
<g id="a_edge6_Node000005_Node000004"><a xlink:title=" ">
<path fill="none" stroke="#63b8ff" d="M453.59,-457.01C451.55,-423.19 450.9,-379.72 456.5,-341.5 462.29,-301.96 474.92,-259.03 486.46,-225.15"/>
<polygon fill="none" stroke="#63b8ff" points="486.41,-225.28 484.6,-218.3 490.35,-213.95 492.16,-220.93 486.41,-225.28"/>
</a>
</g>
<text xml:space="preserve" text-anchor="start" x="459.5" y="-346.25" font-family="Helvetica,sans-Serif" font-size="10.00" fill="grey">#context</text>
</g>
<!-- Node5&#45;&gt;Node4 -->
<g id="edge5_Node000004_Node000005" class="edge">
<title>Node5&#45;&gt;Node4</title>
<g id="a_edge5_Node000004_Node000005"><a xlink:title=" ">
<path fill="none" stroke="#63b8ff" d="M511.9,-213.02C512.58,-252.8 511.71,-309.65 504,-358.75 499.51,-387.34 491.38,-418.08 483.25,-444.65"/>
<polygon fill="none" stroke="#63b8ff" points="483.26,-444.62 485.28,-451.54 479.67,-456.07 477.65,-449.15 483.26,-444.62"/>
</a>
</g>
<text xml:space="preserve" text-anchor="start" x="509.21" y="-346.25" font-family="Helvetica,sans-Serif" font-size="10.00" fill="grey">&#45;currentMode</text>
</g>
</g>
</svg>
