<?xml version="1.0" encoding="UTF-8" standalone="no"?>
<!DOCTYPE svg PUBLIC "-//W3C//DTD SVG 1.1//EN"
 "http://www.w3.org/Graphics/SVG/1.1/DTD/svg11.dtd">
<!-- Generated by graphviz version 14.0.4 (20251115.1723)
 -->
<!-- Title: SuspendedState::resume Pages: 1 -->
<svg width="633pt" height="39pt"
 viewBox="0.00 0.00 633.00 39.00" xmlns="http://www.w3.org/2000/svg" xmlns:xlink="http://www.w3.org/1999/xlink">
<g id="graph0" class="graph" transform="scale(1 1) rotate(0) translate(4 34.5)">
<title>SuspendedState::resume</title>
<!-- Node1 -->
<g id="Node000001" class="node">
<title>Node1</title>
<g id="a_Node000001"><a xlink:title=" ">
<polygon fill="#999999" stroke="#666666" points="126.25,-24.88 0,-24.88 0,-5.63 126.25,-5.63 126.25,-24.88"/>
<text xml:space="preserve" text-anchor="middle" x="63.12" y="-11.38" font-family="Helvetica,sans-Serif" font-size="10.00">SuspendedState::resume</text>
</a>
</g>
</g>
<!-- Node2 -->
<g id="Node000002" class="node">
<title>Node2</title>
<g id="a_Node000002"><a xlink:href="class_real_time_loop_outer_state.html#aa45421e00258a8ee2687d8c99efc0dea" target="_top" xlink:title=" ">
<polygon fill="white" stroke="#666666" points="288.5,-30.5 162.25,-30.5 162.25,0 288.5,0 288.5,-30.5"/>
<text xml:space="preserve" text-anchor="start" x="170.25" y="-17" font-family="Helvetica,sans-Serif" font-size="10.00">RealTimeLoopOuterState</text>
<text xml:space="preserve" text-anchor="middle" x="225.38" y="-5.75" font-family="Helvetica,sans-Serif" font-size="10.00">::getInstance</text>
</a>
</g>
</g>
<!-- Node1&#45;&gt;Node2 -->
<g id="edge1_Node000001_Node000002" class="edge">
<title>Node1&#45;&gt;Node2</title>
<g id="a_edge1_Node000001_Node000002"><a xlink:title=" ">
<path fill="none" stroke="#63b8ff" d="M126.54,-15.25C134.43,-15.25 142.55,-15.25 150.59,-15.25"/>
<polygon fill="#63b8ff" stroke="#63b8ff" points="150.35,-18.75 160.35,-15.25 150.35,-11.75 150.35,-18.75"/>
</a>
</g>
</g>
<!-- Node3 -->
<g id="Node000003" class="node">
<title>Node3</title>
<g id="a_Node000003"><a xlink:href="class_real_time_loop_outer_state.html#ad89ca507e9f62d9a94e078c66ae45cd4" target="_top" xlink:title=" ">
<polygon fill="white" stroke="#666666" points="456.75,-30.5 324.5,-30.5 324.5,0 456.75,0 456.75,-30.5"/>
<text xml:space="preserve" text-anchor="start" x="332.5" y="-17" font-family="Helvetica,sans-Serif" font-size="10.00">RealTimeLoopOuterState</text>
<text xml:space="preserve" text-anchor="middle" x="390.62" y="-5.75" font-family="Helvetica,sans-Serif" font-size="10.00">::RealTimeLoopOuterState</text>
</a>
</g>
</g>
<!-- Node2&#45;&gt;Node3 -->
<g id="edge2_Node000002_Node000003" class="edge">
<title>Node2&#45;&gt;Node3</title>
<g id="a_edge2_Node000002_Node000003"><a xlink:title=" ">
<path fill="none" stroke="#63b8ff" d="M288.56,-15.25C296.46,-15.25 304.62,-15.25 312.71,-15.25"/>
<polygon fill="#63b8ff" stroke="#63b8ff" points="312.57,-18.75 322.57,-15.25 312.57,-11.75 312.57,-18.75"/>
</a>
</g>
</g>
<!-- Node4 -->
<g id="Node000004" class="node">
<title>Node4</title>
<g id="a_Node000004"><a xlink:href="class_embedded_system_x_state.html#a5630d67a88100d0e67c1578a7ee43e91" target="_top" xlink:title=" ">
<polygon fill="white" stroke="#666666" points="625,-30.5 492.75,-30.5 492.75,0 625,0 625,-30.5"/>
<text xml:space="preserve" text-anchor="start" x="500.75" y="-17" font-family="Helvetica,sans-Serif" font-size="10.00">EmbeddedSystemXState</text>
<text xml:space="preserve" text-anchor="middle" x="558.88" y="-5.75" font-family="Helvetica,sans-Serif" font-size="10.00">::EmbeddedSystemXState</text>
</a>
</g>
</g>
<!-- Node3&#45;&gt;Node4 -->
<g id="edge3_Node000003_Node000004" class="edge">
<title>Node3&#45;&gt;Node4</title>
<g id="a_edge3_Node000003_Node000004"><a xlink:title=" ">
<path fill="none" stroke="#63b8ff" d="M456.85,-15.25C464.77,-15.25 472.91,-15.25 480.97,-15.25"/>
<polygon fill="#63b8ff" stroke="#63b8ff" points="480.77,-18.75 490.77,-15.25 480.77,-11.75 480.77,-18.75"/>
</a>
</g>
</g>
</g>
</svg>
