<?xml version="1.0" encoding="UTF-8" standalone="no"?>
<!DOCTYPE svg PUBLIC "-//W3C//DTD SVG 1.1//EN"
 "http://www.w3.org/Graphics/SVG/1.1/DTD/svg11.dtd">
<!-- Generated by graphviz version 14.0.4 (20251115.1723)
 -->
<!-- Title: ReadyState::start Pages: 1 -->
<svg width="632pt" height="39pt"
 viewBox="0.00 0.00 632.00 39.00" xmlns="http://www.w3.org/2000/svg" xmlns:xlink="http://www.w3.org/1999/xlink">
<g id="graph0" class="graph" transform="scale(1 1) rotate(0) translate(4 34.5)">
<title>ReadyState::start</title>
<!-- Node1 -->
<g id="Node000001" class="node">
<title>Node1</title>
<g id="a_Node000001"><a xlink:title=" ">
<polygon fill="#999999" stroke="#666666" points="93.25,-24.88 0,-24.88 0,-5.63 93.25,-5.63 93.25,-24.88"/>
<text xml:space="preserve" text-anchor="middle" x="46.62" y="-11.38" font-family="Helvetica,sans-Serif" font-size="10.00">ReadyState::start</text>
</a>
</g>
</g>
<!-- Node2 -->
<g id="Node000002" class="node">
<title>Node2</title>
<g id="a_Node000002"><a xlink:href="class_operational_state.html#a6ff26e3449b8162a35c0a7e8223c799d" target="_top" xlink:title=" ">
<polygon fill="white" stroke="#666666" points="275,-24.88 129.25,-24.88 129.25,-5.63 275,-5.63 275,-24.88"/>
<text xml:space="preserve" text-anchor="middle" x="202.12" y="-11.38" font-family="Helvetica,sans-Serif" font-size="10.00">OperationalState::getInstance</text>
</a>
</g>
</g>
<!-- Node1&#45;&gt;Node2 -->
<g id="edge1_Node000001_Node000002" class="edge">
<title>Node1&#45;&gt;Node2</title>
<g id="a_edge1_Node000001_Node000002"><a xlink:title=" ">
<path fill="none" stroke="#63b8ff" d="M93.68,-15.25C101.33,-15.25 109.47,-15.25 117.71,-15.25"/>
<polygon fill="#63b8ff" stroke="#63b8ff" points="117.46,-18.75 127.46,-15.25 117.46,-11.75 117.46,-18.75"/>
</a>
</g>
</g>
<!-- Node3 -->
<g id="Node000003" class="node">
<title>Node3</title>
<g id="a_Node000003"><a xlink:href="class_operational_state.html#ae3abfc6d0545ae4e82369b73e745f224" target="_top" xlink:title=" ">
<polygon fill="white" stroke="#666666" points="455.25,-30.5 311,-30.5 311,0 455.25,0 455.25,-30.5"/>
<text xml:space="preserve" text-anchor="start" x="319" y="-17" font-family="Helvetica,sans-Serif" font-size="10.00">OperationalState::Operational</text>
<text xml:space="preserve" text-anchor="middle" x="383.12" y="-5.75" font-family="Helvetica,sans-Serif" font-size="10.00">State</text>
</a>
</g>
</g>
<!-- Node2&#45;&gt;Node3 -->
<g id="edge2_Node000002_Node000003" class="edge">
<title>Node2&#45;&gt;Node3</title>
<g id="a_edge2_Node000002_Node000003"><a xlink:title=" ">
<path fill="none" stroke="#63b8ff" d="M275.42,-15.25C283.33,-15.25 291.43,-15.25 299.46,-15.25"/>
<polygon fill="#63b8ff" stroke="#63b8ff" points="299.21,-18.75 309.21,-15.25 299.21,-11.75 299.21,-18.75"/>
</a>
</g>
</g>
<!-- Node4 -->
<g id="Node000004" class="node">
<title>Node4</title>
<g id="a_Node000004"><a xlink:href="class_embedded_system_x_state.html#a5630d67a88100d0e67c1578a7ee43e91" target="_top" xlink:title=" ">
<polygon fill="white" stroke="#666666" points="623.5,-30.5 491.25,-30.5 491.25,0 623.5,0 623.5,-30.5"/>
<text xml:space="preserve" text-anchor="start" x="499.25" y="-17" font-family="Helvetica,sans-Serif" font-size="10.00">EmbeddedSystemXState</text>
<text xml:space="preserve" text-anchor="middle" x="557.38" y="-5.75" font-family="Helvetica,sans-Serif" font-size="10.00">::EmbeddedSystemXState</text>
</a>
</g>
</g>
<!-- Node3&#45;&gt;Node4 -->
<g id="edge3_Node000003_Node000004" class="edge">
<title>Node3&#45;&gt;Node4</title>
<g id="a_edge3_Node000003_Node000004"><a xlink:title=" ">
<path fill="none" stroke="#63b8ff" d="M455.68,-15.25C463.5,-15.25 471.49,-15.25 479.38,-15.25"/>
<polygon fill="#63b8ff" stroke="#63b8ff" points="479.32,-18.75 489.32,-15.25 479.32,-11.75 479.32,-18.75"/>
</a>
</g>
</g>
</g>
</svg>
