<?xml version="1.0" encoding="UTF-8" standalone="no"?>
<!DOCTYPE svg PUBLIC "-//W3C//DTD SVG 1.1//EN"
 "http://www.w3.org/Graphics/SVG/1.1/DTD/svg11.dtd">
<!-- Generated by graphviz version 14.0.4 (20251115.1723)
 -->
<!-- Title: Mode1State Pages: 1 -->
<svg width="386pt" height="282pt"
 viewBox="0.00 0.00 386.00 282.00" xmlns="http://www.w3.org/2000/svg" xmlns:xlink="http://www.w3.org/1999/xlink">

<svg id="main" version="1.1" xmlns="http://www.w3.org/2000/svg" xmlns:xlink="http://www.w3.org/1999/xlink" xml:space="preserve">

<style type="text/css"><![CDATA[
.node, .edge {opacity: 0.7;}
.node.selected, .edge.selected {opacity: 1;}
.edge:hover path { stroke: red; }
.edge:hover polygon { stroke: red; fill: red; }
]]></style>
<script type="application/ecmascript" xlink:href="svg.min.js"/>
<svg id="graph" class="graph">
<g id="graph0" class="graph" transform="scale(1 1) rotate(0) translate(4 278)">
<title>Mode1State</title>
<!-- Node1 -->
<g id="Node000001" class="node">
<title>Node1</title>
<g id="a_Node000001"><a xlink:title=" ">
<polygon fill="#999999" stroke="none" points="161.25,-110.38 0,-110.38 0,-7.63 161.25,-7.63 161.25,-110.38"/>
<text xml:space="preserve" text-anchor="start" x="54.38" y="-96.88" font-family="Helvetica,sans-Serif" font-size="10.00">Mode1State</text>
<text xml:space="preserve" text-anchor="start" x="79.12" y="-81.62" font-family="Helvetica,sans-Serif" font-size="10.00"> </text>
<text xml:space="preserve" text-anchor="start" x="4" y="-66.38" font-family="Helvetica,sans-Serif" font-size="10.00">+</text>
<text xml:space="preserve" text-anchor="start" x="14" y="-66.38" font-family="Helvetica,sans-Serif" font-size="10.00">void eventX() override</text>
<text xml:space="preserve" text-anchor="start" x="4" y="-51.12" font-family="Helvetica,sans-Serif" font-size="10.00">+</text>
<text xml:space="preserve" text-anchor="start" x="14" y="-51.12" font-family="Helvetica,sans-Serif" font-size="10.00">static Mode1State *</text>
<text xml:space="preserve" text-anchor="start" x="14" y="-39.88" font-family="Helvetica,sans-Serif" font-size="10.00"> getInstance(RealTimeLoop *ctx)</text>
<text xml:space="preserve" text-anchor="start" x="5.5" y="-24.62" font-family="Helvetica,sans-Serif" font-size="10.00">&#45;</text>
<text xml:space="preserve" text-anchor="start" x="14" y="-24.62" font-family="Helvetica,sans-Serif" font-size="10.00">Mode1State(RealTimeLoop</text>
<text xml:space="preserve" text-anchor="start" x="14" y="-13.38" font-family="Helvetica,sans-Serif" font-size="10.00"> *ctx)</text>
<polygon fill="#666666" stroke="#666666" points="0,-93.12 0,-93.12 161.25,-93.12 161.25,-93.12 0,-93.12"/>
<polygon fill="#666666" stroke="#666666" points="0,-77.88 0,-77.88 161.25,-77.88 161.25,-77.88 0,-77.88"/>
<polygon fill="none" stroke="#666666" points="0,-7.62 0,-110.38 161.25,-110.38 161.25,-7.62 0,-7.62"/>
</a>
</g>
</g>
<!-- Node1&#45;&gt;Node1 -->
<g id="edge4_Node000001_Node000001" class="edge">
<title>Node1&#45;&gt;Node1</title>
<g id="a_edge4_Node000001_Node000001"><a xlink:title=" ">
<path fill="none" stroke="#63b8ff" d="M161.11,-73.24C172,-70.86 179.25,-66.11 179.25,-59 179.25,-55 176.96,-51.75 173.01,-49.25"/>
<polygon fill="none" stroke="#63b8ff" points="173.19,-49.31 166.16,-50.94 161.96,-45.08 168.98,-43.45 173.19,-49.31"/>
</a>
</g>
<text xml:space="preserve" text-anchor="start" x="182.25" y="-55.12" font-family="Helvetica,sans-Serif" font-size="10.00" fill="grey">&#45;instance</text>
</g>
<!-- Node2 -->
<g id="Node000002" class="node">
<title>Node2</title>
<g id="a_Node000002"><a xlink:href="class_real_time_loop_state.html" target="_top" xlink:title=" ">
<polygon fill="white" stroke="none" points="294.38,-274 154.88,-274 154.88,-171.25 294.38,-171.25 294.38,-274"/>
<text xml:space="preserve" text-anchor="start" x="181.5" y="-260.5" font-family="Helvetica,sans-Serif" font-size="10.00">RealTimeLoopState</text>
<text xml:space="preserve" text-anchor="start" x="223.12" y="-245.25" font-family="Helvetica,sans-Serif" font-size="10.00"> </text>
<text xml:space="preserve" text-anchor="start" x="158.88" y="-230" font-family="Helvetica,sans-Serif" font-size="10.00">+</text>
<text xml:space="preserve" text-anchor="start" x="168.88" y="-230" font-family="Helvetica,sans-Serif" font-size="10.00">RealTimeLoopState</text>
<text xml:space="preserve" text-anchor="start" x="168.88" y="-218.75" font-family="Helvetica,sans-Serif" font-size="10.00">(RealTimeLoop *ctx)</text>
<text xml:space="preserve" text-anchor="start" x="158.88" y="-203.5" font-family="Helvetica,sans-Serif" font-size="10.00">+</text>
<text xml:space="preserve" text-anchor="start" x="168.88" y="-203.5" font-family="Helvetica,sans-Serif" font-size="10.00">virtual ~RealTimeLoopState</text>
<text xml:space="preserve" text-anchor="start" x="168.88" y="-192.25" font-family="Helvetica,sans-Serif" font-size="10.00">()=default</text>
<text xml:space="preserve" text-anchor="start" x="158.88" y="-177" font-family="Helvetica,sans-Serif" font-size="10.00">+</text>
<text xml:space="preserve" text-anchor="start" x="168.88" y="-177" font-family="Helvetica,sans-Serif" font-size="10.00">virtual void eventX()=0</text>
<polygon fill="#666666" stroke="#666666" points="154.88,-256.75 154.88,-256.75 294.38,-256.75 294.38,-256.75 154.88,-256.75"/>
<polygon fill="#666666" stroke="#666666" points="154.88,-241.5 154.88,-241.5 294.38,-241.5 294.38,-241.5 154.88,-241.5"/>
<polygon fill="none" stroke="#666666" points="154.88,-171.25 154.88,-274 294.38,-274 294.38,-171.25 154.88,-171.25"/>
</a>
</g>
</g>
<!-- Node2&#45;&gt;Node1 -->
<g id="edge1_Node000001_Node000002" class="edge">
<title>Node2&#45;&gt;Node1</title>
<g id="a_edge1_Node000001_Node000002"><a xlink:title=" ">
<path fill="none" stroke="#63b8ff" d="M172.4,-163.01C156.99,-145.71 140.27,-126.94 125.37,-110.22"/>
<polygon fill="none" stroke="#63b8ff" points="169.58,-165.1 178.85,-170.24 174.81,-160.45 169.58,-165.1"/>
</a>
</g>
</g>
<!-- Node3 -->
<g id="Node000003" class="node">
<title>Node3</title>
<g id="a_Node000003"><a xlink:href="class_real_time_loop.html" target="_top" xlink:title=" ">
<polygon fill="white" stroke="none" points="377.75,-118 243.5,-118 243.5,0 377.75,0 377.75,-118"/>
<text xml:space="preserve" text-anchor="start" x="279.12" y="-104.5" font-family="Helvetica,sans-Serif" font-size="10.00">RealTimeLoop</text>
<text xml:space="preserve" text-anchor="start" x="309.12" y="-89.25" font-family="Helvetica,sans-Serif" font-size="10.00"> </text>
<text xml:space="preserve" text-anchor="start" x="247.5" y="-74" font-family="Helvetica,sans-Serif" font-size="10.00">+</text>
<text xml:space="preserve" text-anchor="start" x="257.5" y="-74" font-family="Helvetica,sans-Serif" font-size="10.00">RealTimeLoop()</text>
<text xml:space="preserve" text-anchor="start" x="247.5" y="-58.75" font-family="Helvetica,sans-Serif" font-size="10.00">+</text>
<text xml:space="preserve" text-anchor="start" x="257.5" y="-58.75" font-family="Helvetica,sans-Serif" font-size="10.00">void changeMode(int</text>
<text xml:space="preserve" text-anchor="start" x="257.5" y="-47.5" font-family="Helvetica,sans-Serif" font-size="10.00"> modeNumber)</text>
<text xml:space="preserve" text-anchor="start" x="247.5" y="-32.25" font-family="Helvetica,sans-Serif" font-size="10.00">+</text>
<text xml:space="preserve" text-anchor="start" x="257.5" y="-32.25" font-family="Helvetica,sans-Serif" font-size="10.00">void eventX()</text>
<text xml:space="preserve" text-anchor="start" x="247.5" y="-17" font-family="Helvetica,sans-Serif" font-size="10.00">+</text>
<text xml:space="preserve" text-anchor="start" x="257.5" y="-17" font-family="Helvetica,sans-Serif" font-size="10.00">std::string getCurrentMode</text>
<text xml:space="preserve" text-anchor="start" x="257.5" y="-5.75" font-family="Helvetica,sans-Serif" font-size="10.00">() const</text>
<polygon fill="#666666" stroke="#666666" points="243.5,-100.75 243.5,-100.75 377.75,-100.75 377.75,-100.75 243.5,-100.75"/>
<polygon fill="#666666" stroke="#666666" points="243.5,-85.5 243.5,-85.5 377.75,-85.5 377.75,-85.5 243.5,-85.5"/>
<polygon fill="none" stroke="#666666" points="243.5,0 243.5,-118 377.75,-118 377.75,0 243.5,0"/>
</a>
</g>
</g>
<!-- Node2&#45;&gt;Node3 -->
<g id="edge3_Node000003_Node000002" class="edge">
<title>Node2&#45;&gt;Node3</title>
<g id="a_edge3_Node000003_Node000002"><a xlink:title=" ">
<path fill="none" stroke="#63b8ff" d="M215.26,-171.63C215.03,-159.53 216.58,-146.94 221.62,-136 223.73,-131.43 228.35,-125.79 234.43,-119.66"/>
<polygon fill="none" stroke="#63b8ff" points="234.16,-119.92 235.77,-112.89 242.88,-111.67 241.27,-118.7 234.16,-119.92"/>
</a>
</g>
<text xml:space="preserve" text-anchor="start" x="224.62" y="-140.75" font-family="Helvetica,sans-Serif" font-size="10.00" fill="grey">&#45;currentMode</text>
</g>
<!-- Node3&#45;&gt;Node2 -->
<g id="edge2_Node000002_Node000003" class="edge">
<title>Node3&#45;&gt;Node2</title>
<g id="a_edge2_Node000002_Node000003"><a xlink:title=" ">
<path fill="none" stroke="#63b8ff" d="M301.89,-117.93C298.73,-130.03 294.44,-142.4 288.62,-153.25 287.2,-155.91 285.64,-158.54 283.98,-161.14"/>
<polygon fill="none" stroke="#63b8ff" points="284.06,-161.03 283.89,-168.24 277.17,-170.85 277.34,-163.64 284.06,-161.03"/>
</a>
</g>
<text xml:space="preserve" text-anchor="start" x="299.05" y="-140.75" font-family="Helvetica,sans-Serif" font-size="10.00" fill="grey">#context</text>
</g>
</g>
</svg>
</svg>

<style type='text/css'>
<![CDATA[
[data-mouse-over-selected='false'] { opacity: 0.7; }
[data-mouse-over-selected='true']  { opacity: 1.0; }
]]>
</style>
<script type="application/ecmascript"><![CDATA[
document.addEventListener('DOMContentLoaded', (event) => {
  highlightEdges();
  highlightAdjacentNodes();
});
]]></script>
</svg>
