<?xml version="1.0" encoding="UTF-8" standalone="no"?>
<!DOCTYPE svg PUBLIC "-//W3C//DTD SVG 1.1//EN"
 "http://www.w3.org/Graphics/SVG/1.1/DTD/svg11.dtd">
<!-- Generated by graphviz version 14.0.4 (20251115.1723)
 -->
<!-- Title: SuspendedState::SuspendedState Pages: 1 -->
<svg width="499pt" height="76pt"
 viewBox="0.00 0.00 499.00 76.00" xmlns="http://www.w3.org/2000/svg" xmlns:xlink="http://www.w3.org/1999/xlink">
<g id="graph0" class="graph" transform="scale(1 1) rotate(0) translate(4 71.88)">
<title>SuspendedState::SuspendedState</title>
<!-- Node1 -->
<g id="Node000001" class="node">
<title>Node1</title>
<g id="a_Node000001"><a xlink:title=" ">
<polygon fill="#999999" stroke="#666666" points="491.25,-51.5 348.5,-51.5 348.5,-21 491.25,-21 491.25,-51.5"/>
<text xml:space="preserve" text-anchor="start" x="356.5" y="-38" font-family="Helvetica,sans-Serif" font-size="10.00">SuspendedState::Suspended</text>
<text xml:space="preserve" text-anchor="middle" x="419.88" y="-26.75" font-family="Helvetica,sans-Serif" font-size="10.00">State</text>
</a>
</g>
</g>
<!-- Node2 -->
<g id="Node000002" class="node">
<title>Node2</title>
<g id="a_Node000002"><a xlink:href="class_suspended_state.html#a7c5ac4f52a44311e301be89e4c8b8bf0" target="_top" xlink:title=" ">
<polygon fill="white" stroke="#666666" points="312.5,-45.88 167.5,-45.88 167.5,-26.62 312.5,-26.62 312.5,-45.88"/>
<text xml:space="preserve" text-anchor="middle" x="240" y="-32.38" font-family="Helvetica,sans-Serif" font-size="10.00">SuspendedState::getInstance</text>
</a>
</g>
</g>
<!-- Node1&#45;&gt;Node2 -->
<g id="edge1_Node000001_Node000002" class="edge">
<title>Node1&#45;&gt;Node2</title>
<g id="a_edge1_Node000001_Node000002"><a xlink:title=" ">
<path fill="none" stroke="#63b8ff" d="M336.79,-36.25C328.75,-36.25 320.65,-36.25 312.73,-36.25"/>
<polygon fill="#63b8ff" stroke="#63b8ff" points="336.55,-39.75 346.55,-36.25 336.55,-32.75 336.55,-39.75"/>
</a>
</g>
</g>
<!-- Node3 -->
<g id="Node000003" class="node">
<title>Node3</title>
<g id="a_Node000003"><a xlink:href="class_operational_state.html#ac442e55c4f713d7c7cbe036cdc490102" target="_top" xlink:title=" ">
<polygon fill="white" stroke="#666666" points="131.5,-67.88 0,-67.88 0,-48.62 131.5,-48.62 131.5,-67.88"/>
<text xml:space="preserve" text-anchor="middle" x="65.75" y="-54.38" font-family="Helvetica,sans-Serif" font-size="10.00">OperationalState::suspend</text>
</a>
</g>
</g>
<!-- Node2&#45;&gt;Node3 -->
<g id="edge2_Node000002_Node000003" class="edge">
<title>Node2&#45;&gt;Node3</title>
<g id="a_edge2_Node000002_Node000003"><a xlink:title=" ">
<path fill="none" stroke="#63b8ff" d="M156.27,-46.82C148.04,-47.87 139.76,-48.92 131.75,-49.95"/>
<polygon fill="#63b8ff" stroke="#63b8ff" points="156.47,-50.32 165.95,-45.58 155.58,-43.38 156.47,-50.32"/>
</a>
</g>
</g>
<!-- Node4 -->
<g id="Node000004" class="node">
<title>Node4</title>
<g id="a_Node000004"><a xlink:href="class_real_time_loop_outer_state.html#ad38a02f7799b345e521974f80d0784f3" target="_top" xlink:title=" ">
<polygon fill="white" stroke="#666666" points="128.88,-30.5 2.62,-30.5 2.62,0 128.88,0 128.88,-30.5"/>
<text xml:space="preserve" text-anchor="start" x="10.62" y="-17" font-family="Helvetica,sans-Serif" font-size="10.00">RealTimeLoopOuterState</text>
<text xml:space="preserve" text-anchor="middle" x="65.75" y="-5.75" font-family="Helvetica,sans-Serif" font-size="10.00">::suspend</text>
</a>
</g>
</g>
<!-- Node2&#45;&gt;Node4 -->
<g id="edge3_Node000002_Node000004" class="edge">
<title>Node2&#45;&gt;Node4</title>
<g id="a_edge3_Node000002_Node000004"><a xlink:title=" ">
<path fill="none" stroke="#63b8ff" d="M156.08,-26.14C147.07,-25.04 138.01,-23.94 129.3,-22.88"/>
<polygon fill="#63b8ff" stroke="#63b8ff" points="155.59,-29.61 165.94,-27.34 156.44,-22.66 155.59,-29.61"/>
</a>
</g>
</g>
</g>
</svg>
