<?xml version="1.0" encoding="UTF-8" standalone="no"?>
<!DOCTYPE svg PUBLIC "-//W3C//DTD SVG 1.1//EN"
 "http://www.w3.org/Graphics/SVG/1.1/DTD/svg11.dtd">
<!-- Generated by graphviz version 14.0.4 (20251115.1723)
 -->
<!-- Title: FailureState::restart Pages: 1 -->
<svg width="588pt" height="39pt"
 viewBox="0.00 0.00 588.00 39.00" xmlns="http://www.w3.org/2000/svg" xmlns:xlink="http://www.w3.org/1999/xlink">
<g id="graph0" class="graph" transform="scale(1 1) rotate(0) translate(4 34.5)">
<title>FailureState::restart</title>
<!-- Node1 -->
<g id="Node000001" class="node">
<title>Node1</title>
<g id="a_Node000001"><a xlink:title=" ">
<polygon fill="#999999" stroke="#666666" points="102.25,-24.88 0,-24.88 0,-5.63 102.25,-5.63 102.25,-24.88"/>
<text xml:space="preserve" text-anchor="middle" x="51.12" y="-11.38" font-family="Helvetica,sans-Serif" font-size="10.00">FailureState::restart</text>
</a>
</g>
</g>
<!-- Node2 -->
<g id="Node000002" class="node">
<title>Node2</title>
<g id="a_Node000002"><a xlink:href="class_power_on_self_test_state.html#ae152baf800ee583b4c4c0c5ca16aa904" target="_top" xlink:title=" ">
<polygon fill="white" stroke="#666666" points="254,-30.5 138.25,-30.5 138.25,0 254,0 254,-30.5"/>
<text xml:space="preserve" text-anchor="start" x="146.25" y="-17" font-family="Helvetica,sans-Serif" font-size="10.00">PowerOnSelfTestState</text>
<text xml:space="preserve" text-anchor="middle" x="196.12" y="-5.75" font-family="Helvetica,sans-Serif" font-size="10.00">::getInstance</text>
</a>
</g>
</g>
<!-- Node1&#45;&gt;Node2 -->
<g id="edge1_Node000001_Node000002" class="edge">
<title>Node1&#45;&gt;Node2</title>
<g id="a_edge1_Node000001_Node000002"><a xlink:title=" ">
<path fill="none" stroke="#63b8ff" d="M102.54,-15.25C110.3,-15.25 118.43,-15.25 126.5,-15.25"/>
<polygon fill="#63b8ff" stroke="#63b8ff" points="126.33,-18.75 136.33,-15.25 126.33,-11.75 126.33,-18.75"/>
</a>
</g>
</g>
<!-- Node3 -->
<g id="Node000003" class="node">
<title>Node3</title>
<g id="a_Node000003"><a xlink:href="class_power_on_self_test_state.html#a1020e4af5a2b23ac1c6236d9ca2a71b0" target="_top" xlink:title=" ">
<polygon fill="white" stroke="#666666" points="411.75,-30.5 290,-30.5 290,0 411.75,0 411.75,-30.5"/>
<text xml:space="preserve" text-anchor="start" x="298" y="-17" font-family="Helvetica,sans-Serif" font-size="10.00">PowerOnSelfTestState</text>
<text xml:space="preserve" text-anchor="middle" x="350.88" y="-5.75" font-family="Helvetica,sans-Serif" font-size="10.00">::PowerOnSelfTestState</text>
</a>
</g>
</g>
<!-- Node2&#45;&gt;Node3 -->
<g id="edge2_Node000002_Node000003" class="edge">
<title>Node2&#45;&gt;Node3</title>
<g id="a_edge2_Node000002_Node000003"><a xlink:title=" ">
<path fill="none" stroke="#63b8ff" d="M254.44,-15.25C262.26,-15.25 270.37,-15.25 278.41,-15.25"/>
<polygon fill="#63b8ff" stroke="#63b8ff" points="278.18,-18.75 288.18,-15.25 278.18,-11.75 278.18,-18.75"/>
</a>
</g>
</g>
<!-- Node4 -->
<g id="Node000004" class="node">
<title>Node4</title>
<g id="a_Node000004"><a xlink:href="class_embedded_system_x_state.html#a5630d67a88100d0e67c1578a7ee43e91" target="_top" xlink:title=" ">
<polygon fill="white" stroke="#666666" points="580,-30.5 447.75,-30.5 447.75,0 580,0 580,-30.5"/>
<text xml:space="preserve" text-anchor="start" x="455.75" y="-17" font-family="Helvetica,sans-Serif" font-size="10.00">EmbeddedSystemXState</text>
<text xml:space="preserve" text-anchor="middle" x="513.88" y="-5.75" font-family="Helvetica,sans-Serif" font-size="10.00">::EmbeddedSystemXState</text>
</a>
</g>
</g>
<!-- Node3&#45;&gt;Node4 -->
<g id="edge3_Node000003_Node000004" class="edge">
<title>Node3&#45;&gt;Node4</title>
<g id="a_edge3_Node000003_Node000004"><a xlink:title=" ">
<path fill="none" stroke="#63b8ff" d="M411.83,-15.25C419.73,-15.25 427.91,-15.25 436.04,-15.25"/>
<polygon fill="#63b8ff" stroke="#63b8ff" points="435.96,-18.75 445.96,-15.25 435.96,-11.75 435.96,-18.75"/>
</a>
</g>
</g>
</g>
</svg>
