<?xml version="1.0" encoding="UTF-8" standalone="no"?>
<!DOCTYPE svg PUBLIC "-//W3C//DTD SVG 1.1//EN"
 "http://www.w3.org/Graphics/SVG/1.1/DTD/svg11.dtd">
<!-- Generated by graphviz version 14.0.4 (20251115.1723)
 -->
<!-- Title: State_of_machine Pages: 1 -->
<svg width="292pt" height="246pt"
 viewBox="0.00 0.00 292.00 246.00" xmlns="http://www.w3.org/2000/svg" xmlns:xlink="http://www.w3.org/1999/xlink">
<g id="graph0" class="graph" transform="scale(1 1) rotate(0) translate(4 241.5)">
<title>State_of_machine</title>
<!-- Node1 -->
<g id="Node000001" class="node">
<title>Node1</title>
<g id="a_Node000001"><a xlink:title=" ">
<polygon fill="#999999" stroke="none" points="204,-237.5 78.75,-237.5 78.75,-127.5 204,-127.5 204,-237.5"/>
<text xml:space="preserve" text-anchor="start" x="102" y="-224" font-family="Helvetica,sans-Serif" font-size="10.00">State_of_machine</text>
<text xml:space="preserve" text-anchor="start" x="139.88" y="-208.75" font-family="Helvetica,sans-Serif" font-size="10.00"> </text>
<text xml:space="preserve" text-anchor="start" x="82.75" y="-193.5" font-family="Helvetica,sans-Serif" font-size="10.00">+</text>
<text xml:space="preserve" text-anchor="start" x="92.75" y="-193.5" font-family="Helvetica,sans-Serif" font-size="10.00">virtual void ON_upon</text>
<text xml:space="preserve" text-anchor="start" x="92.75" y="-182.25" font-family="Helvetica,sans-Serif" font-size="10.00">_request(Machine *given</text>
<text xml:space="preserve" text-anchor="start" x="92.75" y="-171" font-family="Helvetica,sans-Serif" font-size="10.00">_machine)</text>
<text xml:space="preserve" text-anchor="start" x="82.75" y="-155.75" font-family="Helvetica,sans-Serif" font-size="10.00">+</text>
<text xml:space="preserve" text-anchor="start" x="92.75" y="-155.75" font-family="Helvetica,sans-Serif" font-size="10.00">virtual void OFF_upon</text>
<text xml:space="preserve" text-anchor="start" x="92.75" y="-144.5" font-family="Helvetica,sans-Serif" font-size="10.00">_request(Machine *given</text>
<text xml:space="preserve" text-anchor="start" x="92.75" y="-133.25" font-family="Helvetica,sans-Serif" font-size="10.00">_machine)</text>
<polygon fill="#666666" stroke="#666666" points="78.75,-220.25 78.75,-220.25 204,-220.25 204,-220.25 78.75,-220.25"/>
<polygon fill="#666666" stroke="#666666" points="78.75,-205 78.75,-205 204,-205 204,-205 78.75,-205"/>
<polygon fill="none" stroke="#666666" points="78.75,-127.5 78.75,-237.5 204,-237.5 204,-127.5 78.75,-127.5"/>
</a>
</g>
</g>
<!-- Node2 -->
<g id="Node000002" class="node">
<title>Node2</title>
<g id="a_Node000002"><a xlink:href="class_specific__state___o_f_f.html" target="_top" xlink:title=" ">
<polygon fill="white" stroke="none" points="132.75,-91.5 0,-91.5 0,0 132.75,0 132.75,-91.5"/>
<text xml:space="preserve" text-anchor="start" x="22.88" y="-78" font-family="Helvetica,sans-Serif" font-size="10.00">Specific_state_OFF</text>
<text xml:space="preserve" text-anchor="start" x="64.88" y="-62.75" font-family="Helvetica,sans-Serif" font-size="10.00"> </text>
<text xml:space="preserve" text-anchor="start" x="4" y="-47.5" font-family="Helvetica,sans-Serif" font-size="10.00">+</text>
<text xml:space="preserve" text-anchor="start" x="14" y="-47.5" font-family="Helvetica,sans-Serif" font-size="10.00">Specific_state_OFF()</text>
<text xml:space="preserve" text-anchor="start" x="4" y="-32.25" font-family="Helvetica,sans-Serif" font-size="10.00">+</text>
<text xml:space="preserve" text-anchor="start" x="14" y="-32.25" font-family="Helvetica,sans-Serif" font-size="10.00">~Specific_state_OFF()</text>
<text xml:space="preserve" text-anchor="start" x="4" y="-17" font-family="Helvetica,sans-Serif" font-size="10.00">+</text>
<text xml:space="preserve" text-anchor="start" x="14" y="-17" font-family="Helvetica,sans-Serif" font-size="10.00">void ON_upon_request</text>
<text xml:space="preserve" text-anchor="start" x="14" y="-5.75" font-family="Helvetica,sans-Serif" font-size="10.00">(Machine *given_machine)</text>
<polygon fill="#666666" stroke="#666666" points="0,-74.25 0,-74.25 132.75,-74.25 132.75,-74.25 0,-74.25"/>
<polygon fill="#666666" stroke="#666666" points="0,-59 0,-59 132.75,-59 132.75,-59 0,-59"/>
<polygon fill="none" stroke="#666666" points="0,0 0,-91.5 132.75,-91.5 132.75,0 0,0"/>
</a>
</g>
</g>
<!-- Node1&#45;&gt;Node2 -->
<g id="edge1_Node000001_Node000002" class="edge">
<title>Node1&#45;&gt;Node2</title>
<g id="a_edge1_Node000001_Node000002"><a xlink:title=" ">
<path fill="none" stroke="#63b8ff" d="M106.06,-118.05C100.99,-108.94 95.87,-99.74 91.07,-91.12"/>
<polygon fill="none" stroke="#63b8ff" points="102.86,-119.5 110.78,-126.53 108.98,-116.09 102.86,-119.5"/>
</a>
</g>
</g>
<!-- Node3 -->
<g id="Node000003" class="node">
<title>Node3</title>
<g id="a_Node000003"><a xlink:href="class_specific__state___o_n.html" target="_top" xlink:title=" ">
<polygon fill="white" stroke="none" points="283.75,-91.5 151,-91.5 151,0 283.75,0 283.75,-91.5"/>
<text xml:space="preserve" text-anchor="start" x="176.12" y="-78" font-family="Helvetica,sans-Serif" font-size="10.00">Specific_state_ON</text>
<text xml:space="preserve" text-anchor="start" x="215.88" y="-62.75" font-family="Helvetica,sans-Serif" font-size="10.00"> </text>
<text xml:space="preserve" text-anchor="start" x="155" y="-47.5" font-family="Helvetica,sans-Serif" font-size="10.00">+</text>
<text xml:space="preserve" text-anchor="start" x="165" y="-47.5" font-family="Helvetica,sans-Serif" font-size="10.00">Specific_state_ON()</text>
<text xml:space="preserve" text-anchor="start" x="155" y="-32.25" font-family="Helvetica,sans-Serif" font-size="10.00">+</text>
<text xml:space="preserve" text-anchor="start" x="165" y="-32.25" font-family="Helvetica,sans-Serif" font-size="10.00">~Specific_state_ON()</text>
<text xml:space="preserve" text-anchor="start" x="155" y="-17" font-family="Helvetica,sans-Serif" font-size="10.00">+</text>
<text xml:space="preserve" text-anchor="start" x="165" y="-17" font-family="Helvetica,sans-Serif" font-size="10.00">void OFF_upon_request</text>
<text xml:space="preserve" text-anchor="start" x="165" y="-5.75" font-family="Helvetica,sans-Serif" font-size="10.00">(Machine *given_machine)</text>
<polygon fill="#666666" stroke="#666666" points="151,-74.25 151,-74.25 283.75,-74.25 283.75,-74.25 151,-74.25"/>
<polygon fill="#666666" stroke="#666666" points="151,-59 151,-59 283.75,-59 283.75,-59 151,-59"/>
<polygon fill="none" stroke="#666666" points="151,0 151,-91.5 283.75,-91.5 283.75,0 151,0"/>
</a>
</g>
</g>
<!-- Node1&#45;&gt;Node3 -->
<g id="edge2_Node000001_Node000003" class="edge">
<title>Node1&#45;&gt;Node3</title>
<g id="a_edge2_Node000001_Node000003"><a xlink:title=" ">
<path fill="none" stroke="#63b8ff" d="M177.16,-118.05C182.3,-108.94 187.49,-99.74 192.35,-91.12"/>
<polygon fill="none" stroke="#63b8ff" points="174.24,-116.11 172.37,-126.54 180.34,-119.55 174.24,-116.11"/>
</a>
</g>
</g>
</g>
</svg>
