<?xml version="1.0" encoding="UTF-8" standalone="no"?>
<!DOCTYPE svg PUBLIC "-//W3C//DTD SVG 1.1//EN"
 "http://www.w3.org/Graphics/SVG/1.1/DTD/svg11.dtd">
<!-- Generated by graphviz version 14.0.4 (20251115.1723)
 -->
<!-- Title: OperationalState::suspend Pages: 1 -->
<svg width="668pt" height="39pt"
 viewBox="0.00 0.00 668.00 39.00" xmlns="http://www.w3.org/2000/svg" xmlns:xlink="http://www.w3.org/1999/xlink">
<g id="graph0" class="graph" transform="scale(1 1) rotate(0) translate(4 34.5)">
<title>OperationalState::suspend</title>
<!-- Node1 -->
<g id="Node000001" class="node">
<title>Node1</title>
<g id="a_Node000001"><a xlink:title=" ">
<polygon fill="#999999" stroke="#666666" points="131.5,-24.88 0,-24.88 0,-5.63 131.5,-5.63 131.5,-24.88"/>
<text xml:space="preserve" text-anchor="middle" x="65.75" y="-11.38" font-family="Helvetica,sans-Serif" font-size="10.00">OperationalState::suspend</text>
</a>
</g>
</g>
<!-- Node2 -->
<g id="Node000002" class="node">
<title>Node2</title>
<g id="a_Node000002"><a xlink:href="class_suspended_state.html#a7c5ac4f52a44311e301be89e4c8b8bf0" target="_top" xlink:title=" ">
<polygon fill="white" stroke="#666666" points="312.5,-24.88 167.5,-24.88 167.5,-5.63 312.5,-5.63 312.5,-24.88"/>
<text xml:space="preserve" text-anchor="middle" x="240" y="-11.38" font-family="Helvetica,sans-Serif" font-size="10.00">SuspendedState::getInstance</text>
</a>
</g>
</g>
<!-- Node1&#45;&gt;Node2 -->
<g id="edge1_Node000001_Node000002" class="edge">
<title>Node1&#45;&gt;Node2</title>
<g id="a_edge1_Node000001_Node000002"><a xlink:title=" ">
<path fill="none" stroke="#63b8ff" d="M131.87,-15.25C139.71,-15.25 147.79,-15.25 155.84,-15.25"/>
<polygon fill="#63b8ff" stroke="#63b8ff" points="155.65,-18.75 165.65,-15.25 155.65,-11.75 155.65,-18.75"/>
</a>
</g>
</g>
<!-- Node3 -->
<g id="Node000003" class="node">
<title>Node3</title>
<g id="a_Node000003"><a xlink:href="class_suspended_state.html#afcec59fe5067ed66b3d544224ea3d7e6" target="_top" xlink:title=" ">
<polygon fill="white" stroke="#666666" points="491.25,-30.5 348.5,-30.5 348.5,0 491.25,0 491.25,-30.5"/>
<text xml:space="preserve" text-anchor="start" x="356.5" y="-17" font-family="Helvetica,sans-Serif" font-size="10.00">SuspendedState::Suspended</text>
<text xml:space="preserve" text-anchor="middle" x="419.88" y="-5.75" font-family="Helvetica,sans-Serif" font-size="10.00">State</text>
</a>
</g>
</g>
<!-- Node2&#45;&gt;Node3 -->
<g id="edge2_Node000002_Node000003" class="edge">
<title>Node2&#45;&gt;Node3</title>
<g id="a_edge2_Node000002_Node000003"><a xlink:title=" ">
<path fill="none" stroke="#63b8ff" d="M312.84,-15.25C320.77,-15.25 328.88,-15.25 336.93,-15.25"/>
<polygon fill="#63b8ff" stroke="#63b8ff" points="336.7,-18.75 346.7,-15.25 336.7,-11.75 336.7,-18.75"/>
</a>
</g>
</g>
<!-- Node4 -->
<g id="Node000004" class="node">
<title>Node4</title>
<g id="a_Node000004"><a xlink:href="class_embedded_system_x_state.html#a5630d67a88100d0e67c1578a7ee43e91" target="_top" xlink:title=" ">
<polygon fill="white" stroke="#666666" points="659.5,-30.5 527.25,-30.5 527.25,0 659.5,0 659.5,-30.5"/>
<text xml:space="preserve" text-anchor="start" x="535.25" y="-17" font-family="Helvetica,sans-Serif" font-size="10.00">EmbeddedSystemXState</text>
<text xml:space="preserve" text-anchor="middle" x="593.38" y="-5.75" font-family="Helvetica,sans-Serif" font-size="10.00">::EmbeddedSystemXState</text>
</a>
</g>
</g>
<!-- Node3&#45;&gt;Node4 -->
<g id="edge3_Node000003_Node000004" class="edge">
<title>Node3&#45;&gt;Node4</title>
<g id="a_edge3_Node000003_Node000004"><a xlink:title=" ">
<path fill="none" stroke="#63b8ff" d="M491.62,-15.25C499.59,-15.25 507.73,-15.25 515.76,-15.25"/>
<polygon fill="#63b8ff" stroke="#63b8ff" points="515.51,-18.75 525.51,-15.25 515.51,-11.75 515.51,-18.75"/>
</a>
</g>
</g>
</g>
</svg>
