<?xml version="1.0" encoding="UTF-8" standalone="no"?>
<!DOCTYPE svg PUBLIC "-//W3C//DTD SVG 1.1//EN"
 "http://www.w3.org/Graphics/SVG/1.1/DTD/svg11.dtd">
<!-- Generated by graphviz version 14.0.4 (20251115.1723)
 -->
<!-- Title: SuspendedState::getInstance Pages: 1 -->
<svg width="500pt" height="39pt"
 viewBox="0.00 0.00 500.00 39.00" xmlns="http://www.w3.org/2000/svg" xmlns:xlink="http://www.w3.org/1999/xlink">
<g id="graph0" class="graph" transform="scale(1 1) rotate(0) translate(4 34.5)">
<title>SuspendedState::getInstance</title>
<!-- Node1 -->
<g id="Node000001" class="node">
<title>Node1</title>
<g id="a_Node000001"><a xlink:title=" ">
<polygon fill="#999999" stroke="#666666" points="145,-24.88 0,-24.88 0,-5.63 145,-5.63 145,-24.88"/>
<text xml:space="preserve" text-anchor="middle" x="72.5" y="-11.38" font-family="Helvetica,sans-Serif" font-size="10.00">SuspendedState::getInstance</text>
</a>
</g>
</g>
<!-- Node2 -->
<g id="Node000002" class="node">
<title>Node2</title>
<g id="a_Node000002"><a xlink:href="class_suspended_state.html#afcec59fe5067ed66b3d544224ea3d7e6" target="_top" xlink:title=" ">
<polygon fill="white" stroke="#666666" points="323.75,-30.5 181,-30.5 181,0 323.75,0 323.75,-30.5"/>
<text xml:space="preserve" text-anchor="start" x="189" y="-17" font-family="Helvetica,sans-Serif" font-size="10.00">SuspendedState::Suspended</text>
<text xml:space="preserve" text-anchor="middle" x="252.38" y="-5.75" font-family="Helvetica,sans-Serif" font-size="10.00">State</text>
</a>
</g>
</g>
<!-- Node1&#45;&gt;Node2 -->
<g id="edge1_Node000001_Node000002" class="edge">
<title>Node1&#45;&gt;Node2</title>
<g id="a_edge1_Node000001_Node000002"><a xlink:title=" ">
<path fill="none" stroke="#63b8ff" d="M145.34,-15.25C153.27,-15.25 161.38,-15.25 169.43,-15.25"/>
<polygon fill="#63b8ff" stroke="#63b8ff" points="169.2,-18.75 179.2,-15.25 169.2,-11.75 169.2,-18.75"/>
</a>
</g>
</g>
<!-- Node3 -->
<g id="Node000003" class="node">
<title>Node3</title>
<g id="a_Node000003"><a xlink:href="class_embedded_system_x_state.html#a5630d67a88100d0e67c1578a7ee43e91" target="_top" xlink:title=" ">
<polygon fill="white" stroke="#666666" points="492,-30.5 359.75,-30.5 359.75,0 492,0 492,-30.5"/>
<text xml:space="preserve" text-anchor="start" x="367.75" y="-17" font-family="Helvetica,sans-Serif" font-size="10.00">EmbeddedSystemXState</text>
<text xml:space="preserve" text-anchor="middle" x="425.88" y="-5.75" font-family="Helvetica,sans-Serif" font-size="10.00">::EmbeddedSystemXState</text>
</a>
</g>
</g>
<!-- Node2&#45;&gt;Node3 -->
<g id="edge2_Node000002_Node000003" class="edge">
<title>Node2&#45;&gt;Node3</title>
<g id="a_edge2_Node000002_Node000003"><a xlink:title=" ">
<path fill="none" stroke="#63b8ff" d="M324.12,-15.25C332.09,-15.25 340.23,-15.25 348.26,-15.25"/>
<polygon fill="#63b8ff" stroke="#63b8ff" points="348.01,-18.75 358.01,-15.25 348.01,-11.75 348.01,-18.75"/>
</a>
</g>
</g>
</g>
</svg>
