<?xml version="1.0" encoding="UTF-8" standalone="no"?>
<!DOCTYPE svg PUBLIC "-//W3C//DTD SVG 1.1//EN"
 "http://www.w3.org/Graphics/SVG/1.1/DTD/svg11.dtd">
<!-- Generated by graphviz version 14.0.4 (20251115.1723)
 -->
<!-- Title: EmbeddedSystemX Pages: 1 -->
<svg width="321pt" height="803pt"
 viewBox="0.00 0.00 321.00 803.00" xmlns="http://www.w3.org/2000/svg" xmlns:xlink="http://www.w3.org/1999/xlink">
<g id="graph0" class="graph" transform="scale(1 1) rotate(0) translate(4 799.25)">
<title>EmbeddedSystemX</title>
<!-- Node1 -->
<g id="Node000001" class="node">
<title>Node1</title>
<g id="a_Node000001"><a xlink:title=" ">
<polygon fill="#999999" stroke="none" points="154.88,-624 8.62,-624 8.62,-315.75 154.88,-315.75 154.88,-624"/>
<text xml:space="preserve" text-anchor="start" x="38.25" y="-610.5" font-family="Helvetica,sans-Serif" font-size="10.00">EmbeddedSystemX</text>
<text xml:space="preserve" text-anchor="start" x="80.25" y="-595.25" font-family="Helvetica,sans-Serif" font-size="10.00"> </text>
<text xml:space="preserve" text-anchor="start" x="12.62" y="-580" font-family="Helvetica,sans-Serif" font-size="10.00">+</text>
<text xml:space="preserve" text-anchor="start" x="22.62" y="-580" font-family="Helvetica,sans-Serif" font-size="10.00">EmbeddedSystemX()</text>
<text xml:space="preserve" text-anchor="start" x="12.62" y="-564.75" font-family="Helvetica,sans-Serif" font-size="10.00">+</text>
<text xml:space="preserve" text-anchor="start" x="22.62" y="-564.75" font-family="Helvetica,sans-Serif" font-size="10.00">~EmbeddedSystemX()</text>
<text xml:space="preserve" text-anchor="start" x="12.62" y="-549.5" font-family="Helvetica,sans-Serif" font-size="10.00">+</text>
<text xml:space="preserve" text-anchor="start" x="22.62" y="-549.5" font-family="Helvetica,sans-Serif" font-size="10.00">void changeState(Embedded</text>
<text xml:space="preserve" text-anchor="start" x="22.62" y="-538.25" font-family="Helvetica,sans-Serif" font-size="10.00">SystemXState *newState)</text>
<text xml:space="preserve" text-anchor="start" x="12.62" y="-523" font-family="Helvetica,sans-Serif" font-size="10.00">+</text>
<text xml:space="preserve" text-anchor="start" x="22.62" y="-523" font-family="Helvetica,sans-Serif" font-size="10.00">RealTimeLoop * getRealTime</text>
<text xml:space="preserve" text-anchor="start" x="22.62" y="-511.75" font-family="Helvetica,sans-Serif" font-size="10.00">Loop()</text>
<text xml:space="preserve" text-anchor="start" x="12.62" y="-496.5" font-family="Helvetica,sans-Serif" font-size="10.00">+</text>
<text xml:space="preserve" text-anchor="start" x="22.62" y="-496.5" font-family="Helvetica,sans-Serif" font-size="10.00">void selfTestOk()</text>
<text xml:space="preserve" text-anchor="start" x="12.62" y="-481.25" font-family="Helvetica,sans-Serif" font-size="10.00">+</text>
<text xml:space="preserve" text-anchor="start" x="22.62" y="-481.25" font-family="Helvetica,sans-Serif" font-size="10.00">void initialized()</text>
<text xml:space="preserve" text-anchor="start" x="12.62" y="-466" font-family="Helvetica,sans-Serif" font-size="10.00">+</text>
<text xml:space="preserve" text-anchor="start" x="22.62" y="-466" font-family="Helvetica,sans-Serif" font-size="10.00">void restart()</text>
<text xml:space="preserve" text-anchor="start" x="12.62" y="-450.75" font-family="Helvetica,sans-Serif" font-size="10.00">+</text>
<text xml:space="preserve" text-anchor="start" x="22.62" y="-450.75" font-family="Helvetica,sans-Serif" font-size="10.00">void selfTestFailed</text>
<text xml:space="preserve" text-anchor="start" x="22.62" y="-439.5" font-family="Helvetica,sans-Serif" font-size="10.00">(int errorNo)</text>
<text xml:space="preserve" text-anchor="start" x="12.62" y="-424.25" font-family="Helvetica,sans-Serif" font-size="10.00">+</text>
<text xml:space="preserve" text-anchor="start" x="22.62" y="-424.25" font-family="Helvetica,sans-Serif" font-size="10.00">void configure()</text>
<text xml:space="preserve" text-anchor="start" x="12.62" y="-409" font-family="Helvetica,sans-Serif" font-size="10.00">+</text>
<text xml:space="preserve" text-anchor="start" x="22.62" y="-409" font-family="Helvetica,sans-Serif" font-size="10.00">void configurationEnded()</text>
<text xml:space="preserve" text-anchor="start" x="12.62" y="-393.75" font-family="Helvetica,sans-Serif" font-size="10.00">+</text>
<text xml:space="preserve" text-anchor="start" x="22.62" y="-393.75" font-family="Helvetica,sans-Serif" font-size="10.00">void start()</text>
<text xml:space="preserve" text-anchor="start" x="12.62" y="-378.5" font-family="Helvetica,sans-Serif" font-size="10.00">+</text>
<text xml:space="preserve" text-anchor="start" x="22.62" y="-378.5" font-family="Helvetica,sans-Serif" font-size="10.00">void suspend()</text>
<text xml:space="preserve" text-anchor="start" x="12.62" y="-363.25" font-family="Helvetica,sans-Serif" font-size="10.00">+</text>
<text xml:space="preserve" text-anchor="start" x="22.62" y="-363.25" font-family="Helvetica,sans-Serif" font-size="10.00">void resume()</text>
<text xml:space="preserve" text-anchor="start" x="12.62" y="-348" font-family="Helvetica,sans-Serif" font-size="10.00">+</text>
<text xml:space="preserve" text-anchor="start" x="22.62" y="-348" font-family="Helvetica,sans-Serif" font-size="10.00">void exit()</text>
<text xml:space="preserve" text-anchor="start" x="12.62" y="-332.75" font-family="Helvetica,sans-Serif" font-size="10.00">+</text>
<text xml:space="preserve" text-anchor="start" x="22.62" y="-332.75" font-family="Helvetica,sans-Serif" font-size="10.00">std::string getStateName</text>
<text xml:space="preserve" text-anchor="start" x="22.62" y="-321.5" font-family="Helvetica,sans-Serif" font-size="10.00">() const</text>
<polygon fill="#666666" stroke="#666666" points="8.62,-606.75 8.62,-606.75 154.88,-606.75 154.88,-606.75 8.62,-606.75"/>
<polygon fill="#666666" stroke="#666666" points="8.62,-591.5 8.62,-591.5 154.88,-591.5 154.88,-591.5 8.62,-591.5"/>
<polygon fill="none" stroke="#666666" points="8.62,-315.75 8.62,-624 154.88,-624 154.88,-315.75 8.62,-315.75"/>
</a>
</g>
</g>
<!-- Node2 -->
<g id="Node000002" class="node">
<title>Node2</title>
<g id="a_Node000002"><a xlink:href="class_embedded_system_x_state.html" target="_top" xlink:title=" ">
<polygon fill="white" stroke="none" points="163.5,-262.5 0,-262.5 0,0 163.5,0 163.5,-262.5"/>
<text xml:space="preserve" text-anchor="start" x="26.62" y="-249" font-family="Helvetica,sans-Serif" font-size="10.00">EmbeddedSystemXState</text>
<text xml:space="preserve" text-anchor="start" x="80.25" y="-233.75" font-family="Helvetica,sans-Serif" font-size="10.00"> </text>
<text xml:space="preserve" text-anchor="start" x="4" y="-218.5" font-family="Helvetica,sans-Serif" font-size="10.00">+</text>
<text xml:space="preserve" text-anchor="start" x="14" y="-218.5" font-family="Helvetica,sans-Serif" font-size="10.00">EmbeddedSystemXState</text>
<text xml:space="preserve" text-anchor="start" x="14" y="-207.25" font-family="Helvetica,sans-Serif" font-size="10.00">(EmbeddedSystemX *ctx)</text>
<text xml:space="preserve" text-anchor="start" x="4" y="-192" font-family="Helvetica,sans-Serif" font-size="10.00">+</text>
<text xml:space="preserve" text-anchor="start" x="14" y="-192" font-family="Helvetica,sans-Serif" font-size="10.00">virtual ~EmbeddedSystemXState</text>
<text xml:space="preserve" text-anchor="start" x="14" y="-180.75" font-family="Helvetica,sans-Serif" font-size="10.00">()=default</text>
<text xml:space="preserve" text-anchor="start" x="4" y="-165.5" font-family="Helvetica,sans-Serif" font-size="10.00">+</text>
<text xml:space="preserve" text-anchor="start" x="14" y="-165.5" font-family="Helvetica,sans-Serif" font-size="10.00">virtual void selfTestOk()=0</text>
<text xml:space="preserve" text-anchor="start" x="4" y="-150.25" font-family="Helvetica,sans-Serif" font-size="10.00">+</text>
<text xml:space="preserve" text-anchor="start" x="14" y="-150.25" font-family="Helvetica,sans-Serif" font-size="10.00">virtual void initialized()=0</text>
<text xml:space="preserve" text-anchor="start" x="4" y="-135" font-family="Helvetica,sans-Serif" font-size="10.00">+</text>
<text xml:space="preserve" text-anchor="start" x="14" y="-135" font-family="Helvetica,sans-Serif" font-size="10.00">virtual void restart()=0</text>
<text xml:space="preserve" text-anchor="start" x="4" y="-119.75" font-family="Helvetica,sans-Serif" font-size="10.00">+</text>
<text xml:space="preserve" text-anchor="start" x="14" y="-119.75" font-family="Helvetica,sans-Serif" font-size="10.00">virtual void selfTestFailed</text>
<text xml:space="preserve" text-anchor="start" x="14" y="-108.5" font-family="Helvetica,sans-Serif" font-size="10.00">(int errorNo)=0</text>
<text xml:space="preserve" text-anchor="start" x="4" y="-93.25" font-family="Helvetica,sans-Serif" font-size="10.00">+</text>
<text xml:space="preserve" text-anchor="start" x="14" y="-93.25" font-family="Helvetica,sans-Serif" font-size="10.00">virtual void configure()=0</text>
<text xml:space="preserve" text-anchor="start" x="4" y="-78" font-family="Helvetica,sans-Serif" font-size="10.00">+</text>
<text xml:space="preserve" text-anchor="start" x="14" y="-78" font-family="Helvetica,sans-Serif" font-size="10.00">virtual void configuration</text>
<text xml:space="preserve" text-anchor="start" x="14" y="-66.75" font-family="Helvetica,sans-Serif" font-size="10.00">Ended()=0</text>
<text xml:space="preserve" text-anchor="start" x="4" y="-51.5" font-family="Helvetica,sans-Serif" font-size="10.00">+</text>
<text xml:space="preserve" text-anchor="start" x="14" y="-51.5" font-family="Helvetica,sans-Serif" font-size="10.00">virtual void start()=0</text>
<text xml:space="preserve" text-anchor="start" x="4" y="-36.25" font-family="Helvetica,sans-Serif" font-size="10.00">+</text>
<text xml:space="preserve" text-anchor="start" x="14" y="-36.25" font-family="Helvetica,sans-Serif" font-size="10.00">virtual void suspend()=0</text>
<text xml:space="preserve" text-anchor="start" x="4" y="-21" font-family="Helvetica,sans-Serif" font-size="10.00">+</text>
<text xml:space="preserve" text-anchor="start" x="14" y="-21" font-family="Helvetica,sans-Serif" font-size="10.00">virtual void resume()=0</text>
<text xml:space="preserve" text-anchor="start" x="4" y="-5.75" font-family="Helvetica,sans-Serif" font-size="10.00">+</text>
<text xml:space="preserve" text-anchor="start" x="14" y="-5.75" font-family="Helvetica,sans-Serif" font-size="10.00">virtual void exit()=0</text>
<polygon fill="#666666" stroke="#666666" points="0,-245.25 0,-245.25 163.5,-245.25 163.5,-245.25 0,-245.25"/>
<polygon fill="#666666" stroke="#666666" points="0,-230 0,-230 163.5,-230 163.5,-230 0,-230"/>
<polygon fill="none" stroke="#666666" points="0,0 0,-262.5 163.5,-262.5 163.5,0 0,0"/>
</a>
</g>
</g>
<!-- Node1&#45;&gt;Node2 -->
<g id="edge2_Node000002_Node000001" class="edge">
<title>Node1&#45;&gt;Node2</title>
<g id="a_edge2_Node000002_Node000001"><a xlink:title=" ">
<path fill="none" stroke="#63b8ff" d="M45.01,-315.96C44.56,-303.99 44.88,-292.07 46.25,-280.5 46.47,-278.61 46.71,-276.71 46.96,-274.8"/>
<polygon fill="none" stroke="#63b8ff" points="46.95,-274.87 43.87,-268.35 48.7,-262.99 51.79,-269.51 46.95,-274.87"/>
</a>
</g>
<text xml:space="preserve" text-anchor="start" x="49.25" y="-285.25" font-family="Helvetica,sans-Serif" font-size="10.00" fill="grey">#context</text>
</g>
<!-- Node2&#45;&gt;Node1 -->
<g id="edge1_Node000001_Node000002" class="edge">
<title>Node2&#45;&gt;Node1</title>
<g id="a_edge1_Node000001_Node000002"><a xlink:title=" ">
<path fill="none" stroke="#63b8ff" d="M92.88,-262.38C93.22,-268.5 93.51,-274.57 93.75,-280.5 94.05,-287.89 94.2,-295.45 94.23,-303.08"/>
<polygon fill="none" stroke="#63b8ff" points="94.23,-303.08 98.2,-309.1 94.17,-315.08 90.2,-309.06 94.23,-303.08"/>
</a>
</g>
<text xml:space="preserve" text-anchor="start" x="97.16" y="-285.25" font-family="Helvetica,sans-Serif" font-size="10.00" fill="grey">&#45;currentState</text>
</g>
<!-- Node3 -->
<g id="Node000003" class="node">
<title>Node3</title>
<g id="a_Node000003"><a xlink:href="class_real_time_loop.html" target="_top" xlink:title=" ">
<polygon fill="white" stroke="none" points="242.88,-795.25 108.62,-795.25 108.62,-677.25 242.88,-677.25 242.88,-795.25"/>
<text xml:space="preserve" text-anchor="start" x="144.25" y="-781.75" font-family="Helvetica,sans-Serif" font-size="10.00">RealTimeLoop</text>
<text xml:space="preserve" text-anchor="start" x="174.25" y="-766.5" font-family="Helvetica,sans-Serif" font-size="10.00"> </text>
<text xml:space="preserve" text-anchor="start" x="112.62" y="-751.25" font-family="Helvetica,sans-Serif" font-size="10.00">+</text>
<text xml:space="preserve" text-anchor="start" x="122.62" y="-751.25" font-family="Helvetica,sans-Serif" font-size="10.00">RealTimeLoop()</text>
<text xml:space="preserve" text-anchor="start" x="112.62" y="-736" font-family="Helvetica,sans-Serif" font-size="10.00">+</text>
<text xml:space="preserve" text-anchor="start" x="122.62" y="-736" font-family="Helvetica,sans-Serif" font-size="10.00">void changeMode(int</text>
<text xml:space="preserve" text-anchor="start" x="122.62" y="-724.75" font-family="Helvetica,sans-Serif" font-size="10.00"> modeNumber)</text>
<text xml:space="preserve" text-anchor="start" x="112.62" y="-709.5" font-family="Helvetica,sans-Serif" font-size="10.00">+</text>
<text xml:space="preserve" text-anchor="start" x="122.62" y="-709.5" font-family="Helvetica,sans-Serif" font-size="10.00">void eventX()</text>
<text xml:space="preserve" text-anchor="start" x="112.62" y="-694.25" font-family="Helvetica,sans-Serif" font-size="10.00">+</text>
<text xml:space="preserve" text-anchor="start" x="122.62" y="-694.25" font-family="Helvetica,sans-Serif" font-size="10.00">std::string getCurrentMode</text>
<text xml:space="preserve" text-anchor="start" x="122.62" y="-683" font-family="Helvetica,sans-Serif" font-size="10.00">() const</text>
<polygon fill="#666666" stroke="#666666" points="108.62,-778 108.62,-778 242.88,-778 242.88,-778 108.62,-778"/>
<polygon fill="#666666" stroke="#666666" points="108.62,-762.75 108.62,-762.75 242.88,-762.75 242.88,-762.75 108.62,-762.75"/>
<polygon fill="none" stroke="#666666" points="108.62,-677.25 108.62,-795.25 242.88,-795.25 242.88,-677.25 108.62,-677.25"/>
</a>
</g>
</g>
<!-- Node3&#45;&gt;Node1 -->
<g id="edge3_Node000001_Node000003" class="edge">
<title>Node3&#45;&gt;Node1</title>
<g id="a_edge3_Node000001_Node000003"><a xlink:title=" ">
<path fill="none" stroke="#63b8ff" d="M110.07,-677.31C105.9,-671.56 102.2,-665.52 99.25,-659.25 95.8,-651.94 92.86,-644.29 90.35,-636.44"/>
<polygon fill="none" stroke="#63b8ff" points="90.32,-636.36 84.82,-631.7 87,-624.83 92.51,-629.49 90.32,-636.36"/>
</a>
</g>
<text xml:space="preserve" text-anchor="start" x="102.25" y="-646.75" font-family="Helvetica,sans-Serif" font-size="10.00" fill="grey">&#45;realTimeLoop</text>
</g>
<!-- Node4 -->
<g id="Node000004" class="node">
<title>Node4</title>
<g id="a_Node000004"><a xlink:href="class_real_time_loop_state.html" target="_top" xlink:title=" ">
<polygon fill="white" stroke="none" points="312.5,-521.25 173,-521.25 173,-418.5 312.5,-418.5 312.5,-521.25"/>
<text xml:space="preserve" text-anchor="start" x="199.62" y="-507.75" font-family="Helvetica,sans-Serif" font-size="10.00">RealTimeLoopState</text>
<text xml:space="preserve" text-anchor="start" x="241.25" y="-492.5" font-family="Helvetica,sans-Serif" font-size="10.00"> </text>
<text xml:space="preserve" text-anchor="start" x="177" y="-477.25" font-family="Helvetica,sans-Serif" font-size="10.00">+</text>
<text xml:space="preserve" text-anchor="start" x="187" y="-477.25" font-family="Helvetica,sans-Serif" font-size="10.00">RealTimeLoopState</text>
<text xml:space="preserve" text-anchor="start" x="187" y="-466" font-family="Helvetica,sans-Serif" font-size="10.00">(RealTimeLoop *ctx)</text>
<text xml:space="preserve" text-anchor="start" x="177" y="-450.75" font-family="Helvetica,sans-Serif" font-size="10.00">+</text>
<text xml:space="preserve" text-anchor="start" x="187" y="-450.75" font-family="Helvetica,sans-Serif" font-size="10.00">virtual ~RealTimeLoopState</text>
<text xml:space="preserve" text-anchor="start" x="187" y="-439.5" font-family="Helvetica,sans-Serif" font-size="10.00">()=default</text>
<text xml:space="preserve" text-anchor="start" x="177" y="-424.25" font-family="Helvetica,sans-Serif" font-size="10.00">+</text>
<text xml:space="preserve" text-anchor="start" x="187" y="-424.25" font-family="Helvetica,sans-Serif" font-size="10.00">virtual void eventX()=0</text>
<polygon fill="#666666" stroke="#666666" points="173,-504 173,-504 312.5,-504 312.5,-504 173,-504"/>
<polygon fill="#666666" stroke="#666666" points="173,-488.75 173,-488.75 312.5,-488.75 312.5,-488.75 173,-488.75"/>
<polygon fill="none" stroke="#666666" points="173,-418.5 173,-521.25 312.5,-521.25 312.5,-418.5 173,-418.5"/>
</a>
</g>
</g>
<!-- Node3&#45;&gt;Node4 -->
<g id="edge5_Node000004_Node000003" class="edge">
<title>Node3&#45;&gt;Node4</title>
<g id="a_edge5_Node000004_Node000003"><a xlink:title=" ">
<path fill="none" stroke="#63b8ff" d="M170.27,-677.72C170.23,-665.83 171.01,-653.44 173.25,-642 180.61,-604.33 196.28,-564.47 210.88,-532.71"/>
<polygon fill="none" stroke="#63b8ff" points="210.92,-532.63 209.85,-525.5 216.03,-521.77 217.09,-528.9 210.92,-532.63"/>
</a>
</g>
<text xml:space="preserve" text-anchor="start" x="176.25" y="-646.75" font-family="Helvetica,sans-Serif" font-size="10.00" fill="grey">#context</text>
</g>
<!-- Node4&#45;&gt;Node3 -->
<g id="edge4_Node000003_Node000004" class="edge">
<title>Node4&#45;&gt;Node3</title>
<g id="a_edge4_Node000003_Node000004"><a xlink:title=" ">
<path fill="none" stroke="#63b8ff" d="M242.54,-520.89C241.04,-559.59 236.01,-614.01 220.75,-659.25 220.01,-661.44 219.2,-663.64 218.33,-665.84"/>
<polygon fill="none" stroke="#63b8ff" points="218.39,-665.7 219.64,-672.8 213.56,-676.68 212.32,-669.58 218.39,-665.7"/>
</a>
</g>
<text xml:space="preserve" text-anchor="start" x="228.26" y="-646.75" font-family="Helvetica,sans-Serif" font-size="10.00" fill="grey">&#45;currentMode</text>
</g>
</g>
</svg>
