<?xml version="1.0" encoding="UTF-8" standalone="no"?>
<!DOCTYPE svg PUBLIC "-//W3C//DTD SVG 1.1//EN"
 "http://www.w3.org/Graphics/SVG/1.1/DTD/svg11.dtd">
<!-- Generated by graphviz version 14.0.4 (20251115.1723)
 -->
<!-- Title: SuspendedState::SuspendedState Pages: 1 -->
<svg width="499pt" height="39pt"
 viewBox="0.00 0.00 499.00 39.00" xmlns="http://www.w3.org/2000/svg" xmlns:xlink="http://www.w3.org/1999/xlink">
<g id="graph0" class="graph" transform="scale(1 1) rotate(0) translate(4 34.5)">
<title>SuspendedState::SuspendedState</title>
<!-- Node1 -->
<g id="Node000001" class="node">
<title>Node1</title>
<g id="a_Node000001"><a xlink:title=" ">
<polygon fill="#999999" stroke="#666666" points="491.25,-30.5 348.5,-30.5 348.5,0 491.25,0 491.25,-30.5"/>
<text xml:space="preserve" text-anchor="start" x="356.5" y="-17" font-family="Helvetica,sans-Serif" font-size="10.00">SuspendedState::Suspended</text>
<text xml:space="preserve" text-anchor="middle" x="419.88" y="-5.75" font-family="Helvetica,sans-Serif" font-size="10.00">State</text>
</a>
</g>
</g>
<!-- Node2 -->
<g id="Node000002" class="node">
<title>Node2</title>
<g id="a_Node000002"><a xlink:href="class_suspended_state.html#a7c5ac4f52a44311e301be89e4c8b8bf0" target="_top" xlink:title=" ">
<polygon fill="white" stroke="#666666" points="312.5,-24.88 167.5,-24.88 167.5,-5.63 312.5,-5.63 312.5,-24.88"/>
<text xml:space="preserve" text-anchor="middle" x="240" y="-11.38" font-family="Helvetica,sans-Serif" font-size="10.00">SuspendedState::getInstance</text>
</a>
</g>
</g>
<!-- Node1&#45;&gt;Node2 -->
<g id="edge1_Node000001_Node000002" class="edge">
<title>Node1&#45;&gt;Node2</title>
<g id="a_edge1_Node000001_Node000002"><a xlink:title=" ">
<path fill="none" stroke="#63b8ff" d="M336.79,-15.25C328.75,-15.25 320.65,-15.25 312.73,-15.25"/>
<polygon fill="#63b8ff" stroke="#63b8ff" points="336.55,-18.75 346.55,-15.25 336.55,-11.75 336.55,-18.75"/>
</a>
</g>
</g>
<!-- Node3 -->
<g id="Node000003" class="node">
<title>Node3</title>
<g id="a_Node000003"><a xlink:href="class_operational_state.html#ac442e55c4f713d7c7cbe036cdc490102" target="_top" xlink:title=" ">
<polygon fill="white" stroke="#666666" points="131.5,-24.88 0,-24.88 0,-5.63 131.5,-5.63 131.5,-24.88"/>
<text xml:space="preserve" text-anchor="middle" x="65.75" y="-11.38" font-family="Helvetica,sans-Serif" font-size="10.00">OperationalState::suspend</text>
</a>
</g>
</g>
<!-- Node2&#45;&gt;Node3 -->
<g id="edge2_Node000002_Node000003" class="edge">
<title>Node2&#45;&gt;Node3</title>
<g id="a_edge2_Node000002_Node000003"><a xlink:title=" ">
<path fill="none" stroke="#63b8ff" d="M155.99,-15.25C147.85,-15.25 139.67,-15.25 131.75,-15.25"/>
<polygon fill="#63b8ff" stroke="#63b8ff" points="155.93,-18.75 165.93,-15.25 155.93,-11.75 155.93,-18.75"/>
</a>
</g>
</g>
</g>
</svg>
