<?xml version="1.0" encoding="UTF-8" standalone="no"?>
<!DOCTYPE svg PUBLIC "-//W3C//DTD SVG 1.1//EN"
 "http://www.w3.org/Graphics/SVG/1.1/DTD/svg11.dtd">
<!-- Generated by graphviz version 14.0.4 (20251115.1723)
 -->
<!-- Title: RealTimeLoopOuterState::getInstance Pages: 1 -->
<svg width="297pt" height="64pt"
 viewBox="0.00 0.00 297.00 64.00" xmlns="http://www.w3.org/2000/svg" xmlns:xlink="http://www.w3.org/1999/xlink">
<g id="graph0" class="graph" transform="scale(1 1) rotate(0) translate(4 60.25)">
<title>RealTimeLoopOuterState::getInstance</title>
<!-- Node1 -->
<g id="Node000001" class="node">
<title>Node1</title>
<g id="a_Node000001"><a xlink:title=" ">
<polygon fill="#999999" stroke="#666666" points="288.5,-42.88 162.25,-42.88 162.25,-12.37 288.5,-12.37 288.5,-42.88"/>
<text xml:space="preserve" text-anchor="start" x="170.25" y="-29.38" font-family="Helvetica,sans-Serif" font-size="10.00">RealTimeLoopOuterState</text>
<text xml:space="preserve" text-anchor="middle" x="225.38" y="-18.12" font-family="Helvetica,sans-Serif" font-size="10.00">::getInstance</text>
</a>
</g>
</g>
<!-- Node2 -->
<g id="Node000002" class="node">
<title>Node2</title>
<g id="a_Node000002"><a xlink:href="class_suspended_state.html#a98d4671ae0657e7113be352bf3cffc8e" target="_top" xlink:title=" ">
<polygon fill="white" stroke="#666666" points="126.25,-56.25 0,-56.25 0,-37 126.25,-37 126.25,-56.25"/>
<text xml:space="preserve" text-anchor="middle" x="63.12" y="-42.75" font-family="Helvetica,sans-Serif" font-size="10.00">SuspendedState::resume</text>
</a>
</g>
</g>
<!-- Node1&#45;&gt;Node2 -->
<g id="edge1_Node000001_Node000002" class="edge">
<title>Node1&#45;&gt;Node2</title>
<g id="a_edge1_Node000001_Node000002"><a xlink:title=" ">
<path fill="none" stroke="#63b8ff" d="M150.69,-36.36C142.65,-37.32 134.52,-38.28 126.63,-39.21"/>
<polygon fill="#63b8ff" stroke="#63b8ff" points="150.94,-39.86 160.46,-35.2 150.11,-32.91 150.94,-39.86"/>
</a>
</g>
</g>
<!-- Node3 -->
<g id="Node000003" class="node">
<title>Node3</title>
<g id="a_Node000003"><a xlink:href="class_ready_state.html#afca7afc96e449d8a719f3f22e61bc924" target="_top" xlink:title=" ">
<polygon fill="white" stroke="#666666" points="109.75,-19.25 16.5,-19.25 16.5,0 109.75,0 109.75,-19.25"/>
<text xml:space="preserve" text-anchor="middle" x="63.12" y="-5.75" font-family="Helvetica,sans-Serif" font-size="10.00">ReadyState::start</text>
</a>
</g>
</g>
<!-- Node1&#45;&gt;Node3 -->
<g id="edge2_Node000001_Node000003" class="edge">
<title>Node1&#45;&gt;Node3</title>
<g id="a_edge2_Node000001_Node000003"><a xlink:title=" ">
<path fill="none" stroke="#63b8ff" d="M150.53,-19.33C136.8,-17.79 122.83,-16.22 110.24,-14.8"/>
<polygon fill="#63b8ff" stroke="#63b8ff" points="150.13,-22.81 160.46,-20.45 150.91,-15.85 150.13,-22.81"/>
</a>
</g>
</g>
</g>
</svg>
