<?xml version="1.0" encoding="UTF-8" standalone="no"?>
<!DOCTYPE svg PUBLIC "-//W3C//DTD SVG 1.1//EN"
 "http://www.w3.org/Graphics/SVG/1.1/DTD/svg11.dtd">
<!-- Generated by graphviz version 14.0.4 (20251115.1723)
 -->
<!-- Title: Mode3State Pages: 1 -->
<svg width="169pt" height="261pt"
 viewBox="0.00 0.00 169.00 261.00" xmlns="http://www.w3.org/2000/svg" xmlns:xlink="http://www.w3.org/1999/xlink">
<g id="graph0" class="graph" transform="scale(1 1) rotate(0) translate(4 256.75)">
<title>Mode3State</title>
<!-- Node1 -->
<g id="Node000001" class="node">
<title>Node1</title>
<g id="a_Node000001"><a xlink:title=" ">
<polygon fill="#999999" stroke="none" points="161.25,-114 0,-114 0,0 161.25,0 161.25,-114"/>
<text xml:space="preserve" text-anchor="start" x="54.38" y="-100.5" font-family="Helvetica,sans-Serif" font-size="10.00">Mode3State</text>
<text xml:space="preserve" text-anchor="start" x="5.5" y="-85.25" font-family="Helvetica,sans-Serif" font-size="10.00">&#45;</text>
<text xml:space="preserve" text-anchor="start" x="14" y="-85.25" font-family="Helvetica,sans-Serif" font-size="10.00">static Mode3State *</text>
<text xml:space="preserve" text-anchor="start" x="14" y="-74" font-family="Helvetica,sans-Serif" font-size="10.00"> instance</text>
<text xml:space="preserve" text-anchor="start" x="4" y="-58.75" font-family="Helvetica,sans-Serif" font-size="10.00">+</text>
<text xml:space="preserve" text-anchor="start" x="14" y="-58.75" font-family="Helvetica,sans-Serif" font-size="10.00">void eventX() override</text>
<text xml:space="preserve" text-anchor="start" x="4" y="-43.5" font-family="Helvetica,sans-Serif" font-size="10.00">+</text>
<text xml:space="preserve" text-anchor="start" x="14" y="-43.5" font-family="Helvetica,sans-Serif" font-size="10.00">static Mode3State *</text>
<text xml:space="preserve" text-anchor="start" x="14" y="-32.25" font-family="Helvetica,sans-Serif" font-size="10.00"> getInstance(RealTimeLoop *ctx)</text>
<text xml:space="preserve" text-anchor="start" x="5.5" y="-17" font-family="Helvetica,sans-Serif" font-size="10.00">&#45;</text>
<text xml:space="preserve" text-anchor="start" x="14" y="-17" font-family="Helvetica,sans-Serif" font-size="10.00">Mode3State(RealTimeLoop</text>
<text xml:space="preserve" text-anchor="start" x="14" y="-5.75" font-family="Helvetica,sans-Serif" font-size="10.00"> *ctx)</text>
<polygon fill="#666666" stroke="#666666" points="0,-96.75 0,-96.75 161.25,-96.75 161.25,-96.75 0,-96.75"/>
<polygon fill="#666666" stroke="#666666" points="0,-70.25 0,-70.25 12,-70.25 12,-70.25 0,-70.25"/>
<polygon fill="#666666" stroke="#666666" points="12,-70.25 12,-70.25 161.25,-70.25 161.25,-70.25 12,-70.25"/>
<polygon fill="none" stroke="#666666" points="0,0 0,-114 161.25,-114 161.25,0 0,0"/>
</a>
</g>
</g>
<!-- Node2 -->
<g id="Node000002" class="node">
<title>Node2</title>
<g id="a_Node000002"><a xlink:href="class_real_time_loop_state.html" target="_top" xlink:title=" ">
<polygon fill="white" stroke="none" points="150.38,-252.75 10.88,-252.75 10.88,-150 150.38,-150 150.38,-252.75"/>
<text xml:space="preserve" text-anchor="start" x="37.5" y="-239.25" font-family="Helvetica,sans-Serif" font-size="10.00">RealTimeLoopState</text>
<text xml:space="preserve" text-anchor="start" x="15.25" y="-224" font-family="Helvetica,sans-Serif" font-size="10.00">#</text>
<text xml:space="preserve" text-anchor="start" x="24.88" y="-224" font-family="Helvetica,sans-Serif" font-size="10.00">RealTimeLoop * context</text>
<text xml:space="preserve" text-anchor="start" x="14.88" y="-208.75" font-family="Helvetica,sans-Serif" font-size="10.00">+</text>
<text xml:space="preserve" text-anchor="start" x="24.88" y="-208.75" font-family="Helvetica,sans-Serif" font-size="10.00">RealTimeLoopState</text>
<text xml:space="preserve" text-anchor="start" x="24.88" y="-197.5" font-family="Helvetica,sans-Serif" font-size="10.00">(RealTimeLoop *ctx)</text>
<text xml:space="preserve" text-anchor="start" x="14.88" y="-182.25" font-family="Helvetica,sans-Serif" font-size="10.00">+</text>
<text xml:space="preserve" text-anchor="start" x="24.88" y="-182.25" font-family="Helvetica,sans-Serif" font-size="10.00">virtual ~RealTimeLoopState</text>
<text xml:space="preserve" text-anchor="start" x="24.88" y="-171" font-family="Helvetica,sans-Serif" font-size="10.00">()=default</text>
<text xml:space="preserve" text-anchor="start" x="14.88" y="-155.75" font-family="Helvetica,sans-Serif" font-size="10.00">+</text>
<text xml:space="preserve" text-anchor="start" x="24.88" y="-155.75" font-family="Helvetica,sans-Serif" font-size="10.00">virtual void eventX()=0</text>
<polygon fill="#666666" stroke="#666666" points="10.88,-235.5 10.88,-235.5 150.38,-235.5 150.38,-235.5 10.88,-235.5"/>
<polygon fill="#666666" stroke="#666666" points="10.88,-220.25 10.88,-220.25 22.88,-220.25 22.88,-220.25 10.88,-220.25"/>
<polygon fill="#666666" stroke="#666666" points="22.88,-220.25 22.88,-220.25 150.38,-220.25 150.38,-220.25 22.88,-220.25"/>
<polygon fill="none" stroke="#666666" points="10.88,-150 10.88,-252.75 150.38,-252.75 150.38,-150 10.88,-150"/>
</a>
</g>
</g>
<!-- Node2&#45;&gt;Node1 -->
<g id="edge1_Node000001_Node000002" class="edge">
<title>Node2&#45;&gt;Node1</title>
<g id="a_edge1_Node000001_Node000002"><a xlink:title=" ">
<path fill="none" stroke="#63b8ff" d="M80.62,-138.87C80.62,-130.45 80.62,-121.86 80.62,-113.56"/>
<polygon fill="none" stroke="#63b8ff" points="77.13,-138.67 80.63,-148.67 84.13,-138.67 77.13,-138.67"/>
</a>
</g>
</g>
</g>
</svg>
