<?xml version="1.0" encoding="UTF-8" standalone="no"?>
<!DOCTYPE svg PUBLIC "-//W3C//DTD SVG 1.1//EN"
 "http://www.w3.org/Graphics/SVG/1.1/DTD/svg11.dtd">
<!-- Generated by graphviz version 14.0.4 (20251115.1723)
 -->
<!-- Title: RealTimeLoopState Pages: 1 -->
<svg width="527pt" height="261pt"
 viewBox="0.00 0.00 527.00 261.00" xmlns="http://www.w3.org/2000/svg" xmlns:xlink="http://www.w3.org/1999/xlink">
<g id="graph0" class="graph" transform="scale(1 1) rotate(0) translate(4 256.75)">
<title>RealTimeLoopState</title>
<!-- Node1 -->
<g id="Node000001" class="node">
<title>Node1</title>
<g id="a_Node000001"><a xlink:title=" ">
<polygon fill="#999999" stroke="none" points="329.38,-252.75 189.88,-252.75 189.88,-150 329.38,-150 329.38,-252.75"/>
<text xml:space="preserve" text-anchor="start" x="216.5" y="-239.25" font-family="Helvetica,sans-Serif" font-size="10.00">RealTimeLoopState</text>
<text xml:space="preserve" text-anchor="start" x="194.25" y="-224" font-family="Helvetica,sans-Serif" font-size="10.00">#</text>
<text xml:space="preserve" text-anchor="start" x="203.88" y="-224" font-family="Helvetica,sans-Serif" font-size="10.00">RealTimeLoop * context</text>
<text xml:space="preserve" text-anchor="start" x="193.88" y="-208.75" font-family="Helvetica,sans-Serif" font-size="10.00">+</text>
<text xml:space="preserve" text-anchor="start" x="203.88" y="-208.75" font-family="Helvetica,sans-Serif" font-size="10.00">RealTimeLoopState</text>
<text xml:space="preserve" text-anchor="start" x="203.88" y="-197.5" font-family="Helvetica,sans-Serif" font-size="10.00">(RealTimeLoop *ctx)</text>
<text xml:space="preserve" text-anchor="start" x="193.88" y="-182.25" font-family="Helvetica,sans-Serif" font-size="10.00">+</text>
<text xml:space="preserve" text-anchor="start" x="203.88" y="-182.25" font-family="Helvetica,sans-Serif" font-size="10.00">virtual ~RealTimeLoopState</text>
<text xml:space="preserve" text-anchor="start" x="203.88" y="-171" font-family="Helvetica,sans-Serif" font-size="10.00">()=default</text>
<text xml:space="preserve" text-anchor="start" x="193.88" y="-155.75" font-family="Helvetica,sans-Serif" font-size="10.00">+</text>
<text xml:space="preserve" text-anchor="start" x="203.88" y="-155.75" font-family="Helvetica,sans-Serif" font-size="10.00">virtual void eventX()=0</text>
<polygon fill="#666666" stroke="#666666" points="189.88,-235.5 189.88,-235.5 329.38,-235.5 329.38,-235.5 189.88,-235.5"/>
<polygon fill="#666666" stroke="#666666" points="189.88,-220.25 189.88,-220.25 201.88,-220.25 201.88,-220.25 189.88,-220.25"/>
<polygon fill="#666666" stroke="#666666" points="201.88,-220.25 201.88,-220.25 329.38,-220.25 329.38,-220.25 201.88,-220.25"/>
<polygon fill="none" stroke="#666666" points="189.88,-150 189.88,-252.75 329.38,-252.75 329.38,-150 189.88,-150"/>
</a>
</g>
</g>
<!-- Node2 -->
<g id="Node000002" class="node">
<title>Node2</title>
<g id="a_Node000002"><a xlink:href="class_mode1_state.html" target="_top" xlink:title=" ">
<polygon fill="white" stroke="none" points="161.25,-114 0,-114 0,0 161.25,0 161.25,-114"/>
<text xml:space="preserve" text-anchor="start" x="54.38" y="-100.5" font-family="Helvetica,sans-Serif" font-size="10.00">Mode1State</text>
<text xml:space="preserve" text-anchor="start" x="5.5" y="-85.25" font-family="Helvetica,sans-Serif" font-size="10.00">&#45;</text>
<text xml:space="preserve" text-anchor="start" x="14" y="-85.25" font-family="Helvetica,sans-Serif" font-size="10.00">static Mode1State *</text>
<text xml:space="preserve" text-anchor="start" x="14" y="-74" font-family="Helvetica,sans-Serif" font-size="10.00"> instance</text>
<text xml:space="preserve" text-anchor="start" x="4" y="-58.75" font-family="Helvetica,sans-Serif" font-size="10.00">+</text>
<text xml:space="preserve" text-anchor="start" x="14" y="-58.75" font-family="Helvetica,sans-Serif" font-size="10.00">void eventX() override</text>
<text xml:space="preserve" text-anchor="start" x="4" y="-43.5" font-family="Helvetica,sans-Serif" font-size="10.00">+</text>
<text xml:space="preserve" text-anchor="start" x="14" y="-43.5" font-family="Helvetica,sans-Serif" font-size="10.00">static Mode1State *</text>
<text xml:space="preserve" text-anchor="start" x="14" y="-32.25" font-family="Helvetica,sans-Serif" font-size="10.00"> getInstance(RealTimeLoop *ctx)</text>
<text xml:space="preserve" text-anchor="start" x="5.5" y="-17" font-family="Helvetica,sans-Serif" font-size="10.00">&#45;</text>
<text xml:space="preserve" text-anchor="start" x="14" y="-17" font-family="Helvetica,sans-Serif" font-size="10.00">Mode1State(RealTimeLoop</text>
<text xml:space="preserve" text-anchor="start" x="14" y="-5.75" font-family="Helvetica,sans-Serif" font-size="10.00"> *ctx)</text>
<polygon fill="#666666" stroke="#666666" points="0,-96.75 0,-96.75 161.25,-96.75 161.25,-96.75 0,-96.75"/>
<polygon fill="#666666" stroke="#666666" points="0,-70.25 0,-70.25 12,-70.25 12,-70.25 0,-70.25"/>
<polygon fill="#666666" stroke="#666666" points="12,-70.25 12,-70.25 161.25,-70.25 161.25,-70.25 12,-70.25"/>
<polygon fill="none" stroke="#666666" points="0,0 0,-114 161.25,-114 161.25,0 0,0"/>
</a>
</g>
</g>
<!-- Node1&#45;&gt;Node2 -->
<g id="edge1_Node000001_Node000002" class="edge">
<title>Node1&#45;&gt;Node2</title>
<g id="a_edge1_Node000001_Node000002"><a xlink:title=" ">
<path fill="none" stroke="#63b8ff" d="M187.74,-143.2C175.56,-133.51 162.92,-123.46 150.78,-113.8"/>
<polygon fill="none" stroke="#63b8ff" points="185.33,-145.75 195.33,-149.24 189.68,-140.27 185.33,-145.75"/>
</a>
</g>
</g>
<!-- Node3 -->
<g id="Node000003" class="node">
<title>Node3</title>
<g id="a_Node000003"><a xlink:href="class_mode2_state.html" target="_top" xlink:title=" ">
<polygon fill="white" stroke="none" points="340.25,-114 179,-114 179,0 340.25,0 340.25,-114"/>
<text xml:space="preserve" text-anchor="start" x="233.38" y="-100.5" font-family="Helvetica,sans-Serif" font-size="10.00">Mode2State</text>
<text xml:space="preserve" text-anchor="start" x="184.5" y="-85.25" font-family="Helvetica,sans-Serif" font-size="10.00">&#45;</text>
<text xml:space="preserve" text-anchor="start" x="193" y="-85.25" font-family="Helvetica,sans-Serif" font-size="10.00">static Mode2State *</text>
<text xml:space="preserve" text-anchor="start" x="193" y="-74" font-family="Helvetica,sans-Serif" font-size="10.00"> instance</text>
<text xml:space="preserve" text-anchor="start" x="183" y="-58.75" font-family="Helvetica,sans-Serif" font-size="10.00">+</text>
<text xml:space="preserve" text-anchor="start" x="193" y="-58.75" font-family="Helvetica,sans-Serif" font-size="10.00">void eventX() override</text>
<text xml:space="preserve" text-anchor="start" x="183" y="-43.5" font-family="Helvetica,sans-Serif" font-size="10.00">+</text>
<text xml:space="preserve" text-anchor="start" x="193" y="-43.5" font-family="Helvetica,sans-Serif" font-size="10.00">static Mode2State *</text>
<text xml:space="preserve" text-anchor="start" x="193" y="-32.25" font-family="Helvetica,sans-Serif" font-size="10.00"> getInstance(RealTimeLoop *ctx)</text>
<text xml:space="preserve" text-anchor="start" x="184.5" y="-17" font-family="Helvetica,sans-Serif" font-size="10.00">&#45;</text>
<text xml:space="preserve" text-anchor="start" x="193" y="-17" font-family="Helvetica,sans-Serif" font-size="10.00">Mode2State(RealTimeLoop</text>
<text xml:space="preserve" text-anchor="start" x="193" y="-5.75" font-family="Helvetica,sans-Serif" font-size="10.00"> *ctx)</text>
<polygon fill="#666666" stroke="#666666" points="179,-96.75 179,-96.75 340.25,-96.75 340.25,-96.75 179,-96.75"/>
<polygon fill="#666666" stroke="#666666" points="179,-70.25 179,-70.25 191,-70.25 191,-70.25 179,-70.25"/>
<polygon fill="#666666" stroke="#666666" points="191,-70.25 191,-70.25 340.25,-70.25 340.25,-70.25 191,-70.25"/>
<polygon fill="none" stroke="#666666" points="179,0 179,-114 340.25,-114 340.25,0 179,0"/>
</a>
</g>
</g>
<!-- Node1&#45;&gt;Node3 -->
<g id="edge2_Node000001_Node000003" class="edge">
<title>Node1&#45;&gt;Node3</title>
<g id="a_edge2_Node000001_Node000003"><a xlink:title=" ">
<path fill="none" stroke="#63b8ff" d="M259.62,-138.87C259.62,-130.45 259.62,-121.86 259.62,-113.56"/>
<polygon fill="none" stroke="#63b8ff" points="256.13,-138.67 259.63,-148.67 263.13,-138.67 256.13,-138.67"/>
</a>
</g>
</g>
<!-- Node4 -->
<g id="Node000004" class="node">
<title>Node4</title>
<g id="a_Node000004"><a xlink:href="class_mode3_state.html" target="_top" xlink:title=" ">
<polygon fill="white" stroke="none" points="519.25,-114 358,-114 358,0 519.25,0 519.25,-114"/>
<text xml:space="preserve" text-anchor="start" x="412.38" y="-100.5" font-family="Helvetica,sans-Serif" font-size="10.00">Mode3State</text>
<text xml:space="preserve" text-anchor="start" x="363.5" y="-85.25" font-family="Helvetica,sans-Serif" font-size="10.00">&#45;</text>
<text xml:space="preserve" text-anchor="start" x="372" y="-85.25" font-family="Helvetica,sans-Serif" font-size="10.00">static Mode3State *</text>
<text xml:space="preserve" text-anchor="start" x="372" y="-74" font-family="Helvetica,sans-Serif" font-size="10.00"> instance</text>
<text xml:space="preserve" text-anchor="start" x="362" y="-58.75" font-family="Helvetica,sans-Serif" font-size="10.00">+</text>
<text xml:space="preserve" text-anchor="start" x="372" y="-58.75" font-family="Helvetica,sans-Serif" font-size="10.00">void eventX() override</text>
<text xml:space="preserve" text-anchor="start" x="362" y="-43.5" font-family="Helvetica,sans-Serif" font-size="10.00">+</text>
<text xml:space="preserve" text-anchor="start" x="372" y="-43.5" font-family="Helvetica,sans-Serif" font-size="10.00">static Mode3State *</text>
<text xml:space="preserve" text-anchor="start" x="372" y="-32.25" font-family="Helvetica,sans-Serif" font-size="10.00"> getInstance(RealTimeLoop *ctx)</text>
<text xml:space="preserve" text-anchor="start" x="363.5" y="-17" font-family="Helvetica,sans-Serif" font-size="10.00">&#45;</text>
<text xml:space="preserve" text-anchor="start" x="372" y="-17" font-family="Helvetica,sans-Serif" font-size="10.00">Mode3State(RealTimeLoop</text>
<text xml:space="preserve" text-anchor="start" x="372" y="-5.75" font-family="Helvetica,sans-Serif" font-size="10.00"> *ctx)</text>
<polygon fill="#666666" stroke="#666666" points="358,-96.75 358,-96.75 519.25,-96.75 519.25,-96.75 358,-96.75"/>
<polygon fill="#666666" stroke="#666666" points="358,-70.25 358,-70.25 370,-70.25 370,-70.25 358,-70.25"/>
<polygon fill="#666666" stroke="#666666" points="370,-70.25 370,-70.25 519.25,-70.25 519.25,-70.25 370,-70.25"/>
<polygon fill="none" stroke="#666666" points="358,0 358,-114 519.25,-114 519.25,0 358,0"/>
</a>
</g>
</g>
<!-- Node1&#45;&gt;Node4 -->
<g id="edge3_Node000001_Node000004" class="edge">
<title>Node1&#45;&gt;Node4</title>
<g id="a_edge3_Node000001_Node000004"><a xlink:title=" ">
<path fill="none" stroke="#63b8ff" d="M331.51,-143.2C343.69,-133.51 356.33,-123.46 368.47,-113.8"/>
<polygon fill="none" stroke="#63b8ff" points="329.57,-140.27 323.92,-149.24 333.92,-145.75 329.57,-140.27"/>
</a>
</g>
</g>
</g>
</svg>
