<?xml version="1.0" encoding="UTF-8" standalone="no"?>
<!DOCTYPE svg PUBLIC "-//W3C//DTD SVG 1.1//EN"
 "http://www.w3.org/Graphics/SVG/1.1/DTD/svg11.dtd">
<!-- Generated by graphviz version 14.0.4 (20251115.1723)
 -->
<!-- Title: InitializingState::getInstance Pages: 1 -->
<svg width="390pt" height="39pt"
 viewBox="0.00 0.00 390.00 39.00" xmlns="http://www.w3.org/2000/svg" xmlns:xlink="http://www.w3.org/1999/xlink">
<g id="graph0" class="graph" transform="scale(1 1) rotate(0) translate(4 34.5)">
<title>InitializingState::getInstance</title>
<!-- Node1 -->
<g id="Node000001" class="node">
<title>Node1</title>
<g id="a_Node000001"><a xlink:title=" ">
<polygon fill="#999999" stroke="#666666" points="88.75,-30.5 0,-30.5 0,0 88.75,0 88.75,-30.5"/>
<text xml:space="preserve" text-anchor="start" x="8" y="-17" font-family="Helvetica,sans-Serif" font-size="10.00">InitializingState::</text>
<text xml:space="preserve" text-anchor="middle" x="44.38" y="-5.75" font-family="Helvetica,sans-Serif" font-size="10.00">getInstance</text>
</a>
</g>
</g>
<!-- Node2 -->
<g id="Node000002" class="node">
<title>Node2</title>
<g id="a_Node000002"><a xlink:href="class_initializing_state.html#a0171b550bdf18be89167d4a478009c69" target="_top" xlink:title=" ">
<polygon fill="white" stroke="#666666" points="213.5,-30.5 124.75,-30.5 124.75,0 213.5,0 213.5,-30.5"/>
<text xml:space="preserve" text-anchor="start" x="132.75" y="-17" font-family="Helvetica,sans-Serif" font-size="10.00">InitializingState::</text>
<text xml:space="preserve" text-anchor="middle" x="169.12" y="-5.75" font-family="Helvetica,sans-Serif" font-size="10.00">InitializingState</text>
</a>
</g>
</g>
<!-- Node1&#45;&gt;Node2 -->
<g id="edge1_Node000001_Node000002" class="edge">
<title>Node1&#45;&gt;Node2</title>
<g id="a_edge1_Node000001_Node000002"><a xlink:title=" ">
<path fill="none" stroke="#63b8ff" d="M89,-15.25C96.87,-15.25 105.16,-15.25 113.3,-15.25"/>
<polygon fill="#63b8ff" stroke="#63b8ff" points="113.13,-18.75 123.13,-15.25 113.13,-11.75 113.13,-18.75"/>
</a>
</g>
</g>
<!-- Node3 -->
<g id="Node000003" class="node">
<title>Node3</title>
<g id="a_Node000003"><a xlink:href="class_embedded_system_x_state.html#a5630d67a88100d0e67c1578a7ee43e91" target="_top" xlink:title=" ">
<polygon fill="white" stroke="#666666" points="381.75,-30.5 249.5,-30.5 249.5,0 381.75,0 381.75,-30.5"/>
<text xml:space="preserve" text-anchor="start" x="257.5" y="-17" font-family="Helvetica,sans-Serif" font-size="10.00">EmbeddedSystemXState</text>
<text xml:space="preserve" text-anchor="middle" x="315.62" y="-5.75" font-family="Helvetica,sans-Serif" font-size="10.00">::EmbeddedSystemXState</text>
</a>
</g>
</g>
<!-- Node2&#45;&gt;Node3 -->
<g id="edge2_Node000002_Node000003" class="edge">
<title>Node2&#45;&gt;Node3</title>
<g id="a_edge2_Node000002_Node000003"><a xlink:title=" ">
<path fill="none" stroke="#63b8ff" d="M213.87,-15.25C221.52,-15.25 229.68,-15.25 237.92,-15.25"/>
<polygon fill="#63b8ff" stroke="#63b8ff" points="237.65,-18.75 247.65,-15.25 237.65,-11.75 237.65,-18.75"/>
</a>
</g>
</g>
</g>
</svg>
