<?xml version="1.0" encoding="UTF-8" standalone="no"?>
<!DOCTYPE svg PUBLIC "-//W3C//DTD SVG 1.1//EN"
 "http://www.w3.org/Graphics/SVG/1.1/DTD/svg11.dtd">
<!-- Generated by graphviz version 14.0.4 (20251115.1723)
 -->
<!-- Title: ConfigurationState::restart Pages: 1 -->
<svg width="583pt" height="39pt"
 viewBox="0.00 0.00 583.00 39.00" xmlns="http://www.w3.org/2000/svg" xmlns:xlink="http://www.w3.org/1999/xlink">
<g id="graph0" class="graph" transform="scale(1 1) rotate(0) translate(4 34.5)">
<title>ConfigurationState::restart</title>
<!-- Node1 -->
<g id="Node000001" class="node">
<title>Node1</title>
<g id="a_Node000001"><a xlink:title=" ">
<polygon fill="#999999" stroke="#666666" points="97,-30.5 0,-30.5 0,0 97,0 97,-30.5"/>
<text xml:space="preserve" text-anchor="start" x="8" y="-17" font-family="Helvetica,sans-Serif" font-size="10.00">ConfigurationState</text>
<text xml:space="preserve" text-anchor="middle" x="48.5" y="-5.75" font-family="Helvetica,sans-Serif" font-size="10.00">::restart</text>
</a>
</g>
</g>
<!-- Node2 -->
<g id="Node000002" class="node">
<title>Node2</title>
<g id="a_Node000002"><a xlink:href="class_power_on_self_test_state.html#ae152baf800ee583b4c4c0c5ca16aa904" target="_top" xlink:title=" ">
<polygon fill="white" stroke="#666666" points="248.75,-30.5 133,-30.5 133,0 248.75,0 248.75,-30.5"/>
<text xml:space="preserve" text-anchor="start" x="141" y="-17" font-family="Helvetica,sans-Serif" font-size="10.00">PowerOnSelfTestState</text>
<text xml:space="preserve" text-anchor="middle" x="190.88" y="-5.75" font-family="Helvetica,sans-Serif" font-size="10.00">::getInstance</text>
</a>
</g>
</g>
<!-- Node1&#45;&gt;Node2 -->
<g id="edge1_Node000001_Node000002" class="edge">
<title>Node1&#45;&gt;Node2</title>
<g id="a_edge1_Node000001_Node000002"><a xlink:title=" ">
<path fill="none" stroke="#63b8ff" d="M97.42,-15.25C105.19,-15.25 113.37,-15.25 121.52,-15.25"/>
<polygon fill="#63b8ff" stroke="#63b8ff" points="121.46,-18.75 131.46,-15.25 121.46,-11.75 121.46,-18.75"/>
</a>
</g>
</g>
<!-- Node3 -->
<g id="Node000003" class="node">
<title>Node3</title>
<g id="a_Node000003"><a xlink:href="class_power_on_self_test_state.html#a1020e4af5a2b23ac1c6236d9ca2a71b0" target="_top" xlink:title=" ">
<polygon fill="white" stroke="#666666" points="406.5,-30.5 284.75,-30.5 284.75,0 406.5,0 406.5,-30.5"/>
<text xml:space="preserve" text-anchor="start" x="292.75" y="-17" font-family="Helvetica,sans-Serif" font-size="10.00">PowerOnSelfTestState</text>
<text xml:space="preserve" text-anchor="middle" x="345.62" y="-5.75" font-family="Helvetica,sans-Serif" font-size="10.00">::PowerOnSelfTestState</text>
</a>
</g>
</g>
<!-- Node2&#45;&gt;Node3 -->
<g id="edge2_Node000002_Node000003" class="edge">
<title>Node2&#45;&gt;Node3</title>
<g id="a_edge2_Node000002_Node000003"><a xlink:title=" ">
<path fill="none" stroke="#63b8ff" d="M249.19,-15.25C257.01,-15.25 265.12,-15.25 273.16,-15.25"/>
<polygon fill="#63b8ff" stroke="#63b8ff" points="272.93,-18.75 282.93,-15.25 272.93,-11.75 272.93,-18.75"/>
</a>
</g>
</g>
<!-- Node4 -->
<g id="Node000004" class="node">
<title>Node4</title>
<g id="a_Node000004"><a xlink:href="class_embedded_system_x_state.html#a5630d67a88100d0e67c1578a7ee43e91" target="_top" xlink:title=" ">
<polygon fill="white" stroke="#666666" points="574.75,-30.5 442.5,-30.5 442.5,0 574.75,0 574.75,-30.5"/>
<text xml:space="preserve" text-anchor="start" x="450.5" y="-17" font-family="Helvetica,sans-Serif" font-size="10.00">EmbeddedSystemXState</text>
<text xml:space="preserve" text-anchor="middle" x="508.62" y="-5.75" font-family="Helvetica,sans-Serif" font-size="10.00">::EmbeddedSystemXState</text>
</a>
</g>
</g>
<!-- Node3&#45;&gt;Node4 -->
<g id="edge3_Node000003_Node000004" class="edge">
<title>Node3&#45;&gt;Node4</title>
<g id="a_edge3_Node000003_Node000004"><a xlink:title=" ">
<path fill="none" stroke="#63b8ff" d="M406.58,-15.25C414.48,-15.25 422.66,-15.25 430.79,-15.25"/>
<polygon fill="#63b8ff" stroke="#63b8ff" points="430.71,-18.75 440.71,-15.25 430.71,-11.75 430.71,-18.75"/>
</a>
</g>
</g>
</g>
</svg>
