<?xml version="1.0" encoding="UTF-8" standalone="no"?>
<!DOCTYPE svg PUBLIC "-//W3C//DTD SVG 1.1//EN"
 "http://www.w3.org/Graphics/SVG/1.1/DTD/svg11.dtd">
<!-- Generated by graphviz version 14.0.4 (20251115.1723)
 -->
<!-- Title: ReadyState::getInstance Pages: 1 -->
<svg width="463pt" height="39pt"
 viewBox="0.00 0.00 463.00 39.00" xmlns="http://www.w3.org/2000/svg" xmlns:xlink="http://www.w3.org/1999/xlink">
<g id="graph0" class="graph" transform="scale(1 1) rotate(0) translate(4 34.5)">
<title>ReadyState::getInstance</title>
<!-- Node1 -->
<g id="Node000001" class="node">
<title>Node1</title>
<g id="a_Node000001"><a xlink:title=" ">
<polygon fill="#999999" stroke="#666666" points="124.75,-24.88 0,-24.88 0,-5.63 124.75,-5.63 124.75,-24.88"/>
<text xml:space="preserve" text-anchor="middle" x="62.38" y="-11.38" font-family="Helvetica,sans-Serif" font-size="10.00">ReadyState::getInstance</text>
</a>
</g>
</g>
<!-- Node2 -->
<g id="Node000002" class="node">
<title>Node2</title>
<g id="a_Node000002"><a xlink:href="class_ready_state.html#a497319f3099ba7ab061bfae0658da9bd" target="_top" xlink:title=" ">
<polygon fill="white" stroke="#666666" points="286.25,-24.88 160.75,-24.88 160.75,-5.63 286.25,-5.63 286.25,-24.88"/>
<text xml:space="preserve" text-anchor="middle" x="223.5" y="-11.38" font-family="Helvetica,sans-Serif" font-size="10.00">ReadyState::ReadyState</text>
</a>
</g>
</g>
<!-- Node1&#45;&gt;Node2 -->
<g id="edge1_Node000001_Node000002" class="edge">
<title>Node1&#45;&gt;Node2</title>
<g id="a_edge1_Node000001_Node000002"><a xlink:title=" ">
<path fill="none" stroke="#63b8ff" d="M124.9,-15.25C132.8,-15.25 140.96,-15.25 149.03,-15.25"/>
<polygon fill="#63b8ff" stroke="#63b8ff" points="148.84,-18.75 158.84,-15.25 148.84,-11.75 148.84,-18.75"/>
</a>
</g>
</g>
<!-- Node3 -->
<g id="Node000003" class="node">
<title>Node3</title>
<g id="a_Node000003"><a xlink:href="class_embedded_system_x_state.html#a5630d67a88100d0e67c1578a7ee43e91" target="_top" xlink:title=" ">
<polygon fill="white" stroke="#666666" points="454.5,-30.5 322.25,-30.5 322.25,0 454.5,0 454.5,-30.5"/>
<text xml:space="preserve" text-anchor="start" x="330.25" y="-17" font-family="Helvetica,sans-Serif" font-size="10.00">EmbeddedSystemXState</text>
<text xml:space="preserve" text-anchor="middle" x="388.38" y="-5.75" font-family="Helvetica,sans-Serif" font-size="10.00">::EmbeddedSystemXState</text>
</a>
</g>
</g>
<!-- Node2&#45;&gt;Node3 -->
<g id="edge2_Node000002_Node000003" class="edge">
<title>Node2&#45;&gt;Node3</title>
<g id="a_edge2_Node000002_Node000003"><a xlink:title=" ">
<path fill="none" stroke="#63b8ff" d="M286.54,-15.25C294.42,-15.25 302.56,-15.25 310.64,-15.25"/>
<polygon fill="#63b8ff" stroke="#63b8ff" points="310.47,-18.75 320.47,-15.25 310.47,-11.75 310.47,-18.75"/>
</a>
</g>
</g>
</g>
</svg>
