<?xml version="1.0" encoding="UTF-8" standalone="no"?>
<!DOCTYPE svg PUBLIC "-//W3C//DTD SVG 1.1//EN"
 "http://www.w3.org/Graphics/SVG/1.1/DTD/svg11.dtd">
<!-- Generated by graphviz version 14.0.4 (20251115.1723)
 -->
<!-- Title: State_of_machine Pages: 1 -->
<svg width="133pt" height="118pt"
 viewBox="0.00 0.00 133.00 118.00" xmlns="http://www.w3.org/2000/svg" xmlns:xlink="http://www.w3.org/1999/xlink">
<g id="graph0" class="graph" transform="scale(1 1) rotate(0) translate(4 114)">
<title>State_of_machine</title>
<!-- Node1 -->
<g id="Node000001" class="node">
<title>Node1</title>
<g id="a_Node000001"><a xlink:title=" ">
<polygon fill="#999999" stroke="none" points="125.25,-110 0,-110 0,0 125.25,0 125.25,-110"/>
<text xml:space="preserve" text-anchor="start" x="23.25" y="-96.5" font-family="Helvetica,sans-Serif" font-size="10.00">State_of_machine</text>
<text xml:space="preserve" text-anchor="start" x="61.12" y="-81.25" font-family="Helvetica,sans-Serif" font-size="10.00"> </text>
<text xml:space="preserve" text-anchor="start" x="4" y="-66" font-family="Helvetica,sans-Serif" font-size="10.00">+</text>
<text xml:space="preserve" text-anchor="start" x="14" y="-66" font-family="Helvetica,sans-Serif" font-size="10.00">virtual void ON_upon</text>
<text xml:space="preserve" text-anchor="start" x="14" y="-54.75" font-family="Helvetica,sans-Serif" font-size="10.00">_request(Machine *given</text>
<text xml:space="preserve" text-anchor="start" x="14" y="-43.5" font-family="Helvetica,sans-Serif" font-size="10.00">_machine)</text>
<text xml:space="preserve" text-anchor="start" x="4" y="-28.25" font-family="Helvetica,sans-Serif" font-size="10.00">+</text>
<text xml:space="preserve" text-anchor="start" x="14" y="-28.25" font-family="Helvetica,sans-Serif" font-size="10.00">virtual void OFF_upon</text>
<text xml:space="preserve" text-anchor="start" x="14" y="-17" font-family="Helvetica,sans-Serif" font-size="10.00">_request(Machine *given</text>
<text xml:space="preserve" text-anchor="start" x="14" y="-5.75" font-family="Helvetica,sans-Serif" font-size="10.00">_machine)</text>
<polygon fill="#666666" stroke="#666666" points="0,-92.75 0,-92.75 125.25,-92.75 125.25,-92.75 0,-92.75"/>
<polygon fill="#666666" stroke="#666666" points="0,-77.5 0,-77.5 125.25,-77.5 125.25,-77.5 0,-77.5"/>
<polygon fill="none" stroke="#666666" points="0,0 0,-110 125.25,-110 125.25,0 0,0"/>
</a>
</g>
</g>
</g>
</svg>
