<?xml version="1.0" encoding="UTF-8" standalone="no"?>
<!DOCTYPE svg PUBLIC "-//W3C//DTD SVG 1.1//EN"
 "http://www.w3.org/Graphics/SVG/1.1/DTD/svg11.dtd">
<!-- Generated by graphviz version 14.0.4 (20251115.1723)
 -->
<!-- Title: EmbeddedSystemXState::EmbeddedSystemXState Pages: 1 -->
<!--zoomable 583 -->

<svg id="main" version="1.1" xmlns="http://www.w3.org/2000/svg" xmlns:xlink="http://www.w3.org/1999/xlink" xml:space="preserve" onload="init(evt)">

<style type="text/css"><![CDATA[
.node, .edge {opacity: 0.7;}
.node.selected, .edge.selected {opacity: 1;}
.edge:hover path { stroke: red; }
.edge:hover polygon { stroke: red; fill: red; }
]]></style>

<defs>
  <circle id="rim" cx="0" cy="0" r="7"/>
  <circle id="rim2" cx="0" cy="0" r="3.5"/>
  <g id="zoomPlus">
    <use xlink:href="#rim" fill="#404040"><set attributeName="fill" to="#808080" begin="zoomplus.mouseover" end="zoomplus.mouseout"/></use>
    <path d="M-4,0h8M0,-4v8" fill="none" stroke="white" stroke-width="1.5" pointer-events="none"/>
  </g>
  <g id="zoomMin">
    <use xlink:href="#rim" fill="#404040"><set attributeName="fill" to="#808080" begin="zoomminus.mouseover" end="zoomminus.mouseout"/></use>
    <path d="M-4,0h8" fill="none" stroke="white" stroke-width="1.5" pointer-events="none"/>
  </g>
  <g id="arrowUp" transform="translate(30 24)">
    <use xlink:href="#rim"/>
    <path pointer-events="none" fill="none" stroke="white" stroke-width="1.5" d="M0,-3.0v7 M-2.5,-0.5L0,-3.0L2.5,-0.5"/>
  </g>
  <g id="arrowRight" transform="rotate(90) translate(36 -43)">
    <use xlink:href="#rim"/>
    <path pointer-events="none" fill="none" stroke="white" stroke-width="1.5" d="M0,-3.0v7 M-2.5,-0.5L0,-3.0L2.5,-0.5"/>
  </g>
  <g id="arrowDown" transform="rotate(180) translate(-30 -48)">
    <use xlink:href="#rim"/>
    <path pointer-events="none" fill="none" stroke="white" stroke-width="1.5" d="M0,-3.0v7 M-2.5,-0.5L0,-3.0L2.5,-0.5"/>
  </g>
  <g id="arrowLeft" transform="rotate(270) translate(-36 17)">
    <use xlink:href="#rim"/>
    <path pointer-events="none" fill="none" stroke="white" stroke-width="1.5" d="M0,-3.0v7 M-2.5,-0.5L0,-3.0L2.5,-0.5"/>
  </g>
  <g id="resetDef">
    <use xlink:href="#rim2" fill="#404040"><set attributeName="fill" to="#808080" begin="reset.mouseover" end="reset.mouseout"/></use>
  </g>
</defs>
<script type="application/ecmascript">
var viewWidth = 673;
var viewHeight = 583;
var sectionId = 'dynsection-2';
</script>
<script type="application/ecmascript" xlink:href="svg.min.js"/>
<svg id="graph" class="graph">
<g id="viewport">
<title>EmbeddedSystemXState::EmbeddedSystemXState</title>
<!-- Node1 -->
<g id="Node000001" class="node">
<title>Node1</title>
<g id="a_Node000001"><a xlink:title=" ">
<polygon fill="#999999" stroke="#666666" points="664.75,-407.88 532.5,-407.88 532.5,-377.38 664.75,-377.38 664.75,-407.88"/>
<text xml:space="preserve" text-anchor="start" x="540.5" y="-394.38" font-family="Helvetica,sans-Serif" font-size="10.00">EmbeddedSystemXState</text>
<text xml:space="preserve" text-anchor="middle" x="598.62" y="-383.12" font-family="Helvetica,sans-Serif" font-size="10.00">::EmbeddedSystemXState</text>
</a>
</g>
</g>
<!-- Node2 -->
<g id="Node000002" class="node">
<title>Node2</title>
<g id="a_Node000002"><a xlink:href="class_configuration_state.html#ad64970b29021309679964cf9c3bce36a" target="_top" xlink:title=" ">
<polygon fill="white" stroke="#666666" points="475.88,-569.88 372.88,-569.88 372.88,-539.38 475.88,-539.38 475.88,-569.88"/>
<text xml:space="preserve" text-anchor="start" x="380.88" y="-556.38" font-family="Helvetica,sans-Serif" font-size="10.00">ConfigurationState</text>
<text xml:space="preserve" text-anchor="middle" x="424.38" y="-545.12" font-family="Helvetica,sans-Serif" font-size="10.00">::ConfigurationState</text>
</a>
</g>
</g>
<!-- Node1&#45;&gt;Node2 -->
<g id="edge1_Node000001_Node000002" class="edge">
<title>Node1&#45;&gt;Node2</title>
<g id="a_edge1_Node000001_Node000002"><a xlink:title=" ">
<path fill="none" stroke="#63b8ff" d="M584.18,-418.1C567.31,-447.85 535.77,-496.79 496.5,-526.62 490.16,-531.44 482.88,-535.54 475.46,-538.99"/>
<polygon fill="#63b8ff" stroke="#63b8ff" points="587.21,-419.84 588.99,-409.4 581.09,-416.46 587.21,-419.84"/>
</a>
</g>
</g>
<!-- Node5 -->
<g id="Node000005" class="node">
<title>Node5</title>
<g id="a_Node000005"><a xlink:href="class_failure_state.html#a2ec44ef17dc39f0093d29ef996958325" target="_top" xlink:title=" ">
<polygon fill="white" stroke="#666666" points="487.88,-517.25 360.88,-517.25 360.88,-498 487.88,-498 487.88,-517.25"/>
<text xml:space="preserve" text-anchor="middle" x="424.38" y="-503.75" font-family="Helvetica,sans-Serif" font-size="10.00">FailureState::FailureState</text>
</a>
</g>
</g>
<!-- Node1&#45;&gt;Node5 -->
<g id="edge4_Node000001_Node000005" class="edge">
<title>Node1&#45;&gt;Node5</title>
<g id="a_edge4_Node000001_Node000005"><a xlink:title=" ">
<path fill="none" stroke="#63b8ff" d="M575.31,-416.24C555.95,-435.62 526.42,-462.71 496.5,-480.62 484.94,-487.55 471.3,-493.24 459.08,-497.58"/>
<polygon fill="#63b8ff" stroke="#63b8ff" points="577.64,-418.86 582.14,-409.27 572.64,-413.96 577.64,-418.86"/>
</a>
</g>
</g>
<!-- Node8 -->
<g id="Node000008" class="node">
<title>Node8</title>
<g id="a_Node000008"><a xlink:href="class_initializing_state.html#a0171b550bdf18be89167d4a478009c69" target="_top" xlink:title=" ">
<polygon fill="white" stroke="#666666" points="468.75,-471.88 380,-471.88 380,-441.38 468.75,-441.38 468.75,-471.88"/>
<text xml:space="preserve" text-anchor="start" x="388" y="-458.38" font-family="Helvetica,sans-Serif" font-size="10.00">InitializingState::</text>
<text xml:space="preserve" text-anchor="middle" x="424.38" y="-447.12" font-family="Helvetica,sans-Serif" font-size="10.00">InitializingState</text>
</a>
</g>
</g>
<!-- Node1&#45;&gt;Node8 -->
<g id="edge7_Node000001_Node000008" class="edge">
<title>Node1&#45;&gt;Node8</title>
<g id="a_edge7_Node000001_Node000008"><a xlink:title=" ">
<path fill="none" stroke="#63b8ff" d="M544.81,-412.25C520.05,-421.45 490.95,-432.26 467.67,-440.91"/>
<polygon fill="#63b8ff" stroke="#63b8ff" points="545.91,-415.57 554.07,-408.81 543.48,-409.01 545.91,-415.57"/>
</a>
</g>
</g>
<!-- Node11 -->
<g id="Node000011" class="node">
<title>Node11</title>
<g id="a_Node000011"><a xlink:href="class_operational_state.html#ae3abfc6d0545ae4e82369b73e745f224" target="_top" xlink:title=" ">
<polygon fill="white" stroke="#666666" points="496.5,-407.88 352.25,-407.88 352.25,-377.38 496.5,-377.38 496.5,-407.88"/>
<text xml:space="preserve" text-anchor="start" x="360.25" y="-394.38" font-family="Helvetica,sans-Serif" font-size="10.00">OperationalState::Operational</text>
<text xml:space="preserve" text-anchor="middle" x="424.38" y="-383.12" font-family="Helvetica,sans-Serif" font-size="10.00">State</text>
</a>
</g>
</g>
<!-- Node1&#45;&gt;Node11 -->
<g id="edge10_Node000001_Node000011" class="edge">
<title>Node1&#45;&gt;Node11</title>
<g id="a_edge10_Node000001_Node000011"><a xlink:title=" ">
<path fill="none" stroke="#63b8ff" d="M520.55,-392.62C512.66,-392.62 504.66,-392.62 496.83,-392.62"/>
<polygon fill="#63b8ff" stroke="#63b8ff" points="520.5,-396.13 530.5,-392.63 520.5,-389.13 520.5,-396.13"/>
</a>
</g>
</g>
<!-- Node15 -->
<g id="Node000015" class="node">
<title>Node15</title>
<g id="a_Node000015"><a xlink:href="class_power_on_self_test_state.html#a1020e4af5a2b23ac1c6236d9ca2a71b0" target="_top" xlink:title=" ">
<polygon fill="white" stroke="#666666" points="485.25,-334.88 363.5,-334.88 363.5,-304.38 485.25,-304.38 485.25,-334.88"/>
<text xml:space="preserve" text-anchor="start" x="371.5" y="-321.38" font-family="Helvetica,sans-Serif" font-size="10.00">PowerOnSelfTestState</text>
<text xml:space="preserve" text-anchor="middle" x="424.38" y="-310.12" font-family="Helvetica,sans-Serif" font-size="10.00">::PowerOnSelfTestState</text>
</a>
</g>
</g>
<!-- Node1&#45;&gt;Node15 -->
<g id="edge14_Node000001_Node000015" class="edge">
<title>Node1&#45;&gt;Node15</title>
<g id="a_edge14_Node000001_Node000015"><a xlink:title=" ">
<path fill="none" stroke="#63b8ff" d="M550.4,-372.61C522.62,-360.84 488.02,-346.18 462.27,-335.26"/>
<polygon fill="#63b8ff" stroke="#63b8ff" points="548.71,-375.69 559.28,-376.37 551.44,-369.25 548.71,-375.69"/>
</a>
</g>
</g>
<!-- Node23 -->
<g id="Node000023" class="node">
<title>Node23</title>
<g id="a_Node000023"><a xlink:href="class_ready_state.html#a497319f3099ba7ab061bfae0658da9bd" target="_top" xlink:title=" ">
<polygon fill="white" stroke="#666666" points="487.12,-238.25 361.62,-238.25 361.62,-219 487.12,-219 487.12,-238.25"/>
<text xml:space="preserve" text-anchor="middle" x="424.38" y="-224.75" font-family="Helvetica,sans-Serif" font-size="10.00">ReadyState::ReadyState</text>
</a>
</g>
</g>
<!-- Node1&#45;&gt;Node23 -->
<g id="edge22_Node000001_Node000023" class="edge">
<title>Node1&#45;&gt;Node23</title>
<g id="a_edge22_Node000001_Node000023"><a xlink:title=" ">
<path fill="none" stroke="#63b8ff" d="M573.42,-369.29C552.97,-349.6 522.88,-320.7 496.5,-295.62 475.11,-275.29 449.94,-251.64 436.01,-238.58"/>
<polygon fill="#63b8ff" stroke="#63b8ff" points="570.83,-371.66 580.46,-376.07 575.69,-366.62 570.83,-371.66"/>
</a>
</g>
</g>
<!-- Node27 -->
<g id="Node000027" class="node">
<title>Node27</title>
<g id="a_Node000027"><a xlink:href="class_suspended_state.html#afcec59fe5067ed66b3d544224ea3d7e6" target="_top" xlink:title=" ">
<polygon fill="white" stroke="#666666" points="495.75,-105.88 353,-105.88 353,-75.38 495.75,-75.38 495.75,-105.88"/>
<text xml:space="preserve" text-anchor="start" x="361" y="-92.38" font-family="Helvetica,sans-Serif" font-size="10.00">SuspendedState::Suspended</text>
<text xml:space="preserve" text-anchor="middle" x="424.38" y="-81.12" font-family="Helvetica,sans-Serif" font-size="10.00">State</text>
</a>
</g>
</g>
<!-- Node1&#45;&gt;Node27 -->
<g id="edge26_Node000001_Node000027" class="edge">
<title>Node1&#45;&gt;Node27</title>
<g id="a_edge26_Node000001_Node000027"><a xlink:title=" ">
<path fill="none" stroke="#63b8ff" d="M584.03,-367.39C564.86,-331.95 528.64,-265.52 496.5,-209.62 475.03,-172.27 448.81,-128.98 434.98,-106.31"/>
<polygon fill="#63b8ff" stroke="#63b8ff" points="580.86,-368.88 588.69,-376.01 587.02,-365.55 580.86,-368.88"/>
</a>
</g>
</g>
<!-- Node3 -->
<g id="Node000003" class="node">
<title>Node3</title>
<g id="a_Node000003"><a xlink:href="class_configuration_state.html#ae8c10885d597cc4cacf9cde057cc4723" target="_top" xlink:title=" ">
<polygon fill="white" stroke="#666666" points="291.88,-574.88 194.88,-574.88 194.88,-544.38 291.88,-544.38 291.88,-574.88"/>
<text xml:space="preserve" text-anchor="start" x="202.88" y="-561.38" font-family="Helvetica,sans-Serif" font-size="10.00">ConfigurationState</text>
<text xml:space="preserve" text-anchor="middle" x="243.38" y="-550.12" font-family="Helvetica,sans-Serif" font-size="10.00">::getInstance</text>
</a>
</g>
</g>
<!-- Node2&#45;&gt;Node3 -->
<g id="edge2_Node000002_Node000003" class="edge">
<title>Node2&#45;&gt;Node3</title>
<g id="a_edge2_Node000002_Node000003"><a xlink:title=" ">
<path fill="none" stroke="#63b8ff" d="M361.34,-556.36C338.7,-556.99 313.46,-557.7 292.24,-558.29"/>
<polygon fill="#63b8ff" stroke="#63b8ff" points="361.15,-559.86 371.05,-556.09 360.95,-552.87 361.15,-559.86"/>
</a>
</g>
</g>
<!-- Node4 -->
<g id="Node000004" class="node">
<title>Node4</title>
<g id="a_Node000004"><a xlink:href="class_operational_state.html#a8efc9f71ab6dcd775e998d4ad2a96c2b" target="_top" xlink:title=" ">
<polygon fill="white" stroke="#666666" points="134.5,-572.25 0,-572.25 0,-553 134.5,-553 134.5,-572.25"/>
<text xml:space="preserve" text-anchor="middle" x="67.25" y="-558.75" font-family="Helvetica,sans-Serif" font-size="10.00">OperationalState::configure</text>
</a>
</g>
</g>
<!-- Node3&#45;&gt;Node4 -->
<g id="edge3_Node000003_Node000004" class="edge">
<title>Node3&#45;&gt;Node4</title>
<g id="a_edge3_Node000003_Node000004"><a xlink:title=" ">
<path fill="none" stroke="#63b8ff" d="M183.63,-560.64C167.91,-560.91 150.8,-561.2 134.7,-561.48"/>
<polygon fill="#63b8ff" stroke="#63b8ff" points="183.34,-564.14 193.28,-560.47 183.22,-557.14 183.34,-564.14"/>
</a>
</g>
</g>
<!-- Node6 -->
<g id="Node000006" class="node">
<title>Node6</title>
<g id="a_Node000006"><a xlink:href="class_failure_state.html#af8df67121215589d804b1f1872eec2ab" target="_top" xlink:title=" ">
<polygon fill="white" stroke="#666666" points="306.12,-524.25 180.62,-524.25 180.62,-505 306.12,-505 306.12,-524.25"/>
<text xml:space="preserve" text-anchor="middle" x="243.38" y="-510.75" font-family="Helvetica,sans-Serif" font-size="10.00">FailureState::getInstance</text>
</a>
</g>
</g>
<!-- Node5&#45;&gt;Node6 -->
<g id="edge5_Node000005_Node000006" class="edge">
<title>Node5&#45;&gt;Node6</title>
<g id="a_edge5_Node000005_Node000006"><a xlink:title=" ">
<path fill="none" stroke="#63b8ff" d="M349.25,-510.52C335.03,-511.08 320.27,-511.66 306.48,-512.2"/>
<polygon fill="#63b8ff" stroke="#63b8ff" points="349.15,-514.03 359.01,-510.14 348.88,-507.04 349.15,-514.03"/>
</a>
</g>
</g>
<!-- Node7 -->
<g id="Node000007" class="node">
<title>Node7</title>
<g id="a_Node000007"><a xlink:href="class_power_on_self_test_state.html#a68e3bab150a0b81941bab395f2ce9635" target="_top" xlink:title=" ">
<polygon fill="white" stroke="#666666" points="125.12,-534.88 9.38,-534.88 9.38,-504.38 125.12,-504.38 125.12,-534.88"/>
<text xml:space="preserve" text-anchor="start" x="17.38" y="-521.38" font-family="Helvetica,sans-Serif" font-size="10.00">PowerOnSelfTestState</text>
<text xml:space="preserve" text-anchor="middle" x="67.25" y="-510.12" font-family="Helvetica,sans-Serif" font-size="10.00">::selfTestFailed</text>
</a>
</g>
</g>
<!-- Node6&#45;&gt;Node7 -->
<g id="edge6_Node000006_Node000007" class="edge">
<title>Node6&#45;&gt;Node7</title>
<g id="a_edge6_Node000006_Node000007"><a xlink:title=" ">
<path fill="none" stroke="#63b8ff" d="M169,-516.73C154.49,-517.15 139.45,-517.58 125.57,-517.98"/>
<polygon fill="#63b8ff" stroke="#63b8ff" points="169.09,-520.23 178.98,-516.45 168.89,-513.23 169.09,-520.23"/>
</a>
</g>
</g>
<!-- Node9 -->
<g id="Node000009" class="node">
<title>Node9</title>
<g id="a_Node000009"><a xlink:href="class_initializing_state.html#a5f2b35fd0799f7c5e3f1c5fe50ef5f0f" target="_top" xlink:title=" ">
<polygon fill="white" stroke="#666666" points="287.75,-480.88 199,-480.88 199,-450.38 287.75,-450.38 287.75,-480.88"/>
<text xml:space="preserve" text-anchor="start" x="207" y="-467.38" font-family="Helvetica,sans-Serif" font-size="10.00">InitializingState::</text>
<text xml:space="preserve" text-anchor="middle" x="243.38" y="-456.12" font-family="Helvetica,sans-Serif" font-size="10.00">getInstance</text>
</a>
</g>
</g>
<!-- Node8&#45;&gt;Node9 -->
<g id="edge8_Node000008_Node000009" class="edge">
<title>Node8&#45;&gt;Node9</title>
<g id="a_edge8_Node000008_Node000009"><a xlink:title=" ">
<path fill="none" stroke="#63b8ff" d="M368.1,-459.4C342.35,-460.7 312.14,-462.22 288.02,-463.43"/>
<polygon fill="#63b8ff" stroke="#63b8ff" points="368.26,-462.9 378.08,-458.9 367.91,-455.91 368.26,-462.9"/>
</a>
</g>
</g>
<!-- Node10 -->
<g id="Node000010" class="node">
<title>Node10</title>
<g id="a_Node000010"><a xlink:href="class_power_on_self_test_state.html#a27ae316e06235041d8f13039a7bc2afe" target="_top" xlink:title=" ">
<polygon fill="white" stroke="#666666" points="125.12,-485.88 9.38,-485.88 9.38,-455.38 125.12,-455.38 125.12,-485.88"/>
<text xml:space="preserve" text-anchor="start" x="17.38" y="-472.38" font-family="Helvetica,sans-Serif" font-size="10.00">PowerOnSelfTestState</text>
<text xml:space="preserve" text-anchor="middle" x="67.25" y="-461.12" font-family="Helvetica,sans-Serif" font-size="10.00">::selfTestOk</text>
</a>
</g>
</g>
<!-- Node9&#45;&gt;Node10 -->
<g id="edge9_Node000009_Node000010" class="edge">
<title>Node9&#45;&gt;Node10</title>
<g id="a_edge9_Node000009_Node000010"><a xlink:title=" ">
<path fill="none" stroke="#63b8ff" d="M187.55,-467.2C167.73,-467.77 145.31,-468.41 125.31,-468.99"/>
<polygon fill="#63b8ff" stroke="#63b8ff" points="187.48,-470.7 197.37,-466.92 187.28,-463.71 187.48,-470.7"/>
</a>
</g>
</g>
<!-- Node12 -->
<g id="Node000012" class="node">
<title>Node12</title>
<g id="a_Node000012"><a xlink:href="class_operational_state.html#a6ff26e3449b8162a35c0a7e8223c799d" target="_top" xlink:title=" ">
<polygon fill="white" stroke="#666666" points="316.25,-402.25 170.5,-402.25 170.5,-383 316.25,-383 316.25,-402.25"/>
<text xml:space="preserve" text-anchor="middle" x="243.38" y="-388.75" font-family="Helvetica,sans-Serif" font-size="10.00">OperationalState::getInstance</text>
</a>
</g>
</g>
<!-- Node11&#45;&gt;Node12 -->
<g id="edge11_Node000011_Node000012" class="edge">
<title>Node11&#45;&gt;Node12</title>
<g id="a_edge11_Node000011_Node000012"><a xlink:title=" ">
<path fill="none" stroke="#63b8ff" d="M340.62,-392.62C332.62,-392.62 324.54,-392.62 316.66,-392.62"/>
<polygon fill="#63b8ff" stroke="#63b8ff" points="340.34,-396.13 350.34,-392.63 340.34,-389.13 340.34,-396.13"/>
</a>
</g>
</g>
<!-- Node13 -->
<g id="Node000013" class="node">
<title>Node13</title>
<g id="a_Node000013"><a xlink:href="class_suspended_state.html#a98d4671ae0657e7113be352bf3cffc8e" target="_top" xlink:title=" ">
<polygon fill="white" stroke="#666666" points="130.38,-437.25 4.12,-437.25 4.12,-418 130.38,-418 130.38,-437.25"/>
<text xml:space="preserve" text-anchor="middle" x="67.25" y="-423.75" font-family="Helvetica,sans-Serif" font-size="10.00">SuspendedState::resume</text>
</a>
</g>
</g>
<!-- Node12&#45;&gt;Node13 -->
<g id="edge12_Node000012_Node000013" class="edge">
<title>Node12&#45;&gt;Node13</title>
<g id="a_edge12_Node000012_Node000013"><a xlink:title=" ">
<path fill="none" stroke="#63b8ff" d="M180.91,-404.98C160.48,-409.09 137.98,-413.61 118.5,-417.52"/>
<polygon fill="#63b8ff" stroke="#63b8ff" points="181.41,-408.45 190.53,-403.05 180.03,-401.59 181.41,-408.45"/>
</a>
</g>
</g>
<!-- Node14 -->
<g id="Node000014" class="node">
<title>Node14</title>
<g id="a_Node000014"><a xlink:href="class_ready_state.html#afca7afc96e449d8a719f3f22e61bc924" target="_top" xlink:title=" ">
<polygon fill="white" stroke="#666666" points="113.88,-400.25 20.62,-400.25 20.62,-381 113.88,-381 113.88,-400.25"/>
<text xml:space="preserve" text-anchor="middle" x="67.25" y="-386.75" font-family="Helvetica,sans-Serif" font-size="10.00">ReadyState::start</text>
</a>
</g>
</g>
<!-- Node12&#45;&gt;Node14 -->
<g id="edge13_Node000012_Node000014" class="edge">
<title>Node12&#45;&gt;Node14</title>
<g id="a_edge13_Node000012_Node000014"><a xlink:title=" ">
<path fill="none" stroke="#63b8ff" d="M158.9,-391.67C143.53,-391.49 128,-391.31 114.25,-391.15"/>
<polygon fill="#63b8ff" stroke="#63b8ff" points="158.49,-395.16 168.53,-391.78 158.57,-388.16 158.49,-395.16"/>
</a>
</g>
</g>
<!-- Node16 -->
<g id="Node000016" class="node">
<title>Node16</title>
<g id="a_Node000016"><a xlink:href="class_power_on_self_test_state.html#ae152baf800ee583b4c4c0c5ca16aa904" target="_top" xlink:title=" ">
<polygon fill="white" stroke="#666666" points="301.25,-276.88 185.5,-276.88 185.5,-246.38 301.25,-246.38 301.25,-276.88"/>
<text xml:space="preserve" text-anchor="start" x="193.5" y="-263.38" font-family="Helvetica,sans-Serif" font-size="10.00">PowerOnSelfTestState</text>
<text xml:space="preserve" text-anchor="middle" x="243.38" y="-252.12" font-family="Helvetica,sans-Serif" font-size="10.00">::getInstance</text>
</a>
</g>
</g>
<!-- Node15&#45;&gt;Node16 -->
<g id="edge15_Node000015_Node000016" class="edge">
<title>Node15&#45;&gt;Node16</title>
<g id="a_edge15_Node000015_Node000016"><a xlink:title=" ">
<path fill="none" stroke="#63b8ff" d="M364.2,-300.45C341.06,-292.95 314.85,-284.46 292.85,-277.33"/>
<polygon fill="#63b8ff" stroke="#63b8ff" points="362.9,-303.71 373.5,-303.46 365.06,-297.05 362.9,-303.71"/>
</a>
</g>
</g>
<!-- Node17 -->
<g id="Node000017" class="node">
<title>Node17</title>
<g id="a_Node000017"><a xlink:href="class_configuration_state.html#ab667ff4fd7114cce9a39042235b7ed90" target="_top" xlink:title=" ">
<polygon fill="white" stroke="#666666" points="115.75,-362.88 18.75,-362.88 18.75,-332.38 115.75,-332.38 115.75,-362.88"/>
<text xml:space="preserve" text-anchor="start" x="26.75" y="-349.38" font-family="Helvetica,sans-Serif" font-size="10.00">ConfigurationState</text>
<text xml:space="preserve" text-anchor="middle" x="67.25" y="-338.12" font-family="Helvetica,sans-Serif" font-size="10.00">::restart</text>
</a>
</g>
</g>
<!-- Node16&#45;&gt;Node17 -->
<g id="edge16_Node000016_Node000017" class="edge">
<title>Node16&#45;&gt;Node17</title>
<g id="a_edge16_Node000016_Node000017"><a xlink:title=" ">
<path fill="none" stroke="#63b8ff" d="M208.51,-283.12C187.65,-295.85 160.09,-311.74 134.5,-323.62 128.18,-326.56 121.38,-329.38 114.64,-331.99"/>
<polygon fill="#63b8ff" stroke="#63b8ff" points="210.21,-286.19 216.89,-277.96 206.54,-280.23 210.21,-286.19"/>
</a>
</g>
</g>
<!-- Node18 -->
<g id="Node000018" class="node">
<title>Node18</title>
<g id="a_Node000018"><a xlink:href="class_failure_state.html#a92512453ab6c2bc05c7913955cdf3228" target="_top" xlink:title=" ">
<polygon fill="white" stroke="#666666" points="118.38,-314.25 16.12,-314.25 16.12,-295 118.38,-295 118.38,-314.25"/>
<text xml:space="preserve" text-anchor="middle" x="67.25" y="-300.75" font-family="Helvetica,sans-Serif" font-size="10.00">FailureState::restart</text>
</a>
</g>
</g>
<!-- Node16&#45;&gt;Node18 -->
<g id="edge17_Node000016_Node000018" class="edge">
<title>Node16&#45;&gt;Node18</title>
<g id="a_edge17_Node000016_Node000018"><a xlink:title=" ">
<path fill="none" stroke="#63b8ff" d="M174.36,-278.42C152.31,-283.87 128.55,-289.73 109.11,-294.53"/>
<polygon fill="#63b8ff" stroke="#63b8ff" points="175.02,-281.86 183.89,-276.07 173.34,-275.07 175.02,-281.86"/>
</a>
</g>
</g>
<!-- Node19 -->
<g id="Node000019" class="node">
<title>Node19</title>
<g id="a_Node000019"><a xlink:href="class_initializing_state.html#a67d16e73603bd66acfbc7e2568a631a1" target="_top" xlink:title=" ">
<polygon fill="white" stroke="#666666" points="111.62,-276.88 22.88,-276.88 22.88,-246.38 111.62,-246.38 111.62,-276.88"/>
<text xml:space="preserve" text-anchor="start" x="30.88" y="-263.38" font-family="Helvetica,sans-Serif" font-size="10.00">InitializingState::</text>
<text xml:space="preserve" text-anchor="middle" x="67.25" y="-252.12" font-family="Helvetica,sans-Serif" font-size="10.00">restart</text>
</a>
</g>
</g>
<!-- Node16&#45;&gt;Node19 -->
<g id="edge18_Node000016_Node000019" class="edge">
<title>Node16&#45;&gt;Node19</title>
<g id="a_edge18_Node000016_Node000019"><a xlink:title=" ">
<path fill="none" stroke="#63b8ff" d="M173.94,-261.62C153.03,-261.62 130.63,-261.62 111.86,-261.62"/>
<polygon fill="#63b8ff" stroke="#63b8ff" points="173.85,-265.13 183.85,-261.63 173.85,-258.13 173.85,-265.13"/>
</a>
</g>
</g>
<!-- Node20 -->
<g id="Node000020" class="node">
<title>Node20</title>
<g id="a_Node000020"><a xlink:href="class_operational_state.html#ab4fb1ab9af563a2566b1c6c48062ce0d" target="_top" xlink:title=" ">
<polygon fill="white" stroke="#666666" points="128.5,-228.25 6,-228.25 6,-209 128.5,-209 128.5,-228.25"/>
<text xml:space="preserve" text-anchor="middle" x="67.25" y="-214.75" font-family="Helvetica,sans-Serif" font-size="10.00">OperationalState::restart</text>
</a>
</g>
</g>
<!-- Node16&#45;&gt;Node20 -->
<g id="edge19_Node000016_Node000020" class="edge">
<title>Node16&#45;&gt;Node20</title>
<g id="a_edge19_Node000016_Node000020"><a xlink:title=" ">
<path fill="none" stroke="#63b8ff" d="M174.36,-244.83C152.31,-239.38 128.55,-233.52 109.11,-228.72"/>
<polygon fill="#63b8ff" stroke="#63b8ff" points="173.34,-248.18 183.89,-247.18 175.02,-241.39 173.34,-248.18"/>
</a>
</g>
</g>
<!-- Node21 -->
<g id="Node000021" class="node">
<title>Node21</title>
<g id="a_Node000021"><a xlink:href="class_ready_state.html#abbd0ed06994f93d3c2a2e4ee7aa1f7e5" target="_top" xlink:title=" ">
<polygon fill="white" stroke="#666666" points="118,-191.25 16.5,-191.25 16.5,-172 118,-172 118,-191.25"/>
<text xml:space="preserve" text-anchor="middle" x="67.25" y="-177.75" font-family="Helvetica,sans-Serif" font-size="10.00">ReadyState::restart</text>
</a>
</g>
</g>
<!-- Node16&#45;&gt;Node21 -->
<g id="edge20_Node000016_Node000021" class="edge">
<title>Node16&#45;&gt;Node21</title>
<g id="a_edge20_Node000016_Node000021"><a xlink:title=" ">
<path fill="none" stroke="#63b8ff" d="M209.66,-239.87C188.84,-226.78 160.9,-210.59 134.5,-199.62 127.23,-196.61 119.31,-193.95 111.55,-191.67"/>
<polygon fill="#63b8ff" stroke="#63b8ff" points="207.69,-242.77 218,-245.2 211.46,-236.87 207.69,-242.77"/>
</a>
</g>
</g>
<!-- Node22 -->
<g id="Node000022" class="node">
<title>Node22</title>
<g id="a_Node000022"><a xlink:href="class_suspended_state.html#a935123391a7a11cecedda11cdef3c231" target="_top" xlink:title=" ">
<polygon fill="white" stroke="#666666" points="128.12,-154.25 6.37,-154.25 6.37,-135 128.12,-135 128.12,-154.25"/>
<text xml:space="preserve" text-anchor="middle" x="67.25" y="-140.75" font-family="Helvetica,sans-Serif" font-size="10.00">SuspendedState::restart</text>
</a>
</g>
</g>
<!-- Node16&#45;&gt;Node22 -->
<g id="edge21_Node000016_Node000022" class="edge">
<title>Node16&#45;&gt;Node22</title>
<g id="a_edge21_Node000016_Node000022"><a xlink:title=" ">
<path fill="none" stroke="#63b8ff" d="M222.26,-237.44C202.24,-214.9 169.52,-181.93 134.5,-162.62 128.76,-159.46 122.43,-156.82 116.02,-154.64"/>
<polygon fill="#63b8ff" stroke="#63b8ff" points="219.59,-239.71 228.79,-244.96 224.87,-235.12 219.59,-239.71"/>
</a>
</g>
</g>
<!-- Node24 -->
<g id="Node000024" class="node">
<title>Node24</title>
<g id="a_Node000024"><a xlink:href="class_ready_state.html#a078711a8e92dab314ef4fd17e67a2a95" target="_top" xlink:title=" ">
<polygon fill="white" stroke="#666666" points="305.75,-111.25 181,-111.25 181,-92 305.75,-92 305.75,-111.25"/>
<text xml:space="preserve" text-anchor="middle" x="243.38" y="-97.75" font-family="Helvetica,sans-Serif" font-size="10.00">ReadyState::getInstance</text>
</a>
</g>
</g>
<!-- Node23&#45;&gt;Node24 -->
<g id="edge23_Node000023_Node000024" class="edge">
<title>Node23&#45;&gt;Node24</title>
<g id="a_edge23_Node000023_Node000024"><a xlink:title=" ">
<path fill="none" stroke="#63b8ff" d="M400.13,-212.13C362.41,-185.37 289.01,-133.29 258.36,-111.54"/>
<polygon fill="#63b8ff" stroke="#63b8ff" points="397.91,-214.85 408.09,-217.78 401.96,-209.14 397.91,-214.85"/>
</a>
</g>
</g>
<!-- Node25 -->
<g id="Node000025" class="node">
<title>Node25</title>
<g id="a_Node000025"><a xlink:href="class_configuration_state.html#a3823e276d58c7ae43411fda154df3eda" target="_top" xlink:title=" ">
<polygon fill="white" stroke="#666666" points="119.88,-116.88 14.62,-116.88 14.62,-86.38 119.88,-86.38 119.88,-116.88"/>
<text xml:space="preserve" text-anchor="start" x="22.62" y="-103.38" font-family="Helvetica,sans-Serif" font-size="10.00">ConfigurationState</text>
<text xml:space="preserve" text-anchor="middle" x="67.25" y="-92.12" font-family="Helvetica,sans-Serif" font-size="10.00">::configurationEnded</text>
</a>
</g>
</g>
<!-- Node24&#45;&gt;Node25 -->
<g id="edge24_Node000024_Node000025" class="edge">
<title>Node24&#45;&gt;Node25</title>
<g id="a_edge24_Node000024_Node000025"><a xlink:title=" ">
<path fill="none" stroke="#63b8ff" d="M169.63,-101.62C153.02,-101.62 135.69,-101.62 120.15,-101.62"/>
<polygon fill="#63b8ff" stroke="#63b8ff" points="169.47,-105.13 179.47,-101.63 169.47,-98.13 169.47,-105.13"/>
</a>
</g>
</g>
<!-- Node26 -->
<g id="Node000026" class="node">
<title>Node26</title>
<g id="a_Node000026"><a xlink:href="class_initializing_state.html#a2582cc2e25714a49ede134c3fc606cbb" target="_top" xlink:title=" ">
<polygon fill="white" stroke="#666666" points="111.62,-67.88 22.88,-67.88 22.88,-37.38 111.62,-37.38 111.62,-67.88"/>
<text xml:space="preserve" text-anchor="start" x="30.88" y="-54.38" font-family="Helvetica,sans-Serif" font-size="10.00">InitializingState::</text>
<text xml:space="preserve" text-anchor="middle" x="67.25" y="-43.12" font-family="Helvetica,sans-Serif" font-size="10.00">initialized</text>
</a>
</g>
</g>
<!-- Node24&#45;&gt;Node26 -->
<g id="edge25_Node000024_Node000026" class="edge">
<title>Node24&#45;&gt;Node26</title>
<g id="a_edge25_Node000024_Node000026"><a xlink:title=" ">
<path fill="none" stroke="#63b8ff" d="M195.96,-88.56C169.87,-81.22 137.5,-72.11 111.88,-64.9"/>
<polygon fill="#63b8ff" stroke="#63b8ff" points="194.69,-91.84 205.26,-91.18 196.58,-85.1 194.69,-91.84"/>
</a>
</g>
</g>
<!-- Node28 -->
<g id="Node000028" class="node">
<title>Node28</title>
<g id="a_Node000028"><a xlink:href="class_suspended_state.html#a7c5ac4f52a44311e301be89e4c8b8bf0" target="_top" xlink:title=" ">
<polygon fill="white" stroke="#666666" points="315.88,-47.25 170.88,-47.25 170.88,-28 315.88,-28 315.88,-47.25"/>
<text xml:space="preserve" text-anchor="middle" x="243.38" y="-33.75" font-family="Helvetica,sans-Serif" font-size="10.00">SuspendedState::getInstance</text>
</a>
</g>
</g>
<!-- Node27&#45;&gt;Node28 -->
<g id="edge27_Node000027_Node000028" class="edge">
<title>Node27&#45;&gt;Node28</title>
<g id="a_edge27_Node000027_Node000028"><a xlink:title=" ">
<path fill="none" stroke="#63b8ff" d="M359.92,-71.84C332.45,-63.7 301.4,-54.51 278.41,-47.7"/>
<polygon fill="#63b8ff" stroke="#63b8ff" points="358.6,-75.1 369.19,-74.58 360.59,-68.39 358.6,-75.1"/>
</a>
</g>
</g>
<!-- Node29 -->
<g id="Node000029" class="node">
<title>Node29</title>
<g id="a_Node000029"><a xlink:href="class_operational_state.html#ac442e55c4f713d7c7cbe036cdc490102" target="_top" xlink:title=" ">
<polygon fill="white" stroke="#666666" points="133,-19.25 1.5,-19.25 1.5,0 133,0 133,-19.25"/>
<text xml:space="preserve" text-anchor="middle" x="67.25" y="-5.75" font-family="Helvetica,sans-Serif" font-size="10.00">OperationalState::suspend</text>
</a>
</g>
</g>
<!-- Node28&#45;&gt;Node29 -->
<g id="edge28_Node000028_Node000029" class="edge">
<title>Node28&#45;&gt;Node29</title>
<g id="a_edge28_Node000028_Node000029"><a xlink:title=" ">
<path fill="none" stroke="#63b8ff" d="M168.26,-25.71C155.86,-23.71 143.1,-21.66 131.02,-19.72"/>
<polygon fill="#63b8ff" stroke="#63b8ff" points="167.59,-29.14 178.02,-27.28 168.7,-22.23 167.59,-29.14"/>
</a>
</g>
</g>
</g>
</svg>

<g id="navigator" transform="translate(0 0)" fill="#404254">
  <rect fill="#f2f5e9" fill-opacity="0.5" stroke="#606060" stroke-width=".5" x="0" y="0" width="60" height="60"/>
  <use id="zoomplus" xlink:href="#zoomPlus" x="17" y="9" onmousedown="handleZoom(evt,'in')"/>
  <use id="zoomminus" xlink:href="#zoomMin" x="42" y="9" onmousedown="handleZoom(evt,'out')"/>
  <use id="reset" xlink:href="#resetDef" x="30" y="36" onmousedown="handleReset()"/>
   <use id="arrowup" xlink:href="#arrowUp" x="0" y="0" onmousedown="handlePan(0,-1)"/>
  <use id="arrowright" xlink:href="#arrowRight" x="0" y="0" onmousedown="handlePan(1,0)"/>
  <use id="arrowdown" xlink:href="#arrowDown" x="0" y="0" onmousedown="handlePan(0,1)"/>
  <use id="arrowleft" xlink:href="#arrowLeft" x="0" y="0" onmousedown="handlePan(-1,0)"/>
</g>
<svg viewBox="0 0 15 15" width="100%" height="30px" preserveAspectRatio="xMaxYMin meet">
 <g id="arrow_out" transform="scale(0.3 0.3)">
  <a xlink:href="class_embedded_system_x_state_a5630d67a88100d0e67c1578a7ee43e91_icgraph_org.svg" target="_base">
   <rect id="button" ry="5" rx="5" y="6" x="6" height="38" width="38"
        fill="#f2f5e9" fill-opacity="0.5" stroke="#606060" stroke-width="1.0"/>
   <path id="arrow"
     d="M 11.500037,31.436501 C 11.940474,20.09759 22.043105,11.32322 32.158766,21.979434 L 37.068811,17.246167 C 37.068811,17.246167 37.088388,32 37.088388,32 L 22.160133,31.978069 C 22.160133,31.978069 26.997745,27.140456 26.997745,27.140456 C 18.528582,18.264221 13.291696,25.230495 11.500037,31.436501 z"
     style="fill:#404040;"/>
  </a>
 </g>
</svg>

<style type='text/css'>
<![CDATA[
[data-mouse-over-selected='false'] { opacity: 0.7; }
[data-mouse-over-selected='true']  { opacity: 1.0; }
]]>
</style>
<script type="application/ecmascript"><![CDATA[
document.addEventListener('DOMContentLoaded', (event) => {
  highlightEdges();
  highlightAdjacentNodes();
});
]]></script>
</svg>
