<?xml version="1.0" encoding="UTF-8" standalone="no"?>
<!DOCTYPE svg PUBLIC "-//W3C//DTD SVG 1.1//EN"
 "http://www.w3.org/Graphics/SVG/1.1/DTD/svg11.dtd">
<!-- Generated by graphviz version 14.0.4 (20251115.1723)
 -->
<!-- Title: ConfigurationState::getInstance Pages: 1 -->
<svg width="276pt" height="64pt"
 viewBox="0.00 0.00 276.00 64.00" xmlns="http://www.w3.org/2000/svg" xmlns:xlink="http://www.w3.org/1999/xlink">
<g id="graph0" class="graph" transform="scale(1 1) rotate(0) translate(4 60.25)">
<title>ConfigurationState::getInstance</title>
<!-- Node1 -->
<g id="Node000001" class="node">
<title>Node1</title>
<g id="a_Node000001"><a xlink:title=" ">
<polygon fill="#999999" stroke="#666666" points="267.5,-42.88 170.5,-42.88 170.5,-12.37 267.5,-12.37 267.5,-42.88"/>
<text xml:space="preserve" text-anchor="start" x="178.5" y="-29.38" font-family="Helvetica,sans-Serif" font-size="10.00">ConfigurationState</text>
<text xml:space="preserve" text-anchor="middle" x="219" y="-18.12" font-family="Helvetica,sans-Serif" font-size="10.00">::getInstance</text>
</a>
</g>
</g>
<!-- Node2 -->
<g id="Node000002" class="node">
<title>Node2</title>
<g id="a_Node000002"><a xlink:href="class_operational_state.html#a8efc9f71ab6dcd775e998d4ad2a96c2b" target="_top" xlink:title=" ">
<polygon fill="white" stroke="#666666" points="134.5,-56.25 0,-56.25 0,-37 134.5,-37 134.5,-56.25"/>
<text xml:space="preserve" text-anchor="middle" x="67.25" y="-42.75" font-family="Helvetica,sans-Serif" font-size="10.00">OperationalState::configure</text>
</a>
</g>
</g>
<!-- Node1&#45;&gt;Node2 -->
<g id="edge1_Node000001_Node000002" class="edge">
<title>Node1&#45;&gt;Node2</title>
<g id="a_edge1_Node000001_Node000002"><a xlink:title=" ">
<path fill="none" stroke="#63b8ff" d="M158.91,-35.12C151.05,-36.12 142.95,-37.15 134.97,-38.16"/>
<polygon fill="#63b8ff" stroke="#63b8ff" points="159.23,-38.61 168.7,-33.88 158.34,-31.67 159.23,-38.61"/>
</a>
</g>
</g>
<!-- Node3 -->
<g id="Node000003" class="node">
<title>Node3</title>
<g id="a_Node000003"><a xlink:href="class_ready_state.html#a9cabd1bcb8ee050b4fa621e4c593468e" target="_top" xlink:title=" ">
<polygon fill="white" stroke="#666666" points="124,-19.25 10.5,-19.25 10.5,0 124,0 124,-19.25"/>
<text xml:space="preserve" text-anchor="middle" x="67.25" y="-5.75" font-family="Helvetica,sans-Serif" font-size="10.00">ReadyState::configure</text>
</a>
</g>
</g>
<!-- Node1&#45;&gt;Node3 -->
<g id="edge2_Node000001_Node000003" class="edge">
<title>Node1&#45;&gt;Node3</title>
<g id="a_edge2_Node000001_Node000003"><a xlink:title=" ">
<path fill="none" stroke="#63b8ff" d="M159.04,-20.54C147.66,-19.17 135.76,-17.74 124.47,-16.38"/>
<polygon fill="#63b8ff" stroke="#63b8ff" points="158.36,-23.98 168.7,-21.7 159.19,-17.03 158.36,-23.98"/>
</a>
</g>
</g>
</g>
</svg>
