<?xml version="1.0" encoding="UTF-8" standalone="no"?>
<!DOCTYPE svg PUBLIC "-//W3C//DTD SVG 1.1//EN"
 "http://www.w3.org/Graphics/SVG/1.1/DTD/svg11.dtd">
<!-- Generated by graphviz version 14.0.4 (20251115.1723)
 -->
<!-- Title: ReadyState Pages: 1 -->
<!--zoomable 632 -->

<svg id="main" version="1.1" xmlns="http://www.w3.org/2000/svg" xmlns:xlink="http://www.w3.org/1999/xlink" xml:space="preserve" onload="init(evt)">

<style type="text/css"><![CDATA[
.node, .edge {opacity: 0.7;}
.node.selected, .edge.selected {opacity: 1;}
.edge:hover path { stroke: red; }
.edge:hover polygon { stroke: red; fill: red; }
]]></style>

<defs>
  <circle id="rim" cx="0" cy="0" r="7"/>
  <circle id="rim2" cx="0" cy="0" r="3.5"/>
  <g id="zoomPlus">
    <use xlink:href="#rim" fill="#404040"><set attributeName="fill" to="#808080" begin="zoomplus.mouseover" end="zoomplus.mouseout"/></use>
    <path d="M-4,0h8M0,-4v8" fill="none" stroke="white" stroke-width="1.5" pointer-events="none"/>
  </g>
  <g id="zoomMin">
    <use xlink:href="#rim" fill="#404040"><set attributeName="fill" to="#808080" begin="zoomminus.mouseover" end="zoomminus.mouseout"/></use>
    <path d="M-4,0h8" fill="none" stroke="white" stroke-width="1.5" pointer-events="none"/>
  </g>
  <g id="arrowUp" transform="translate(30 24)">
    <use xlink:href="#rim"/>
    <path pointer-events="none" fill="none" stroke="white" stroke-width="1.5" d="M0,-3.0v7 M-2.5,-0.5L0,-3.0L2.5,-0.5"/>
  </g>
  <g id="arrowRight" transform="rotate(90) translate(36 -43)">
    <use xlink:href="#rim"/>
    <path pointer-events="none" fill="none" stroke="white" stroke-width="1.5" d="M0,-3.0v7 M-2.5,-0.5L0,-3.0L2.5,-0.5"/>
  </g>
  <g id="arrowDown" transform="rotate(180) translate(-30 -48)">
    <use xlink:href="#rim"/>
    <path pointer-events="none" fill="none" stroke="white" stroke-width="1.5" d="M0,-3.0v7 M-2.5,-0.5L0,-3.0L2.5,-0.5"/>
  </g>
  <g id="arrowLeft" transform="rotate(270) translate(-36 17)">
    <use xlink:href="#rim"/>
    <path pointer-events="none" fill="none" stroke="white" stroke-width="1.5" d="M0,-3.0v7 M-2.5,-0.5L0,-3.0L2.5,-0.5"/>
  </g>
  <g id="resetDef">
    <use xlink:href="#rim2" fill="#404040"><set attributeName="fill" to="#808080" begin="reset.mouseover" end="reset.mouseout"/></use>
  </g>
</defs>
<script type="application/ecmascript">
var viewWidth = 581;
var viewHeight = 632;
var sectionId = 'dynsection-1';
</script>
<script type="application/ecmascript" xlink:href="svg.min.js"/>
<svg id="graph" class="graph">
<g id="viewport">
<title>ReadyState</title>
<!-- Node1 -->
<g id="Node000001" class="node">
<title>Node1</title>
<g id="a_Node000001"><a xlink:title=" ">
<polygon fill="#999999" stroke="none" points="155.25,-296.62 0,-296.62 0,-11.62 155.25,-11.62 155.25,-296.62"/>
<text xml:space="preserve" text-anchor="start" x="51.75" y="-283.12" font-family="Helvetica,sans-Serif" font-size="10.00">ReadyState</text>
<text xml:space="preserve" text-anchor="start" x="76.12" y="-267.88" font-family="Helvetica,sans-Serif" font-size="10.00"> </text>
<text xml:space="preserve" text-anchor="start" x="4" y="-252.62" font-family="Helvetica,sans-Serif" font-size="10.00">+</text>
<text xml:space="preserve" text-anchor="start" x="14" y="-252.62" font-family="Helvetica,sans-Serif" font-size="10.00">void selfTestOk() override</text>
<text xml:space="preserve" text-anchor="start" x="4" y="-237.38" font-family="Helvetica,sans-Serif" font-size="10.00">+</text>
<text xml:space="preserve" text-anchor="start" x="14" y="-237.38" font-family="Helvetica,sans-Serif" font-size="10.00">void initialized()</text>
<text xml:space="preserve" text-anchor="start" x="14" y="-226.12" font-family="Helvetica,sans-Serif" font-size="10.00"> override</text>
<text xml:space="preserve" text-anchor="start" x="4" y="-210.88" font-family="Helvetica,sans-Serif" font-size="10.00">+</text>
<text xml:space="preserve" text-anchor="start" x="14" y="-210.88" font-family="Helvetica,sans-Serif" font-size="10.00">void restart() override</text>
<text xml:space="preserve" text-anchor="start" x="4" y="-195.62" font-family="Helvetica,sans-Serif" font-size="10.00">+</text>
<text xml:space="preserve" text-anchor="start" x="14" y="-195.62" font-family="Helvetica,sans-Serif" font-size="10.00">void selfTestFailed</text>
<text xml:space="preserve" text-anchor="start" x="14" y="-184.38" font-family="Helvetica,sans-Serif" font-size="10.00">(int errorNo) override</text>
<text xml:space="preserve" text-anchor="start" x="4" y="-169.12" font-family="Helvetica,sans-Serif" font-size="10.00">+</text>
<text xml:space="preserve" text-anchor="start" x="14" y="-169.12" font-family="Helvetica,sans-Serif" font-size="10.00">void configure() override</text>
<text xml:space="preserve" text-anchor="start" x="4" y="-153.88" font-family="Helvetica,sans-Serif" font-size="10.00">+</text>
<text xml:space="preserve" text-anchor="start" x="14" y="-153.88" font-family="Helvetica,sans-Serif" font-size="10.00">void configurationEnded</text>
<text xml:space="preserve" text-anchor="start" x="14" y="-142.62" font-family="Helvetica,sans-Serif" font-size="10.00">() override</text>
<text xml:space="preserve" text-anchor="start" x="4" y="-127.38" font-family="Helvetica,sans-Serif" font-size="10.00">+</text>
<text xml:space="preserve" text-anchor="start" x="14" y="-127.38" font-family="Helvetica,sans-Serif" font-size="10.00">void start() override</text>
<text xml:space="preserve" text-anchor="start" x="4" y="-112.12" font-family="Helvetica,sans-Serif" font-size="10.00">+</text>
<text xml:space="preserve" text-anchor="start" x="14" y="-112.12" font-family="Helvetica,sans-Serif" font-size="10.00">void suspend() override</text>
<text xml:space="preserve" text-anchor="start" x="4" y="-96.88" font-family="Helvetica,sans-Serif" font-size="10.00">+</text>
<text xml:space="preserve" text-anchor="start" x="14" y="-96.88" font-family="Helvetica,sans-Serif" font-size="10.00">void resume() override</text>
<text xml:space="preserve" text-anchor="start" x="4" y="-81.62" font-family="Helvetica,sans-Serif" font-size="10.00">+</text>
<text xml:space="preserve" text-anchor="start" x="14" y="-81.62" font-family="Helvetica,sans-Serif" font-size="10.00">void exit() override</text>
<text xml:space="preserve" text-anchor="start" x="4" y="-66.38" font-family="Helvetica,sans-Serif" font-size="10.00">+</text>
<text xml:space="preserve" text-anchor="start" x="14" y="-66.38" font-family="Helvetica,sans-Serif" font-size="10.00">static ReadyState *</text>
<text xml:space="preserve" text-anchor="start" x="14" y="-55.12" font-family="Helvetica,sans-Serif" font-size="10.00"> getInstance(EmbeddedSystem</text>
<text xml:space="preserve" text-anchor="start" x="14" y="-43.88" font-family="Helvetica,sans-Serif" font-size="10.00">X *ctx)</text>
<text xml:space="preserve" text-anchor="start" x="5.5" y="-28.62" font-family="Helvetica,sans-Serif" font-size="10.00">&#45;</text>
<text xml:space="preserve" text-anchor="start" x="14" y="-28.62" font-family="Helvetica,sans-Serif" font-size="10.00">ReadyState(EmbeddedSystem</text>
<text xml:space="preserve" text-anchor="start" x="14" y="-17.38" font-family="Helvetica,sans-Serif" font-size="10.00">X *ctx)</text>
<polygon fill="#666666" stroke="#666666" points="0,-279.38 0,-279.38 155.25,-279.38 155.25,-279.38 0,-279.38"/>
<polygon fill="#666666" stroke="#666666" points="0,-264.12 0,-264.12 155.25,-264.12 155.25,-264.12 0,-264.12"/>
<polygon fill="none" stroke="#666666" points="0,-11.62 0,-296.62 155.25,-296.62 155.25,-11.62 0,-11.62"/>
</a>
</g>
</g>
<!-- Node1&#45;&gt;Node1 -->
<g id="edge7_Node000001_Node000001" class="edge">
<title>Node1&#45;&gt;Node1</title>
<g id="a_edge7_Node000001_Node000001"><a xlink:title=" ">
<path fill="none" stroke="#63b8ff" d="M154.92,-184.54C165.89,-179.62 173.25,-169.48 173.25,-154.12 173.25,-144.29 170.23,-136.59 165.17,-131.04"/>
<polygon fill="none" stroke="#63b8ff" points="165.41,-131.21 158.21,-130.98 155.65,-124.24 162.86,-124.47 165.41,-131.21"/>
</a>
</g>
<text xml:space="preserve" text-anchor="start" x="176.25" y="-150.25" font-family="Helvetica,sans-Serif" font-size="10.00" fill="grey">&#45;instance</text>
</g>
<!-- Node2 -->
<g id="Node000002" class="node">
<title>Node2</title>
<g id="a_Node000002"><a xlink:href="class_embedded_system_x_state.html" target="_top" xlink:title=" ">
<polygon fill="white" stroke="none" points="291.38,-624 127.88,-624 127.88,-361.5 291.38,-361.5 291.38,-624"/>
<text xml:space="preserve" text-anchor="start" x="154.5" y="-610.5" font-family="Helvetica,sans-Serif" font-size="10.00">EmbeddedSystemXState</text>
<text xml:space="preserve" text-anchor="start" x="208.12" y="-595.25" font-family="Helvetica,sans-Serif" font-size="10.00"> </text>
<text xml:space="preserve" text-anchor="start" x="131.88" y="-580" font-family="Helvetica,sans-Serif" font-size="10.00">+</text>
<text xml:space="preserve" text-anchor="start" x="141.88" y="-580" font-family="Helvetica,sans-Serif" font-size="10.00">EmbeddedSystemXState</text>
<text xml:space="preserve" text-anchor="start" x="141.88" y="-568.75" font-family="Helvetica,sans-Serif" font-size="10.00">(EmbeddedSystemX *ctx)</text>
<text xml:space="preserve" text-anchor="start" x="131.88" y="-553.5" font-family="Helvetica,sans-Serif" font-size="10.00">+</text>
<text xml:space="preserve" text-anchor="start" x="141.88" y="-553.5" font-family="Helvetica,sans-Serif" font-size="10.00">virtual ~EmbeddedSystemXState</text>
<text xml:space="preserve" text-anchor="start" x="141.88" y="-542.25" font-family="Helvetica,sans-Serif" font-size="10.00">()=default</text>
<text xml:space="preserve" text-anchor="start" x="131.88" y="-527" font-family="Helvetica,sans-Serif" font-size="10.00">+</text>
<text xml:space="preserve" text-anchor="start" x="141.88" y="-527" font-family="Helvetica,sans-Serif" font-size="10.00">virtual void selfTestOk()=0</text>
<text xml:space="preserve" text-anchor="start" x="131.88" y="-511.75" font-family="Helvetica,sans-Serif" font-size="10.00">+</text>
<text xml:space="preserve" text-anchor="start" x="141.88" y="-511.75" font-family="Helvetica,sans-Serif" font-size="10.00">virtual void initialized()=0</text>
<text xml:space="preserve" text-anchor="start" x="131.88" y="-496.5" font-family="Helvetica,sans-Serif" font-size="10.00">+</text>
<text xml:space="preserve" text-anchor="start" x="141.88" y="-496.5" font-family="Helvetica,sans-Serif" font-size="10.00">virtual void restart()=0</text>
<text xml:space="preserve" text-anchor="start" x="131.88" y="-481.25" font-family="Helvetica,sans-Serif" font-size="10.00">+</text>
<text xml:space="preserve" text-anchor="start" x="141.88" y="-481.25" font-family="Helvetica,sans-Serif" font-size="10.00">virtual void selfTestFailed</text>
<text xml:space="preserve" text-anchor="start" x="141.88" y="-470" font-family="Helvetica,sans-Serif" font-size="10.00">(int errorNo)=0</text>
<text xml:space="preserve" text-anchor="start" x="131.88" y="-454.75" font-family="Helvetica,sans-Serif" font-size="10.00">+</text>
<text xml:space="preserve" text-anchor="start" x="141.88" y="-454.75" font-family="Helvetica,sans-Serif" font-size="10.00">virtual void configure()=0</text>
<text xml:space="preserve" text-anchor="start" x="131.88" y="-439.5" font-family="Helvetica,sans-Serif" font-size="10.00">+</text>
<text xml:space="preserve" text-anchor="start" x="141.88" y="-439.5" font-family="Helvetica,sans-Serif" font-size="10.00">virtual void configuration</text>
<text xml:space="preserve" text-anchor="start" x="141.88" y="-428.25" font-family="Helvetica,sans-Serif" font-size="10.00">Ended()=0</text>
<text xml:space="preserve" text-anchor="start" x="131.88" y="-413" font-family="Helvetica,sans-Serif" font-size="10.00">+</text>
<text xml:space="preserve" text-anchor="start" x="141.88" y="-413" font-family="Helvetica,sans-Serif" font-size="10.00">virtual void start()=0</text>
<text xml:space="preserve" text-anchor="start" x="131.88" y="-397.75" font-family="Helvetica,sans-Serif" font-size="10.00">+</text>
<text xml:space="preserve" text-anchor="start" x="141.88" y="-397.75" font-family="Helvetica,sans-Serif" font-size="10.00">virtual void suspend()=0</text>
<text xml:space="preserve" text-anchor="start" x="131.88" y="-382.5" font-family="Helvetica,sans-Serif" font-size="10.00">+</text>
<text xml:space="preserve" text-anchor="start" x="141.88" y="-382.5" font-family="Helvetica,sans-Serif" font-size="10.00">virtual void resume()=0</text>
<text xml:space="preserve" text-anchor="start" x="131.88" y="-367.25" font-family="Helvetica,sans-Serif" font-size="10.00">+</text>
<text xml:space="preserve" text-anchor="start" x="141.88" y="-367.25" font-family="Helvetica,sans-Serif" font-size="10.00">virtual void exit()=0</text>
<polygon fill="#666666" stroke="#666666" points="127.88,-606.75 127.88,-606.75 291.38,-606.75 291.38,-606.75 127.88,-606.75"/>
<polygon fill="#666666" stroke="#666666" points="127.88,-591.5 127.88,-591.5 291.38,-591.5 291.38,-591.5 127.88,-591.5"/>
<polygon fill="none" stroke="#666666" points="127.88,-361.5 127.88,-624 291.38,-624 291.38,-361.5 127.88,-361.5"/>
</a>
</g>
</g>
<!-- Node2&#45;&gt;Node1 -->
<g id="edge1_Node000001_Node000002" class="edge">
<title>Node2&#45;&gt;Node1</title>
<g id="a_edge1_Node000001_Node000002"><a xlink:title=" ">
<path fill="none" stroke="#63b8ff" d="M154.44,-351.02C147.36,-332.95 140.1,-314.45 133.01,-296.37"/>
<polygon fill="none" stroke="#63b8ff" points="151.13,-352.16 158.04,-360.19 157.65,-349.61 151.13,-352.16"/>
</a>
</g>
</g>
<!-- Node3 -->
<g id="Node000003" class="node">
<title>Node3</title>
<g id="a_Node000003"><a xlink:href="class_embedded_system_x.html" target="_top" xlink:title=" ">
<polygon fill="white" stroke="none" points="383.75,-308.25 237.5,-308.25 237.5,0 383.75,0 383.75,-308.25"/>
<text xml:space="preserve" text-anchor="start" x="267.12" y="-294.75" font-family="Helvetica,sans-Serif" font-size="10.00">EmbeddedSystemX</text>
<text xml:space="preserve" text-anchor="start" x="309.12" y="-279.5" font-family="Helvetica,sans-Serif" font-size="10.00"> </text>
<text xml:space="preserve" text-anchor="start" x="241.5" y="-264.25" font-family="Helvetica,sans-Serif" font-size="10.00">+</text>
<text xml:space="preserve" text-anchor="start" x="251.5" y="-264.25" font-family="Helvetica,sans-Serif" font-size="10.00">EmbeddedSystemX()</text>
<text xml:space="preserve" text-anchor="start" x="241.5" y="-249" font-family="Helvetica,sans-Serif" font-size="10.00">+</text>
<text xml:space="preserve" text-anchor="start" x="251.5" y="-249" font-family="Helvetica,sans-Serif" font-size="10.00">~EmbeddedSystemX()</text>
<text xml:space="preserve" text-anchor="start" x="241.5" y="-233.75" font-family="Helvetica,sans-Serif" font-size="10.00">+</text>
<text xml:space="preserve" text-anchor="start" x="251.5" y="-233.75" font-family="Helvetica,sans-Serif" font-size="10.00">void changeState(Embedded</text>
<text xml:space="preserve" text-anchor="start" x="251.5" y="-222.5" font-family="Helvetica,sans-Serif" font-size="10.00">SystemXState *newState)</text>
<text xml:space="preserve" text-anchor="start" x="241.5" y="-207.25" font-family="Helvetica,sans-Serif" font-size="10.00">+</text>
<text xml:space="preserve" text-anchor="start" x="251.5" y="-207.25" font-family="Helvetica,sans-Serif" font-size="10.00">RealTimeLoop * getRealTime</text>
<text xml:space="preserve" text-anchor="start" x="251.5" y="-196" font-family="Helvetica,sans-Serif" font-size="10.00">Loop()</text>
<text xml:space="preserve" text-anchor="start" x="241.5" y="-180.75" font-family="Helvetica,sans-Serif" font-size="10.00">+</text>
<text xml:space="preserve" text-anchor="start" x="251.5" y="-180.75" font-family="Helvetica,sans-Serif" font-size="10.00">void selfTestOk()</text>
<text xml:space="preserve" text-anchor="start" x="241.5" y="-165.5" font-family="Helvetica,sans-Serif" font-size="10.00">+</text>
<text xml:space="preserve" text-anchor="start" x="251.5" y="-165.5" font-family="Helvetica,sans-Serif" font-size="10.00">void initialized()</text>
<text xml:space="preserve" text-anchor="start" x="241.5" y="-150.25" font-family="Helvetica,sans-Serif" font-size="10.00">+</text>
<text xml:space="preserve" text-anchor="start" x="251.5" y="-150.25" font-family="Helvetica,sans-Serif" font-size="10.00">void restart()</text>
<text xml:space="preserve" text-anchor="start" x="241.5" y="-135" font-family="Helvetica,sans-Serif" font-size="10.00">+</text>
<text xml:space="preserve" text-anchor="start" x="251.5" y="-135" font-family="Helvetica,sans-Serif" font-size="10.00">void selfTestFailed</text>
<text xml:space="preserve" text-anchor="start" x="251.5" y="-123.75" font-family="Helvetica,sans-Serif" font-size="10.00">(int errorNo)</text>
<text xml:space="preserve" text-anchor="start" x="241.5" y="-108.5" font-family="Helvetica,sans-Serif" font-size="10.00">+</text>
<text xml:space="preserve" text-anchor="start" x="251.5" y="-108.5" font-family="Helvetica,sans-Serif" font-size="10.00">void configure()</text>
<text xml:space="preserve" text-anchor="start" x="241.5" y="-93.25" font-family="Helvetica,sans-Serif" font-size="10.00">+</text>
<text xml:space="preserve" text-anchor="start" x="251.5" y="-93.25" font-family="Helvetica,sans-Serif" font-size="10.00">void configurationEnded()</text>
<text xml:space="preserve" text-anchor="start" x="241.5" y="-78" font-family="Helvetica,sans-Serif" font-size="10.00">+</text>
<text xml:space="preserve" text-anchor="start" x="251.5" y="-78" font-family="Helvetica,sans-Serif" font-size="10.00">void start()</text>
<text xml:space="preserve" text-anchor="start" x="241.5" y="-62.75" font-family="Helvetica,sans-Serif" font-size="10.00">+</text>
<text xml:space="preserve" text-anchor="start" x="251.5" y="-62.75" font-family="Helvetica,sans-Serif" font-size="10.00">void suspend()</text>
<text xml:space="preserve" text-anchor="start" x="241.5" y="-47.5" font-family="Helvetica,sans-Serif" font-size="10.00">+</text>
<text xml:space="preserve" text-anchor="start" x="251.5" y="-47.5" font-family="Helvetica,sans-Serif" font-size="10.00">void resume()</text>
<text xml:space="preserve" text-anchor="start" x="241.5" y="-32.25" font-family="Helvetica,sans-Serif" font-size="10.00">+</text>
<text xml:space="preserve" text-anchor="start" x="251.5" y="-32.25" font-family="Helvetica,sans-Serif" font-size="10.00">void exit()</text>
<text xml:space="preserve" text-anchor="start" x="241.5" y="-17" font-family="Helvetica,sans-Serif" font-size="10.00">+</text>
<text xml:space="preserve" text-anchor="start" x="251.5" y="-17" font-family="Helvetica,sans-Serif" font-size="10.00">std::string getStateName</text>
<text xml:space="preserve" text-anchor="start" x="251.5" y="-5.75" font-family="Helvetica,sans-Serif" font-size="10.00">() const</text>
<polygon fill="#666666" stroke="#666666" points="237.5,-291 237.5,-291 383.75,-291 383.75,-291 237.5,-291"/>
<polygon fill="#666666" stroke="#666666" points="237.5,-275.75 237.5,-275.75 383.75,-275.75 383.75,-275.75 237.5,-275.75"/>
<polygon fill="none" stroke="#666666" points="237.5,0 237.5,-308.25 383.75,-308.25 383.75,0 237.5,0"/>
</a>
</g>
</g>
<!-- Node2&#45;&gt;Node3 -->
<g id="edge3_Node000003_Node000002" class="edge">
<title>Node2&#45;&gt;Node3</title>
<g id="a_edge3_Node000003_Node000002"><a xlink:title=" ">
<path fill="none" stroke="#63b8ff" d="M195.9,-361.54C197.9,-349.29 201.24,-337.33 206.38,-326.25 211.58,-315.02 219.82,-317.86 227.62,-308.25 228.38,-307.33 229.12,-306.39 229.87,-305.45"/>
<polygon fill="none" stroke="#63b8ff" points="229.9,-305.41 230.34,-298.21 237.15,-295.85 236.71,-303.05 229.9,-305.41"/>
</a>
</g>
<text xml:space="preserve" text-anchor="start" x="209.38" y="-331" font-family="Helvetica,sans-Serif" font-size="10.00" fill="grey">&#45;currentState</text>
</g>
<!-- Node3&#45;&gt;Node2 -->
<g id="edge2_Node000002_Node000003" class="edge">
<title>Node3&#45;&gt;Node2</title>
<g id="a_edge2_Node000002_Node000003"><a xlink:title=" ">
<path fill="none" stroke="#63b8ff" d="M282.48,-308.21C279.44,-320.22 276.15,-332.11 272.62,-343.5 272.01,-345.47 271.39,-347.45 270.74,-349.44"/>
<polygon fill="none" stroke="#63b8ff" points="270.72,-349.51 272.6,-356.47 266.89,-360.88 265.01,-353.92 270.72,-349.51"/>
</a>
</g>
<text xml:space="preserve" text-anchor="start" x="280.04" y="-331" font-family="Helvetica,sans-Serif" font-size="10.00" fill="grey">#context</text>
</g>
<!-- Node4 -->
<g id="Node000004" class="node">
<title>Node4</title>
<g id="a_Node000004"><a xlink:href="class_real_time_loop.html" target="_top" xlink:title=" ">
<polygon fill="white" stroke="none" points="519.75,-551.75 385.5,-551.75 385.5,-433.75 519.75,-433.75 519.75,-551.75"/>
<text xml:space="preserve" text-anchor="start" x="421.12" y="-538.25" font-family="Helvetica,sans-Serif" font-size="10.00">RealTimeLoop</text>
<text xml:space="preserve" text-anchor="start" x="451.12" y="-523" font-family="Helvetica,sans-Serif" font-size="10.00"> </text>
<text xml:space="preserve" text-anchor="start" x="389.5" y="-507.75" font-family="Helvetica,sans-Serif" font-size="10.00">+</text>
<text xml:space="preserve" text-anchor="start" x="399.5" y="-507.75" font-family="Helvetica,sans-Serif" font-size="10.00">RealTimeLoop()</text>
<text xml:space="preserve" text-anchor="start" x="389.5" y="-492.5" font-family="Helvetica,sans-Serif" font-size="10.00">+</text>
<text xml:space="preserve" text-anchor="start" x="399.5" y="-492.5" font-family="Helvetica,sans-Serif" font-size="10.00">void changeMode(int</text>
<text xml:space="preserve" text-anchor="start" x="399.5" y="-481.25" font-family="Helvetica,sans-Serif" font-size="10.00"> modeNumber)</text>
<text xml:space="preserve" text-anchor="start" x="389.5" y="-466" font-family="Helvetica,sans-Serif" font-size="10.00">+</text>
<text xml:space="preserve" text-anchor="start" x="399.5" y="-466" font-family="Helvetica,sans-Serif" font-size="10.00">void eventX()</text>
<text xml:space="preserve" text-anchor="start" x="389.5" y="-450.75" font-family="Helvetica,sans-Serif" font-size="10.00">+</text>
<text xml:space="preserve" text-anchor="start" x="399.5" y="-450.75" font-family="Helvetica,sans-Serif" font-size="10.00">std::string getCurrentMode</text>
<text xml:space="preserve" text-anchor="start" x="399.5" y="-439.5" font-family="Helvetica,sans-Serif" font-size="10.00">() const</text>
<polygon fill="#666666" stroke="#666666" points="385.5,-534.5 385.5,-534.5 519.75,-534.5 519.75,-534.5 385.5,-534.5"/>
<polygon fill="#666666" stroke="#666666" points="385.5,-519.25 385.5,-519.25 519.75,-519.25 519.75,-519.25 385.5,-519.25"/>
<polygon fill="none" stroke="#666666" points="385.5,-433.75 385.5,-551.75 519.75,-551.75 519.75,-433.75 385.5,-433.75"/>
</a>
</g>
</g>
<!-- Node4&#45;&gt;Node3 -->
<g id="edge4_Node000003_Node000004" class="edge">
<title>Node4&#45;&gt;Node3</title>
<g id="a_edge4_Node000003_Node000004"><a xlink:title=" ">
<path fill="none" stroke="#63b8ff" d="M420.87,-433.8C406.64,-406.76 390.16,-373.89 377.12,-343.5 373.88,-335.93 370.66,-328.15 367.5,-320.25"/>
<polygon fill="none" stroke="#63b8ff" points="367.48,-320.2 361.56,-316.09 363.07,-309.04 369,-313.15 367.48,-320.2"/>
</a>
</g>
<text xml:space="preserve" text-anchor="start" x="380.12" y="-331" font-family="Helvetica,sans-Serif" font-size="10.00" fill="grey">&#45;realTimeLoop</text>
</g>
<!-- Node5 -->
<g id="Node000005" class="node">
<title>Node5</title>
<g id="a_Node000005"><a xlink:href="class_real_time_loop_state.html" target="_top" xlink:title=" ">
<polygon fill="white" stroke="none" points="573.38,-205.5 433.88,-205.5 433.88,-102.75 573.38,-102.75 573.38,-205.5"/>
<text xml:space="preserve" text-anchor="start" x="460.5" y="-192" font-family="Helvetica,sans-Serif" font-size="10.00">RealTimeLoopState</text>
<text xml:space="preserve" text-anchor="start" x="502.12" y="-176.75" font-family="Helvetica,sans-Serif" font-size="10.00"> </text>
<text xml:space="preserve" text-anchor="start" x="437.88" y="-161.5" font-family="Helvetica,sans-Serif" font-size="10.00">+</text>
<text xml:space="preserve" text-anchor="start" x="447.88" y="-161.5" font-family="Helvetica,sans-Serif" font-size="10.00">RealTimeLoopState</text>
<text xml:space="preserve" text-anchor="start" x="447.88" y="-150.25" font-family="Helvetica,sans-Serif" font-size="10.00">(RealTimeLoop *ctx)</text>
<text xml:space="preserve" text-anchor="start" x="437.88" y="-135" font-family="Helvetica,sans-Serif" font-size="10.00">+</text>
<text xml:space="preserve" text-anchor="start" x="447.88" y="-135" font-family="Helvetica,sans-Serif" font-size="10.00">virtual ~RealTimeLoopState</text>
<text xml:space="preserve" text-anchor="start" x="447.88" y="-123.75" font-family="Helvetica,sans-Serif" font-size="10.00">()=default</text>
<text xml:space="preserve" text-anchor="start" x="437.88" y="-108.5" font-family="Helvetica,sans-Serif" font-size="10.00">+</text>
<text xml:space="preserve" text-anchor="start" x="447.88" y="-108.5" font-family="Helvetica,sans-Serif" font-size="10.00">virtual void eventX()=0</text>
<polygon fill="#666666" stroke="#666666" points="433.88,-188.25 433.88,-188.25 573.38,-188.25 573.38,-188.25 433.88,-188.25"/>
<polygon fill="#666666" stroke="#666666" points="433.88,-173 433.88,-173 573.38,-173 573.38,-173 433.88,-173"/>
<polygon fill="none" stroke="#666666" points="433.88,-102.75 433.88,-205.5 573.38,-205.5 573.38,-102.75 433.88,-102.75"/>
</a>
</g>
</g>
<!-- Node4&#45;&gt;Node5 -->
<g id="edge6_Node000005_Node000004" class="edge">
<title>Node4&#45;&gt;Node5</title>
<g id="a_edge6_Node000005_Node000004"><a xlink:title=" ">
<path fill="none" stroke="#63b8ff" d="M447.07,-433.99C445.17,-402.05 444.7,-361.76 450.12,-326.25 455.74,-289.44 467.79,-249.67 479.04,-217.74"/>
<polygon fill="none" stroke="#63b8ff" points="479.09,-217.6 477.35,-210.6 483.15,-206.31 484.88,-213.31 479.09,-217.6"/>
</a>
</g>
<text xml:space="preserve" text-anchor="start" x="453.12" y="-331" font-family="Helvetica,sans-Serif" font-size="10.00" fill="grey">#context</text>
</g>
<!-- Node5&#45;&gt;Node4 -->
<g id="edge5_Node000004_Node000005" class="edge">
<title>Node5&#45;&gt;Node4</title>
<g id="a_edge5_Node000004_Node000005"><a xlink:title=" ">
<path fill="none" stroke="#63b8ff" d="M505.59,-205.45C506.22,-243.59 505.26,-297.17 497.62,-343.5 493.36,-369.38 485.82,-397.05 478.11,-421.39"/>
<polygon fill="none" stroke="#63b8ff" points="478.07,-421.52 480.02,-428.47 474.36,-432.94 472.41,-425.99 478.07,-421.52"/>
</a>
</g>
<text xml:space="preserve" text-anchor="start" x="502.85" y="-331" font-family="Helvetica,sans-Serif" font-size="10.00" fill="grey">&#45;currentMode</text>
</g>
</g>
</svg>

<g id="navigator" transform="translate(0 0)" fill="#404254">
  <rect fill="#f2f5e9" fill-opacity="0.5" stroke="#606060" stroke-width=".5" x="0" y="0" width="60" height="60"/>
  <use id="zoomplus" xlink:href="#zoomPlus" x="17" y="9" onmousedown="handleZoom(evt,'in')"/>
  <use id="zoomminus" xlink:href="#zoomMin" x="42" y="9" onmousedown="handleZoom(evt,'out')"/>
  <use id="reset" xlink:href="#resetDef" x="30" y="36" onmousedown="handleReset()"/>
   <use id="arrowup" xlink:href="#arrowUp" x="0" y="0" onmousedown="handlePan(0,-1)"/>
  <use id="arrowright" xlink:href="#arrowRight" x="0" y="0" onmousedown="handlePan(1,0)"/>
  <use id="arrowdown" xlink:href="#arrowDown" x="0" y="0" onmousedown="handlePan(0,1)"/>
  <use id="arrowleft" xlink:href="#arrowLeft" x="0" y="0" onmousedown="handlePan(-1,0)"/>
</g>
<svg viewBox="0 0 15 15" width="100%" height="30px" preserveAspectRatio="xMaxYMin meet">
 <g id="arrow_out" transform="scale(0.3 0.3)">
  <a xlink:href="class_ready_state__coll__graph_org.svg" target="_base">
   <rect id="button" ry="5" rx="5" y="6" x="6" height="38" width="38"
        fill="#f2f5e9" fill-opacity="0.5" stroke="#606060" stroke-width="1.0"/>
   <path id="arrow"
     d="M 11.500037,31.436501 C 11.940474,20.09759 22.043105,11.32322 32.158766,21.979434 L 37.068811,17.246167 C 37.068811,17.246167 37.088388,32 37.088388,32 L 22.160133,31.978069 C 22.160133,31.978069 26.997745,27.140456 26.997745,27.140456 C 18.528582,18.264221 13.291696,25.230495 11.500037,31.436501 z"
     style="fill:#404040;"/>
  </a>
 </g>
</svg>

<style type='text/css'>
<![CDATA[
[data-mouse-over-selected='false'] { opacity: 0.7; }
[data-mouse-over-selected='true']  { opacity: 1.0; }
]]>
</style>
<script type="application/ecmascript"><![CDATA[
document.addEventListener('DOMContentLoaded', (event) => {
  highlightEdges();
  highlightAdjacentNodes();
});
]]></script>
</svg>
