<?xml version="1.0" encoding="UTF-8" standalone="no"?>
<!DOCTYPE svg PUBLIC "-//W3C//DTD SVG 1.1//EN"
 "http://www.w3.org/Graphics/SVG/1.1/DTD/svg11.dtd">
<!-- Generated by graphviz version 14.0.4 (20251115.1723)
 -->
<!-- Title: ReadyState::exit Pages: 1 -->
<svg width="575pt" height="39pt"
 viewBox="0.00 0.00 575.00 39.00" xmlns="http://www.w3.org/2000/svg" xmlns:xlink="http://www.w3.org/1999/xlink">
<g id="graph0" class="graph" transform="scale(1 1) rotate(0) translate(4 34.5)">
<title>ReadyState::exit</title>
<!-- Node1 -->
<g id="Node000001" class="node">
<title>Node1</title>
<g id="a_Node000001"><a xlink:title=" ">
<polygon fill="#999999" stroke="#666666" points="89.5,-24.88 0,-24.88 0,-5.63 89.5,-5.63 89.5,-24.88"/>
<text xml:space="preserve" text-anchor="middle" x="44.75" y="-11.38" font-family="Helvetica,sans-Serif" font-size="10.00">ReadyState::exit</text>
</a>
</g>
</g>
<!-- Node2 -->
<g id="Node000002" class="node">
<title>Node2</title>
<g id="a_Node000002"><a xlink:href="class_power_on_self_test_state.html#ae152baf800ee583b4c4c0c5ca16aa904" target="_top" xlink:title=" ">
<polygon fill="white" stroke="#666666" points="241.25,-30.5 125.5,-30.5 125.5,0 241.25,0 241.25,-30.5"/>
<text xml:space="preserve" text-anchor="start" x="133.5" y="-17" font-family="Helvetica,sans-Serif" font-size="10.00">PowerOnSelfTestState</text>
<text xml:space="preserve" text-anchor="middle" x="183.38" y="-5.75" font-family="Helvetica,sans-Serif" font-size="10.00">::getInstance</text>
</a>
</g>
</g>
<!-- Node1&#45;&gt;Node2 -->
<g id="edge1_Node000001_Node000002" class="edge">
<title>Node1&#45;&gt;Node2</title>
<g id="a_edge1_Node000001_Node000002"><a xlink:title=" ">
<path fill="none" stroke="#63b8ff" d="M89.73,-15.25C97.37,-15.25 105.47,-15.25 113.58,-15.25"/>
<polygon fill="#63b8ff" stroke="#63b8ff" points="113.49,-18.75 123.49,-15.25 113.49,-11.75 113.49,-18.75"/>
</a>
</g>
</g>
<!-- Node3 -->
<g id="Node000003" class="node">
<title>Node3</title>
<g id="a_Node000003"><a xlink:href="class_power_on_self_test_state.html#a1020e4af5a2b23ac1c6236d9ca2a71b0" target="_top" xlink:title=" ">
<polygon fill="white" stroke="#666666" points="399,-30.5 277.25,-30.5 277.25,0 399,0 399,-30.5"/>
<text xml:space="preserve" text-anchor="start" x="285.25" y="-17" font-family="Helvetica,sans-Serif" font-size="10.00">PowerOnSelfTestState</text>
<text xml:space="preserve" text-anchor="middle" x="338.12" y="-5.75" font-family="Helvetica,sans-Serif" font-size="10.00">::PowerOnSelfTestState</text>
</a>
</g>
</g>
<!-- Node2&#45;&gt;Node3 -->
<g id="edge2_Node000002_Node000003" class="edge">
<title>Node2&#45;&gt;Node3</title>
<g id="a_edge2_Node000002_Node000003"><a xlink:title=" ">
<path fill="none" stroke="#63b8ff" d="M241.69,-15.25C249.51,-15.25 257.62,-15.25 265.66,-15.25"/>
<polygon fill="#63b8ff" stroke="#63b8ff" points="265.43,-18.75 275.43,-15.25 265.43,-11.75 265.43,-18.75"/>
</a>
</g>
</g>
<!-- Node4 -->
<g id="Node000004" class="node">
<title>Node4</title>
<g id="a_Node000004"><a xlink:href="class_embedded_system_x_state.html#a5630d67a88100d0e67c1578a7ee43e91" target="_top" xlink:title=" ">
<polygon fill="white" stroke="#666666" points="567.25,-30.5 435,-30.5 435,0 567.25,0 567.25,-30.5"/>
<text xml:space="preserve" text-anchor="start" x="443" y="-17" font-family="Helvetica,sans-Serif" font-size="10.00">EmbeddedSystemXState</text>
<text xml:space="preserve" text-anchor="middle" x="501.12" y="-5.75" font-family="Helvetica,sans-Serif" font-size="10.00">::EmbeddedSystemXState</text>
</a>
</g>
</g>
<!-- Node3&#45;&gt;Node4 -->
<g id="edge3_Node000003_Node000004" class="edge">
<title>Node3&#45;&gt;Node4</title>
<g id="a_edge3_Node000003_Node000004"><a xlink:title=" ">
<path fill="none" stroke="#63b8ff" d="M399.08,-15.25C406.98,-15.25 415.16,-15.25 423.29,-15.25"/>
<polygon fill="#63b8ff" stroke="#63b8ff" points="423.21,-18.75 433.21,-15.25 423.21,-11.75 423.21,-18.75"/>
</a>
</g>
</g>
</g>
</svg>
