<?xml version="1.0" encoding="UTF-8" standalone="no"?>
<!DOCTYPE svg PUBLIC "-//W3C//DTD SVG 1.1//EN"
 "http://www.w3.org/Graphics/SVG/1.1/DTD/svg11.dtd">
<!-- Generated by graphviz version 14.0.4 (20251115.1723)
 -->
<!-- Title: FailureState::FailureState Pages: 1 -->
<svg width="448pt" height="39pt"
 viewBox="0.00 0.00 448.00 39.00" xmlns="http://www.w3.org/2000/svg" xmlns:xlink="http://www.w3.org/1999/xlink">
<g id="graph0" class="graph" transform="scale(1 1) rotate(0) translate(4 34.5)">
<title>FailureState::FailureState</title>
<!-- Node1 -->
<g id="Node000001" class="node">
<title>Node1</title>
<g id="a_Node000001"><a xlink:title=" ">
<polygon fill="#999999" stroke="#666666" points="440.25,-24.88 313.25,-24.88 313.25,-5.63 440.25,-5.63 440.25,-24.88"/>
<text xml:space="preserve" text-anchor="middle" x="376.75" y="-11.38" font-family="Helvetica,sans-Serif" font-size="10.00">FailureState::FailureState</text>
</a>
</g>
</g>
<!-- Node2 -->
<g id="Node000002" class="node">
<title>Node2</title>
<g id="a_Node000002"><a xlink:href="class_failure_state.html#af8df67121215589d804b1f1872eec2ab" target="_top" xlink:title=" ">
<polygon fill="white" stroke="#666666" points="277.25,-24.88 151.75,-24.88 151.75,-5.63 277.25,-5.63 277.25,-24.88"/>
<text xml:space="preserve" text-anchor="middle" x="214.5" y="-11.38" font-family="Helvetica,sans-Serif" font-size="10.00">FailureState::getInstance</text>
</a>
</g>
</g>
<!-- Node1&#45;&gt;Node2 -->
<g id="edge1_Node000001_Node000002" class="edge">
<title>Node1&#45;&gt;Node2</title>
<g id="a_edge1_Node000001_Node000002"><a xlink:title=" ">
<path fill="none" stroke="#63b8ff" d="M301.63,-15.25C293.62,-15.25 285.52,-15.25 277.67,-15.25"/>
<polygon fill="#63b8ff" stroke="#63b8ff" points="301.36,-18.75 311.36,-15.25 301.36,-11.75 301.36,-18.75"/>
</a>
</g>
</g>
<!-- Node3 -->
<g id="Node000003" class="node">
<title>Node3</title>
<g id="a_Node000003"><a xlink:href="class_power_on_self_test_state.html#a68e3bab150a0b81941bab395f2ce9635" target="_top" xlink:title=" ">
<polygon fill="white" stroke="#666666" points="115.75,-30.5 0,-30.5 0,0 115.75,0 115.75,-30.5"/>
<text xml:space="preserve" text-anchor="start" x="8" y="-17" font-family="Helvetica,sans-Serif" font-size="10.00">PowerOnSelfTestState</text>
<text xml:space="preserve" text-anchor="middle" x="57.88" y="-5.75" font-family="Helvetica,sans-Serif" font-size="10.00">::selfTestFailed</text>
</a>
</g>
</g>
<!-- Node2&#45;&gt;Node3 -->
<g id="edge2_Node000002_Node000003" class="edge">
<title>Node2&#45;&gt;Node3</title>
<g id="a_edge2_Node000002_Node000003"><a xlink:title=" ">
<path fill="none" stroke="#63b8ff" d="M140.08,-15.25C131.95,-15.25 123.77,-15.25 115.88,-15.25"/>
<polygon fill="#63b8ff" stroke="#63b8ff" points="139.99,-18.75 149.99,-15.25 139.99,-11.75 139.99,-18.75"/>
</a>
</g>
</g>
</g>
</svg>
