<?xml version="1.0" encoding="UTF-8" standalone="no"?>
<!DOCTYPE svg PUBLIC "-//W3C//DTD SVG 1.1//EN"
 "http://www.w3.org/Graphics/SVG/1.1/DTD/svg11.dtd">
<!-- Generated by graphviz version 14.0.4 (20251115.1723)
 -->
<!-- Title: OperationalState::restart Pages: 1 -->
<svg width="608pt" height="39pt"
 viewBox="0.00 0.00 608.00 39.00" xmlns="http://www.w3.org/2000/svg" xmlns:xlink="http://www.w3.org/1999/xlink">
<g id="graph0" class="graph" transform="scale(1 1) rotate(0) translate(4 34.5)">
<title>OperationalState::restart</title>
<!-- Node1 -->
<g id="Node000001" class="node">
<title>Node1</title>
<g id="a_Node000001"><a xlink:title=" ">
<polygon fill="#999999" stroke="#666666" points="122.5,-24.88 0,-24.88 0,-5.63 122.5,-5.63 122.5,-24.88"/>
<text xml:space="preserve" text-anchor="middle" x="61.25" y="-11.38" font-family="Helvetica,sans-Serif" font-size="10.00">OperationalState::restart</text>
</a>
</g>
</g>
<!-- Node2 -->
<g id="Node000002" class="node">
<title>Node2</title>
<g id="a_Node000002"><a xlink:href="class_power_on_self_test_state.html#ae152baf800ee583b4c4c0c5ca16aa904" target="_top" xlink:title=" ">
<polygon fill="white" stroke="#666666" points="274.25,-30.5 158.5,-30.5 158.5,0 274.25,0 274.25,-30.5"/>
<text xml:space="preserve" text-anchor="start" x="166.5" y="-17" font-family="Helvetica,sans-Serif" font-size="10.00">PowerOnSelfTestState</text>
<text xml:space="preserve" text-anchor="middle" x="216.38" y="-5.75" font-family="Helvetica,sans-Serif" font-size="10.00">::getInstance</text>
</a>
</g>
</g>
<!-- Node1&#45;&gt;Node2 -->
<g id="edge1_Node000001_Node000002" class="edge">
<title>Node1&#45;&gt;Node2</title>
<g id="a_edge1_Node000001_Node000002"><a xlink:title=" ">
<path fill="none" stroke="#63b8ff" d="M122.77,-15.25C130.72,-15.25 138.92,-15.25 146.99,-15.25"/>
<polygon fill="#63b8ff" stroke="#63b8ff" points="146.78,-18.75 156.78,-15.25 146.78,-11.75 146.78,-18.75"/>
</a>
</g>
</g>
<!-- Node3 -->
<g id="Node000003" class="node">
<title>Node3</title>
<g id="a_Node000003"><a xlink:href="class_power_on_self_test_state.html#a1020e4af5a2b23ac1c6236d9ca2a71b0" target="_top" xlink:title=" ">
<polygon fill="white" stroke="#666666" points="432,-30.5 310.25,-30.5 310.25,0 432,0 432,-30.5"/>
<text xml:space="preserve" text-anchor="start" x="318.25" y="-17" font-family="Helvetica,sans-Serif" font-size="10.00">PowerOnSelfTestState</text>
<text xml:space="preserve" text-anchor="middle" x="371.12" y="-5.75" font-family="Helvetica,sans-Serif" font-size="10.00">::PowerOnSelfTestState</text>
</a>
</g>
</g>
<!-- Node2&#45;&gt;Node3 -->
<g id="edge2_Node000002_Node000003" class="edge">
<title>Node2&#45;&gt;Node3</title>
<g id="a_edge2_Node000002_Node000003"><a xlink:title=" ">
<path fill="none" stroke="#63b8ff" d="M274.69,-15.25C282.51,-15.25 290.62,-15.25 298.66,-15.25"/>
<polygon fill="#63b8ff" stroke="#63b8ff" points="298.43,-18.75 308.43,-15.25 298.43,-11.75 298.43,-18.75"/>
</a>
</g>
</g>
<!-- Node4 -->
<g id="Node000004" class="node">
<title>Node4</title>
<g id="a_Node000004"><a xlink:href="class_embedded_system_x_state.html#a5630d67a88100d0e67c1578a7ee43e91" target="_top" xlink:title=" ">
<polygon fill="white" stroke="#666666" points="600.25,-30.5 468,-30.5 468,0 600.25,0 600.25,-30.5"/>
<text xml:space="preserve" text-anchor="start" x="476" y="-17" font-family="Helvetica,sans-Serif" font-size="10.00">EmbeddedSystemXState</text>
<text xml:space="preserve" text-anchor="middle" x="534.12" y="-5.75" font-family="Helvetica,sans-Serif" font-size="10.00">::EmbeddedSystemXState</text>
</a>
</g>
</g>
<!-- Node3&#45;&gt;Node4 -->
<g id="edge3_Node000003_Node000004" class="edge">
<title>Node3&#45;&gt;Node4</title>
<g id="a_edge3_Node000003_Node000004"><a xlink:title=" ">
<path fill="none" stroke="#63b8ff" d="M432.08,-15.25C439.98,-15.25 448.16,-15.25 456.29,-15.25"/>
<polygon fill="#63b8ff" stroke="#63b8ff" points="456.21,-18.75 466.21,-15.25 456.21,-11.75 456.21,-18.75"/>
</a>
</g>
</g>
</g>
</svg>
