<?xml version="1.0" encoding="UTF-8" standalone="no"?>
<!DOCTYPE svg PUBLIC "-//W3C//DTD SVG 1.1//EN"
 "http://www.w3.org/Graphics/SVG/1.1/DTD/svg11.dtd">
<!-- Generated by graphviz version 14.0.4 (20251115.1723)
 -->
<!-- Title: ReadyState Pages: 1 -->
<svg width="581pt" height="663pt"
 viewBox="0.00 0.00 581.00 663.00" xmlns="http://www.w3.org/2000/svg" xmlns:xlink="http://www.w3.org/1999/xlink">
<g id="graph0" class="graph" transform="scale(1 1) rotate(0) translate(4 658.5)">
<title>ReadyState</title>
<!-- Node1 -->
<g id="Node000001" class="node">
<title>Node1</title>
<g id="a_Node000001"><a xlink:title=" ">
<polygon fill="#999999" stroke="none" points="155.25,-311.88 0,-311.88 0,-11.62 155.25,-11.62 155.25,-311.88"/>
<text xml:space="preserve" text-anchor="start" x="51.75" y="-298.38" font-family="Helvetica,sans-Serif" font-size="10.00">ReadyState</text>
<text xml:space="preserve" text-anchor="start" x="76.12" y="-283.12" font-family="Helvetica,sans-Serif" font-size="10.00"> </text>
<text xml:space="preserve" text-anchor="start" x="4" y="-267.88" font-family="Helvetica,sans-Serif" font-size="10.00">+</text>
<text xml:space="preserve" text-anchor="start" x="14" y="-267.88" font-family="Helvetica,sans-Serif" font-size="10.00">void selfTestOk() override</text>
<text xml:space="preserve" text-anchor="start" x="4" y="-252.62" font-family="Helvetica,sans-Serif" font-size="10.00">+</text>
<text xml:space="preserve" text-anchor="start" x="14" y="-252.62" font-family="Helvetica,sans-Serif" font-size="10.00">void initialized()</text>
<text xml:space="preserve" text-anchor="start" x="14" y="-241.38" font-family="Helvetica,sans-Serif" font-size="10.00"> override</text>
<text xml:space="preserve" text-anchor="start" x="4" y="-226.12" font-family="Helvetica,sans-Serif" font-size="10.00">+</text>
<text xml:space="preserve" text-anchor="start" x="14" y="-226.12" font-family="Helvetica,sans-Serif" font-size="10.00">void restart() override</text>
<text xml:space="preserve" text-anchor="start" x="4" y="-210.88" font-family="Helvetica,sans-Serif" font-size="10.00">+</text>
<text xml:space="preserve" text-anchor="start" x="14" y="-210.88" font-family="Helvetica,sans-Serif" font-size="10.00">void selfTestFailed</text>
<text xml:space="preserve" text-anchor="start" x="14" y="-199.62" font-family="Helvetica,sans-Serif" font-size="10.00">(int errorNo) override</text>
<text xml:space="preserve" text-anchor="start" x="4" y="-184.38" font-family="Helvetica,sans-Serif" font-size="10.00">+</text>
<text xml:space="preserve" text-anchor="start" x="14" y="-184.38" font-family="Helvetica,sans-Serif" font-size="10.00">void configure() override</text>
<text xml:space="preserve" text-anchor="start" x="4" y="-169.12" font-family="Helvetica,sans-Serif" font-size="10.00">+</text>
<text xml:space="preserve" text-anchor="start" x="14" y="-169.12" font-family="Helvetica,sans-Serif" font-size="10.00">void configurationEnded</text>
<text xml:space="preserve" text-anchor="start" x="14" y="-157.88" font-family="Helvetica,sans-Serif" font-size="10.00">() override</text>
<text xml:space="preserve" text-anchor="start" x="4" y="-142.62" font-family="Helvetica,sans-Serif" font-size="10.00">+</text>
<text xml:space="preserve" text-anchor="start" x="14" y="-142.62" font-family="Helvetica,sans-Serif" font-size="10.00">void start() override</text>
<text xml:space="preserve" text-anchor="start" x="4" y="-127.38" font-family="Helvetica,sans-Serif" font-size="10.00">+</text>
<text xml:space="preserve" text-anchor="start" x="14" y="-127.38" font-family="Helvetica,sans-Serif" font-size="10.00">void suspend() override</text>
<text xml:space="preserve" text-anchor="start" x="4" y="-112.12" font-family="Helvetica,sans-Serif" font-size="10.00">+</text>
<text xml:space="preserve" text-anchor="start" x="14" y="-112.12" font-family="Helvetica,sans-Serif" font-size="10.00">void resume() override</text>
<text xml:space="preserve" text-anchor="start" x="4" y="-96.88" font-family="Helvetica,sans-Serif" font-size="10.00">+</text>
<text xml:space="preserve" text-anchor="start" x="14" y="-96.88" font-family="Helvetica,sans-Serif" font-size="10.00">void exit() override</text>
<text xml:space="preserve" text-anchor="start" x="4" y="-81.62" font-family="Helvetica,sans-Serif" font-size="10.00">+</text>
<text xml:space="preserve" text-anchor="start" x="14" y="-81.62" font-family="Helvetica,sans-Serif" font-size="10.00">void stop() override</text>
<text xml:space="preserve" text-anchor="start" x="4" y="-66.38" font-family="Helvetica,sans-Serif" font-size="10.00">+</text>
<text xml:space="preserve" text-anchor="start" x="14" y="-66.38" font-family="Helvetica,sans-Serif" font-size="10.00">static ReadyState *</text>
<text xml:space="preserve" text-anchor="start" x="14" y="-55.12" font-family="Helvetica,sans-Serif" font-size="10.00"> getInstance(EmbeddedSystem</text>
<text xml:space="preserve" text-anchor="start" x="14" y="-43.88" font-family="Helvetica,sans-Serif" font-size="10.00">X *ctx)</text>
<text xml:space="preserve" text-anchor="start" x="5.5" y="-28.62" font-family="Helvetica,sans-Serif" font-size="10.00">&#45;</text>
<text xml:space="preserve" text-anchor="start" x="14" y="-28.62" font-family="Helvetica,sans-Serif" font-size="10.00">ReadyState(EmbeddedSystem</text>
<text xml:space="preserve" text-anchor="start" x="14" y="-17.38" font-family="Helvetica,sans-Serif" font-size="10.00">X *ctx)</text>
<polygon fill="#666666" stroke="#666666" points="0,-294.62 0,-294.62 155.25,-294.62 155.25,-294.62 0,-294.62"/>
<polygon fill="#666666" stroke="#666666" points="0,-279.38 0,-279.38 155.25,-279.38 155.25,-279.38 0,-279.38"/>
<polygon fill="none" stroke="#666666" points="0,-11.62 0,-311.88 155.25,-311.88 155.25,-11.62 0,-11.62"/>
</a>
</g>
</g>
<!-- Node1&#45;&gt;Node1 -->
<g id="edge7_Node000001_Node000001" class="edge">
<title>Node1&#45;&gt;Node1</title>
<g id="a_edge7_Node000001_Node000001"><a xlink:title=" ">
<path fill="none" stroke="#63b8ff" d="M154.92,-193.45C165.89,-188.32 173.25,-177.75 173.25,-161.75 173.25,-151.5 170.23,-143.48 165.17,-137.69"/>
<polygon fill="none" stroke="#63b8ff" points="165.26,-137.76 158.06,-137.38 155.64,-130.59 162.84,-130.97 165.26,-137.76"/>
</a>
</g>
<text xml:space="preserve" text-anchor="start" x="176.25" y="-157.88" font-family="Helvetica,sans-Serif" font-size="10.00" fill="grey">&#45;instance</text>
</g>
<!-- Node2 -->
<g id="Node000002" class="node">
<title>Node2</title>
<g id="a_Node000002"><a xlink:href="class_embedded_system_x_state.html" target="_top" xlink:title=" ">
<polygon fill="white" stroke="none" points="291.38,-654.5 127.88,-654.5 127.88,-376.75 291.38,-376.75 291.38,-654.5"/>
<text xml:space="preserve" text-anchor="start" x="154.5" y="-641" font-family="Helvetica,sans-Serif" font-size="10.00">EmbeddedSystemXState</text>
<text xml:space="preserve" text-anchor="start" x="208.12" y="-625.75" font-family="Helvetica,sans-Serif" font-size="10.00"> </text>
<text xml:space="preserve" text-anchor="start" x="131.88" y="-610.5" font-family="Helvetica,sans-Serif" font-size="10.00">+</text>
<text xml:space="preserve" text-anchor="start" x="141.88" y="-610.5" font-family="Helvetica,sans-Serif" font-size="10.00">EmbeddedSystemXState</text>
<text xml:space="preserve" text-anchor="start" x="141.88" y="-599.25" font-family="Helvetica,sans-Serif" font-size="10.00">(EmbeddedSystemX *ctx)</text>
<text xml:space="preserve" text-anchor="start" x="131.88" y="-584" font-family="Helvetica,sans-Serif" font-size="10.00">+</text>
<text xml:space="preserve" text-anchor="start" x="141.88" y="-584" font-family="Helvetica,sans-Serif" font-size="10.00">virtual ~EmbeddedSystemXState</text>
<text xml:space="preserve" text-anchor="start" x="141.88" y="-572.75" font-family="Helvetica,sans-Serif" font-size="10.00">()=default</text>
<text xml:space="preserve" text-anchor="start" x="131.88" y="-557.5" font-family="Helvetica,sans-Serif" font-size="10.00">+</text>
<text xml:space="preserve" text-anchor="start" x="141.88" y="-557.5" font-family="Helvetica,sans-Serif" font-size="10.00">virtual void selfTestOk()=0</text>
<text xml:space="preserve" text-anchor="start" x="131.88" y="-542.25" font-family="Helvetica,sans-Serif" font-size="10.00">+</text>
<text xml:space="preserve" text-anchor="start" x="141.88" y="-542.25" font-family="Helvetica,sans-Serif" font-size="10.00">virtual void initialized()=0</text>
<text xml:space="preserve" text-anchor="start" x="131.88" y="-527" font-family="Helvetica,sans-Serif" font-size="10.00">+</text>
<text xml:space="preserve" text-anchor="start" x="141.88" y="-527" font-family="Helvetica,sans-Serif" font-size="10.00">virtual void restart()=0</text>
<text xml:space="preserve" text-anchor="start" x="131.88" y="-511.75" font-family="Helvetica,sans-Serif" font-size="10.00">+</text>
<text xml:space="preserve" text-anchor="start" x="141.88" y="-511.75" font-family="Helvetica,sans-Serif" font-size="10.00">virtual void selfTestFailed</text>
<text xml:space="preserve" text-anchor="start" x="141.88" y="-500.5" font-family="Helvetica,sans-Serif" font-size="10.00">(int errorNo)=0</text>
<text xml:space="preserve" text-anchor="start" x="131.88" y="-485.25" font-family="Helvetica,sans-Serif" font-size="10.00">+</text>
<text xml:space="preserve" text-anchor="start" x="141.88" y="-485.25" font-family="Helvetica,sans-Serif" font-size="10.00">virtual void configure()=0</text>
<text xml:space="preserve" text-anchor="start" x="131.88" y="-470" font-family="Helvetica,sans-Serif" font-size="10.00">+</text>
<text xml:space="preserve" text-anchor="start" x="141.88" y="-470" font-family="Helvetica,sans-Serif" font-size="10.00">virtual void configuration</text>
<text xml:space="preserve" text-anchor="start" x="141.88" y="-458.75" font-family="Helvetica,sans-Serif" font-size="10.00">Ended()=0</text>
<text xml:space="preserve" text-anchor="start" x="131.88" y="-443.5" font-family="Helvetica,sans-Serif" font-size="10.00">+</text>
<text xml:space="preserve" text-anchor="start" x="141.88" y="-443.5" font-family="Helvetica,sans-Serif" font-size="10.00">virtual void start()=0</text>
<text xml:space="preserve" text-anchor="start" x="131.88" y="-428.25" font-family="Helvetica,sans-Serif" font-size="10.00">+</text>
<text xml:space="preserve" text-anchor="start" x="141.88" y="-428.25" font-family="Helvetica,sans-Serif" font-size="10.00">virtual void suspend()=0</text>
<text xml:space="preserve" text-anchor="start" x="131.88" y="-413" font-family="Helvetica,sans-Serif" font-size="10.00">+</text>
<text xml:space="preserve" text-anchor="start" x="141.88" y="-413" font-family="Helvetica,sans-Serif" font-size="10.00">virtual void resume()=0</text>
<text xml:space="preserve" text-anchor="start" x="131.88" y="-397.75" font-family="Helvetica,sans-Serif" font-size="10.00">+</text>
<text xml:space="preserve" text-anchor="start" x="141.88" y="-397.75" font-family="Helvetica,sans-Serif" font-size="10.00">virtual void exit()=0</text>
<text xml:space="preserve" text-anchor="start" x="131.88" y="-382.5" font-family="Helvetica,sans-Serif" font-size="10.00">+</text>
<text xml:space="preserve" text-anchor="start" x="141.88" y="-382.5" font-family="Helvetica,sans-Serif" font-size="10.00">virtual void stop()=0</text>
<polygon fill="#666666" stroke="#666666" points="127.88,-637.25 127.88,-637.25 291.38,-637.25 291.38,-637.25 127.88,-637.25"/>
<polygon fill="#666666" stroke="#666666" points="127.88,-622 127.88,-622 291.38,-622 291.38,-622 127.88,-622"/>
<polygon fill="none" stroke="#666666" points="127.88,-376.75 127.88,-654.5 291.38,-654.5 291.38,-376.75 127.88,-376.75"/>
</a>
</g>
</g>
<!-- Node2&#45;&gt;Node1 -->
<g id="edge1_Node000001_Node000002" class="edge">
<title>Node2&#45;&gt;Node1</title>
<g id="a_edge1_Node000001_Node000002"><a xlink:title=" ">
<path fill="none" stroke="#63b8ff" d="M153.96,-366.23C147.18,-348.17 140.26,-329.71 133.48,-311.64"/>
<polygon fill="none" stroke="#63b8ff" points="150.61,-367.27 157.4,-375.4 157.16,-364.81 150.61,-367.27"/>
</a>
</g>
</g>
<!-- Node3 -->
<g id="Node000003" class="node">
<title>Node3</title>
<g id="a_Node000003"><a xlink:href="class_embedded_system_x.html" target="_top" xlink:title=" ">
<polygon fill="white" stroke="none" points="383.75,-323.5 237.5,-323.5 237.5,0 383.75,0 383.75,-323.5"/>
<text xml:space="preserve" text-anchor="start" x="267.12" y="-310" font-family="Helvetica,sans-Serif" font-size="10.00">EmbeddedSystemX</text>
<text xml:space="preserve" text-anchor="start" x="309.12" y="-294.75" font-family="Helvetica,sans-Serif" font-size="10.00"> </text>
<text xml:space="preserve" text-anchor="start" x="241.5" y="-279.5" font-family="Helvetica,sans-Serif" font-size="10.00">+</text>
<text xml:space="preserve" text-anchor="start" x="251.5" y="-279.5" font-family="Helvetica,sans-Serif" font-size="10.00">EmbeddedSystemX()</text>
<text xml:space="preserve" text-anchor="start" x="241.5" y="-264.25" font-family="Helvetica,sans-Serif" font-size="10.00">+</text>
<text xml:space="preserve" text-anchor="start" x="251.5" y="-264.25" font-family="Helvetica,sans-Serif" font-size="10.00">~EmbeddedSystemX()</text>
<text xml:space="preserve" text-anchor="start" x="241.5" y="-249" font-family="Helvetica,sans-Serif" font-size="10.00">+</text>
<text xml:space="preserve" text-anchor="start" x="251.5" y="-249" font-family="Helvetica,sans-Serif" font-size="10.00">void changeState(Embedded</text>
<text xml:space="preserve" text-anchor="start" x="251.5" y="-237.75" font-family="Helvetica,sans-Serif" font-size="10.00">SystemXState *newState)</text>
<text xml:space="preserve" text-anchor="start" x="241.5" y="-222.5" font-family="Helvetica,sans-Serif" font-size="10.00">+</text>
<text xml:space="preserve" text-anchor="start" x="251.5" y="-222.5" font-family="Helvetica,sans-Serif" font-size="10.00">RealTimeLoop * getRealTime</text>
<text xml:space="preserve" text-anchor="start" x="251.5" y="-211.25" font-family="Helvetica,sans-Serif" font-size="10.00">Loop()</text>
<text xml:space="preserve" text-anchor="start" x="241.5" y="-196" font-family="Helvetica,sans-Serif" font-size="10.00">+</text>
<text xml:space="preserve" text-anchor="start" x="251.5" y="-196" font-family="Helvetica,sans-Serif" font-size="10.00">void selfTestOk()</text>
<text xml:space="preserve" text-anchor="start" x="241.5" y="-180.75" font-family="Helvetica,sans-Serif" font-size="10.00">+</text>
<text xml:space="preserve" text-anchor="start" x="251.5" y="-180.75" font-family="Helvetica,sans-Serif" font-size="10.00">void initialized()</text>
<text xml:space="preserve" text-anchor="start" x="241.5" y="-165.5" font-family="Helvetica,sans-Serif" font-size="10.00">+</text>
<text xml:space="preserve" text-anchor="start" x="251.5" y="-165.5" font-family="Helvetica,sans-Serif" font-size="10.00">void restart()</text>
<text xml:space="preserve" text-anchor="start" x="241.5" y="-150.25" font-family="Helvetica,sans-Serif" font-size="10.00">+</text>
<text xml:space="preserve" text-anchor="start" x="251.5" y="-150.25" font-family="Helvetica,sans-Serif" font-size="10.00">void selfTestFailed</text>
<text xml:space="preserve" text-anchor="start" x="251.5" y="-139" font-family="Helvetica,sans-Serif" font-size="10.00">(int errorNo)</text>
<text xml:space="preserve" text-anchor="start" x="241.5" y="-123.75" font-family="Helvetica,sans-Serif" font-size="10.00">+</text>
<text xml:space="preserve" text-anchor="start" x="251.5" y="-123.75" font-family="Helvetica,sans-Serif" font-size="10.00">void configure()</text>
<text xml:space="preserve" text-anchor="start" x="241.5" y="-108.5" font-family="Helvetica,sans-Serif" font-size="10.00">+</text>
<text xml:space="preserve" text-anchor="start" x="251.5" y="-108.5" font-family="Helvetica,sans-Serif" font-size="10.00">void configurationEnded()</text>
<text xml:space="preserve" text-anchor="start" x="241.5" y="-93.25" font-family="Helvetica,sans-Serif" font-size="10.00">+</text>
<text xml:space="preserve" text-anchor="start" x="251.5" y="-93.25" font-family="Helvetica,sans-Serif" font-size="10.00">void start()</text>
<text xml:space="preserve" text-anchor="start" x="241.5" y="-78" font-family="Helvetica,sans-Serif" font-size="10.00">+</text>
<text xml:space="preserve" text-anchor="start" x="251.5" y="-78" font-family="Helvetica,sans-Serif" font-size="10.00">void suspend()</text>
<text xml:space="preserve" text-anchor="start" x="241.5" y="-62.75" font-family="Helvetica,sans-Serif" font-size="10.00">+</text>
<text xml:space="preserve" text-anchor="start" x="251.5" y="-62.75" font-family="Helvetica,sans-Serif" font-size="10.00">void resume()</text>
<text xml:space="preserve" text-anchor="start" x="241.5" y="-47.5" font-family="Helvetica,sans-Serif" font-size="10.00">+</text>
<text xml:space="preserve" text-anchor="start" x="251.5" y="-47.5" font-family="Helvetica,sans-Serif" font-size="10.00">void exit()</text>
<text xml:space="preserve" text-anchor="start" x="241.5" y="-32.25" font-family="Helvetica,sans-Serif" font-size="10.00">+</text>
<text xml:space="preserve" text-anchor="start" x="251.5" y="-32.25" font-family="Helvetica,sans-Serif" font-size="10.00">void stop()</text>
<text xml:space="preserve" text-anchor="start" x="241.5" y="-17" font-family="Helvetica,sans-Serif" font-size="10.00">+</text>
<text xml:space="preserve" text-anchor="start" x="251.5" y="-17" font-family="Helvetica,sans-Serif" font-size="10.00">std::string getStateName</text>
<text xml:space="preserve" text-anchor="start" x="251.5" y="-5.75" font-family="Helvetica,sans-Serif" font-size="10.00">() const</text>
<polygon fill="#666666" stroke="#666666" points="237.5,-306.25 237.5,-306.25 383.75,-306.25 383.75,-306.25 237.5,-306.25"/>
<polygon fill="#666666" stroke="#666666" points="237.5,-291 237.5,-291 383.75,-291 383.75,-291 237.5,-291"/>
<polygon fill="none" stroke="#666666" points="237.5,0 237.5,-323.5 383.75,-323.5 383.75,0 237.5,0"/>
</a>
</g>
</g>
<!-- Node2&#45;&gt;Node3 -->
<g id="edge3_Node000003_Node000002" class="edge">
<title>Node2&#45;&gt;Node3</title>
<g id="a_edge3_Node000003_Node000002"><a xlink:title=" ">
<path fill="none" stroke="#63b8ff" d="M195.63,-377.06C197.75,-364.72 201.19,-352.68 206.38,-341.5 211.58,-330.27 219.92,-333.18 227.62,-323.5 228.48,-322.42 229.33,-321.34 230.18,-320.24"/>
<polygon fill="none" stroke="#63b8ff" points="229.97,-320.52 230.33,-313.32 237.11,-310.88 236.76,-318.08 229.97,-320.52"/>
</a>
</g>
<text xml:space="preserve" text-anchor="start" x="209.38" y="-346.25" font-family="Helvetica,sans-Serif" font-size="10.00" fill="grey">&#45;currentState</text>
</g>
<!-- Node3&#45;&gt;Node2 -->
<g id="edge2_Node000002_Node000003" class="edge">
<title>Node3&#45;&gt;Node2</title>
<g id="a_edge2_Node000002_Node000003"><a xlink:title=" ">
<path fill="none" stroke="#63b8ff" d="M282.13,-323.28C279.19,-335.35 276.02,-347.28 272.62,-358.75 272.04,-360.72 271.44,-362.71 270.83,-364.7"/>
<polygon fill="none" stroke="#63b8ff" points="270.82,-364.72 272.8,-371.66 267.16,-376.15 265.18,-369.22 270.82,-364.72"/>
</a>
</g>
<text xml:space="preserve" text-anchor="start" x="280.02" y="-346.25" font-family="Helvetica,sans-Serif" font-size="10.00" fill="grey">#context</text>
</g>
<!-- Node4 -->
<g id="Node000004" class="node">
<title>Node4</title>
<g id="a_Node000004"><a xlink:href="class_real_time_loop.html" target="_top" xlink:title=" ">
<polygon fill="white" stroke="none" points="519.75,-574.62 385.5,-574.62 385.5,-456.62 519.75,-456.62 519.75,-574.62"/>
<text xml:space="preserve" text-anchor="start" x="421.12" y="-561.12" font-family="Helvetica,sans-Serif" font-size="10.00">RealTimeLoop</text>
<text xml:space="preserve" text-anchor="start" x="451.12" y="-545.88" font-family="Helvetica,sans-Serif" font-size="10.00"> </text>
<text xml:space="preserve" text-anchor="start" x="389.5" y="-530.62" font-family="Helvetica,sans-Serif" font-size="10.00">+</text>
<text xml:space="preserve" text-anchor="start" x="399.5" y="-530.62" font-family="Helvetica,sans-Serif" font-size="10.00">RealTimeLoop()</text>
<text xml:space="preserve" text-anchor="start" x="389.5" y="-515.38" font-family="Helvetica,sans-Serif" font-size="10.00">+</text>
<text xml:space="preserve" text-anchor="start" x="399.5" y="-515.38" font-family="Helvetica,sans-Serif" font-size="10.00">void changeMode(int</text>
<text xml:space="preserve" text-anchor="start" x="399.5" y="-504.12" font-family="Helvetica,sans-Serif" font-size="10.00"> modeNumber)</text>
<text xml:space="preserve" text-anchor="start" x="389.5" y="-488.88" font-family="Helvetica,sans-Serif" font-size="10.00">+</text>
<text xml:space="preserve" text-anchor="start" x="399.5" y="-488.88" font-family="Helvetica,sans-Serif" font-size="10.00">void eventX()</text>
<text xml:space="preserve" text-anchor="start" x="389.5" y="-473.62" font-family="Helvetica,sans-Serif" font-size="10.00">+</text>
<text xml:space="preserve" text-anchor="start" x="399.5" y="-473.62" font-family="Helvetica,sans-Serif" font-size="10.00">std::string getCurrentMode</text>
<text xml:space="preserve" text-anchor="start" x="399.5" y="-462.38" font-family="Helvetica,sans-Serif" font-size="10.00">() const</text>
<polygon fill="#666666" stroke="#666666" points="385.5,-557.38 385.5,-557.38 519.75,-557.38 519.75,-557.38 385.5,-557.38"/>
<polygon fill="#666666" stroke="#666666" points="385.5,-542.12 385.5,-542.12 519.75,-542.12 519.75,-542.12 385.5,-542.12"/>
<polygon fill="none" stroke="#666666" points="385.5,-456.62 385.5,-574.62 519.75,-574.62 519.75,-456.62 385.5,-456.62"/>
</a>
</g>
</g>
<!-- Node4&#45;&gt;Node3 -->
<g id="edge4_Node000003_Node000004" class="edge">
<title>Node4&#45;&gt;Node3</title>
<g id="a_edge4_Node000003_Node000004"><a xlink:title=" ">
<path fill="none" stroke="#63b8ff" d="M422.56,-456.93C407.97,-427.87 390.7,-391.86 377.12,-358.75 374,-351.13 370.91,-343.31 367.86,-335.38"/>
<polygon fill="none" stroke="#63b8ff" points="367.84,-335.33 361.97,-331.14 363.59,-324.11 369.45,-328.3 367.84,-335.33"/>
</a>
</g>
<text xml:space="preserve" text-anchor="start" x="380.12" y="-346.25" font-family="Helvetica,sans-Serif" font-size="10.00" fill="grey">&#45;realTimeLoop</text>
</g>
<!-- Node5 -->
<g id="Node000005" class="node">
<title>Node5</title>
<g id="a_Node000005"><a xlink:href="class_real_time_loop_state.html" target="_top" xlink:title=" ">
<polygon fill="white" stroke="none" points="573.38,-213.12 433.88,-213.12 433.88,-110.38 573.38,-110.38 573.38,-213.12"/>
<text xml:space="preserve" text-anchor="start" x="460.5" y="-199.62" font-family="Helvetica,sans-Serif" font-size="10.00">RealTimeLoopState</text>
<text xml:space="preserve" text-anchor="start" x="502.12" y="-184.38" font-family="Helvetica,sans-Serif" font-size="10.00"> </text>
<text xml:space="preserve" text-anchor="start" x="437.88" y="-169.12" font-family="Helvetica,sans-Serif" font-size="10.00">+</text>
<text xml:space="preserve" text-anchor="start" x="447.88" y="-169.12" font-family="Helvetica,sans-Serif" font-size="10.00">RealTimeLoopState</text>
<text xml:space="preserve" text-anchor="start" x="447.88" y="-157.88" font-family="Helvetica,sans-Serif" font-size="10.00">(RealTimeLoop *ctx)</text>
<text xml:space="preserve" text-anchor="start" x="437.88" y="-142.62" font-family="Helvetica,sans-Serif" font-size="10.00">+</text>
<text xml:space="preserve" text-anchor="start" x="447.88" y="-142.62" font-family="Helvetica,sans-Serif" font-size="10.00">virtual ~RealTimeLoopState</text>
<text xml:space="preserve" text-anchor="start" x="447.88" y="-131.38" font-family="Helvetica,sans-Serif" font-size="10.00">()=default</text>
<text xml:space="preserve" text-anchor="start" x="437.88" y="-116.12" font-family="Helvetica,sans-Serif" font-size="10.00">+</text>
<text xml:space="preserve" text-anchor="start" x="447.88" y="-116.12" font-family="Helvetica,sans-Serif" font-size="10.00">virtual void eventX()=0</text>
<polygon fill="#666666" stroke="#666666" points="433.88,-195.88 433.88,-195.88 573.38,-195.88 573.38,-195.88 433.88,-195.88"/>
<polygon fill="#666666" stroke="#666666" points="433.88,-180.62 433.88,-180.62 573.38,-180.62 573.38,-180.62 433.88,-180.62"/>
<polygon fill="none" stroke="#666666" points="433.88,-110.38 433.88,-213.12 573.38,-213.12 573.38,-110.38 433.88,-110.38"/>
</a>
</g>
</g>
<!-- Node4&#45;&gt;Node5 -->
<g id="edge6_Node000005_Node000004" class="edge">
<title>Node4&#45;&gt;Node5</title>
<g id="a_edge6_Node000005_Node000004"><a xlink:title=" ">
<path fill="none" stroke="#63b8ff" d="M447.22,-457.01C445.18,-423.19 444.53,-379.72 450.12,-341.5 455.91,-301.96 468.55,-259.03 480.08,-225.15"/>
<polygon fill="none" stroke="#63b8ff" points="480.03,-225.28 478.22,-218.3 483.97,-213.95 485.78,-220.93 480.03,-225.28"/>
</a>
</g>
<text xml:space="preserve" text-anchor="start" x="453.12" y="-346.25" font-family="Helvetica,sans-Serif" font-size="10.00" fill="grey">#context</text>
</g>
<!-- Node5&#45;&gt;Node4 -->
<g id="edge5_Node000004_Node000005" class="edge">
<title>Node5&#45;&gt;Node4</title>
<g id="a_edge5_Node000004_Node000005"><a xlink:title=" ">
<path fill="none" stroke="#63b8ff" d="M505.53,-213.02C506.21,-252.8 505.34,-309.65 497.62,-358.75 493.13,-387.34 485,-418.08 476.87,-444.65"/>
<polygon fill="none" stroke="#63b8ff" points="476.88,-444.62 478.9,-451.54 473.29,-456.07 471.27,-449.15 476.88,-444.62"/>
</a>
</g>
<text xml:space="preserve" text-anchor="start" x="502.84" y="-346.25" font-family="Helvetica,sans-Serif" font-size="10.00" fill="grey">&#45;currentMode</text>
</g>
</g>
</svg>
