<?xml version="1.0" encoding="UTF-8" standalone="no"?>
<!DOCTYPE svg PUBLIC "-//W3C//DTD SVG 1.1//EN"
 "http://www.w3.org/Graphics/SVG/1.1/DTD/svg11.dtd">
<!-- Generated by graphviz version 14.0.4 (20251115.1723)
 -->
<!-- Title: RealTimeLoopOuterState Pages: 1 -->
<svg width="578pt" height="663pt"
 viewBox="0.00 0.00 578.00 663.00" xmlns="http://www.w3.org/2000/svg" xmlns:xlink="http://www.w3.org/1999/xlink">
<g id="graph0" class="graph" transform="scale(1 1) rotate(0) translate(4 658.5)">
<title>RealTimeLoopOuterState</title>
<!-- Node1 -->
<g id="Node000001" class="node">
<title>Node1</title>
<g id="a_Node000001"><a xlink:title=" ">
<polygon fill="#999999" stroke="none" points="151.5,-311.88 0,-311.88 0,-11.62 151.5,-11.62 151.5,-311.88"/>
<text xml:space="preserve" text-anchor="start" x="20.62" y="-298.38" font-family="Helvetica,sans-Serif" font-size="10.00">RealTimeLoopOuterState</text>
<text xml:space="preserve" text-anchor="start" x="74.25" y="-283.12" font-family="Helvetica,sans-Serif" font-size="10.00"> </text>
<text xml:space="preserve" text-anchor="start" x="4" y="-267.88" font-family="Helvetica,sans-Serif" font-size="10.00">+</text>
<text xml:space="preserve" text-anchor="start" x="14" y="-267.88" font-family="Helvetica,sans-Serif" font-size="10.00">void selfTestOk() override</text>
<text xml:space="preserve" text-anchor="start" x="4" y="-252.62" font-family="Helvetica,sans-Serif" font-size="10.00">+</text>
<text xml:space="preserve" text-anchor="start" x="14" y="-252.62" font-family="Helvetica,sans-Serif" font-size="10.00">void initialized()</text>
<text xml:space="preserve" text-anchor="start" x="14" y="-241.38" font-family="Helvetica,sans-Serif" font-size="10.00"> override</text>
<text xml:space="preserve" text-anchor="start" x="4" y="-226.12" font-family="Helvetica,sans-Serif" font-size="10.00">+</text>
<text xml:space="preserve" text-anchor="start" x="14" y="-226.12" font-family="Helvetica,sans-Serif" font-size="10.00">void restart() override</text>
<text xml:space="preserve" text-anchor="start" x="4" y="-210.88" font-family="Helvetica,sans-Serif" font-size="10.00">+</text>
<text xml:space="preserve" text-anchor="start" x="14" y="-210.88" font-family="Helvetica,sans-Serif" font-size="10.00">void selfTestFailed</text>
<text xml:space="preserve" text-anchor="start" x="14" y="-199.62" font-family="Helvetica,sans-Serif" font-size="10.00">(int errorNo) override</text>
<text xml:space="preserve" text-anchor="start" x="4" y="-184.38" font-family="Helvetica,sans-Serif" font-size="10.00">+</text>
<text xml:space="preserve" text-anchor="start" x="14" y="-184.38" font-family="Helvetica,sans-Serif" font-size="10.00">void configure() override</text>
<text xml:space="preserve" text-anchor="start" x="4" y="-169.12" font-family="Helvetica,sans-Serif" font-size="10.00">+</text>
<text xml:space="preserve" text-anchor="start" x="14" y="-169.12" font-family="Helvetica,sans-Serif" font-size="10.00">void configurationEnded</text>
<text xml:space="preserve" text-anchor="start" x="14" y="-157.88" font-family="Helvetica,sans-Serif" font-size="10.00">() override</text>
<text xml:space="preserve" text-anchor="start" x="4" y="-142.62" font-family="Helvetica,sans-Serif" font-size="10.00">+</text>
<text xml:space="preserve" text-anchor="start" x="14" y="-142.62" font-family="Helvetica,sans-Serif" font-size="10.00">void start() override</text>
<text xml:space="preserve" text-anchor="start" x="4" y="-127.38" font-family="Helvetica,sans-Serif" font-size="10.00">+</text>
<text xml:space="preserve" text-anchor="start" x="14" y="-127.38" font-family="Helvetica,sans-Serif" font-size="10.00">void suspend() override</text>
<text xml:space="preserve" text-anchor="start" x="4" y="-112.12" font-family="Helvetica,sans-Serif" font-size="10.00">+</text>
<text xml:space="preserve" text-anchor="start" x="14" y="-112.12" font-family="Helvetica,sans-Serif" font-size="10.00">void resume() override</text>
<text xml:space="preserve" text-anchor="start" x="4" y="-96.88" font-family="Helvetica,sans-Serif" font-size="10.00">+</text>
<text xml:space="preserve" text-anchor="start" x="14" y="-96.88" font-family="Helvetica,sans-Serif" font-size="10.00">void exit() override</text>
<text xml:space="preserve" text-anchor="start" x="4" y="-81.62" font-family="Helvetica,sans-Serif" font-size="10.00">+</text>
<text xml:space="preserve" text-anchor="start" x="14" y="-81.62" font-family="Helvetica,sans-Serif" font-size="10.00">void stop() override</text>
<text xml:space="preserve" text-anchor="start" x="4" y="-66.38" font-family="Helvetica,sans-Serif" font-size="10.00">+</text>
<text xml:space="preserve" text-anchor="start" x="14" y="-66.38" font-family="Helvetica,sans-Serif" font-size="10.00">static RealTimeLoopOuter</text>
<text xml:space="preserve" text-anchor="start" x="14" y="-55.12" font-family="Helvetica,sans-Serif" font-size="10.00">State * getInstance(Embedded</text>
<text xml:space="preserve" text-anchor="start" x="14" y="-43.88" font-family="Helvetica,sans-Serif" font-size="10.00">SystemX *ctx)</text>
<text xml:space="preserve" text-anchor="start" x="5.5" y="-28.62" font-family="Helvetica,sans-Serif" font-size="10.00">&#45;</text>
<text xml:space="preserve" text-anchor="start" x="14" y="-28.62" font-family="Helvetica,sans-Serif" font-size="10.00">RealTimeLoopOuterState</text>
<text xml:space="preserve" text-anchor="start" x="14" y="-17.38" font-family="Helvetica,sans-Serif" font-size="10.00">(EmbeddedSystemX *ctx)</text>
<polygon fill="#666666" stroke="#666666" points="0,-294.62 0,-294.62 151.5,-294.62 151.5,-294.62 0,-294.62"/>
<polygon fill="#666666" stroke="#666666" points="0,-279.38 0,-279.38 151.5,-279.38 151.5,-279.38 0,-279.38"/>
<polygon fill="none" stroke="#666666" points="0,-11.62 0,-311.88 151.5,-311.88 151.5,-11.62 0,-11.62"/>
</a>
</g>
</g>
<!-- Node1&#45;&gt;Node1 -->
<g id="edge7_Node000001_Node000001" class="edge">
<title>Node1&#45;&gt;Node1</title>
<g id="a_edge7_Node000001_Node000001"><a xlink:title=" ">
<path fill="none" stroke="#63b8ff" d="M151.15,-193.62C162.11,-188.56 169.5,-177.94 169.5,-161.75 169.5,-151.38 166.47,-143.29 161.41,-137.49"/>
<polygon fill="none" stroke="#63b8ff" points="161.51,-137.57 154.31,-137.2 151.88,-130.42 159.08,-130.78 161.51,-137.57"/>
</a>
</g>
<text xml:space="preserve" text-anchor="start" x="172.5" y="-157.88" font-family="Helvetica,sans-Serif" font-size="10.00" fill="grey">&#45;instance</text>
</g>
<!-- Node2 -->
<g id="Node000002" class="node">
<title>Node2</title>
<g id="a_Node000002"><a xlink:href="class_embedded_system_x_state.html" target="_top" xlink:title=" ">
<polygon fill="white" stroke="none" points="287.5,-654.5 124,-654.5 124,-376.75 287.5,-376.75 287.5,-654.5"/>
<text xml:space="preserve" text-anchor="start" x="150.62" y="-641" font-family="Helvetica,sans-Serif" font-size="10.00">EmbeddedSystemXState</text>
<text xml:space="preserve" text-anchor="start" x="204.25" y="-625.75" font-family="Helvetica,sans-Serif" font-size="10.00"> </text>
<text xml:space="preserve" text-anchor="start" x="128" y="-610.5" font-family="Helvetica,sans-Serif" font-size="10.00">+</text>
<text xml:space="preserve" text-anchor="start" x="138" y="-610.5" font-family="Helvetica,sans-Serif" font-size="10.00">EmbeddedSystemXState</text>
<text xml:space="preserve" text-anchor="start" x="138" y="-599.25" font-family="Helvetica,sans-Serif" font-size="10.00">(EmbeddedSystemX *ctx)</text>
<text xml:space="preserve" text-anchor="start" x="128" y="-584" font-family="Helvetica,sans-Serif" font-size="10.00">+</text>
<text xml:space="preserve" text-anchor="start" x="138" y="-584" font-family="Helvetica,sans-Serif" font-size="10.00">virtual ~EmbeddedSystemXState</text>
<text xml:space="preserve" text-anchor="start" x="138" y="-572.75" font-family="Helvetica,sans-Serif" font-size="10.00">()=default</text>
<text xml:space="preserve" text-anchor="start" x="128" y="-557.5" font-family="Helvetica,sans-Serif" font-size="10.00">+</text>
<text xml:space="preserve" text-anchor="start" x="138" y="-557.5" font-family="Helvetica,sans-Serif" font-size="10.00">virtual void selfTestOk()=0</text>
<text xml:space="preserve" text-anchor="start" x="128" y="-542.25" font-family="Helvetica,sans-Serif" font-size="10.00">+</text>
<text xml:space="preserve" text-anchor="start" x="138" y="-542.25" font-family="Helvetica,sans-Serif" font-size="10.00">virtual void initialized()=0</text>
<text xml:space="preserve" text-anchor="start" x="128" y="-527" font-family="Helvetica,sans-Serif" font-size="10.00">+</text>
<text xml:space="preserve" text-anchor="start" x="138" y="-527" font-family="Helvetica,sans-Serif" font-size="10.00">virtual void restart()=0</text>
<text xml:space="preserve" text-anchor="start" x="128" y="-511.75" font-family="Helvetica,sans-Serif" font-size="10.00">+</text>
<text xml:space="preserve" text-anchor="start" x="138" y="-511.75" font-family="Helvetica,sans-Serif" font-size="10.00">virtual void selfTestFailed</text>
<text xml:space="preserve" text-anchor="start" x="138" y="-500.5" font-family="Helvetica,sans-Serif" font-size="10.00">(int errorNo)=0</text>
<text xml:space="preserve" text-anchor="start" x="128" y="-485.25" font-family="Helvetica,sans-Serif" font-size="10.00">+</text>
<text xml:space="preserve" text-anchor="start" x="138" y="-485.25" font-family="Helvetica,sans-Serif" font-size="10.00">virtual void configure()=0</text>
<text xml:space="preserve" text-anchor="start" x="128" y="-470" font-family="Helvetica,sans-Serif" font-size="10.00">+</text>
<text xml:space="preserve" text-anchor="start" x="138" y="-470" font-family="Helvetica,sans-Serif" font-size="10.00">virtual void configuration</text>
<text xml:space="preserve" text-anchor="start" x="138" y="-458.75" font-family="Helvetica,sans-Serif" font-size="10.00">Ended()=0</text>
<text xml:space="preserve" text-anchor="start" x="128" y="-443.5" font-family="Helvetica,sans-Serif" font-size="10.00">+</text>
<text xml:space="preserve" text-anchor="start" x="138" y="-443.5" font-family="Helvetica,sans-Serif" font-size="10.00">virtual void start()=0</text>
<text xml:space="preserve" text-anchor="start" x="128" y="-428.25" font-family="Helvetica,sans-Serif" font-size="10.00">+</text>
<text xml:space="preserve" text-anchor="start" x="138" y="-428.25" font-family="Helvetica,sans-Serif" font-size="10.00">virtual void suspend()=0</text>
<text xml:space="preserve" text-anchor="start" x="128" y="-413" font-family="Helvetica,sans-Serif" font-size="10.00">+</text>
<text xml:space="preserve" text-anchor="start" x="138" y="-413" font-family="Helvetica,sans-Serif" font-size="10.00">virtual void resume()=0</text>
<text xml:space="preserve" text-anchor="start" x="128" y="-397.75" font-family="Helvetica,sans-Serif" font-size="10.00">+</text>
<text xml:space="preserve" text-anchor="start" x="138" y="-397.75" font-family="Helvetica,sans-Serif" font-size="10.00">virtual void exit()=0</text>
<text xml:space="preserve" text-anchor="start" x="128" y="-382.5" font-family="Helvetica,sans-Serif" font-size="10.00">+</text>
<text xml:space="preserve" text-anchor="start" x="138" y="-382.5" font-family="Helvetica,sans-Serif" font-size="10.00">virtual void stop()=0</text>
<polygon fill="#666666" stroke="#666666" points="124,-637.25 124,-637.25 287.5,-637.25 287.5,-637.25 124,-637.25"/>
<polygon fill="#666666" stroke="#666666" points="124,-622 124,-622 287.5,-622 287.5,-622 124,-622"/>
<polygon fill="none" stroke="#666666" points="124,-376.75 124,-654.5 287.5,-654.5 287.5,-376.75 124,-376.75"/>
</a>
</g>
</g>
<!-- Node2&#45;&gt;Node1 -->
<g id="edge1_Node000001_Node000002" class="edge">
<title>Node2&#45;&gt;Node1</title>
<g id="a_edge1_Node000001_Node000002"><a xlink:title=" ">
<path fill="none" stroke="#63b8ff" d="M150.93,-366.23C144.25,-348.17 137.43,-329.71 130.76,-311.64"/>
<polygon fill="none" stroke="#63b8ff" points="147.56,-367.23 154.31,-375.4 154.13,-364.8 147.56,-367.23"/>
</a>
</g>
</g>
<!-- Node3 -->
<g id="Node000003" class="node">
<title>Node3</title>
<g id="a_Node000003"><a xlink:href="class_embedded_system_x.html" target="_top" xlink:title=" ">
<polygon fill="white" stroke="none" points="379.88,-323.5 233.62,-323.5 233.62,0 379.88,0 379.88,-323.5"/>
<text xml:space="preserve" text-anchor="start" x="263.25" y="-310" font-family="Helvetica,sans-Serif" font-size="10.00">EmbeddedSystemX</text>
<text xml:space="preserve" text-anchor="start" x="305.25" y="-294.75" font-family="Helvetica,sans-Serif" font-size="10.00"> </text>
<text xml:space="preserve" text-anchor="start" x="237.62" y="-279.5" font-family="Helvetica,sans-Serif" font-size="10.00">+</text>
<text xml:space="preserve" text-anchor="start" x="247.62" y="-279.5" font-family="Helvetica,sans-Serif" font-size="10.00">EmbeddedSystemX()</text>
<text xml:space="preserve" text-anchor="start" x="237.62" y="-264.25" font-family="Helvetica,sans-Serif" font-size="10.00">+</text>
<text xml:space="preserve" text-anchor="start" x="247.62" y="-264.25" font-family="Helvetica,sans-Serif" font-size="10.00">~EmbeddedSystemX()</text>
<text xml:space="preserve" text-anchor="start" x="237.62" y="-249" font-family="Helvetica,sans-Serif" font-size="10.00">+</text>
<text xml:space="preserve" text-anchor="start" x="247.62" y="-249" font-family="Helvetica,sans-Serif" font-size="10.00">void changeState(Embedded</text>
<text xml:space="preserve" text-anchor="start" x="247.62" y="-237.75" font-family="Helvetica,sans-Serif" font-size="10.00">SystemXState *newState)</text>
<text xml:space="preserve" text-anchor="start" x="237.62" y="-222.5" font-family="Helvetica,sans-Serif" font-size="10.00">+</text>
<text xml:space="preserve" text-anchor="start" x="247.62" y="-222.5" font-family="Helvetica,sans-Serif" font-size="10.00">RealTimeLoop * getRealTime</text>
<text xml:space="preserve" text-anchor="start" x="247.62" y="-211.25" font-family="Helvetica,sans-Serif" font-size="10.00">Loop()</text>
<text xml:space="preserve" text-anchor="start" x="237.62" y="-196" font-family="Helvetica,sans-Serif" font-size="10.00">+</text>
<text xml:space="preserve" text-anchor="start" x="247.62" y="-196" font-family="Helvetica,sans-Serif" font-size="10.00">void selfTestOk()</text>
<text xml:space="preserve" text-anchor="start" x="237.62" y="-180.75" font-family="Helvetica,sans-Serif" font-size="10.00">+</text>
<text xml:space="preserve" text-anchor="start" x="247.62" y="-180.75" font-family="Helvetica,sans-Serif" font-size="10.00">void initialized()</text>
<text xml:space="preserve" text-anchor="start" x="237.62" y="-165.5" font-family="Helvetica,sans-Serif" font-size="10.00">+</text>
<text xml:space="preserve" text-anchor="start" x="247.62" y="-165.5" font-family="Helvetica,sans-Serif" font-size="10.00">void restart()</text>
<text xml:space="preserve" text-anchor="start" x="237.62" y="-150.25" font-family="Helvetica,sans-Serif" font-size="10.00">+</text>
<text xml:space="preserve" text-anchor="start" x="247.62" y="-150.25" font-family="Helvetica,sans-Serif" font-size="10.00">void selfTestFailed</text>
<text xml:space="preserve" text-anchor="start" x="247.62" y="-139" font-family="Helvetica,sans-Serif" font-size="10.00">(int errorNo)</text>
<text xml:space="preserve" text-anchor="start" x="237.62" y="-123.75" font-family="Helvetica,sans-Serif" font-size="10.00">+</text>
<text xml:space="preserve" text-anchor="start" x="247.62" y="-123.75" font-family="Helvetica,sans-Serif" font-size="10.00">void configure()</text>
<text xml:space="preserve" text-anchor="start" x="237.62" y="-108.5" font-family="Helvetica,sans-Serif" font-size="10.00">+</text>
<text xml:space="preserve" text-anchor="start" x="247.62" y="-108.5" font-family="Helvetica,sans-Serif" font-size="10.00">void configurationEnded()</text>
<text xml:space="preserve" text-anchor="start" x="237.62" y="-93.25" font-family="Helvetica,sans-Serif" font-size="10.00">+</text>
<text xml:space="preserve" text-anchor="start" x="247.62" y="-93.25" font-family="Helvetica,sans-Serif" font-size="10.00">void start()</text>
<text xml:space="preserve" text-anchor="start" x="237.62" y="-78" font-family="Helvetica,sans-Serif" font-size="10.00">+</text>
<text xml:space="preserve" text-anchor="start" x="247.62" y="-78" font-family="Helvetica,sans-Serif" font-size="10.00">void suspend()</text>
<text xml:space="preserve" text-anchor="start" x="237.62" y="-62.75" font-family="Helvetica,sans-Serif" font-size="10.00">+</text>
<text xml:space="preserve" text-anchor="start" x="247.62" y="-62.75" font-family="Helvetica,sans-Serif" font-size="10.00">void resume()</text>
<text xml:space="preserve" text-anchor="start" x="237.62" y="-47.5" font-family="Helvetica,sans-Serif" font-size="10.00">+</text>
<text xml:space="preserve" text-anchor="start" x="247.62" y="-47.5" font-family="Helvetica,sans-Serif" font-size="10.00">void exit()</text>
<text xml:space="preserve" text-anchor="start" x="237.62" y="-32.25" font-family="Helvetica,sans-Serif" font-size="10.00">+</text>
<text xml:space="preserve" text-anchor="start" x="247.62" y="-32.25" font-family="Helvetica,sans-Serif" font-size="10.00">void stop()</text>
<text xml:space="preserve" text-anchor="start" x="237.62" y="-17" font-family="Helvetica,sans-Serif" font-size="10.00">+</text>
<text xml:space="preserve" text-anchor="start" x="247.62" y="-17" font-family="Helvetica,sans-Serif" font-size="10.00">std::string getStateName</text>
<text xml:space="preserve" text-anchor="start" x="247.62" y="-5.75" font-family="Helvetica,sans-Serif" font-size="10.00">() const</text>
<polygon fill="#666666" stroke="#666666" points="233.62,-306.25 233.62,-306.25 379.88,-306.25 379.88,-306.25 233.62,-306.25"/>
<polygon fill="#666666" stroke="#666666" points="233.62,-291 233.62,-291 379.88,-291 379.88,-291 233.62,-291"/>
<polygon fill="none" stroke="#666666" points="233.62,0 233.62,-323.5 379.88,-323.5 379.88,0 233.62,0"/>
</a>
</g>
</g>
<!-- Node2&#45;&gt;Node3 -->
<g id="edge3_Node000003_Node000002" class="edge">
<title>Node2&#45;&gt;Node3</title>
<g id="a_edge3_Node000003_Node000002"><a xlink:title=" ">
<path fill="none" stroke="#63b8ff" d="M191.49,-376.94C193.67,-364.62 197.19,-352.62 202.5,-341.5 207.98,-330.02 216.74,-333.38 224.75,-323.5 225.13,-323.03 225.51,-322.55 225.89,-322.08"/>
<polygon fill="none" stroke="#63b8ff" points="225.89,-322.08 226.35,-314.88 233.17,-312.53 232.71,-319.73 225.89,-322.08"/>
</a>
</g>
<text xml:space="preserve" text-anchor="start" x="205.5" y="-346.25" font-family="Helvetica,sans-Serif" font-size="10.00" fill="grey">&#45;currentState</text>
</g>
<!-- Node3&#45;&gt;Node2 -->
<g id="edge2_Node000002_Node000003" class="edge">
<title>Node3&#45;&gt;Node2</title>
<g id="a_edge2_Node000002_Node000003"><a xlink:title=" ">
<path fill="none" stroke="#63b8ff" d="M278.26,-323.28C275.31,-335.35 272.14,-347.28 268.75,-358.75 268.17,-360.72 267.57,-362.71 266.95,-364.7"/>
<polygon fill="none" stroke="#63b8ff" points="266.94,-364.72 268.92,-371.66 263.28,-376.15 261.3,-369.22 266.94,-364.72"/>
</a>
</g>
<text xml:space="preserve" text-anchor="start" x="276.15" y="-346.25" font-family="Helvetica,sans-Serif" font-size="10.00" fill="grey">#context</text>
</g>
<!-- Node4 -->
<g id="Node000004" class="node">
<title>Node4</title>
<g id="a_Node000004"><a xlink:href="class_real_time_loop.html" target="_top" xlink:title=" ">
<polygon fill="white" stroke="none" points="515.88,-574.62 381.62,-574.62 381.62,-456.62 515.88,-456.62 515.88,-574.62"/>
<text xml:space="preserve" text-anchor="start" x="417.25" y="-561.12" font-family="Helvetica,sans-Serif" font-size="10.00">RealTimeLoop</text>
<text xml:space="preserve" text-anchor="start" x="447.25" y="-545.88" font-family="Helvetica,sans-Serif" font-size="10.00"> </text>
<text xml:space="preserve" text-anchor="start" x="385.62" y="-530.62" font-family="Helvetica,sans-Serif" font-size="10.00">+</text>
<text xml:space="preserve" text-anchor="start" x="395.62" y="-530.62" font-family="Helvetica,sans-Serif" font-size="10.00">RealTimeLoop()</text>
<text xml:space="preserve" text-anchor="start" x="385.62" y="-515.38" font-family="Helvetica,sans-Serif" font-size="10.00">+</text>
<text xml:space="preserve" text-anchor="start" x="395.62" y="-515.38" font-family="Helvetica,sans-Serif" font-size="10.00">void changeMode(int</text>
<text xml:space="preserve" text-anchor="start" x="395.62" y="-504.12" font-family="Helvetica,sans-Serif" font-size="10.00"> modeNumber)</text>
<text xml:space="preserve" text-anchor="start" x="385.62" y="-488.88" font-family="Helvetica,sans-Serif" font-size="10.00">+</text>
<text xml:space="preserve" text-anchor="start" x="395.62" y="-488.88" font-family="Helvetica,sans-Serif" font-size="10.00">void eventX()</text>
<text xml:space="preserve" text-anchor="start" x="385.62" y="-473.62" font-family="Helvetica,sans-Serif" font-size="10.00">+</text>
<text xml:space="preserve" text-anchor="start" x="395.62" y="-473.62" font-family="Helvetica,sans-Serif" font-size="10.00">std::string getCurrentMode</text>
<text xml:space="preserve" text-anchor="start" x="395.62" y="-462.38" font-family="Helvetica,sans-Serif" font-size="10.00">() const</text>
<polygon fill="#666666" stroke="#666666" points="381.62,-557.38 381.62,-557.38 515.88,-557.38 515.88,-557.38 381.62,-557.38"/>
<polygon fill="#666666" stroke="#666666" points="381.62,-542.12 381.62,-542.12 515.88,-542.12 515.88,-542.12 381.62,-542.12"/>
<polygon fill="none" stroke="#666666" points="381.62,-456.62 381.62,-574.62 515.88,-574.62 515.88,-456.62 381.62,-456.62"/>
</a>
</g>
</g>
<!-- Node4&#45;&gt;Node3 -->
<g id="edge4_Node000003_Node000004" class="edge">
<title>Node4&#45;&gt;Node3</title>
<g id="a_edge4_Node000003_Node000004"><a xlink:title=" ">
<path fill="none" stroke="#63b8ff" d="M418.69,-456.93C404.09,-427.87 386.82,-391.86 373.25,-358.75 370.13,-351.13 367.03,-343.31 363.98,-335.38"/>
<polygon fill="none" stroke="#63b8ff" points="363.96,-335.33 358.1,-331.14 359.71,-324.11 365.58,-328.3 363.96,-335.33"/>
</a>
</g>
<text xml:space="preserve" text-anchor="start" x="376.25" y="-346.25" font-family="Helvetica,sans-Serif" font-size="10.00" fill="grey">&#45;realTimeLoop</text>
</g>
<!-- Node5 -->
<g id="Node000005" class="node">
<title>Node5</title>
<g id="a_Node000005"><a xlink:href="class_real_time_loop_state.html" target="_top" xlink:title=" ">
<polygon fill="white" stroke="none" points="569.5,-213.12 430,-213.12 430,-110.38 569.5,-110.38 569.5,-213.12"/>
<text xml:space="preserve" text-anchor="start" x="456.62" y="-199.62" font-family="Helvetica,sans-Serif" font-size="10.00">RealTimeLoopState</text>
<text xml:space="preserve" text-anchor="start" x="498.25" y="-184.38" font-family="Helvetica,sans-Serif" font-size="10.00"> </text>
<text xml:space="preserve" text-anchor="start" x="434" y="-169.12" font-family="Helvetica,sans-Serif" font-size="10.00">+</text>
<text xml:space="preserve" text-anchor="start" x="444" y="-169.12" font-family="Helvetica,sans-Serif" font-size="10.00">RealTimeLoopState</text>
<text xml:space="preserve" text-anchor="start" x="444" y="-157.88" font-family="Helvetica,sans-Serif" font-size="10.00">(RealTimeLoop *ctx)</text>
<text xml:space="preserve" text-anchor="start" x="434" y="-142.62" font-family="Helvetica,sans-Serif" font-size="10.00">+</text>
<text xml:space="preserve" text-anchor="start" x="444" y="-142.62" font-family="Helvetica,sans-Serif" font-size="10.00">virtual ~RealTimeLoopState</text>
<text xml:space="preserve" text-anchor="start" x="444" y="-131.38" font-family="Helvetica,sans-Serif" font-size="10.00">()=default</text>
<text xml:space="preserve" text-anchor="start" x="434" y="-116.12" font-family="Helvetica,sans-Serif" font-size="10.00">+</text>
<text xml:space="preserve" text-anchor="start" x="444" y="-116.12" font-family="Helvetica,sans-Serif" font-size="10.00">virtual void eventX()=0</text>
<polygon fill="#666666" stroke="#666666" points="430,-195.88 430,-195.88 569.5,-195.88 569.5,-195.88 430,-195.88"/>
<polygon fill="#666666" stroke="#666666" points="430,-180.62 430,-180.62 569.5,-180.62 569.5,-180.62 430,-180.62"/>
<polygon fill="none" stroke="#666666" points="430,-110.38 430,-213.12 569.5,-213.12 569.5,-110.38 430,-110.38"/>
</a>
</g>
</g>
<!-- Node4&#45;&gt;Node5 -->
<g id="edge6_Node000005_Node000004" class="edge">
<title>Node4&#45;&gt;Node5</title>
<g id="a_edge6_Node000005_Node000004"><a xlink:title=" ">
<path fill="none" stroke="#63b8ff" d="M443.34,-457.01C441.3,-423.19 440.65,-379.72 446.25,-341.5 452.04,-301.96 464.67,-259.03 476.21,-225.15"/>
<polygon fill="none" stroke="#63b8ff" points="476.16,-225.28 474.35,-218.3 480.1,-213.95 481.91,-220.93 476.16,-225.28"/>
</a>
</g>
<text xml:space="preserve" text-anchor="start" x="449.25" y="-346.25" font-family="Helvetica,sans-Serif" font-size="10.00" fill="grey">#context</text>
</g>
<!-- Node5&#45;&gt;Node4 -->
<g id="edge5_Node000004_Node000005" class="edge">
<title>Node5&#45;&gt;Node4</title>
<g id="a_edge5_Node000004_Node000005"><a xlink:title=" ">
<path fill="none" stroke="#63b8ff" d="M501.65,-213.02C502.33,-252.8 501.46,-309.65 493.75,-358.75 489.26,-387.34 481.13,-418.08 473,-444.65"/>
<polygon fill="none" stroke="#63b8ff" points="473.01,-444.62 475.03,-451.54 469.42,-456.07 467.4,-449.15 473.01,-444.62"/>
</a>
</g>
<text xml:space="preserve" text-anchor="start" x="498.96" y="-346.25" font-family="Helvetica,sans-Serif" font-size="10.00" fill="grey">&#45;currentMode</text>
</g>
</g>
</svg>
