<?xml version="1.0" encoding="UTF-8" standalone="no"?>
<!DOCTYPE svg PUBLIC "-//W3C//DTD SVG 1.1//EN"
 "http://www.w3.org/Graphics/SVG/1.1/DTD/svg11.dtd">
<!-- Generated by graphviz version 14.0.4 (20251115.1723)
 -->
<!-- Title: RealTimeLoopState::RealTimeLoopState Pages: 1 -->
<svg width="706pt" height="101pt"
 viewBox="0.00 0.00 706.00 101.00" xmlns="http://www.w3.org/2000/svg" xmlns:xlink="http://www.w3.org/1999/xlink">
<g id="graph0" class="graph" transform="scale(1 1) rotate(0) translate(4 97.25)">
<title>RealTimeLoopState::RealTimeLoopState</title>
<!-- Node1 -->
<g id="Node000001" class="node">
<title>Node1</title>
<g id="a_Node000001"><a xlink:title=" ">
<polygon fill="#999999" stroke="#666666" points="698,-61.88 589.75,-61.88 589.75,-31.38 698,-31.38 698,-61.88"/>
<text xml:space="preserve" text-anchor="start" x="597.75" y="-48.38" font-family="Helvetica,sans-Serif" font-size="10.00">RealTimeLoopState::</text>
<text xml:space="preserve" text-anchor="middle" x="643.88" y="-37.12" font-family="Helvetica,sans-Serif" font-size="10.00">RealTimeLoopState</text>
</a>
</g>
</g>
<!-- Node2 -->
<g id="Node000002" class="node">
<title>Node2</title>
<g id="a_Node000002"><a xlink:href="class_mode1_state.html#aef0717445295b2fe1e876a7ed72442b9" target="_top" xlink:title=" ">
<polygon fill="white" stroke="#666666" points="553.75,-93.25 426.75,-93.25 426.75,-74 553.75,-74 553.75,-93.25"/>
<text xml:space="preserve" text-anchor="middle" x="490.25" y="-79.75" font-family="Helvetica,sans-Serif" font-size="10.00">Mode1State::Mode1State</text>
</a>
</g>
</g>
<!-- Node1&#45;&gt;Node2 -->
<g id="edge1_Node000001_Node000002" class="edge">
<title>Node1&#45;&gt;Node2</title>
<g id="a_edge1_Node000001_Node000002"><a xlink:title=" ">
<path fill="none" stroke="#63b8ff" d="M578.24,-62.4C562.67,-66.2 546.46,-70.15 532.32,-73.6"/>
<polygon fill="#63b8ff" stroke="#63b8ff" points="579.06,-65.8 587.95,-60.03 577.4,-59 579.06,-65.8"/>
</a>
</g>
</g>
<!-- Node6 -->
<g id="Node000006" class="node">
<title>Node6</title>
<g id="a_Node000006"><a xlink:href="class_mode2_state.html#a1c93961d41188f65efc613526d0f6a23" target="_top" xlink:title=" ">
<polygon fill="white" stroke="#666666" points="553.75,-56.25 426.75,-56.25 426.75,-37 553.75,-37 553.75,-56.25"/>
<text xml:space="preserve" text-anchor="middle" x="490.25" y="-42.75" font-family="Helvetica,sans-Serif" font-size="10.00">Mode2State::Mode2State</text>
</a>
</g>
</g>
<!-- Node1&#45;&gt;Node6 -->
<g id="edge5_Node000001_Node000006" class="edge">
<title>Node1&#45;&gt;Node6</title>
<g id="a_edge5_Node000001_Node000006"><a xlink:title=" ">
<path fill="none" stroke="#63b8ff" d="M577.97,-46.62C570.05,-46.62 561.97,-46.62 554.08,-46.62"/>
<polygon fill="#63b8ff" stroke="#63b8ff" points="577.9,-50.13 587.9,-46.63 577.9,-43.13 577.9,-50.13"/>
</a>
</g>
</g>
<!-- Node8 -->
<g id="Node000008" class="node">
<title>Node8</title>
<g id="a_Node000008"><a xlink:href="class_mode3_state.html#a7b64f389a91cc6c73d87bc1a8c3efbdf" target="_top" xlink:title=" ">
<polygon fill="white" stroke="#666666" points="553.75,-19.25 426.75,-19.25 426.75,0 553.75,0 553.75,-19.25"/>
<text xml:space="preserve" text-anchor="middle" x="490.25" y="-5.75" font-family="Helvetica,sans-Serif" font-size="10.00">Mode3State::Mode3State</text>
</a>
</g>
</g>
<!-- Node1&#45;&gt;Node8 -->
<g id="edge8_Node000001_Node000008" class="edge">
<title>Node1&#45;&gt;Node8</title>
<g id="a_edge8_Node000001_Node000008"><a xlink:title=" ">
<path fill="none" stroke="#63b8ff" d="M578.24,-30.85C562.67,-27.05 546.46,-23.1 532.32,-19.65"/>
<polygon fill="#63b8ff" stroke="#63b8ff" points="577.4,-34.25 587.95,-33.22 579.06,-27.45 577.4,-34.25"/>
</a>
</g>
</g>
<!-- Node3 -->
<g id="Node000003" class="node">
<title>Node3</title>
<g id="a_Node000003"><a xlink:href="class_mode1_state.html#a80247eeeae6ef230cc5baa630d7d3aaa" target="_top" xlink:title=" ">
<polygon fill="white" stroke="#666666" points="390.75,-93.25 265.25,-93.25 265.25,-74 390.75,-74 390.75,-93.25"/>
<text xml:space="preserve" text-anchor="middle" x="328" y="-79.75" font-family="Helvetica,sans-Serif" font-size="10.00">Mode1State::getInstance</text>
</a>
</g>
</g>
<!-- Node2&#45;&gt;Node3 -->
<g id="edge2_Node000002_Node000003" class="edge">
<title>Node2&#45;&gt;Node3</title>
<g id="a_edge2_Node000002_Node000003"><a xlink:title=" ">
<path fill="none" stroke="#63b8ff" d="M415.13,-83.62C407.12,-83.62 399.02,-83.62 391.17,-83.62"/>
<polygon fill="#63b8ff" stroke="#63b8ff" points="414.86,-87.13 424.86,-83.63 414.86,-80.13 414.86,-87.13"/>
</a>
</g>
</g>
<!-- Node4 -->
<g id="Node000004" class="node">
<title>Node4</title>
<g id="a_Node000004"><a xlink:href="class_real_time_loop.html#a9e832a39566f0ba7950f3ffa803d1eb5" target="_top" xlink:title=" ">
<polygon fill="white" stroke="#666666" points="229.25,-56.25 88.75,-56.25 88.75,-37 229.25,-37 229.25,-56.25"/>
<text xml:space="preserve" text-anchor="middle" x="159" y="-42.75" font-family="Helvetica,sans-Serif" font-size="10.00">RealTimeLoop::changeMode</text>
</a>
</g>
</g>
<!-- Node3&#45;&gt;Node4 -->
<g id="edge3_Node000003_Node000004" class="edge">
<title>Node3&#45;&gt;Node4</title>
<g id="a_edge3_Node000003_Node000004"><a xlink:title=" ">
<path fill="none" stroke="#63b8ff" d="M270.28,-71.06C249.19,-66.38 225.55,-61.15 205.58,-56.72"/>
<polygon fill="#63b8ff" stroke="#63b8ff" points="269.37,-74.44 279.89,-73.19 270.88,-67.61 269.37,-74.44"/>
</a>
</g>
</g>
<!-- Node5 -->
<g id="Node000005" class="node">
<title>Node5</title>
<g id="a_Node000005"><a xlink:href="main_8cpp.html#ae180a4b1432442d1b26d5227d7f0fdaa" target="_top" xlink:title=" ">
<polygon fill="white" stroke="#666666" points="52.75,-56.25 0,-56.25 0,-37 52.75,-37 52.75,-56.25"/>
<text xml:space="preserve" text-anchor="middle" x="26.38" y="-42.75" font-family="Helvetica,sans-Serif" font-size="10.00">sc_main</text>
</a>
</g>
</g>
<!-- Node4&#45;&gt;Node5 -->
<g id="edge4_Node000004_Node000005" class="edge">
<title>Node4&#45;&gt;Node5</title>
<g id="a_edge4_Node000004_Node000005"><a xlink:title=" ">
<path fill="none" stroke="#63b8ff" d="M77.01,-46.62C68.41,-46.62 60.2,-46.62 53.02,-46.62"/>
<polygon fill="#63b8ff" stroke="#63b8ff" points="76.97,-50.13 86.97,-46.63 76.97,-43.13 76.97,-50.13"/>
</a>
</g>
</g>
<!-- Node7 -->
<g id="Node000007" class="node">
<title>Node7</title>
<g id="a_Node000007"><a xlink:href="class_mode2_state.html#a3e155cf381133854a95dbae089f73b68" target="_top" xlink:title=" ">
<polygon fill="white" stroke="#666666" points="390.75,-56.25 265.25,-56.25 265.25,-37 390.75,-37 390.75,-56.25"/>
<text xml:space="preserve" text-anchor="middle" x="328" y="-42.75" font-family="Helvetica,sans-Serif" font-size="10.00">Mode2State::getInstance</text>
</a>
</g>
</g>
<!-- Node6&#45;&gt;Node7 -->
<g id="edge6_Node000006_Node000007" class="edge">
<title>Node6&#45;&gt;Node7</title>
<g id="a_edge6_Node000006_Node000007"><a xlink:title=" ">
<path fill="none" stroke="#63b8ff" d="M415.13,-46.62C407.12,-46.62 399.02,-46.62 391.17,-46.62"/>
<polygon fill="#63b8ff" stroke="#63b8ff" points="414.86,-50.13 424.86,-46.63 414.86,-43.13 414.86,-50.13"/>
</a>
</g>
</g>
<!-- Node7&#45;&gt;Node4 -->
<g id="edge7_Node000007_Node000004" class="edge">
<title>Node7&#45;&gt;Node4</title>
<g id="a_edge7_Node000007_Node000004"><a xlink:title=" ">
<path fill="none" stroke="#63b8ff" d="M253.34,-46.62C245.43,-46.62 237.4,-46.62 229.54,-46.62"/>
<polygon fill="#63b8ff" stroke="#63b8ff" points="253.3,-50.13 263.3,-46.63 253.3,-43.13 253.3,-50.13"/>
</a>
</g>
</g>
<!-- Node9 -->
<g id="Node000009" class="node">
<title>Node9</title>
<g id="a_Node000009"><a xlink:href="class_mode3_state.html#a597b98e563c80d2ec1b2d1fe367221d1" target="_top" xlink:title=" ">
<polygon fill="white" stroke="#666666" points="390.75,-19.25 265.25,-19.25 265.25,0 390.75,0 390.75,-19.25"/>
<text xml:space="preserve" text-anchor="middle" x="328" y="-5.75" font-family="Helvetica,sans-Serif" font-size="10.00">Mode3State::getInstance</text>
</a>
</g>
</g>
<!-- Node8&#45;&gt;Node9 -->
<g id="edge9_Node000008_Node000009" class="edge">
<title>Node8&#45;&gt;Node9</title>
<g id="a_edge9_Node000008_Node000009"><a xlink:title=" ">
<path fill="none" stroke="#63b8ff" d="M415.13,-9.62C407.12,-9.62 399.02,-9.62 391.17,-9.62"/>
<polygon fill="#63b8ff" stroke="#63b8ff" points="414.86,-13.13 424.86,-9.63 414.86,-6.13 414.86,-13.13"/>
</a>
</g>
</g>
<!-- Node9&#45;&gt;Node4 -->
<g id="edge10_Node000009_Node000004" class="edge">
<title>Node9&#45;&gt;Node4</title>
<g id="a_edge10_Node000009_Node000004"><a xlink:title=" ">
<path fill="none" stroke="#63b8ff" d="M270.28,-22.19C249.19,-26.87 225.55,-32.1 205.58,-36.53"/>
<polygon fill="#63b8ff" stroke="#63b8ff" points="270.88,-25.64 279.89,-20.06 269.37,-18.81 270.88,-25.64"/>
</a>
</g>
</g>
</g>
</svg>
