<?xml version="1.0" encoding="UTF-8" standalone="no"?>
<!DOCTYPE svg PUBLIC "-//W3C//DTD SVG 1.1//EN"
 "http://www.w3.org/Graphics/SVG/1.1/DTD/svg11.dtd">
<!-- Generated by graphviz version 14.0.4 (20251115.1723)
 -->
<!-- Title: Machine Pages: 1 -->
<svg width="160pt" height="305pt"
 viewBox="0.00 0.00 160.00 305.00" xmlns="http://www.w3.org/2000/svg" xmlns:xlink="http://www.w3.org/1999/xlink">
<g id="graph0" class="graph" transform="scale(1 1) rotate(0) translate(4 300.5)">
<title>Machine</title>
<!-- Node1 -->
<g id="Node000001" class="node">
<title>Node1</title>
<g id="a_Node000001"><a xlink:title=" ">
<polygon fill="#999999" stroke="none" points="130.5,-118 0,-118 0,0 130.5,0 130.5,-118"/>
<text xml:space="preserve" text-anchor="start" x="46.88" y="-104.5" font-family="Helvetica,sans-Serif" font-size="10.00">Machine</text>
<text xml:space="preserve" text-anchor="start" x="63.75" y="-89.25" font-family="Helvetica,sans-Serif" font-size="10.00"> </text>
<text xml:space="preserve" text-anchor="start" x="4" y="-74" font-family="Helvetica,sans-Serif" font-size="10.00">+</text>
<text xml:space="preserve" text-anchor="start" x="14" y="-74" font-family="Helvetica,sans-Serif" font-size="10.00">Machine()</text>
<text xml:space="preserve" text-anchor="start" x="4" y="-58.75" font-family="Helvetica,sans-Serif" font-size="10.00">+</text>
<text xml:space="preserve" text-anchor="start" x="14" y="-58.75" font-family="Helvetica,sans-Serif" font-size="10.00">void set_current_state</text>
<text xml:space="preserve" text-anchor="start" x="14" y="-47.5" font-family="Helvetica,sans-Serif" font-size="10.00">(State_of_machine *some</text>
<text xml:space="preserve" text-anchor="start" x="14" y="-36.25" font-family="Helvetica,sans-Serif" font-size="10.00">_provided_state)</text>
<text xml:space="preserve" text-anchor="start" x="4" y="-21" font-family="Helvetica,sans-Serif" font-size="10.00">+</text>
<text xml:space="preserve" text-anchor="start" x="14" y="-21" font-family="Helvetica,sans-Serif" font-size="10.00">void ON_upon_request()</text>
<text xml:space="preserve" text-anchor="start" x="4" y="-5.75" font-family="Helvetica,sans-Serif" font-size="10.00">+</text>
<text xml:space="preserve" text-anchor="start" x="14" y="-5.75" font-family="Helvetica,sans-Serif" font-size="10.00">void OFF_upon_request()</text>
<polygon fill="#666666" stroke="#666666" points="0,-100.75 0,-100.75 130.5,-100.75 130.5,-100.75 0,-100.75"/>
<polygon fill="#666666" stroke="#666666" points="0,-85.5 0,-85.5 130.5,-85.5 130.5,-85.5 0,-85.5"/>
<polygon fill="none" stroke="#666666" points="0,0 0,-118 130.5,-118 130.5,0 0,0"/>
</a>
</g>
</g>
<!-- Node2 -->
<g id="Node000002" class="node">
<title>Node2</title>
<g id="a_Node000002"><a xlink:href="class_state__of__machine.html" target="_top" xlink:title=" ">
<polygon fill="white" stroke="none" points="127.88,-296.5 2.62,-296.5 2.62,-186.5 127.88,-186.5 127.88,-296.5"/>
<text xml:space="preserve" text-anchor="start" x="25.88" y="-283" font-family="Helvetica,sans-Serif" font-size="10.00">State_of_machine</text>
<text xml:space="preserve" text-anchor="start" x="63.75" y="-267.75" font-family="Helvetica,sans-Serif" font-size="10.00"> </text>
<text xml:space="preserve" text-anchor="start" x="6.62" y="-252.5" font-family="Helvetica,sans-Serif" font-size="10.00">+</text>
<text xml:space="preserve" text-anchor="start" x="16.62" y="-252.5" font-family="Helvetica,sans-Serif" font-size="10.00">virtual void ON_upon</text>
<text xml:space="preserve" text-anchor="start" x="16.62" y="-241.25" font-family="Helvetica,sans-Serif" font-size="10.00">_request(Machine *given</text>
<text xml:space="preserve" text-anchor="start" x="16.62" y="-230" font-family="Helvetica,sans-Serif" font-size="10.00">_machine)</text>
<text xml:space="preserve" text-anchor="start" x="6.62" y="-214.75" font-family="Helvetica,sans-Serif" font-size="10.00">+</text>
<text xml:space="preserve" text-anchor="start" x="16.62" y="-214.75" font-family="Helvetica,sans-Serif" font-size="10.00">virtual void OFF_upon</text>
<text xml:space="preserve" text-anchor="start" x="16.62" y="-203.5" font-family="Helvetica,sans-Serif" font-size="10.00">_request(Machine *given</text>
<text xml:space="preserve" text-anchor="start" x="16.62" y="-192.25" font-family="Helvetica,sans-Serif" font-size="10.00">_machine)</text>
<polygon fill="#666666" stroke="#666666" points="2.62,-279.25 2.62,-279.25 127.88,-279.25 127.88,-279.25 2.62,-279.25"/>
<polygon fill="#666666" stroke="#666666" points="2.62,-264 2.62,-264 127.88,-264 127.88,-264 2.62,-264"/>
<polygon fill="none" stroke="#666666" points="2.62,-186.5 2.62,-296.5 127.88,-296.5 127.88,-186.5 2.62,-186.5"/>
</a>
</g>
</g>
<!-- Node2&#45;&gt;Node1 -->
<g id="edge1_Node000001_Node000002" class="edge">
<title>Node2&#45;&gt;Node1</title>
<g id="a_edge1_Node000001_Node000002"><a xlink:title=" ">
<path fill="none" stroke="#63b8ff" d="M65.25,-186.83C65.25,-169.27 65.25,-149.48 65.25,-130.85"/>
<polygon fill="none" stroke="#63b8ff" points="65.25,-130.77 61.25,-124.77 65.25,-118.77 69.25,-124.77 65.25,-130.77"/>
</a>
</g>
<text xml:space="preserve" text-anchor="start" x="68.25" y="-156" font-family="Helvetica,sans-Serif" font-size="10.00" fill="grey">&#45;pointer_to_current</text>
<text xml:space="preserve" text-anchor="start" x="68.25" y="-140.75" font-family="Helvetica,sans-Serif" font-size="10.00" fill="grey">  _state</text>
</g>
</g>
</svg>
