<?xml version="1.0" encoding="UTF-8" standalone="no"?>
<!DOCTYPE svg PUBLIC "-//W3C//DTD SVG 1.1//EN"
 "http://www.w3.org/Graphics/SVG/1.1/DTD/svg11.dtd">
<!-- Generated by graphviz version 14.0.4 (20251115.1723)
 -->
<!-- Title: Specific_state_OFF Pages: 1 -->
<svg width="141pt" height="246pt"
 viewBox="0.00 0.00 141.00 246.00" xmlns="http://www.w3.org/2000/svg" xmlns:xlink="http://www.w3.org/1999/xlink">
<g id="graph0" class="graph" transform="scale(1 1) rotate(0) translate(4 241.5)">
<title>Specific_state_OFF</title>
<!-- Node1 -->
<g id="Node000001" class="node">
<title>Node1</title>
<g id="a_Node000001"><a xlink:title=" ">
<polygon fill="#999999" stroke="none" points="132.75,-91.5 0,-91.5 0,0 132.75,0 132.75,-91.5"/>
<text xml:space="preserve" text-anchor="start" x="22.88" y="-78" font-family="Helvetica,sans-Serif" font-size="10.00">Specific_state_OFF</text>
<text xml:space="preserve" text-anchor="start" x="64.88" y="-62.75" font-family="Helvetica,sans-Serif" font-size="10.00"> </text>
<text xml:space="preserve" text-anchor="start" x="4" y="-47.5" font-family="Helvetica,sans-Serif" font-size="10.00">+</text>
<text xml:space="preserve" text-anchor="start" x="14" y="-47.5" font-family="Helvetica,sans-Serif" font-size="10.00">Specific_state_OFF()</text>
<text xml:space="preserve" text-anchor="start" x="4" y="-32.25" font-family="Helvetica,sans-Serif" font-size="10.00">+</text>
<text xml:space="preserve" text-anchor="start" x="14" y="-32.25" font-family="Helvetica,sans-Serif" font-size="10.00">~Specific_state_OFF()</text>
<text xml:space="preserve" text-anchor="start" x="4" y="-17" font-family="Helvetica,sans-Serif" font-size="10.00">+</text>
<text xml:space="preserve" text-anchor="start" x="14" y="-17" font-family="Helvetica,sans-Serif" font-size="10.00">void ON_upon_request</text>
<text xml:space="preserve" text-anchor="start" x="14" y="-5.75" font-family="Helvetica,sans-Serif" font-size="10.00">(Machine *given_machine)</text>
<polygon fill="#666666" stroke="#666666" points="0,-74.25 0,-74.25 132.75,-74.25 132.75,-74.25 0,-74.25"/>
<polygon fill="#666666" stroke="#666666" points="0,-59 0,-59 132.75,-59 132.75,-59 0,-59"/>
<polygon fill="none" stroke="#666666" points="0,0 0,-91.5 132.75,-91.5 132.75,0 0,0"/>
</a>
</g>
</g>
<!-- Node2 -->
<g id="Node000002" class="node">
<title>Node2</title>
<g id="a_Node000002"><a xlink:href="class_state__of__machine.html" target="_top" xlink:title=" ">
<polygon fill="white" stroke="none" points="129,-237.5 3.75,-237.5 3.75,-127.5 129,-127.5 129,-237.5"/>
<text xml:space="preserve" text-anchor="start" x="27" y="-224" font-family="Helvetica,sans-Serif" font-size="10.00">State_of_machine</text>
<text xml:space="preserve" text-anchor="start" x="64.88" y="-208.75" font-family="Helvetica,sans-Serif" font-size="10.00"> </text>
<text xml:space="preserve" text-anchor="start" x="7.75" y="-193.5" font-family="Helvetica,sans-Serif" font-size="10.00">+</text>
<text xml:space="preserve" text-anchor="start" x="17.75" y="-193.5" font-family="Helvetica,sans-Serif" font-size="10.00">virtual void ON_upon</text>
<text xml:space="preserve" text-anchor="start" x="17.75" y="-182.25" font-family="Helvetica,sans-Serif" font-size="10.00">_request(Machine *given</text>
<text xml:space="preserve" text-anchor="start" x="17.75" y="-171" font-family="Helvetica,sans-Serif" font-size="10.00">_machine)</text>
<text xml:space="preserve" text-anchor="start" x="7.75" y="-155.75" font-family="Helvetica,sans-Serif" font-size="10.00">+</text>
<text xml:space="preserve" text-anchor="start" x="17.75" y="-155.75" font-family="Helvetica,sans-Serif" font-size="10.00">virtual void OFF_upon</text>
<text xml:space="preserve" text-anchor="start" x="17.75" y="-144.5" font-family="Helvetica,sans-Serif" font-size="10.00">_request(Machine *given</text>
<text xml:space="preserve" text-anchor="start" x="17.75" y="-133.25" font-family="Helvetica,sans-Serif" font-size="10.00">_machine)</text>
<polygon fill="#666666" stroke="#666666" points="3.75,-220.25 3.75,-220.25 129,-220.25 129,-220.25 3.75,-220.25"/>
<polygon fill="#666666" stroke="#666666" points="3.75,-205 3.75,-205 129,-205 129,-205 3.75,-205"/>
<polygon fill="none" stroke="#666666" points="3.75,-127.5 3.75,-237.5 129,-237.5 129,-127.5 3.75,-127.5"/>
</a>
</g>
</g>
<!-- Node2&#45;&gt;Node1 -->
<g id="edge1_Node000001_Node000002" class="edge">
<title>Node2&#45;&gt;Node1</title>
<g id="a_edge1_Node000001_Node000002"><a xlink:title=" ">
<path fill="none" stroke="#63b8ff" d="M66.38,-116.59C66.38,-107.97 66.38,-99.28 66.38,-91.12"/>
<polygon fill="none" stroke="#63b8ff" points="62.88,-116.34 66.38,-126.34 69.88,-116.34 62.88,-116.34"/>
</a>
</g>
</g>
</g>
</svg>
