<?xml version="1.0" encoding="UTF-8" standalone="no"?>
<!DOCTYPE svg PUBLIC "-//W3C//DTD SVG 1.1//EN"
 "http://www.w3.org/Graphics/SVG/1.1/DTD/svg11.dtd">
<!-- Generated by graphviz version 14.0.4 (20251115.1723)
 -->
<!-- Title: SuspendedState::resume Pages: 1 -->
<svg width="665pt" height="39pt"
 viewBox="0.00 0.00 665.00 39.00" xmlns="http://www.w3.org/2000/svg" xmlns:xlink="http://www.w3.org/1999/xlink">
<g id="graph0" class="graph" transform="scale(1 1) rotate(0) translate(4 34.5)">
<title>SuspendedState::resume</title>
<!-- Node1 -->
<g id="Node000001" class="node">
<title>Node1</title>
<g id="a_Node000001"><a xlink:title=" ">
<polygon fill="#999999" stroke="#666666" points="126.25,-24.88 0,-24.88 0,-5.63 126.25,-5.63 126.25,-24.88"/>
<text xml:space="preserve" text-anchor="middle" x="63.12" y="-11.38" font-family="Helvetica,sans-Serif" font-size="10.00">SuspendedState::resume</text>
</a>
</g>
</g>
<!-- Node2 -->
<g id="Node000002" class="node">
<title>Node2</title>
<g id="a_Node000002"><a xlink:href="class_operational_state.html#a6ff26e3449b8162a35c0a7e8223c799d" target="_top" xlink:title=" ">
<polygon fill="white" stroke="#666666" points="308,-24.88 162.25,-24.88 162.25,-5.63 308,-5.63 308,-24.88"/>
<text xml:space="preserve" text-anchor="middle" x="235.12" y="-11.38" font-family="Helvetica,sans-Serif" font-size="10.00">OperationalState::getInstance</text>
</a>
</g>
</g>
<!-- Node1&#45;&gt;Node2 -->
<g id="edge1_Node000001_Node000002" class="edge">
<title>Node1&#45;&gt;Node2</title>
<g id="a_edge1_Node000001_Node000002"><a xlink:title=" ">
<path fill="none" stroke="#63b8ff" d="M126.46,-15.25C134.32,-15.25 142.46,-15.25 150.57,-15.25"/>
<polygon fill="#63b8ff" stroke="#63b8ff" points="150.5,-18.75 160.5,-15.25 150.5,-11.75 150.5,-18.75"/>
</a>
</g>
</g>
<!-- Node3 -->
<g id="Node000003" class="node">
<title>Node3</title>
<g id="a_Node000003"><a xlink:href="class_operational_state.html#ae3abfc6d0545ae4e82369b73e745f224" target="_top" xlink:title=" ">
<polygon fill="white" stroke="#666666" points="488.25,-30.5 344,-30.5 344,0 488.25,0 488.25,-30.5"/>
<text xml:space="preserve" text-anchor="start" x="352" y="-17" font-family="Helvetica,sans-Serif" font-size="10.00">OperationalState::Operational</text>
<text xml:space="preserve" text-anchor="middle" x="416.12" y="-5.75" font-family="Helvetica,sans-Serif" font-size="10.00">State</text>
</a>
</g>
</g>
<!-- Node2&#45;&gt;Node3 -->
<g id="edge2_Node000002_Node000003" class="edge">
<title>Node2&#45;&gt;Node3</title>
<g id="a_edge2_Node000002_Node000003"><a xlink:title=" ">
<path fill="none" stroke="#63b8ff" d="M308.42,-15.25C316.33,-15.25 324.43,-15.25 332.46,-15.25"/>
<polygon fill="#63b8ff" stroke="#63b8ff" points="332.21,-18.75 342.21,-15.25 332.21,-11.75 332.21,-18.75"/>
</a>
</g>
</g>
<!-- Node4 -->
<g id="Node000004" class="node">
<title>Node4</title>
<g id="a_Node000004"><a xlink:href="class_embedded_system_x_state.html#a5630d67a88100d0e67c1578a7ee43e91" target="_top" xlink:title=" ">
<polygon fill="white" stroke="#666666" points="656.5,-30.5 524.25,-30.5 524.25,0 656.5,0 656.5,-30.5"/>
<text xml:space="preserve" text-anchor="start" x="532.25" y="-17" font-family="Helvetica,sans-Serif" font-size="10.00">EmbeddedSystemXState</text>
<text xml:space="preserve" text-anchor="middle" x="590.38" y="-5.75" font-family="Helvetica,sans-Serif" font-size="10.00">::EmbeddedSystemXState</text>
</a>
</g>
</g>
<!-- Node3&#45;&gt;Node4 -->
<g id="edge3_Node000003_Node000004" class="edge">
<title>Node3&#45;&gt;Node4</title>
<g id="a_edge3_Node000003_Node000004"><a xlink:title=" ">
<path fill="none" stroke="#63b8ff" d="M488.68,-15.25C496.5,-15.25 504.49,-15.25 512.38,-15.25"/>
<polygon fill="#63b8ff" stroke="#63b8ff" points="512.32,-18.75 522.32,-15.25 512.32,-11.75 512.32,-18.75"/>
</a>
</g>
</g>
</g>
</svg>
