<?xml version="1.0" encoding="UTF-8" standalone="no"?>
<!DOCTYPE svg PUBLIC "-//W3C//DTD SVG 1.1//EN"
 "http://www.w3.org/Graphics/SVG/1.1/DTD/svg11.dtd">
<!-- Generated by graphviz version 14.0.4 (20251115.1723)
 -->
<!-- Title: OperationalState::configure Pages: 1 -->
<svg width="583pt" height="39pt"
 viewBox="0.00 0.00 583.00 39.00" xmlns="http://www.w3.org/2000/svg" xmlns:xlink="http://www.w3.org/1999/xlink">
<g id="graph0" class="graph" transform="scale(1 1) rotate(0) translate(4 34.5)">
<title>OperationalState::configure</title>
<!-- Node1 -->
<g id="Node000001" class="node">
<title>Node1</title>
<g id="a_Node000001"><a xlink:title=" ">
<polygon fill="#999999" stroke="#666666" points="134.5,-24.88 0,-24.88 0,-5.63 134.5,-5.63 134.5,-24.88"/>
<text xml:space="preserve" text-anchor="middle" x="67.25" y="-11.38" font-family="Helvetica,sans-Serif" font-size="10.00">OperationalState::configure</text>
</a>
</g>
</g>
<!-- Node2 -->
<g id="Node000002" class="node">
<title>Node2</title>
<g id="a_Node000002"><a xlink:href="class_configuration_state.html#ae8c10885d597cc4cacf9cde057cc4723" target="_top" xlink:title=" ">
<polygon fill="white" stroke="#666666" points="267.5,-30.5 170.5,-30.5 170.5,0 267.5,0 267.5,-30.5"/>
<text xml:space="preserve" text-anchor="start" x="178.5" y="-17" font-family="Helvetica,sans-Serif" font-size="10.00">ConfigurationState</text>
<text xml:space="preserve" text-anchor="middle" x="219" y="-5.75" font-family="Helvetica,sans-Serif" font-size="10.00">::getInstance</text>
</a>
</g>
</g>
<!-- Node1&#45;&gt;Node2 -->
<g id="edge1_Node000001_Node000002" class="edge">
<title>Node1&#45;&gt;Node2</title>
<g id="a_edge1_Node000001_Node000002"><a xlink:title=" ">
<path fill="none" stroke="#63b8ff" d="M134.8,-15.25C142.78,-15.25 150.89,-15.25 158.75,-15.25"/>
<polygon fill="#63b8ff" stroke="#63b8ff" points="158.54,-18.75 168.54,-15.25 158.54,-11.75 158.54,-18.75"/>
</a>
</g>
</g>
<!-- Node3 -->
<g id="Node000003" class="node">
<title>Node3</title>
<g id="a_Node000003"><a xlink:href="class_configuration_state.html#ad64970b29021309679964cf9c3bce36a" target="_top" xlink:title=" ">
<polygon fill="white" stroke="#666666" points="406.5,-30.5 303.5,-30.5 303.5,0 406.5,0 406.5,-30.5"/>
<text xml:space="preserve" text-anchor="start" x="311.5" y="-17" font-family="Helvetica,sans-Serif" font-size="10.00">ConfigurationState</text>
<text xml:space="preserve" text-anchor="middle" x="355" y="-5.75" font-family="Helvetica,sans-Serif" font-size="10.00">::ConfigurationState</text>
</a>
</g>
</g>
<!-- Node2&#45;&gt;Node3 -->
<g id="edge2_Node000002_Node000003" class="edge">
<title>Node2&#45;&gt;Node3</title>
<g id="a_edge2_Node000002_Node000003"><a xlink:title=" ">
<path fill="none" stroke="#63b8ff" d="M268,-15.25C275.76,-15.25 283.89,-15.25 291.92,-15.25"/>
<polygon fill="#63b8ff" stroke="#63b8ff" points="291.65,-18.75 301.65,-15.25 291.65,-11.75 291.65,-18.75"/>
</a>
</g>
</g>
<!-- Node4 -->
<g id="Node000004" class="node">
<title>Node4</title>
<g id="a_Node000004"><a xlink:href="class_embedded_system_x_state.html#a5630d67a88100d0e67c1578a7ee43e91" target="_top" xlink:title=" ">
<polygon fill="white" stroke="#666666" points="574.75,-30.5 442.5,-30.5 442.5,0 574.75,0 574.75,-30.5"/>
<text xml:space="preserve" text-anchor="start" x="450.5" y="-17" font-family="Helvetica,sans-Serif" font-size="10.00">EmbeddedSystemXState</text>
<text xml:space="preserve" text-anchor="middle" x="508.62" y="-5.75" font-family="Helvetica,sans-Serif" font-size="10.00">::EmbeddedSystemXState</text>
</a>
</g>
</g>
<!-- Node3&#45;&gt;Node4 -->
<g id="edge3_Node000003_Node000004" class="edge">
<title>Node3&#45;&gt;Node4</title>
<g id="a_edge3_Node000003_Node000004"><a xlink:title=" ">
<path fill="none" stroke="#63b8ff" d="M406.91,-15.25C414.57,-15.25 422.61,-15.25 430.67,-15.25"/>
<polygon fill="#63b8ff" stroke="#63b8ff" points="430.53,-18.75 440.53,-15.25 430.53,-11.75 430.53,-18.75"/>
</a>
</g>
</g>
</g>
</svg>
