<?xml version="1.0" encoding="UTF-8" standalone="no"?>
<!DOCTYPE svg PUBLIC "-//W3C//DTD SVG 1.1//EN"
 "http://www.w3.org/Graphics/SVG/1.1/DTD/svg11.dtd">
<!-- Generated by graphviz version 14.0.4 (20251115.1723)
 -->
<!-- Title: RealTimeLoop::changeMode Pages: 1 -->
<svg width="617pt" height="101pt"
 viewBox="0.00 0.00 617.00 101.00" xmlns="http://www.w3.org/2000/svg" xmlns:xlink="http://www.w3.org/1999/xlink">
<g id="graph0" class="graph" transform="scale(1 1) rotate(0) translate(4 97.25)">
<title>RealTimeLoop::changeMode</title>
<!-- Node1 -->
<g id="Node000001" class="node">
<title>Node1</title>
<g id="a_Node000001"><a xlink:title=" ">
<polygon fill="#999999" stroke="#666666" points="140.5,-56.25 0,-56.25 0,-37 140.5,-37 140.5,-56.25"/>
<text xml:space="preserve" text-anchor="middle" x="70.25" y="-42.75" font-family="Helvetica,sans-Serif" font-size="10.00">RealTimeLoop::changeMode</text>
</a>
</g>
</g>
<!-- Node2 -->
<g id="Node000002" class="node">
<title>Node2</title>
<g id="a_Node000002"><a xlink:href="class_mode1_state.html#a80247eeeae6ef230cc5baa630d7d3aaa" target="_top" xlink:title=" ">
<polygon fill="white" stroke="#666666" points="302,-93.25 176.5,-93.25 176.5,-74 302,-74 302,-93.25"/>
<text xml:space="preserve" text-anchor="middle" x="239.25" y="-79.75" font-family="Helvetica,sans-Serif" font-size="10.00">Mode1State::getInstance</text>
</a>
</g>
</g>
<!-- Node1&#45;&gt;Node2 -->
<g id="edge1_Node000001_Node000002" class="edge">
<title>Node1&#45;&gt;Node2</title>
<g id="a_edge1_Node000001_Node000002"><a xlink:title=" ">
<path fill="none" stroke="#63b8ff" d="M116.88,-56.74C136.86,-61.16 160.5,-66.4 181.59,-71.07"/>
<polygon fill="#63b8ff" stroke="#63b8ff" points="180.67,-74.45 191.19,-73.2 182.19,-67.62 180.67,-74.45"/>
</a>
</g>
</g>
<!-- Node5 -->
<g id="Node000005" class="node">
<title>Node5</title>
<g id="a_Node000005"><a xlink:href="class_mode2_state.html#a3e155cf381133854a95dbae089f73b68" target="_top" xlink:title=" ">
<polygon fill="white" stroke="#666666" points="302,-56.25 176.5,-56.25 176.5,-37 302,-37 302,-56.25"/>
<text xml:space="preserve" text-anchor="middle" x="239.25" y="-42.75" font-family="Helvetica,sans-Serif" font-size="10.00">Mode2State::getInstance</text>
</a>
</g>
</g>
<!-- Node1&#45;&gt;Node5 -->
<g id="edge4_Node000001_Node000005" class="edge">
<title>Node1&#45;&gt;Node5</title>
<g id="a_edge4_Node000001_Node000005"><a xlink:title=" ">
<path fill="none" stroke="#63b8ff" d="M140.62,-46.62C148.6,-46.62 156.76,-46.62 164.79,-46.62"/>
<polygon fill="#63b8ff" stroke="#63b8ff" points="164.51,-50.13 174.51,-46.63 164.51,-43.13 164.51,-50.13"/>
</a>
</g>
</g>
<!-- Node7 -->
<g id="Node000007" class="node">
<title>Node7</title>
<g id="a_Node000007"><a xlink:href="class_mode3_state.html#a597b98e563c80d2ec1b2d1fe367221d1" target="_top" xlink:title=" ">
<polygon fill="white" stroke="#666666" points="302,-19.25 176.5,-19.25 176.5,0 302,0 302,-19.25"/>
<text xml:space="preserve" text-anchor="middle" x="239.25" y="-5.75" font-family="Helvetica,sans-Serif" font-size="10.00">Mode3State::getInstance</text>
</a>
</g>
</g>
<!-- Node1&#45;&gt;Node7 -->
<g id="edge7_Node000001_Node000007" class="edge">
<title>Node1&#45;&gt;Node7</title>
<g id="a_edge7_Node000001_Node000007"><a xlink:title=" ">
<path fill="none" stroke="#63b8ff" d="M116.88,-36.51C136.86,-32.09 160.5,-26.85 181.59,-22.18"/>
<polygon fill="#63b8ff" stroke="#63b8ff" points="182.19,-25.63 191.19,-20.05 180.67,-18.8 182.19,-25.63"/>
</a>
</g>
</g>
<!-- Node3 -->
<g id="Node000003" class="node">
<title>Node3</title>
<g id="a_Node000003"><a xlink:href="class_mode1_state.html#aef0717445295b2fe1e876a7ed72442b9" target="_top" xlink:title=" ">
<polygon fill="white" stroke="#666666" points="465,-93.25 338,-93.25 338,-74 465,-74 465,-93.25"/>
<text xml:space="preserve" text-anchor="middle" x="401.5" y="-79.75" font-family="Helvetica,sans-Serif" font-size="10.00">Mode1State::Mode1State</text>
</a>
</g>
</g>
<!-- Node2&#45;&gt;Node3 -->
<g id="edge2_Node000002_Node000003" class="edge">
<title>Node2&#45;&gt;Node3</title>
<g id="a_edge2_Node000002_Node000003"><a xlink:title=" ">
<path fill="none" stroke="#63b8ff" d="M302.21,-83.62C310.11,-83.62 318.26,-83.62 326.33,-83.62"/>
<polygon fill="#63b8ff" stroke="#63b8ff" points="326.14,-87.13 336.14,-83.63 326.14,-80.13 326.14,-87.13"/>
</a>
</g>
</g>
<!-- Node4 -->
<g id="Node000004" class="node">
<title>Node4</title>
<g id="a_Node000004"><a xlink:href="class_real_time_loop_state.html#ab5424a183c7d0bc0f850bc08d6583b3a" target="_top" xlink:title=" ">
<polygon fill="white" stroke="#666666" points="609.25,-61.88 501,-61.88 501,-31.38 609.25,-31.38 609.25,-61.88"/>
<text xml:space="preserve" text-anchor="start" x="509" y="-48.38" font-family="Helvetica,sans-Serif" font-size="10.00">RealTimeLoopState::</text>
<text xml:space="preserve" text-anchor="middle" x="555.12" y="-37.12" font-family="Helvetica,sans-Serif" font-size="10.00">RealTimeLoopState</text>
</a>
</g>
</g>
<!-- Node3&#45;&gt;Node4 -->
<g id="edge3_Node000003_Node000004" class="edge">
<title>Node3&#45;&gt;Node4</title>
<g id="a_edge3_Node000003_Node000004"><a xlink:title=" ">
<path fill="none" stroke="#63b8ff" d="M443.93,-73.51C458.04,-70.07 474.17,-66.14 489.65,-62.36"/>
<polygon fill="#63b8ff" stroke="#63b8ff" points="490.42,-65.77 499.3,-60 488.76,-58.97 490.42,-65.77"/>
</a>
</g>
</g>
<!-- Node6 -->
<g id="Node000006" class="node">
<title>Node6</title>
<g id="a_Node000006"><a xlink:href="class_mode2_state.html#a1c93961d41188f65efc613526d0f6a23" target="_top" xlink:title=" ">
<polygon fill="white" stroke="#666666" points="465,-56.25 338,-56.25 338,-37 465,-37 465,-56.25"/>
<text xml:space="preserve" text-anchor="middle" x="401.5" y="-42.75" font-family="Helvetica,sans-Serif" font-size="10.00">Mode2State::Mode2State</text>
</a>
</g>
</g>
<!-- Node5&#45;&gt;Node6 -->
<g id="edge5_Node000005_Node000006" class="edge">
<title>Node5&#45;&gt;Node6</title>
<g id="a_edge5_Node000005_Node000006"><a xlink:title=" ">
<path fill="none" stroke="#63b8ff" d="M302.21,-46.62C310.11,-46.62 318.26,-46.62 326.33,-46.62"/>
<polygon fill="#63b8ff" stroke="#63b8ff" points="326.14,-50.13 336.14,-46.63 326.14,-43.13 326.14,-50.13"/>
</a>
</g>
</g>
<!-- Node6&#45;&gt;Node4 -->
<g id="edge6_Node000006_Node000004" class="edge">
<title>Node6&#45;&gt;Node4</title>
<g id="a_edge6_Node000006_Node000004"><a xlink:title=" ">
<path fill="none" stroke="#63b8ff" d="M465.49,-46.62C473.36,-46.62 481.42,-46.62 489.32,-46.62"/>
<polygon fill="#63b8ff" stroke="#63b8ff" points="489.22,-50.13 499.22,-46.63 489.22,-43.13 489.22,-50.13"/>
</a>
</g>
</g>
<!-- Node8 -->
<g id="Node000008" class="node">
<title>Node8</title>
<g id="a_Node000008"><a xlink:href="class_mode3_state.html#a7b64f389a91cc6c73d87bc1a8c3efbdf" target="_top" xlink:title=" ">
<polygon fill="white" stroke="#666666" points="465,-19.25 338,-19.25 338,0 465,0 465,-19.25"/>
<text xml:space="preserve" text-anchor="middle" x="401.5" y="-5.75" font-family="Helvetica,sans-Serif" font-size="10.00">Mode3State::Mode3State</text>
</a>
</g>
</g>
<!-- Node7&#45;&gt;Node8 -->
<g id="edge8_Node000007_Node000008" class="edge">
<title>Node7&#45;&gt;Node8</title>
<g id="a_edge8_Node000007_Node000008"><a xlink:title=" ">
<path fill="none" stroke="#63b8ff" d="M302.21,-9.62C310.11,-9.62 318.26,-9.62 326.33,-9.62"/>
<polygon fill="#63b8ff" stroke="#63b8ff" points="326.14,-13.13 336.14,-9.63 326.14,-6.13 326.14,-13.13"/>
</a>
</g>
</g>
<!-- Node8&#45;&gt;Node4 -->
<g id="edge9_Node000008_Node000004" class="edge">
<title>Node8&#45;&gt;Node4</title>
<g id="a_edge9_Node000008_Node000004"><a xlink:title=" ">
<path fill="none" stroke="#63b8ff" d="M443.93,-19.74C458.04,-23.18 474.17,-27.11 489.65,-30.89"/>
<polygon fill="#63b8ff" stroke="#63b8ff" points="488.76,-34.28 499.3,-33.25 490.42,-27.48 488.76,-34.28"/>
</a>
</g>
</g>
</g>
</svg>
