<?xml version="1.0" encoding="UTF-8" standalone="no"?>
<!DOCTYPE svg PUBLIC "-//W3C//DTD SVG 1.1//EN"
 "http://www.w3.org/Graphics/SVG/1.1/DTD/svg11.dtd">
<!-- Generated by graphviz version 14.0.4 (20251115.1723)
 -->
<!-- Title: EmbeddedSystemXState::EmbeddedSystemXState Pages: 1 -->
<svg width="673pt" height="801pt"
 viewBox="0.00 0.00 673.00 801.00" xmlns="http://www.w3.org/2000/svg" xmlns:xlink="http://www.w3.org/1999/xlink">
<g id="graph0" class="graph" transform="scale(1 1) rotate(0) translate(4 796.88)">
<title>EmbeddedSystemXState::EmbeddedSystemXState</title>
<!-- Node1 -->
<g id="Node000001" class="node">
<title>Node1</title>
<g id="a_Node000001"><a xlink:title=" ">
<polygon fill="#999999" stroke="#666666" points="664.75,-493.5 532.5,-493.5 532.5,-463 664.75,-463 664.75,-493.5"/>
<text xml:space="preserve" text-anchor="start" x="540.5" y="-480" font-family="Helvetica,sans-Serif" font-size="10.00">EmbeddedSystemXState</text>
<text xml:space="preserve" text-anchor="middle" x="598.62" y="-468.75" font-family="Helvetica,sans-Serif" font-size="10.00">::EmbeddedSystemXState</text>
</a>
</g>
</g>
<!-- Node2 -->
<g id="Node000002" class="node">
<title>Node2</title>
<g id="a_Node000002"><a xlink:href="class_configuration_state.html#ad64970b29021309679964cf9c3bce36a" target="_top" xlink:title=" ">
<polygon fill="white" stroke="#666666" points="475.88,-731.5 372.88,-731.5 372.88,-701 475.88,-701 475.88,-731.5"/>
<text xml:space="preserve" text-anchor="start" x="380.88" y="-718" font-family="Helvetica,sans-Serif" font-size="10.00">ConfigurationState</text>
<text xml:space="preserve" text-anchor="middle" x="424.38" y="-706.75" font-family="Helvetica,sans-Serif" font-size="10.00">::ConfigurationState</text>
</a>
</g>
</g>
<!-- Node1&#45;&gt;Node2 -->
<g id="edge1_Node000001_Node000002" class="edge">
<title>Node1&#45;&gt;Node2</title>
<g id="a_edge1_Node000001_Node000002"><a xlink:title=" ">
<path fill="none" stroke="#63b8ff" d="M587.06,-504.38C571.17,-541.65 538.45,-611 496.5,-660.25 483.05,-676.04 464.56,-690.44 449.8,-700.68"/>
<polygon fill="#63b8ff" stroke="#63b8ff" points="590.23,-505.88 590.86,-495.3 583.78,-503.17 590.23,-505.88"/>
</a>
</g>
</g>
<!-- Node6 -->
<g id="Node000006" class="node">
<title>Node6</title>
<g id="a_Node000006"><a xlink:href="class_failure_state.html#a2ec44ef17dc39f0093d29ef996958325" target="_top" xlink:title=" ">
<polygon fill="white" stroke="#666666" points="487.88,-650.88 360.88,-650.88 360.88,-631.62 487.88,-631.62 487.88,-650.88"/>
<text xml:space="preserve" text-anchor="middle" x="424.38" y="-637.38" font-family="Helvetica,sans-Serif" font-size="10.00">FailureState::FailureState</text>
</a>
</g>
</g>
<!-- Node1&#45;&gt;Node6 -->
<g id="edge5_Node000001_Node000006" class="edge">
<title>Node1&#45;&gt;Node6</title>
<g id="a_edge5_Node000001_Node000006"><a xlink:title=" ">
<path fill="none" stroke="#63b8ff" d="M578.51,-502.69C559.18,-526.63 527.76,-563.45 496.5,-591.25 479.02,-606.8 456.63,-621.85 441.69,-631.3"/>
<polygon fill="#63b8ff" stroke="#63b8ff" points="581.09,-505.07 584.6,-495.07 575.62,-500.7 581.09,-505.07"/>
</a>
</g>
</g>
<!-- Node9 -->
<g id="Node000009" class="node">
<title>Node9</title>
<g id="a_Node000009"><a xlink:href="class_initializing_state.html#a0171b550bdf18be89167d4a478009c69" target="_top" xlink:title=" ">
<polygon fill="white" stroke="#666666" points="468.75,-582.5 380,-582.5 380,-552 468.75,-552 468.75,-582.5"/>
<text xml:space="preserve" text-anchor="start" x="388" y="-569" font-family="Helvetica,sans-Serif" font-size="10.00">InitializingState::</text>
<text xml:space="preserve" text-anchor="middle" x="424.38" y="-557.75" font-family="Helvetica,sans-Serif" font-size="10.00">InitializingState</text>
</a>
</g>
</g>
<!-- Node1&#45;&gt;Node9 -->
<g id="edge8_Node000001_Node000009" class="edge">
<title>Node1&#45;&gt;Node9</title>
<g id="a_edge8_Node000001_Node000009"><a xlink:title=" ">
<path fill="none" stroke="#63b8ff" d="M557.16,-499.16C526.13,-515.19 483.95,-536.98 455.76,-551.55"/>
<polygon fill="#63b8ff" stroke="#63b8ff" points="558.6,-502.35 565.88,-494.65 555.39,-496.13 558.6,-502.35"/>
</a>
</g>
</g>
<!-- Node12 -->
<g id="Node000012" class="node">
<title>Node12</title>
<g id="a_Node000012"><a xlink:href="class_operational_state.html#ae3abfc6d0545ae4e82369b73e745f224" target="_top" xlink:title=" ">
<polygon fill="white" stroke="#666666" points="496.5,-518.5 352.25,-518.5 352.25,-488 496.5,-488 496.5,-518.5"/>
<text xml:space="preserve" text-anchor="start" x="360.25" y="-505" font-family="Helvetica,sans-Serif" font-size="10.00">OperationalState::Operational</text>
<text xml:space="preserve" text-anchor="middle" x="424.38" y="-493.75" font-family="Helvetica,sans-Serif" font-size="10.00">State</text>
</a>
</g>
</g>
<!-- Node1&#45;&gt;Node12 -->
<g id="edge11_Node000001_Node000012" class="edge">
<title>Node1&#45;&gt;Node12</title>
<g id="a_edge11_Node000001_Node000012"><a xlink:title=" ">
<path fill="none" stroke="#63b8ff" d="M520.83,-489.4C512.85,-490.55 504.75,-491.73 496.83,-492.88"/>
<polygon fill="#63b8ff" stroke="#63b8ff" points="521.12,-492.89 530.52,-487.99 520.12,-485.96 521.12,-492.89"/>
</a>
</g>
</g>
<!-- Node14 -->
<g id="Node000014" class="node">
<title>Node14</title>
<g id="a_Node000014"><a xlink:href="class_power_on_self_test_state.html#a1020e4af5a2b23ac1c6236d9ca2a71b0" target="_top" xlink:title=" ">
<polygon fill="white" stroke="#666666" points="485.25,-469.5 363.5,-469.5 363.5,-439 485.25,-439 485.25,-469.5"/>
<text xml:space="preserve" text-anchor="start" x="371.5" y="-456" font-family="Helvetica,sans-Serif" font-size="10.00">PowerOnSelfTestState</text>
<text xml:space="preserve" text-anchor="middle" x="424.38" y="-444.75" font-family="Helvetica,sans-Serif" font-size="10.00">::PowerOnSelfTestState</text>
</a>
</g>
</g>
<!-- Node1&#45;&gt;Node14 -->
<g id="edge13_Node000001_Node000014" class="edge">
<title>Node1&#45;&gt;Node14</title>
<g id="a_edge13_Node000001_Node000014"><a xlink:title=" ">
<path fill="none" stroke="#63b8ff" d="M520.83,-467.55C509.06,-465.91 497.06,-464.24 485.71,-462.66"/>
<polygon fill="#63b8ff" stroke="#63b8ff" points="520.13,-470.99 530.51,-468.9 521.09,-464.05 520.13,-470.99"/>
</a>
</g>
</g>
<!-- Node24 -->
<g id="Node000024" class="node">
<title>Node24</title>
<g id="a_Node000024"><a xlink:href="class_ready_state.html#a497319f3099ba7ab061bfae0658da9bd" target="_top" xlink:title=" ">
<polygon fill="white" stroke="#666666" points="487.12,-389.88 361.62,-389.88 361.62,-370.62 487.12,-370.62 487.12,-389.88"/>
<text xml:space="preserve" text-anchor="middle" x="424.38" y="-376.38" font-family="Helvetica,sans-Serif" font-size="10.00">ReadyState::ReadyState</text>
</a>
</g>
</g>
<!-- Node1&#45;&gt;Node24 -->
<g id="edge23_Node000001_Node000024" class="edge">
<title>Node1&#45;&gt;Node24</title>
<g id="a_edge23_Node000001_Node000024"><a xlink:title=" ">
<path fill="none" stroke="#63b8ff" d="M560.2,-456.96C523.9,-436.31 470.41,-405.87 442.99,-390.27"/>
<polygon fill="#63b8ff" stroke="#63b8ff" points="558.21,-459.85 568.63,-461.76 561.67,-453.77 558.21,-459.85"/>
</a>
</g>
</g>
<!-- Node29 -->
<g id="Node000029" class="node">
<title>Node29</title>
<g id="a_Node000029"><a xlink:href="class_real_time_loop_outer_state.html#ad89ca507e9f62d9a94e078c66ae45cd4" target="_top" xlink:title=" ">
<polygon fill="white" stroke="#666666" points="490.5,-291.5 358.25,-291.5 358.25,-261 490.5,-261 490.5,-291.5"/>
<text xml:space="preserve" text-anchor="start" x="366.25" y="-278" font-family="Helvetica,sans-Serif" font-size="10.00">RealTimeLoopOuterState</text>
<text xml:space="preserve" text-anchor="middle" x="424.38" y="-266.75" font-family="Helvetica,sans-Serif" font-size="10.00">::RealTimeLoopOuterState</text>
</a>
</g>
</g>
<!-- Node1&#45;&gt;Node29 -->
<g id="edge28_Node000001_Node000029" class="edge">
<title>Node1&#45;&gt;Node29</title>
<g id="a_edge28_Node000001_Node000029"><a xlink:title=" ">
<path fill="none" stroke="#63b8ff" d="M576.93,-453.98C541.11,-411.97 468.5,-326.83 438.65,-291.82"/>
<polygon fill="#63b8ff" stroke="#63b8ff" points="574.26,-456.24 583.41,-461.58 579.59,-451.7 574.26,-456.24"/>
</a>
</g>
</g>
<!-- Node33 -->
<g id="Node000033" class="node">
<title>Node33</title>
<g id="a_Node000033"><a xlink:href="class_suspended_state.html#afcec59fe5067ed66b3d544224ea3d7e6" target="_top" xlink:title=" ">
<polygon fill="white" stroke="#666666" points="495.75,-119.5 353,-119.5 353,-89 495.75,-89 495.75,-119.5"/>
<text xml:space="preserve" text-anchor="start" x="361" y="-106" font-family="Helvetica,sans-Serif" font-size="10.00">SuspendedState::Suspended</text>
<text xml:space="preserve" text-anchor="middle" x="424.38" y="-94.75" font-family="Helvetica,sans-Serif" font-size="10.00">State</text>
</a>
</g>
</g>
<!-- Node1&#45;&gt;Node33 -->
<g id="edge32_Node000001_Node000033" class="edge">
<title>Node1&#45;&gt;Node33</title>
<g id="a_edge32_Node000001_Node000033"><a xlink:title=" ">
<path fill="none" stroke="#63b8ff" d="M586.2,-452.1C567.7,-409.9 529.89,-324.22 496.5,-252.25 473.95,-203.63 446.16,-146.6 432.99,-119.74"/>
<polygon fill="#63b8ff" stroke="#63b8ff" points="582.96,-453.42 590.18,-461.18 589.37,-450.62 582.96,-453.42"/>
</a>
</g>
</g>
<!-- Node3 -->
<g id="Node000003" class="node">
<title>Node3</title>
<g id="a_Node000003"><a xlink:href="class_configuration_state.html#ae8c10885d597cc4cacf9cde057cc4723" target="_top" xlink:title=" ">
<polygon fill="white" stroke="#666666" points="291.88,-761.5 194.88,-761.5 194.88,-731 291.88,-731 291.88,-761.5"/>
<text xml:space="preserve" text-anchor="start" x="202.88" y="-748" font-family="Helvetica,sans-Serif" font-size="10.00">ConfigurationState</text>
<text xml:space="preserve" text-anchor="middle" x="243.38" y="-736.75" font-family="Helvetica,sans-Serif" font-size="10.00">::getInstance</text>
</a>
</g>
</g>
<!-- Node2&#45;&gt;Node3 -->
<g id="edge2_Node000002_Node000003" class="edge">
<title>Node2&#45;&gt;Node3</title>
<g id="a_edge2_Node000002_Node000003"><a xlink:title=" ">
<path fill="none" stroke="#63b8ff" d="M361.34,-726.65C338.7,-730.44 313.46,-734.67 292.24,-738.23"/>
<polygon fill="#63b8ff" stroke="#63b8ff" points="361.78,-730.12 371.07,-725.02 360.63,-723.22 361.78,-730.12"/>
</a>
</g>
</g>
<!-- Node4 -->
<g id="Node000004" class="node">
<title>Node4</title>
<g id="a_Node000004"><a xlink:href="class_operational_state.html#a8efc9f71ab6dcd775e998d4ad2a96c2b" target="_top" xlink:title=" ">
<polygon fill="white" stroke="#666666" points="134.5,-792.88 0,-792.88 0,-773.62 134.5,-773.62 134.5,-792.88"/>
<text xml:space="preserve" text-anchor="middle" x="67.25" y="-779.38" font-family="Helvetica,sans-Serif" font-size="10.00">OperationalState::configure</text>
</a>
</g>
</g>
<!-- Node3&#45;&gt;Node4 -->
<g id="edge3_Node000003_Node000004" class="edge">
<title>Node3&#45;&gt;Node4</title>
<g id="a_edge3_Node000003_Node000004"><a xlink:title=" ">
<path fill="none" stroke="#63b8ff" d="M183.54,-758.75C161.47,-763.44 136.69,-768.71 115.77,-773.15"/>
<polygon fill="#63b8ff" stroke="#63b8ff" points="184.26,-762.18 193.31,-756.68 182.8,-755.33 184.26,-762.18"/>
</a>
</g>
</g>
<!-- Node5 -->
<g id="Node000005" class="node">
<title>Node5</title>
<g id="a_Node000005"><a xlink:href="class_ready_state.html#a9cabd1bcb8ee050b4fa621e4c593468e" target="_top" xlink:title=" ">
<polygon fill="white" stroke="#666666" points="124,-755.88 10.5,-755.88 10.5,-736.62 124,-736.62 124,-755.88"/>
<text xml:space="preserve" text-anchor="middle" x="67.25" y="-742.38" font-family="Helvetica,sans-Serif" font-size="10.00">ReadyState::configure</text>
</a>
</g>
</g>
<!-- Node3&#45;&gt;Node5 -->
<g id="edge4_Node000003_Node000005" class="edge">
<title>Node3&#45;&gt;Node5</title>
<g id="a_edge4_Node000003_Node000005"><a xlink:title=" ">
<path fill="none" stroke="#63b8ff" d="M183.52,-746.25C164.43,-746.25 143.31,-746.25 124.42,-746.25"/>
<polygon fill="#63b8ff" stroke="#63b8ff" points="183.28,-749.75 193.28,-746.25 183.28,-742.75 183.28,-749.75"/>
</a>
</g>
</g>
<!-- Node7 -->
<g id="Node000007" class="node">
<title>Node7</title>
<g id="a_Node000007"><a xlink:href="class_failure_state.html#af8df67121215589d804b1f1872eec2ab" target="_top" xlink:title=" ">
<polygon fill="white" stroke="#666666" points="306.12,-696.88 180.62,-696.88 180.62,-677.62 306.12,-677.62 306.12,-696.88"/>
<text xml:space="preserve" text-anchor="middle" x="243.38" y="-683.38" font-family="Helvetica,sans-Serif" font-size="10.00">FailureState::getInstance</text>
</a>
</g>
</g>
<!-- Node6&#45;&gt;Node7 -->
<g id="edge6_Node000006_Node000007" class="edge">
<title>Node6&#45;&gt;Node7</title>
<g id="a_edge6_Node000006_Node000007"><a xlink:title=" ">
<path fill="none" stroke="#63b8ff" d="M373.18,-654.15C344.82,-661.44 309.89,-670.41 283.57,-677.18"/>
<polygon fill="#63b8ff" stroke="#63b8ff" points="373.81,-657.6 382.63,-651.72 372.07,-650.82 373.81,-657.6"/>
</a>
</g>
</g>
<!-- Node8 -->
<g id="Node000008" class="node">
<title>Node8</title>
<g id="a_Node000008"><a xlink:href="class_power_on_self_test_state.html#a68e3bab150a0b81941bab395f2ce9635" target="_top" xlink:title=" ">
<polygon fill="white" stroke="#666666" points="125.12,-718.5 9.38,-718.5 9.38,-688 125.12,-688 125.12,-718.5"/>
<text xml:space="preserve" text-anchor="start" x="17.38" y="-705" font-family="Helvetica,sans-Serif" font-size="10.00">PowerOnSelfTestState</text>
<text xml:space="preserve" text-anchor="middle" x="67.25" y="-693.75" font-family="Helvetica,sans-Serif" font-size="10.00">::selfTestFailed</text>
</a>
</g>
</g>
<!-- Node7&#45;&gt;Node8 -->
<g id="edge7_Node000007_Node000008" class="edge">
<title>Node7&#45;&gt;Node8</title>
<g id="a_edge7_Node000007_Node000008"><a xlink:title=" ">
<path fill="none" stroke="#63b8ff" d="M169.43,-693.95C154.78,-695.3 139.59,-696.69 125.57,-697.98"/>
<polygon fill="#63b8ff" stroke="#63b8ff" points="169.35,-697.47 178.99,-693.07 168.71,-690.5 169.35,-697.47"/>
</a>
</g>
</g>
<!-- Node10 -->
<g id="Node000010" class="node">
<title>Node10</title>
<g id="a_Node000010"><a xlink:href="class_initializing_state.html#a5f2b35fd0799f7c5e3f1c5fe50ef5f0f" target="_top" xlink:title=" ">
<polygon fill="white" stroke="#666666" points="287.75,-611.5 199,-611.5 199,-581 287.75,-581 287.75,-611.5"/>
<text xml:space="preserve" text-anchor="start" x="207" y="-598" font-family="Helvetica,sans-Serif" font-size="10.00">InitializingState::</text>
<text xml:space="preserve" text-anchor="middle" x="243.38" y="-586.75" font-family="Helvetica,sans-Serif" font-size="10.00">getInstance</text>
</a>
</g>
</g>
<!-- Node9&#45;&gt;Node10 -->
<g id="edge9_Node000009_Node000010" class="edge">
<title>Node9&#45;&gt;Node10</title>
<g id="a_edge9_Node000009_Node000010"><a xlink:title=" ">
<path fill="none" stroke="#63b8ff" d="M368.45,-576.15C342.62,-580.33 312.25,-585.25 288.02,-589.18"/>
<polygon fill="#63b8ff" stroke="#63b8ff" points="368.78,-579.64 378.09,-574.59 367.66,-572.73 368.78,-579.64"/>
</a>
</g>
</g>
<!-- Node11 -->
<g id="Node000011" class="node">
<title>Node11</title>
<g id="a_Node000011"><a xlink:href="class_power_on_self_test_state.html#a27ae316e06235041d8f13039a7bc2afe" target="_top" xlink:title=" ">
<polygon fill="white" stroke="#666666" points="125.12,-669.5 9.38,-669.5 9.38,-639 125.12,-639 125.12,-669.5"/>
<text xml:space="preserve" text-anchor="start" x="17.38" y="-656" font-family="Helvetica,sans-Serif" font-size="10.00">PowerOnSelfTestState</text>
<text xml:space="preserve" text-anchor="middle" x="67.25" y="-644.75" font-family="Helvetica,sans-Serif" font-size="10.00">::selfTestOk</text>
</a>
</g>
</g>
<!-- Node10&#45;&gt;Node11 -->
<g id="edge10_Node000010_Node000011" class="edge">
<title>Node10&#45;&gt;Node11</title>
<g id="a_edge10_Node000010_Node000011"><a xlink:title=" ">
<path fill="none" stroke="#63b8ff" d="M188.13,-614.32C164.85,-622.07 137.9,-631.05 115.46,-638.52"/>
<polygon fill="#63b8ff" stroke="#63b8ff" points="189.07,-617.7 197.45,-611.21 186.86,-611.05 189.07,-617.7"/>
</a>
</g>
</g>
<!-- Node13 -->
<g id="Node000013" class="node">
<title>Node13</title>
<g id="a_Node000013"><a xlink:href="class_operational_state.html#a6ff26e3449b8162a35c0a7e8223c799d" target="_top" xlink:title=" ">
<polygon fill="white" stroke="#666666" points="316.25,-512.88 170.5,-512.88 170.5,-493.62 316.25,-493.62 316.25,-512.88"/>
<text xml:space="preserve" text-anchor="middle" x="243.38" y="-499.38" font-family="Helvetica,sans-Serif" font-size="10.00">OperationalState::getInstance</text>
</a>
</g>
</g>
<!-- Node12&#45;&gt;Node13 -->
<g id="edge12_Node000012_Node000013" class="edge">
<title>Node12&#45;&gt;Node13</title>
<g id="a_edge12_Node000012_Node000013"><a xlink:title=" ">
<path fill="none" stroke="#63b8ff" d="M340.62,-503.25C332.62,-503.25 324.54,-503.25 316.66,-503.25"/>
<polygon fill="#63b8ff" stroke="#63b8ff" points="340.34,-506.75 350.34,-503.25 340.34,-499.75 340.34,-506.75"/>
</a>
</g>
</g>
<!-- Node15 -->
<g id="Node000015" class="node">
<title>Node15</title>
<g id="a_Node000015"><a xlink:href="class_power_on_self_test_state.html#ae152baf800ee583b4c4c0c5ca16aa904" target="_top" xlink:title=" ">
<polygon fill="white" stroke="#666666" points="301.25,-469.5 185.5,-469.5 185.5,-439 301.25,-439 301.25,-469.5"/>
<text xml:space="preserve" text-anchor="start" x="193.5" y="-456" font-family="Helvetica,sans-Serif" font-size="10.00">PowerOnSelfTestState</text>
<text xml:space="preserve" text-anchor="middle" x="243.38" y="-444.75" font-family="Helvetica,sans-Serif" font-size="10.00">::getInstance</text>
</a>
</g>
</g>
<!-- Node14&#45;&gt;Node15 -->
<g id="edge14_Node000014_Node000015" class="edge">
<title>Node14&#45;&gt;Node15</title>
<g id="a_edge14_Node000014_Node000015"><a xlink:title=" ">
<path fill="none" stroke="#63b8ff" d="M351.88,-454.25C335.17,-454.25 317.59,-454.25 301.59,-454.25"/>
<polygon fill="#63b8ff" stroke="#63b8ff" points="351.76,-457.75 361.76,-454.25 351.76,-450.75 351.76,-457.75"/>
</a>
</g>
</g>
<!-- Node16 -->
<g id="Node000016" class="node">
<title>Node16</title>
<g id="a_Node000016"><a xlink:href="class_ready_state.html#a7c0f1f0c7e72a26a6c62949ce36818f2" target="_top" xlink:title=" ">
<polygon fill="white" stroke="#666666" points="112,-620.88 22.5,-620.88 22.5,-601.62 112,-601.62 112,-620.88"/>
<text xml:space="preserve" text-anchor="middle" x="67.25" y="-607.38" font-family="Helvetica,sans-Serif" font-size="10.00">ReadyState::exit</text>
</a>
</g>
</g>
<!-- Node15&#45;&gt;Node16 -->
<g id="edge15_Node000015_Node000016" class="edge">
<title>Node15&#45;&gt;Node16</title>
<g id="a_edge15_Node000015_Node000016"><a xlink:title=" ">
<path fill="none" stroke="#63b8ff" d="M180.13,-475.84C176.64,-478.35 173.38,-481.14 170.5,-484.25 136.06,-521.32 171.03,-557.24 134.5,-592.25 128.37,-598.13 120.54,-602.21 112.43,-605.03"/>
<polygon fill="#63b8ff" stroke="#63b8ff" points="181.9,-478.86 188.55,-470.62 178.21,-472.91 181.9,-478.86"/>
</a>
</g>
</g>
<!-- Node17 -->
<g id="Node000017" class="node">
<title>Node17</title>
<g id="a_Node000017"><a xlink:href="class_configuration_state.html#ab667ff4fd7114cce9a39042235b7ed90" target="_top" xlink:title=" ">
<polygon fill="white" stroke="#666666" points="115.75,-583.5 18.75,-583.5 18.75,-553 115.75,-553 115.75,-583.5"/>
<text xml:space="preserve" text-anchor="start" x="26.75" y="-570" font-family="Helvetica,sans-Serif" font-size="10.00">ConfigurationState</text>
<text xml:space="preserve" text-anchor="middle" x="67.25" y="-558.75" font-family="Helvetica,sans-Serif" font-size="10.00">::restart</text>
</a>
</g>
</g>
<!-- Node15&#45;&gt;Node17 -->
<g id="edge16_Node000015_Node000017" class="edge">
<title>Node15&#45;&gt;Node17</title>
<g id="a_edge16_Node000015_Node000017"><a xlink:title=" ">
<path fill="none" stroke="#63b8ff" d="M183.09,-475.24C178.61,-477.93 174.34,-480.93 170.5,-484.25 146.97,-504.59 158.5,-524.48 134.5,-544.25 129.02,-548.76 122.63,-552.46 116.01,-555.48"/>
<polygon fill="#63b8ff" stroke="#63b8ff" points="184.67,-478.37 191.82,-470.55 181.35,-472.2 184.67,-478.37"/>
</a>
</g>
</g>
<!-- Node18 -->
<g id="Node000018" class="node">
<title>Node18</title>
<g id="a_Node000018"><a xlink:href="class_failure_state.html#a92512453ab6c2bc05c7913955cdf3228" target="_top" xlink:title=" ">
<polygon fill="white" stroke="#666666" points="118.38,-534.88 16.12,-534.88 16.12,-515.62 118.38,-515.62 118.38,-534.88"/>
<text xml:space="preserve" text-anchor="middle" x="67.25" y="-521.38" font-family="Helvetica,sans-Serif" font-size="10.00">FailureState::restart</text>
</a>
</g>
</g>
<!-- Node15&#45;&gt;Node18 -->
<g id="edge17_Node000015_Node000018" class="edge">
<title>Node15&#45;&gt;Node18</title>
<g id="a_edge17_Node000015_Node000018"><a xlink:title=" ">
<path fill="none" stroke="#63b8ff" d="M191.57,-474.31C184.42,-477.46 177.22,-480.82 170.5,-484.25 153.8,-492.78 151.67,-498.71 134.5,-506.25 126.72,-509.67 118.16,-512.65 109.85,-515.18"/>
<polygon fill="#63b8ff" stroke="#63b8ff" points="192.76,-477.6 200.57,-470.44 190,-471.17 192.76,-477.6"/>
</a>
</g>
</g>
<!-- Node19 -->
<g id="Node000019" class="node">
<title>Node19</title>
<g id="a_Node000019"><a xlink:href="class_initializing_state.html#a67d16e73603bd66acfbc7e2568a631a1" target="_top" xlink:title=" ">
<polygon fill="white" stroke="#666666" points="111.62,-497.5 22.88,-497.5 22.88,-467 111.62,-467 111.62,-497.5"/>
<text xml:space="preserve" text-anchor="start" x="30.88" y="-484" font-family="Helvetica,sans-Serif" font-size="10.00">InitializingState::</text>
<text xml:space="preserve" text-anchor="middle" x="67.25" y="-472.75" font-family="Helvetica,sans-Serif" font-size="10.00">restart</text>
</a>
</g>
</g>
<!-- Node15&#45;&gt;Node19 -->
<g id="edge18_Node000015_Node000019" class="edge">
<title>Node15&#45;&gt;Node19</title>
<g id="a_edge18_Node000015_Node000019"><a xlink:title=" ">
<path fill="none" stroke="#63b8ff" d="M174.23,-465.21C153.24,-468.58 130.72,-472.2 111.86,-475.24"/>
<polygon fill="#63b8ff" stroke="#63b8ff" points="174.55,-468.7 183.87,-463.66 173.44,-461.79 174.55,-468.7"/>
</a>
</g>
</g>
<!-- Node20 -->
<g id="Node000020" class="node">
<title>Node20</title>
<g id="a_Node000020"><a xlink:href="class_operational_state.html#ab4fb1ab9af563a2566b1c6c48062ce0d" target="_top" xlink:title=" ">
<polygon fill="white" stroke="#666666" points="128.5,-448.88 6,-448.88 6,-429.62 128.5,-429.62 128.5,-448.88"/>
<text xml:space="preserve" text-anchor="middle" x="67.25" y="-435.38" font-family="Helvetica,sans-Serif" font-size="10.00">OperationalState::restart</text>
</a>
</g>
</g>
<!-- Node15&#45;&gt;Node20 -->
<g id="edge19_Node000015_Node000020" class="edge">
<title>Node15&#45;&gt;Node20</title>
<g id="a_edge19_Node000015_Node000020"><a xlink:title=" ">
<path fill="none" stroke="#63b8ff" d="M174.15,-448.37C159.25,-447.09 143.57,-445.74 128.99,-444.48"/>
<polygon fill="#63b8ff" stroke="#63b8ff" points="173.59,-451.84 183.85,-449.21 174.19,-444.86 173.59,-451.84"/>
</a>
</g>
</g>
<!-- Node21 -->
<g id="Node000021" class="node">
<title>Node21</title>
<g id="a_Node000021"><a xlink:href="class_ready_state.html#abbd0ed06994f93d3c2a2e4ee7aa1f7e5" target="_top" xlink:title=" ">
<polygon fill="white" stroke="#666666" points="118,-411.88 16.5,-411.88 16.5,-392.62 118,-392.62 118,-411.88"/>
<text xml:space="preserve" text-anchor="middle" x="67.25" y="-398.38" font-family="Helvetica,sans-Serif" font-size="10.00">ReadyState::restart</text>
</a>
</g>
</g>
<!-- Node15&#45;&gt;Node21 -->
<g id="edge20_Node000015_Node000021" class="edge">
<title>Node15&#45;&gt;Node21</title>
<g id="a_edge20_Node000015_Node000021"><a xlink:title=" ">
<path fill="none" stroke="#63b8ff" d="M183.21,-435.13C167.42,-430.16 150.35,-424.9 134.5,-420.25 125.46,-417.6 115.7,-414.87 106.51,-412.36"/>
<polygon fill="#63b8ff" stroke="#63b8ff" points="181.87,-438.38 192.46,-438.06 183.98,-431.71 181.87,-438.38"/>
</a>
</g>
</g>
<!-- Node22 -->
<g id="Node000022" class="node">
<title>Node22</title>
<g id="a_Node000022"><a xlink:href="class_real_time_loop_outer_state.html#a01925a6ddfdbd6bd3d5dd1364d43798b" target="_top" xlink:title=" ">
<polygon fill="white" stroke="#666666" points="130.38,-374.5 4.12,-374.5 4.12,-344 130.38,-344 130.38,-374.5"/>
<text xml:space="preserve" text-anchor="start" x="12.12" y="-361" font-family="Helvetica,sans-Serif" font-size="10.00">RealTimeLoopOuterState</text>
<text xml:space="preserve" text-anchor="middle" x="67.25" y="-349.75" font-family="Helvetica,sans-Serif" font-size="10.00">::restart</text>
</a>
</g>
</g>
<!-- Node15&#45;&gt;Node22 -->
<g id="edge21_Node000015_Node000022" class="edge">
<title>Node15&#45;&gt;Node22</title>
<g id="a_edge21_Node000015_Node000022"><a xlink:title=" ">
<path fill="none" stroke="#63b8ff" d="M212.72,-431.99C191.66,-416.88 162.31,-397.2 134.5,-383.25 128.59,-380.29 122.23,-377.51 115.87,-374.97"/>
<polygon fill="#63b8ff" stroke="#63b8ff" points="210.4,-434.63 220.55,-437.68 214.52,-428.97 210.4,-434.63"/>
</a>
</g>
</g>
<!-- Node23 -->
<g id="Node000023" class="node">
<title>Node23</title>
<g id="a_Node000023"><a xlink:href="class_suspended_state.html#a935123391a7a11cecedda11cdef3c231" target="_top" xlink:title=" ">
<polygon fill="white" stroke="#666666" points="128.12,-325.88 6.37,-325.88 6.37,-306.62 128.12,-306.62 128.12,-325.88"/>
<text xml:space="preserve" text-anchor="middle" x="67.25" y="-312.38" font-family="Helvetica,sans-Serif" font-size="10.00">SuspendedState::restart</text>
</a>
</g>
</g>
<!-- Node15&#45;&gt;Node23 -->
<g id="edge22_Node000015_Node000023" class="edge">
<title>Node15&#45;&gt;Node23</title>
<g id="a_edge22_Node000015_Node000023"><a xlink:title=" ">
<path fill="none" stroke="#63b8ff" d="M226.2,-429.37C207.35,-402.31 173.71,-359.66 134.5,-335.25 128.71,-331.65 122.21,-328.7 115.61,-326.31"/>
<polygon fill="#63b8ff" stroke="#63b8ff" points="223.09,-431.02 231.61,-437.32 228.88,-427.08 223.09,-431.02"/>
</a>
</g>
</g>
<!-- Node25 -->
<g id="Node000025" class="node">
<title>Node25</title>
<g id="a_Node000025"><a xlink:href="class_ready_state.html#a078711a8e92dab314ef4fd17e67a2a95" target="_top" xlink:title=" ">
<polygon fill="white" stroke="#666666" points="305.75,-257.88 181,-257.88 181,-238.62 305.75,-238.62 305.75,-257.88"/>
<text xml:space="preserve" text-anchor="middle" x="243.38" y="-244.38" font-family="Helvetica,sans-Serif" font-size="10.00">ReadyState::getInstance</text>
</a>
</g>
</g>
<!-- Node24&#45;&gt;Node25 -->
<g id="edge24_Node000024_Node000025" class="edge">
<title>Node24&#45;&gt;Node25</title>
<g id="a_edge24_Node000024_Node000025"><a xlink:title=" ">
<path fill="none" stroke="#63b8ff" d="M400.76,-363.57C363.08,-335.79 288.59,-280.85 257.99,-258.29"/>
<polygon fill="#63b8ff" stroke="#63b8ff" points="398.58,-366.31 408.7,-369.43 402.73,-360.68 398.58,-366.31"/>
</a>
</g>
</g>
<!-- Node26 -->
<g id="Node000026" class="node">
<title>Node26</title>
<g id="a_Node000026"><a xlink:href="class_configuration_state.html#a3823e276d58c7ae43411fda154df3eda" target="_top" xlink:title=" ">
<polygon fill="white" stroke="#666666" points="119.88,-288.5 14.62,-288.5 14.62,-258 119.88,-258 119.88,-288.5"/>
<text xml:space="preserve" text-anchor="start" x="22.62" y="-275" font-family="Helvetica,sans-Serif" font-size="10.00">ConfigurationState</text>
<text xml:space="preserve" text-anchor="middle" x="67.25" y="-263.75" font-family="Helvetica,sans-Serif" font-size="10.00">::configurationEnded</text>
</a>
</g>
</g>
<!-- Node25&#45;&gt;Node26 -->
<g id="edge25_Node000025_Node000026" class="edge">
<title>Node25&#45;&gt;Node26</title>
<g id="a_edge25_Node000025_Node000026"><a xlink:title=" ">
<path fill="none" stroke="#63b8ff" d="M169.63,-258.69C153.02,-261.08 135.69,-263.57 120.15,-265.8"/>
<polygon fill="#63b8ff" stroke="#63b8ff" points="170.09,-262.16 179.49,-257.28 169.09,-255.24 170.09,-262.16"/>
</a>
</g>
</g>
<!-- Node27 -->
<g id="Node000027" class="node">
<title>Node27</title>
<g id="a_Node000027"><a xlink:href="class_initializing_state.html#a2582cc2e25714a49ede134c3fc606cbb" target="_top" xlink:title=" ">
<polygon fill="white" stroke="#666666" points="111.62,-239.5 22.88,-239.5 22.88,-209 111.62,-209 111.62,-239.5"/>
<text xml:space="preserve" text-anchor="start" x="30.88" y="-226" font-family="Helvetica,sans-Serif" font-size="10.00">InitializingState::</text>
<text xml:space="preserve" text-anchor="middle" x="67.25" y="-214.75" font-family="Helvetica,sans-Serif" font-size="10.00">initialized</text>
</a>
</g>
</g>
<!-- Node25&#45;&gt;Node27 -->
<g id="edge26_Node000025_Node000027" class="edge">
<title>Node25&#45;&gt;Node27</title>
<g id="a_edge26_Node000025_Node000027"><a xlink:title=" ">
<path fill="none" stroke="#63b8ff" d="M169.85,-238.25C150.15,-235.54 129.43,-232.68 111.87,-230.26"/>
<polygon fill="#63b8ff" stroke="#63b8ff" points="169.1,-241.68 179.49,-239.58 170.06,-234.75 169.1,-241.68"/>
</a>
</g>
</g>
<!-- Node28 -->
<g id="Node000028" class="node">
<title>Node28</title>
<g id="a_Node000028"><a xlink:href="class_real_time_loop_outer_state.html#a4dad87dab493eb6f379066118e76157b" target="_top" xlink:title=" ">
<polygon fill="white" stroke="#666666" points="130.38,-190.5 4.12,-190.5 4.12,-160 130.38,-160 130.38,-190.5"/>
<text xml:space="preserve" text-anchor="start" x="12.12" y="-177" font-family="Helvetica,sans-Serif" font-size="10.00">RealTimeLoopOuterState</text>
<text xml:space="preserve" text-anchor="middle" x="67.25" y="-165.75" font-family="Helvetica,sans-Serif" font-size="10.00">::stop</text>
</a>
</g>
</g>
<!-- Node25&#45;&gt;Node28 -->
<g id="edge27_Node000025_Node000028" class="edge">
<title>Node25&#45;&gt;Node28</title>
<g id="a_edge27_Node000025_Node000028"><a xlink:title=" ">
<path fill="none" stroke="#63b8ff" d="M210.2,-233.35C188.87,-223.61 160.17,-210.8 134.5,-200.25 126.88,-197.12 118.71,-193.92 110.8,-190.89"/>
<polygon fill="#63b8ff" stroke="#63b8ff" points="208.71,-236.52 219.26,-237.5 211.63,-230.15 208.71,-236.52"/>
</a>
</g>
</g>
<!-- Node30 -->
<g id="Node000030" class="node">
<title>Node30</title>
<g id="a_Node000030"><a xlink:href="class_real_time_loop_outer_state.html#aa45421e00258a8ee2687d8c99efc0dea" target="_top" xlink:title=" ">
<polygon fill="white" stroke="#666666" points="306.5,-147.5 180.25,-147.5 180.25,-117 306.5,-117 306.5,-147.5"/>
<text xml:space="preserve" text-anchor="start" x="188.25" y="-134" font-family="Helvetica,sans-Serif" font-size="10.00">RealTimeLoopOuterState</text>
<text xml:space="preserve" text-anchor="middle" x="243.38" y="-122.75" font-family="Helvetica,sans-Serif" font-size="10.00">::getInstance</text>
</a>
</g>
</g>
<!-- Node29&#45;&gt;Node30 -->
<g id="edge29_Node000029_Node000030" class="edge">
<title>Node29&#45;&gt;Node30</title>
<g id="a_edge29_Node000029_Node000030"><a xlink:title=" ">
<path fill="none" stroke="#63b8ff" d="M395.17,-253.56C358.55,-224.1 295.57,-173.44 263.85,-147.92"/>
<polygon fill="#63b8ff" stroke="#63b8ff" points="392.71,-256.08 402.7,-259.62 397.1,-250.62 392.71,-256.08"/>
</a>
</g>
</g>
<!-- Node31 -->
<g id="Node000031" class="node">
<title>Node31</title>
<g id="a_Node000031"><a xlink:href="class_suspended_state.html#a98d4671ae0657e7113be352bf3cffc8e" target="_top" xlink:title=" ">
<polygon fill="white" stroke="#666666" points="130.38,-141.88 4.12,-141.88 4.12,-122.62 130.38,-122.62 130.38,-141.88"/>
<text xml:space="preserve" text-anchor="middle" x="67.25" y="-128.38" font-family="Helvetica,sans-Serif" font-size="10.00">SuspendedState::resume</text>
</a>
</g>
</g>
<!-- Node30&#45;&gt;Node31 -->
<g id="edge30_Node000030_Node000031" class="edge">
<title>Node30&#45;&gt;Node31</title>
<g id="a_edge30_Node000030_Node000031"><a xlink:title=" ">
<path fill="none" stroke="#63b8ff" d="M168.58,-132.25C156,-132.25 143.03,-132.25 130.77,-132.25"/>
<polygon fill="#63b8ff" stroke="#63b8ff" points="168.49,-135.75 178.49,-132.25 168.49,-128.75 168.49,-135.75"/>
</a>
</g>
</g>
<!-- Node32 -->
<g id="Node000032" class="node">
<title>Node32</title>
<g id="a_Node000032"><a xlink:href="class_ready_state.html#afca7afc96e449d8a719f3f22e61bc924" target="_top" xlink:title=" ">
<polygon fill="white" stroke="#666666" points="113.88,-104.88 20.62,-104.88 20.62,-85.62 113.88,-85.62 113.88,-104.88"/>
<text xml:space="preserve" text-anchor="middle" x="67.25" y="-91.38" font-family="Helvetica,sans-Serif" font-size="10.00">ReadyState::start</text>
</a>
</g>
</g>
<!-- Node30&#45;&gt;Node32 -->
<g id="edge31_Node000030_Node000032" class="edge">
<title>Node30&#45;&gt;Node32</title>
<g id="a_edge31_Node000030_Node000032"><a xlink:title=" ">
<path fill="none" stroke="#63b8ff" d="M168.93,-116.64C150.42,-112.71 131.07,-108.6 114.34,-105.04"/>
<polygon fill="#63b8ff" stroke="#63b8ff" points="168.01,-120.03 178.52,-118.68 169.47,-113.18 168.01,-120.03"/>
</a>
</g>
</g>
<!-- Node34 -->
<g id="Node000034" class="node">
<title>Node34</title>
<g id="a_Node000034"><a xlink:href="class_suspended_state.html#a7c5ac4f52a44311e301be89e4c8b8bf0" target="_top" xlink:title=" ">
<polygon fill="white" stroke="#666666" points="315.88,-67.88 170.88,-67.88 170.88,-48.62 315.88,-48.62 315.88,-67.88"/>
<text xml:space="preserve" text-anchor="middle" x="243.38" y="-54.38" font-family="Helvetica,sans-Serif" font-size="10.00">SuspendedState::getInstance</text>
</a>
</g>
</g>
<!-- Node33&#45;&gt;Node34 -->
<g id="edge33_Node000033_Node000034" class="edge">
<title>Node33&#45;&gt;Node34</title>
<g id="a_edge33_Node000033_Node000034"><a xlink:title=" ">
<path fill="none" stroke="#63b8ff" d="M351.42,-85.76C328.27,-79.81 303.49,-73.44 283.61,-68.33"/>
<polygon fill="#63b8ff" stroke="#63b8ff" points="350.25,-89.07 360.81,-88.17 351.99,-82.29 350.25,-89.07"/>
</a>
</g>
</g>
<!-- Node35 -->
<g id="Node000035" class="node">
<title>Node35</title>
<g id="a_Node000035"><a xlink:href="class_operational_state.html#ac442e55c4f713d7c7cbe036cdc490102" target="_top" xlink:title=" ">
<polygon fill="white" stroke="#666666" points="133,-67.88 1.5,-67.88 1.5,-48.62 133,-48.62 133,-67.88"/>
<text xml:space="preserve" text-anchor="middle" x="67.25" y="-54.38" font-family="Helvetica,sans-Serif" font-size="10.00">OperationalState::suspend</text>
</a>
</g>
</g>
<!-- Node34&#45;&gt;Node35 -->
<g id="edge34_Node000034_Node000035" class="edge">
<title>Node34&#45;&gt;Node35</title>
<g id="a_edge34_Node000034_Node000035"><a xlink:title=" ">
<path fill="none" stroke="#63b8ff" d="M159.24,-58.25C150.6,-58.25 141.9,-58.25 133.5,-58.25"/>
<polygon fill="#63b8ff" stroke="#63b8ff" points="159.03,-61.75 169.03,-58.25 159.03,-54.75 159.03,-61.75"/>
</a>
</g>
</g>
<!-- Node36 -->
<g id="Node000036" class="node">
<title>Node36</title>
<g id="a_Node000036"><a xlink:href="class_real_time_loop_outer_state.html#ad38a02f7799b345e521974f80d0784f3" target="_top" xlink:title=" ">
<polygon fill="white" stroke="#666666" points="130.38,-30.5 4.12,-30.5 4.12,0 130.38,0 130.38,-30.5"/>
<text xml:space="preserve" text-anchor="start" x="12.12" y="-17" font-family="Helvetica,sans-Serif" font-size="10.00">RealTimeLoopOuterState</text>
<text xml:space="preserve" text-anchor="middle" x="67.25" y="-5.75" font-family="Helvetica,sans-Serif" font-size="10.00">::suspend</text>
</a>
</g>
</g>
<!-- Node34&#45;&gt;Node36 -->
<g id="edge35_Node000034_Node000036" class="edge">
<title>Node34&#45;&gt;Node36</title>
<g id="a_edge35_Node000034_Node000036"><a xlink:title=" ">
<path fill="none" stroke="#63b8ff" d="M190.52,-45.44C171.71,-40.8 150.26,-35.5 130.64,-30.66"/>
<polygon fill="#63b8ff" stroke="#63b8ff" points="189.53,-48.81 200.08,-47.81 191.21,-42.01 189.53,-48.81"/>
</a>
</g>
</g>
</g>
</svg>
