<?xml version="1.0" encoding="UTF-8" standalone="no"?>
<!DOCTYPE svg PUBLIC "-//W3C//DTD SVG 1.1//EN"
 "http://www.w3.org/Graphics/SVG/1.1/DTD/svg11.dtd">
<!-- Generated by graphviz version 14.0.4 (20251115.1723)
 -->
<!-- Title: InitializingState Pages: 1 -->
<svg width="618pt" height="663pt"
 viewBox="0.00 0.00 618.00 663.00" xmlns="http://www.w3.org/2000/svg" xmlns:xlink="http://www.w3.org/1999/xlink">
<g id="graph0" class="graph" transform="scale(1 1) rotate(0) translate(4 658.5)">
<title>InitializingState</title>
<!-- Node1 -->
<g id="Node000001" class="node">
<title>Node1</title>
<g id="a_Node000001"><a xlink:title=" ">
<polygon fill="#999999" stroke="none" points="192,-306.25 0,-306.25 0,-17.25 192,-17.25 192,-306.25"/>
<text xml:space="preserve" text-anchor="start" x="62.62" y="-292.75" font-family="Helvetica,sans-Serif" font-size="10.00">InitializingState</text>
<text xml:space="preserve" text-anchor="start" x="94.5" y="-277.5" font-family="Helvetica,sans-Serif" font-size="10.00"> </text>
<text xml:space="preserve" text-anchor="start" x="4" y="-262.25" font-family="Helvetica,sans-Serif" font-size="10.00">+</text>
<text xml:space="preserve" text-anchor="start" x="14" y="-262.25" font-family="Helvetica,sans-Serif" font-size="10.00">void selfTestOk() override</text>
<text xml:space="preserve" text-anchor="start" x="4" y="-247" font-family="Helvetica,sans-Serif" font-size="10.00">+</text>
<text xml:space="preserve" text-anchor="start" x="14" y="-247" font-family="Helvetica,sans-Serif" font-size="10.00">void initialized()</text>
<text xml:space="preserve" text-anchor="start" x="14" y="-235.75" font-family="Helvetica,sans-Serif" font-size="10.00"> override</text>
<text xml:space="preserve" text-anchor="start" x="4" y="-220.5" font-family="Helvetica,sans-Serif" font-size="10.00">+</text>
<text xml:space="preserve" text-anchor="start" x="14" y="-220.5" font-family="Helvetica,sans-Serif" font-size="10.00">void restart() override</text>
<text xml:space="preserve" text-anchor="start" x="4" y="-205.25" font-family="Helvetica,sans-Serif" font-size="10.00">+</text>
<text xml:space="preserve" text-anchor="start" x="14" y="-205.25" font-family="Helvetica,sans-Serif" font-size="10.00">void selfTestFailed</text>
<text xml:space="preserve" text-anchor="start" x="14" y="-194" font-family="Helvetica,sans-Serif" font-size="10.00">(int errorNo) override</text>
<text xml:space="preserve" text-anchor="start" x="4" y="-178.75" font-family="Helvetica,sans-Serif" font-size="10.00">+</text>
<text xml:space="preserve" text-anchor="start" x="14" y="-178.75" font-family="Helvetica,sans-Serif" font-size="10.00">void configure() override</text>
<text xml:space="preserve" text-anchor="start" x="4" y="-163.5" font-family="Helvetica,sans-Serif" font-size="10.00">+</text>
<text xml:space="preserve" text-anchor="start" x="14" y="-163.5" font-family="Helvetica,sans-Serif" font-size="10.00">void configurationEnded</text>
<text xml:space="preserve" text-anchor="start" x="14" y="-152.25" font-family="Helvetica,sans-Serif" font-size="10.00">() override</text>
<text xml:space="preserve" text-anchor="start" x="4" y="-137" font-family="Helvetica,sans-Serif" font-size="10.00">+</text>
<text xml:space="preserve" text-anchor="start" x="14" y="-137" font-family="Helvetica,sans-Serif" font-size="10.00">void start() override</text>
<text xml:space="preserve" text-anchor="start" x="4" y="-121.75" font-family="Helvetica,sans-Serif" font-size="10.00">+</text>
<text xml:space="preserve" text-anchor="start" x="14" y="-121.75" font-family="Helvetica,sans-Serif" font-size="10.00">void suspend() override</text>
<text xml:space="preserve" text-anchor="start" x="4" y="-106.5" font-family="Helvetica,sans-Serif" font-size="10.00">+</text>
<text xml:space="preserve" text-anchor="start" x="14" y="-106.5" font-family="Helvetica,sans-Serif" font-size="10.00">void resume() override</text>
<text xml:space="preserve" text-anchor="start" x="4" y="-91.25" font-family="Helvetica,sans-Serif" font-size="10.00">+</text>
<text xml:space="preserve" text-anchor="start" x="14" y="-91.25" font-family="Helvetica,sans-Serif" font-size="10.00">void exit() override</text>
<text xml:space="preserve" text-anchor="start" x="4" y="-76" font-family="Helvetica,sans-Serif" font-size="10.00">+</text>
<text xml:space="preserve" text-anchor="start" x="14" y="-76" font-family="Helvetica,sans-Serif" font-size="10.00">void stop() override</text>
<text xml:space="preserve" text-anchor="start" x="4" y="-60.75" font-family="Helvetica,sans-Serif" font-size="10.00">+</text>
<text xml:space="preserve" text-anchor="start" x="14" y="-60.75" font-family="Helvetica,sans-Serif" font-size="10.00">static InitializingState</text>
<text xml:space="preserve" text-anchor="start" x="14" y="-49.5" font-family="Helvetica,sans-Serif" font-size="10.00"> * getInstance(EmbeddedSystemX *ctx)</text>
<text xml:space="preserve" text-anchor="start" x="5.5" y="-34.25" font-family="Helvetica,sans-Serif" font-size="10.00">&#45;</text>
<text xml:space="preserve" text-anchor="start" x="14" y="-34.25" font-family="Helvetica,sans-Serif" font-size="10.00">InitializingState</text>
<text xml:space="preserve" text-anchor="start" x="14" y="-23" font-family="Helvetica,sans-Serif" font-size="10.00">(EmbeddedSystemX *ctx)</text>
<polygon fill="#666666" stroke="#666666" points="0,-289 0,-289 192,-289 192,-289 0,-289"/>
<polygon fill="#666666" stroke="#666666" points="0,-273.75 0,-273.75 192,-273.75 192,-273.75 0,-273.75"/>
<polygon fill="none" stroke="#666666" points="0,-17.25 0,-306.25 192,-306.25 192,-17.25 0,-17.25"/>
</a>
</g>
</g>
<!-- Node1&#45;&gt;Node1 -->
<g id="edge7_Node000001_Node000001" class="edge">
<title>Node1&#45;&gt;Node1</title>
<g id="a_edge7_Node000001_Node000001"><a xlink:title=" ">
<path fill="none" stroke="#63b8ff" d="M191.64,-191.89C202.76,-186.33 210,-176.28 210,-161.75 210,-152.44 207.03,-144.97 201.97,-139.34"/>
<polygon fill="none" stroke="#63b8ff" points="201.97,-139.34 194.77,-138.94 192.36,-132.15 199.56,-132.54 201.97,-139.34"/>
</a>
</g>
<text xml:space="preserve" text-anchor="start" x="213" y="-157.88" font-family="Helvetica,sans-Serif" font-size="10.00" fill="grey">&#45;instance</text>
</g>
<!-- Node2 -->
<g id="Node000002" class="node">
<title>Node2</title>
<g id="a_Node000002"><a xlink:href="class_embedded_system_x_state.html" target="_top" xlink:title=" ">
<polygon fill="white" stroke="none" points="327.75,-654.5 164.25,-654.5 164.25,-376.75 327.75,-376.75 327.75,-654.5"/>
<text xml:space="preserve" text-anchor="start" x="190.88" y="-641" font-family="Helvetica,sans-Serif" font-size="10.00">EmbeddedSystemXState</text>
<text xml:space="preserve" text-anchor="start" x="244.5" y="-625.75" font-family="Helvetica,sans-Serif" font-size="10.00"> </text>
<text xml:space="preserve" text-anchor="start" x="168.25" y="-610.5" font-family="Helvetica,sans-Serif" font-size="10.00">+</text>
<text xml:space="preserve" text-anchor="start" x="178.25" y="-610.5" font-family="Helvetica,sans-Serif" font-size="10.00">EmbeddedSystemXState</text>
<text xml:space="preserve" text-anchor="start" x="178.25" y="-599.25" font-family="Helvetica,sans-Serif" font-size="10.00">(EmbeddedSystemX *ctx)</text>
<text xml:space="preserve" text-anchor="start" x="168.25" y="-584" font-family="Helvetica,sans-Serif" font-size="10.00">+</text>
<text xml:space="preserve" text-anchor="start" x="178.25" y="-584" font-family="Helvetica,sans-Serif" font-size="10.00">virtual ~EmbeddedSystemXState</text>
<text xml:space="preserve" text-anchor="start" x="178.25" y="-572.75" font-family="Helvetica,sans-Serif" font-size="10.00">()=default</text>
<text xml:space="preserve" text-anchor="start" x="168.25" y="-557.5" font-family="Helvetica,sans-Serif" font-size="10.00">+</text>
<text xml:space="preserve" text-anchor="start" x="178.25" y="-557.5" font-family="Helvetica,sans-Serif" font-size="10.00">virtual void selfTestOk()=0</text>
<text xml:space="preserve" text-anchor="start" x="168.25" y="-542.25" font-family="Helvetica,sans-Serif" font-size="10.00">+</text>
<text xml:space="preserve" text-anchor="start" x="178.25" y="-542.25" font-family="Helvetica,sans-Serif" font-size="10.00">virtual void initialized()=0</text>
<text xml:space="preserve" text-anchor="start" x="168.25" y="-527" font-family="Helvetica,sans-Serif" font-size="10.00">+</text>
<text xml:space="preserve" text-anchor="start" x="178.25" y="-527" font-family="Helvetica,sans-Serif" font-size="10.00">virtual void restart()=0</text>
<text xml:space="preserve" text-anchor="start" x="168.25" y="-511.75" font-family="Helvetica,sans-Serif" font-size="10.00">+</text>
<text xml:space="preserve" text-anchor="start" x="178.25" y="-511.75" font-family="Helvetica,sans-Serif" font-size="10.00">virtual void selfTestFailed</text>
<text xml:space="preserve" text-anchor="start" x="178.25" y="-500.5" font-family="Helvetica,sans-Serif" font-size="10.00">(int errorNo)=0</text>
<text xml:space="preserve" text-anchor="start" x="168.25" y="-485.25" font-family="Helvetica,sans-Serif" font-size="10.00">+</text>
<text xml:space="preserve" text-anchor="start" x="178.25" y="-485.25" font-family="Helvetica,sans-Serif" font-size="10.00">virtual void configure()=0</text>
<text xml:space="preserve" text-anchor="start" x="168.25" y="-470" font-family="Helvetica,sans-Serif" font-size="10.00">+</text>
<text xml:space="preserve" text-anchor="start" x="178.25" y="-470" font-family="Helvetica,sans-Serif" font-size="10.00">virtual void configuration</text>
<text xml:space="preserve" text-anchor="start" x="178.25" y="-458.75" font-family="Helvetica,sans-Serif" font-size="10.00">Ended()=0</text>
<text xml:space="preserve" text-anchor="start" x="168.25" y="-443.5" font-family="Helvetica,sans-Serif" font-size="10.00">+</text>
<text xml:space="preserve" text-anchor="start" x="178.25" y="-443.5" font-family="Helvetica,sans-Serif" font-size="10.00">virtual void start()=0</text>
<text xml:space="preserve" text-anchor="start" x="168.25" y="-428.25" font-family="Helvetica,sans-Serif" font-size="10.00">+</text>
<text xml:space="preserve" text-anchor="start" x="178.25" y="-428.25" font-family="Helvetica,sans-Serif" font-size="10.00">virtual void suspend()=0</text>
<text xml:space="preserve" text-anchor="start" x="168.25" y="-413" font-family="Helvetica,sans-Serif" font-size="10.00">+</text>
<text xml:space="preserve" text-anchor="start" x="178.25" y="-413" font-family="Helvetica,sans-Serif" font-size="10.00">virtual void resume()=0</text>
<text xml:space="preserve" text-anchor="start" x="168.25" y="-397.75" font-family="Helvetica,sans-Serif" font-size="10.00">+</text>
<text xml:space="preserve" text-anchor="start" x="178.25" y="-397.75" font-family="Helvetica,sans-Serif" font-size="10.00">virtual void exit()=0</text>
<text xml:space="preserve" text-anchor="start" x="168.25" y="-382.5" font-family="Helvetica,sans-Serif" font-size="10.00">+</text>
<text xml:space="preserve" text-anchor="start" x="178.25" y="-382.5" font-family="Helvetica,sans-Serif" font-size="10.00">virtual void stop()=0</text>
<polygon fill="#666666" stroke="#666666" points="164.25,-637.25 164.25,-637.25 327.75,-637.25 327.75,-637.25 164.25,-637.25"/>
<polygon fill="#666666" stroke="#666666" points="164.25,-622 164.25,-622 327.75,-622 327.75,-622 164.25,-622"/>
<polygon fill="none" stroke="#666666" points="164.25,-376.75 164.25,-654.5 327.75,-654.5 327.75,-376.75 164.25,-376.75"/>
</a>
</g>
</g>
<!-- Node2&#45;&gt;Node1 -->
<g id="edge1_Node000001_Node000002" class="edge">
<title>Node2&#45;&gt;Node1</title>
<g id="a_edge1_Node000001_Node000002"><a xlink:title=" ">
<path fill="none" stroke="#63b8ff" d="M182.82,-366.42C174.31,-346.45 165.59,-325.99 157.11,-306.11"/>
<polygon fill="none" stroke="#63b8ff" points="179.52,-367.6 186.66,-375.42 185.96,-364.85 179.52,-367.6"/>
</a>
</g>
</g>
<!-- Node3 -->
<g id="Node000003" class="node">
<title>Node3</title>
<g id="a_Node000003"><a xlink:href="class_embedded_system_x.html" target="_top" xlink:title=" ">
<polygon fill="white" stroke="none" points="420.12,-323.5 273.88,-323.5 273.88,0 420.12,0 420.12,-323.5"/>
<text xml:space="preserve" text-anchor="start" x="303.5" y="-310" font-family="Helvetica,sans-Serif" font-size="10.00">EmbeddedSystemX</text>
<text xml:space="preserve" text-anchor="start" x="345.5" y="-294.75" font-family="Helvetica,sans-Serif" font-size="10.00"> </text>
<text xml:space="preserve" text-anchor="start" x="277.88" y="-279.5" font-family="Helvetica,sans-Serif" font-size="10.00">+</text>
<text xml:space="preserve" text-anchor="start" x="287.88" y="-279.5" font-family="Helvetica,sans-Serif" font-size="10.00">EmbeddedSystemX()</text>
<text xml:space="preserve" text-anchor="start" x="277.88" y="-264.25" font-family="Helvetica,sans-Serif" font-size="10.00">+</text>
<text xml:space="preserve" text-anchor="start" x="287.88" y="-264.25" font-family="Helvetica,sans-Serif" font-size="10.00">~EmbeddedSystemX()</text>
<text xml:space="preserve" text-anchor="start" x="277.88" y="-249" font-family="Helvetica,sans-Serif" font-size="10.00">+</text>
<text xml:space="preserve" text-anchor="start" x="287.88" y="-249" font-family="Helvetica,sans-Serif" font-size="10.00">void changeState(Embedded</text>
<text xml:space="preserve" text-anchor="start" x="287.88" y="-237.75" font-family="Helvetica,sans-Serif" font-size="10.00">SystemXState *newState)</text>
<text xml:space="preserve" text-anchor="start" x="277.88" y="-222.5" font-family="Helvetica,sans-Serif" font-size="10.00">+</text>
<text xml:space="preserve" text-anchor="start" x="287.88" y="-222.5" font-family="Helvetica,sans-Serif" font-size="10.00">RealTimeLoop * getRealTime</text>
<text xml:space="preserve" text-anchor="start" x="287.88" y="-211.25" font-family="Helvetica,sans-Serif" font-size="10.00">Loop()</text>
<text xml:space="preserve" text-anchor="start" x="277.88" y="-196" font-family="Helvetica,sans-Serif" font-size="10.00">+</text>
<text xml:space="preserve" text-anchor="start" x="287.88" y="-196" font-family="Helvetica,sans-Serif" font-size="10.00">void selfTestOk()</text>
<text xml:space="preserve" text-anchor="start" x="277.88" y="-180.75" font-family="Helvetica,sans-Serif" font-size="10.00">+</text>
<text xml:space="preserve" text-anchor="start" x="287.88" y="-180.75" font-family="Helvetica,sans-Serif" font-size="10.00">void initialized()</text>
<text xml:space="preserve" text-anchor="start" x="277.88" y="-165.5" font-family="Helvetica,sans-Serif" font-size="10.00">+</text>
<text xml:space="preserve" text-anchor="start" x="287.88" y="-165.5" font-family="Helvetica,sans-Serif" font-size="10.00">void restart()</text>
<text xml:space="preserve" text-anchor="start" x="277.88" y="-150.25" font-family="Helvetica,sans-Serif" font-size="10.00">+</text>
<text xml:space="preserve" text-anchor="start" x="287.88" y="-150.25" font-family="Helvetica,sans-Serif" font-size="10.00">void selfTestFailed</text>
<text xml:space="preserve" text-anchor="start" x="287.88" y="-139" font-family="Helvetica,sans-Serif" font-size="10.00">(int errorNo)</text>
<text xml:space="preserve" text-anchor="start" x="277.88" y="-123.75" font-family="Helvetica,sans-Serif" font-size="10.00">+</text>
<text xml:space="preserve" text-anchor="start" x="287.88" y="-123.75" font-family="Helvetica,sans-Serif" font-size="10.00">void configure()</text>
<text xml:space="preserve" text-anchor="start" x="277.88" y="-108.5" font-family="Helvetica,sans-Serif" font-size="10.00">+</text>
<text xml:space="preserve" text-anchor="start" x="287.88" y="-108.5" font-family="Helvetica,sans-Serif" font-size="10.00">void configurationEnded()</text>
<text xml:space="preserve" text-anchor="start" x="277.88" y="-93.25" font-family="Helvetica,sans-Serif" font-size="10.00">+</text>
<text xml:space="preserve" text-anchor="start" x="287.88" y="-93.25" font-family="Helvetica,sans-Serif" font-size="10.00">void start()</text>
<text xml:space="preserve" text-anchor="start" x="277.88" y="-78" font-family="Helvetica,sans-Serif" font-size="10.00">+</text>
<text xml:space="preserve" text-anchor="start" x="287.88" y="-78" font-family="Helvetica,sans-Serif" font-size="10.00">void suspend()</text>
<text xml:space="preserve" text-anchor="start" x="277.88" y="-62.75" font-family="Helvetica,sans-Serif" font-size="10.00">+</text>
<text xml:space="preserve" text-anchor="start" x="287.88" y="-62.75" font-family="Helvetica,sans-Serif" font-size="10.00">void resume()</text>
<text xml:space="preserve" text-anchor="start" x="277.88" y="-47.5" font-family="Helvetica,sans-Serif" font-size="10.00">+</text>
<text xml:space="preserve" text-anchor="start" x="287.88" y="-47.5" font-family="Helvetica,sans-Serif" font-size="10.00">void exit()</text>
<text xml:space="preserve" text-anchor="start" x="277.88" y="-32.25" font-family="Helvetica,sans-Serif" font-size="10.00">+</text>
<text xml:space="preserve" text-anchor="start" x="287.88" y="-32.25" font-family="Helvetica,sans-Serif" font-size="10.00">void stop()</text>
<text xml:space="preserve" text-anchor="start" x="277.88" y="-17" font-family="Helvetica,sans-Serif" font-size="10.00">+</text>
<text xml:space="preserve" text-anchor="start" x="287.88" y="-17" font-family="Helvetica,sans-Serif" font-size="10.00">std::string getStateName</text>
<text xml:space="preserve" text-anchor="start" x="287.88" y="-5.75" font-family="Helvetica,sans-Serif" font-size="10.00">() const</text>
<polygon fill="#666666" stroke="#666666" points="273.88,-306.25 273.88,-306.25 420.12,-306.25 420.12,-306.25 273.88,-306.25"/>
<polygon fill="#666666" stroke="#666666" points="273.88,-291 273.88,-291 420.12,-291 420.12,-291 273.88,-291"/>
<polygon fill="none" stroke="#666666" points="273.88,0 273.88,-323.5 420.12,-323.5 420.12,0 273.88,0"/>
</a>
</g>
</g>
<!-- Node2&#45;&gt;Node3 -->
<g id="edge3_Node000003_Node000002" class="edge">
<title>Node2&#45;&gt;Node3</title>
<g id="a_edge3_Node000003_Node000002"><a xlink:title=" ">
<path fill="none" stroke="#63b8ff" d="M231.74,-376.94C233.92,-364.62 237.44,-352.62 242.75,-341.5 248.23,-330.02 256.99,-333.38 265,-323.5 265.38,-323.03 265.76,-322.55 266.14,-322.08"/>
<polygon fill="none" stroke="#63b8ff" points="266.14,-322.08 266.6,-314.88 273.42,-312.53 272.96,-319.73 266.14,-322.08"/>
</a>
</g>
<text xml:space="preserve" text-anchor="start" x="245.75" y="-346.25" font-family="Helvetica,sans-Serif" font-size="10.00" fill="grey">&#45;currentState</text>
</g>
<!-- Node3&#45;&gt;Node2 -->
<g id="edge2_Node000002_Node000003" class="edge">
<title>Node3&#45;&gt;Node2</title>
<g id="a_edge2_Node000002_Node000003"><a xlink:title=" ">
<path fill="none" stroke="#63b8ff" d="M318.51,-323.28C315.56,-335.35 312.39,-347.28 309,-358.75 308.42,-360.72 307.82,-362.71 307.2,-364.7"/>
<polygon fill="none" stroke="#63b8ff" points="307.19,-364.72 309.17,-371.66 303.53,-376.15 301.55,-369.22 307.19,-364.72"/>
</a>
</g>
<text xml:space="preserve" text-anchor="start" x="316.4" y="-346.25" font-family="Helvetica,sans-Serif" font-size="10.00" fill="grey">#context</text>
</g>
<!-- Node4 -->
<g id="Node000004" class="node">
<title>Node4</title>
<g id="a_Node000004"><a xlink:href="class_real_time_loop.html" target="_top" xlink:title=" ">
<polygon fill="white" stroke="none" points="556.12,-574.62 421.88,-574.62 421.88,-456.62 556.12,-456.62 556.12,-574.62"/>
<text xml:space="preserve" text-anchor="start" x="457.5" y="-561.12" font-family="Helvetica,sans-Serif" font-size="10.00">RealTimeLoop</text>
<text xml:space="preserve" text-anchor="start" x="487.5" y="-545.88" font-family="Helvetica,sans-Serif" font-size="10.00"> </text>
<text xml:space="preserve" text-anchor="start" x="425.88" y="-530.62" font-family="Helvetica,sans-Serif" font-size="10.00">+</text>
<text xml:space="preserve" text-anchor="start" x="435.88" y="-530.62" font-family="Helvetica,sans-Serif" font-size="10.00">RealTimeLoop()</text>
<text xml:space="preserve" text-anchor="start" x="425.88" y="-515.38" font-family="Helvetica,sans-Serif" font-size="10.00">+</text>
<text xml:space="preserve" text-anchor="start" x="435.88" y="-515.38" font-family="Helvetica,sans-Serif" font-size="10.00">void changeMode(int</text>
<text xml:space="preserve" text-anchor="start" x="435.88" y="-504.12" font-family="Helvetica,sans-Serif" font-size="10.00"> modeNumber)</text>
<text xml:space="preserve" text-anchor="start" x="425.88" y="-488.88" font-family="Helvetica,sans-Serif" font-size="10.00">+</text>
<text xml:space="preserve" text-anchor="start" x="435.88" y="-488.88" font-family="Helvetica,sans-Serif" font-size="10.00">void eventX()</text>
<text xml:space="preserve" text-anchor="start" x="425.88" y="-473.62" font-family="Helvetica,sans-Serif" font-size="10.00">+</text>
<text xml:space="preserve" text-anchor="start" x="435.88" y="-473.62" font-family="Helvetica,sans-Serif" font-size="10.00">std::string getCurrentMode</text>
<text xml:space="preserve" text-anchor="start" x="435.88" y="-462.38" font-family="Helvetica,sans-Serif" font-size="10.00">() const</text>
<polygon fill="#666666" stroke="#666666" points="421.88,-557.38 421.88,-557.38 556.12,-557.38 556.12,-557.38 421.88,-557.38"/>
<polygon fill="#666666" stroke="#666666" points="421.88,-542.12 421.88,-542.12 556.12,-542.12 556.12,-542.12 421.88,-542.12"/>
<polygon fill="none" stroke="#666666" points="421.88,-456.62 421.88,-574.62 556.12,-574.62 556.12,-456.62 421.88,-456.62"/>
</a>
</g>
</g>
<!-- Node4&#45;&gt;Node3 -->
<g id="edge4_Node000003_Node000004" class="edge">
<title>Node4&#45;&gt;Node3</title>
<g id="a_edge4_Node000003_Node000004"><a xlink:title=" ">
<path fill="none" stroke="#63b8ff" d="M458.94,-456.93C444.34,-427.87 427.07,-391.86 413.5,-358.75 410.38,-351.13 407.28,-343.31 404.23,-335.38"/>
<polygon fill="none" stroke="#63b8ff" points="404.21,-335.33 398.35,-331.14 399.96,-324.11 405.83,-328.3 404.21,-335.33"/>
</a>
</g>
<text xml:space="preserve" text-anchor="start" x="416.5" y="-346.25" font-family="Helvetica,sans-Serif" font-size="10.00" fill="grey">&#45;realTimeLoop</text>
</g>
<!-- Node5 -->
<g id="Node000005" class="node">
<title>Node5</title>
<g id="a_Node000005"><a xlink:href="class_real_time_loop_state.html" target="_top" xlink:title=" ">
<polygon fill="white" stroke="none" points="609.75,-213.12 470.25,-213.12 470.25,-110.38 609.75,-110.38 609.75,-213.12"/>
<text xml:space="preserve" text-anchor="start" x="496.88" y="-199.62" font-family="Helvetica,sans-Serif" font-size="10.00">RealTimeLoopState</text>
<text xml:space="preserve" text-anchor="start" x="538.5" y="-184.38" font-family="Helvetica,sans-Serif" font-size="10.00"> </text>
<text xml:space="preserve" text-anchor="start" x="474.25" y="-169.12" font-family="Helvetica,sans-Serif" font-size="10.00">+</text>
<text xml:space="preserve" text-anchor="start" x="484.25" y="-169.12" font-family="Helvetica,sans-Serif" font-size="10.00">RealTimeLoopState</text>
<text xml:space="preserve" text-anchor="start" x="484.25" y="-157.88" font-family="Helvetica,sans-Serif" font-size="10.00">(RealTimeLoop *ctx)</text>
<text xml:space="preserve" text-anchor="start" x="474.25" y="-142.62" font-family="Helvetica,sans-Serif" font-size="10.00">+</text>
<text xml:space="preserve" text-anchor="start" x="484.25" y="-142.62" font-family="Helvetica,sans-Serif" font-size="10.00">virtual ~RealTimeLoopState</text>
<text xml:space="preserve" text-anchor="start" x="484.25" y="-131.38" font-family="Helvetica,sans-Serif" font-size="10.00">()=default</text>
<text xml:space="preserve" text-anchor="start" x="474.25" y="-116.12" font-family="Helvetica,sans-Serif" font-size="10.00">+</text>
<text xml:space="preserve" text-anchor="start" x="484.25" y="-116.12" font-family="Helvetica,sans-Serif" font-size="10.00">virtual void eventX()=0</text>
<polygon fill="#666666" stroke="#666666" points="470.25,-195.88 470.25,-195.88 609.75,-195.88 609.75,-195.88 470.25,-195.88"/>
<polygon fill="#666666" stroke="#666666" points="470.25,-180.62 470.25,-180.62 609.75,-180.62 609.75,-180.62 470.25,-180.62"/>
<polygon fill="none" stroke="#666666" points="470.25,-110.38 470.25,-213.12 609.75,-213.12 609.75,-110.38 470.25,-110.38"/>
</a>
</g>
</g>
<!-- Node4&#45;&gt;Node5 -->
<g id="edge6_Node000005_Node000004" class="edge">
<title>Node4&#45;&gt;Node5</title>
<g id="a_edge6_Node000005_Node000004"><a xlink:title=" ">
<path fill="none" stroke="#63b8ff" d="M483.59,-457.01C481.55,-423.19 480.9,-379.72 486.5,-341.5 492.29,-301.96 504.92,-259.03 516.46,-225.15"/>
<polygon fill="none" stroke="#63b8ff" points="516.41,-225.28 514.6,-218.3 520.35,-213.95 522.16,-220.93 516.41,-225.28"/>
</a>
</g>
<text xml:space="preserve" text-anchor="start" x="489.5" y="-346.25" font-family="Helvetica,sans-Serif" font-size="10.00" fill="grey">#context</text>
</g>
<!-- Node5&#45;&gt;Node4 -->
<g id="edge5_Node000004_Node000005" class="edge">
<title>Node5&#45;&gt;Node4</title>
<g id="a_edge5_Node000004_Node000005"><a xlink:title=" ">
<path fill="none" stroke="#63b8ff" d="M541.9,-213.02C542.58,-252.8 541.71,-309.65 534,-358.75 529.51,-387.34 521.38,-418.08 513.25,-444.65"/>
<polygon fill="none" stroke="#63b8ff" points="513.26,-444.62 515.28,-451.54 509.67,-456.07 507.65,-449.15 513.26,-444.62"/>
</a>
</g>
<text xml:space="preserve" text-anchor="start" x="539.21" y="-346.25" font-family="Helvetica,sans-Serif" font-size="10.00" fill="grey">&#45;currentMode</text>
</g>
</g>
</svg>
