<?xml version="1.0" encoding="UTF-8" standalone="no"?>
<!DOCTYPE svg PUBLIC "-//W3C//DTD SVG 1.1//EN"
 "http://www.w3.org/Graphics/SVG/1.1/DTD/svg11.dtd">
<!-- Generated by graphviz version 14.0.4 (20251115.1723)
 -->
<!-- Title: RealTimeLoopState Pages: 1 -->
<!--zoomable 261 -->

<svg id="main" version="1.1" xmlns="http://www.w3.org/2000/svg" xmlns:xlink="http://www.w3.org/1999/xlink" xml:space="preserve" onload="init(evt)">

<style type="text/css"><![CDATA[
.node, .edge {opacity: 0.7;}
.node.selected, .edge.selected {opacity: 1;}
.edge:hover path { stroke: red; }
.edge:hover polygon { stroke: red; fill: red; }
]]></style>

<defs>
  <circle id="rim" cx="0" cy="0" r="7"/>
  <circle id="rim2" cx="0" cy="0" r="3.5"/>
  <g id="zoomPlus">
    <use xlink:href="#rim" fill="#404040"><set attributeName="fill" to="#808080" begin="zoomplus.mouseover" end="zoomplus.mouseout"/></use>
    <path d="M-4,0h8M0,-4v8" fill="none" stroke="white" stroke-width="1.5" pointer-events="none"/>
  </g>
  <g id="zoomMin">
    <use xlink:href="#rim" fill="#404040"><set attributeName="fill" to="#808080" begin="zoomminus.mouseover" end="zoomminus.mouseout"/></use>
    <path d="M-4,0h8" fill="none" stroke="white" stroke-width="1.5" pointer-events="none"/>
  </g>
  <g id="arrowUp" transform="translate(30 24)">
    <use xlink:href="#rim"/>
    <path pointer-events="none" fill="none" stroke="white" stroke-width="1.5" d="M0,-3.0v7 M-2.5,-0.5L0,-3.0L2.5,-0.5"/>
  </g>
  <g id="arrowRight" transform="rotate(90) translate(36 -43)">
    <use xlink:href="#rim"/>
    <path pointer-events="none" fill="none" stroke="white" stroke-width="1.5" d="M0,-3.0v7 M-2.5,-0.5L0,-3.0L2.5,-0.5"/>
  </g>
  <g id="arrowDown" transform="rotate(180) translate(-30 -48)">
    <use xlink:href="#rim"/>
    <path pointer-events="none" fill="none" stroke="white" stroke-width="1.5" d="M0,-3.0v7 M-2.5,-0.5L0,-3.0L2.5,-0.5"/>
  </g>
  <g id="arrowLeft" transform="rotate(270) translate(-36 17)">
    <use xlink:href="#rim"/>
    <path pointer-events="none" fill="none" stroke="white" stroke-width="1.5" d="M0,-3.0v7 M-2.5,-0.5L0,-3.0L2.5,-0.5"/>
  </g>
  <g id="resetDef">
    <use xlink:href="#rim2" fill="#404040"><set attributeName="fill" to="#808080" begin="reset.mouseover" end="reset.mouseout"/></use>
  </g>
</defs>
<script type="application/ecmascript">
var viewWidth = 527;
var viewHeight = 261;
var sectionId = 'dynsection-0';
</script>
<script type="application/ecmascript" xlink:href="svg.min.js"/>
<svg id="graph" class="graph">
<g id="viewport">
<title>RealTimeLoopState</title>
<!-- Node1 -->
<g id="Node000001" class="node">
<title>Node1</title>
<g id="a_Node000001"><a xlink:title=" ">
<polygon fill="#999999" stroke="none" points="329.38,-252.75 189.88,-252.75 189.88,-150 329.38,-150 329.38,-252.75"/>
<text xml:space="preserve" text-anchor="start" x="216.5" y="-239.25" font-family="Helvetica,sans-Serif" font-size="10.00">RealTimeLoopState</text>
<text xml:space="preserve" text-anchor="start" x="194.25" y="-224" font-family="Helvetica,sans-Serif" font-size="10.00">#</text>
<text xml:space="preserve" text-anchor="start" x="203.88" y="-224" font-family="Helvetica,sans-Serif" font-size="10.00">RealTimeLoop * context</text>
<text xml:space="preserve" text-anchor="start" x="193.88" y="-208.75" font-family="Helvetica,sans-Serif" font-size="10.00">+</text>
<text xml:space="preserve" text-anchor="start" x="203.88" y="-208.75" font-family="Helvetica,sans-Serif" font-size="10.00">RealTimeLoopState</text>
<text xml:space="preserve" text-anchor="start" x="203.88" y="-197.5" font-family="Helvetica,sans-Serif" font-size="10.00">(RealTimeLoop *ctx)</text>
<text xml:space="preserve" text-anchor="start" x="193.88" y="-182.25" font-family="Helvetica,sans-Serif" font-size="10.00">+</text>
<text xml:space="preserve" text-anchor="start" x="203.88" y="-182.25" font-family="Helvetica,sans-Serif" font-size="10.00">virtual ~RealTimeLoopState</text>
<text xml:space="preserve" text-anchor="start" x="203.88" y="-171" font-family="Helvetica,sans-Serif" font-size="10.00">()=default</text>
<text xml:space="preserve" text-anchor="start" x="193.88" y="-155.75" font-family="Helvetica,sans-Serif" font-size="10.00">+</text>
<text xml:space="preserve" text-anchor="start" x="203.88" y="-155.75" font-family="Helvetica,sans-Serif" font-size="10.00">virtual void eventX()=0</text>
<polygon fill="#666666" stroke="#666666" points="189.88,-235.5 189.88,-235.5 329.38,-235.5 329.38,-235.5 189.88,-235.5"/>
<polygon fill="#666666" stroke="#666666" points="189.88,-220.25 189.88,-220.25 201.88,-220.25 201.88,-220.25 189.88,-220.25"/>
<polygon fill="#666666" stroke="#666666" points="201.88,-220.25 201.88,-220.25 329.38,-220.25 329.38,-220.25 201.88,-220.25"/>
<polygon fill="none" stroke="#666666" points="189.88,-150 189.88,-252.75 329.38,-252.75 329.38,-150 189.88,-150"/>
</a>
</g>
</g>
<!-- Node2 -->
<g id="Node000002" class="node">
<title>Node2</title>
<g id="a_Node000002"><a xlink:href="class_mode1_state.html" target="_top" xlink:title=" ">
<polygon fill="white" stroke="none" points="161.25,-114 0,-114 0,0 161.25,0 161.25,-114"/>
<text xml:space="preserve" text-anchor="start" x="54.38" y="-100.5" font-family="Helvetica,sans-Serif" font-size="10.00">Mode1State</text>
<text xml:space="preserve" text-anchor="start" x="5.5" y="-85.25" font-family="Helvetica,sans-Serif" font-size="10.00">&#45;</text>
<text xml:space="preserve" text-anchor="start" x="14" y="-85.25" font-family="Helvetica,sans-Serif" font-size="10.00">static Mode1State *</text>
<text xml:space="preserve" text-anchor="start" x="14" y="-74" font-family="Helvetica,sans-Serif" font-size="10.00"> instance</text>
<text xml:space="preserve" text-anchor="start" x="4" y="-58.75" font-family="Helvetica,sans-Serif" font-size="10.00">+</text>
<text xml:space="preserve" text-anchor="start" x="14" y="-58.75" font-family="Helvetica,sans-Serif" font-size="10.00">void eventX() override</text>
<text xml:space="preserve" text-anchor="start" x="4" y="-43.5" font-family="Helvetica,sans-Serif" font-size="10.00">+</text>
<text xml:space="preserve" text-anchor="start" x="14" y="-43.5" font-family="Helvetica,sans-Serif" font-size="10.00">static Mode1State *</text>
<text xml:space="preserve" text-anchor="start" x="14" y="-32.25" font-family="Helvetica,sans-Serif" font-size="10.00"> getInstance(RealTimeLoop *ctx)</text>
<text xml:space="preserve" text-anchor="start" x="5.5" y="-17" font-family="Helvetica,sans-Serif" font-size="10.00">&#45;</text>
<text xml:space="preserve" text-anchor="start" x="14" y="-17" font-family="Helvetica,sans-Serif" font-size="10.00">Mode1State(RealTimeLoop</text>
<text xml:space="preserve" text-anchor="start" x="14" y="-5.75" font-family="Helvetica,sans-Serif" font-size="10.00"> *ctx)</text>
<polygon fill="#666666" stroke="#666666" points="0,-96.75 0,-96.75 161.25,-96.75 161.25,-96.75 0,-96.75"/>
<polygon fill="#666666" stroke="#666666" points="0,-70.25 0,-70.25 12,-70.25 12,-70.25 0,-70.25"/>
<polygon fill="#666666" stroke="#666666" points="12,-70.25 12,-70.25 161.25,-70.25 161.25,-70.25 12,-70.25"/>
<polygon fill="none" stroke="#666666" points="0,0 0,-114 161.25,-114 161.25,0 0,0"/>
</a>
</g>
</g>
<!-- Node1&#45;&gt;Node2 -->
<g id="edge1_Node000001_Node000002" class="edge">
<title>Node1&#45;&gt;Node2</title>
<g id="a_edge1_Node000001_Node000002"><a xlink:title=" ">
<path fill="none" stroke="#63b8ff" d="M187.74,-143.2C175.56,-133.51 162.92,-123.46 150.78,-113.8"/>
<polygon fill="none" stroke="#63b8ff" points="185.33,-145.75 195.33,-149.24 189.68,-140.27 185.33,-145.75"/>
</a>
</g>
</g>
<!-- Node3 -->
<g id="Node000003" class="node">
<title>Node3</title>
<g id="a_Node000003"><a xlink:href="class_mode2_state.html" target="_top" xlink:title=" ">
<polygon fill="white" stroke="none" points="340.25,-114 179,-114 179,0 340.25,0 340.25,-114"/>
<text xml:space="preserve" text-anchor="start" x="233.38" y="-100.5" font-family="Helvetica,sans-Serif" font-size="10.00">Mode2State</text>
<text xml:space="preserve" text-anchor="start" x="184.5" y="-85.25" font-family="Helvetica,sans-Serif" font-size="10.00">&#45;</text>
<text xml:space="preserve" text-anchor="start" x="193" y="-85.25" font-family="Helvetica,sans-Serif" font-size="10.00">static Mode2State *</text>
<text xml:space="preserve" text-anchor="start" x="193" y="-74" font-family="Helvetica,sans-Serif" font-size="10.00"> instance</text>
<text xml:space="preserve" text-anchor="start" x="183" y="-58.75" font-family="Helvetica,sans-Serif" font-size="10.00">+</text>
<text xml:space="preserve" text-anchor="start" x="193" y="-58.75" font-family="Helvetica,sans-Serif" font-size="10.00">void eventX() override</text>
<text xml:space="preserve" text-anchor="start" x="183" y="-43.5" font-family="Helvetica,sans-Serif" font-size="10.00">+</text>
<text xml:space="preserve" text-anchor="start" x="193" y="-43.5" font-family="Helvetica,sans-Serif" font-size="10.00">static Mode2State *</text>
<text xml:space="preserve" text-anchor="start" x="193" y="-32.25" font-family="Helvetica,sans-Serif" font-size="10.00"> getInstance(RealTimeLoop *ctx)</text>
<text xml:space="preserve" text-anchor="start" x="184.5" y="-17" font-family="Helvetica,sans-Serif" font-size="10.00">&#45;</text>
<text xml:space="preserve" text-anchor="start" x="193" y="-17" font-family="Helvetica,sans-Serif" font-size="10.00">Mode2State(RealTimeLoop</text>
<text xml:space="preserve" text-anchor="start" x="193" y="-5.75" font-family="Helvetica,sans-Serif" font-size="10.00"> *ctx)</text>
<polygon fill="#666666" stroke="#666666" points="179,-96.75 179,-96.75 340.25,-96.75 340.25,-96.75 179,-96.75"/>
<polygon fill="#666666" stroke="#666666" points="179,-70.25 179,-70.25 191,-70.25 191,-70.25 179,-70.25"/>
<polygon fill="#666666" stroke="#666666" points="191,-70.25 191,-70.25 340.25,-70.25 340.25,-70.25 191,-70.25"/>
<polygon fill="none" stroke="#666666" points="179,0 179,-114 340.25,-114 340.25,0 179,0"/>
</a>
</g>
</g>
<!-- Node1&#45;&gt;Node3 -->
<g id="edge2_Node000001_Node000003" class="edge">
<title>Node1&#45;&gt;Node3</title>
<g id="a_edge2_Node000001_Node000003"><a xlink:title=" ">
<path fill="none" stroke="#63b8ff" d="M259.62,-138.87C259.62,-130.45 259.62,-121.86 259.62,-113.56"/>
<polygon fill="none" stroke="#63b8ff" points="256.13,-138.67 259.63,-148.67 263.13,-138.67 256.13,-138.67"/>
</a>
</g>
</g>
<!-- Node4 -->
<g id="Node000004" class="node">
<title>Node4</title>
<g id="a_Node000004"><a xlink:href="class_mode3_state.html" target="_top" xlink:title=" ">
<polygon fill="white" stroke="none" points="519.25,-114 358,-114 358,0 519.25,0 519.25,-114"/>
<text xml:space="preserve" text-anchor="start" x="412.38" y="-100.5" font-family="Helvetica,sans-Serif" font-size="10.00">Mode3State</text>
<text xml:space="preserve" text-anchor="start" x="363.5" y="-85.25" font-family="Helvetica,sans-Serif" font-size="10.00">&#45;</text>
<text xml:space="preserve" text-anchor="start" x="372" y="-85.25" font-family="Helvetica,sans-Serif" font-size="10.00">static Mode3State *</text>
<text xml:space="preserve" text-anchor="start" x="372" y="-74" font-family="Helvetica,sans-Serif" font-size="10.00"> instance</text>
<text xml:space="preserve" text-anchor="start" x="362" y="-58.75" font-family="Helvetica,sans-Serif" font-size="10.00">+</text>
<text xml:space="preserve" text-anchor="start" x="372" y="-58.75" font-family="Helvetica,sans-Serif" font-size="10.00">void eventX() override</text>
<text xml:space="preserve" text-anchor="start" x="362" y="-43.5" font-family="Helvetica,sans-Serif" font-size="10.00">+</text>
<text xml:space="preserve" text-anchor="start" x="372" y="-43.5" font-family="Helvetica,sans-Serif" font-size="10.00">static Mode3State *</text>
<text xml:space="preserve" text-anchor="start" x="372" y="-32.25" font-family="Helvetica,sans-Serif" font-size="10.00"> getInstance(RealTimeLoop *ctx)</text>
<text xml:space="preserve" text-anchor="start" x="363.5" y="-17" font-family="Helvetica,sans-Serif" font-size="10.00">&#45;</text>
<text xml:space="preserve" text-anchor="start" x="372" y="-17" font-family="Helvetica,sans-Serif" font-size="10.00">Mode3State(RealTimeLoop</text>
<text xml:space="preserve" text-anchor="start" x="372" y="-5.75" font-family="Helvetica,sans-Serif" font-size="10.00"> *ctx)</text>
<polygon fill="#666666" stroke="#666666" points="358,-96.75 358,-96.75 519.25,-96.75 519.25,-96.75 358,-96.75"/>
<polygon fill="#666666" stroke="#666666" points="358,-70.25 358,-70.25 370,-70.25 370,-70.25 358,-70.25"/>
<polygon fill="#666666" stroke="#666666" points="370,-70.25 370,-70.25 519.25,-70.25 519.25,-70.25 370,-70.25"/>
<polygon fill="none" stroke="#666666" points="358,0 358,-114 519.25,-114 519.25,0 358,0"/>
</a>
</g>
</g>
<!-- Node1&#45;&gt;Node4 -->
<g id="edge3_Node000001_Node000004" class="edge">
<title>Node1&#45;&gt;Node4</title>
<g id="a_edge3_Node000001_Node000004"><a xlink:title=" ">
<path fill="none" stroke="#63b8ff" d="M331.51,-143.2C343.69,-133.51 356.33,-123.46 368.47,-113.8"/>
<polygon fill="none" stroke="#63b8ff" points="329.57,-140.27 323.92,-149.24 333.92,-145.75 329.57,-140.27"/>
</a>
</g>
</g>
</g>
</svg>

<g id="navigator" transform="translate(0 0)" fill="#404254">
  <rect fill="#f2f5e9" fill-opacity="0.5" stroke="#606060" stroke-width=".5" x="0" y="0" width="60" height="60"/>
  <use id="zoomplus" xlink:href="#zoomPlus" x="17" y="9" onmousedown="handleZoom(evt,'in')"/>
  <use id="zoomminus" xlink:href="#zoomMin" x="42" y="9" onmousedown="handleZoom(evt,'out')"/>
  <use id="reset" xlink:href="#resetDef" x="30" y="36" onmousedown="handleReset()"/>
   <use id="arrowup" xlink:href="#arrowUp" x="0" y="0" onmousedown="handlePan(0,-1)"/>
  <use id="arrowright" xlink:href="#arrowRight" x="0" y="0" onmousedown="handlePan(1,0)"/>
  <use id="arrowdown" xlink:href="#arrowDown" x="0" y="0" onmousedown="handlePan(0,1)"/>
  <use id="arrowleft" xlink:href="#arrowLeft" x="0" y="0" onmousedown="handlePan(-1,0)"/>
</g>
<svg viewBox="0 0 15 15" width="100%" height="30px" preserveAspectRatio="xMaxYMin meet">
 <g id="arrow_out" transform="scale(0.3 0.3)">
  <a xlink:href="class_real_time_loop_state__inherit__graph_org.svg" target="_base">
   <rect id="button" ry="5" rx="5" y="6" x="6" height="38" width="38"
        fill="#f2f5e9" fill-opacity="0.5" stroke="#606060" stroke-width="1.0"/>
   <path id="arrow"
     d="M 11.500037,31.436501 C 11.940474,20.09759 22.043105,11.32322 32.158766,21.979434 L 37.068811,17.246167 C 37.068811,17.246167 37.088388,32 37.088388,32 L 22.160133,31.978069 C 22.160133,31.978069 26.997745,27.140456 26.997745,27.140456 C 18.528582,18.264221 13.291696,25.230495 11.500037,31.436501 z"
     style="fill:#404040;"/>
  </a>
 </g>
</svg>

<style type='text/css'>
<![CDATA[
[data-mouse-over-selected='false'] { opacity: 0.7; }
[data-mouse-over-selected='true']  { opacity: 1.0; }
]]>
</style>
<script type="application/ecmascript"><![CDATA[
document.addEventListener('DOMContentLoaded', (event) => {
  highlightEdges();
  highlightAdjacentNodes();
});
]]></script>
</svg>
