<?xml version="1.0" encoding="UTF-8" standalone="no"?>
<!DOCTYPE svg PUBLIC "-//W3C//DTD SVG 1.1//EN"
 "http://www.w3.org/Graphics/SVG/1.1/DTD/svg11.dtd">
<!-- Generated by graphviz version 14.0.4 (20251115.1723)
 -->
<!-- Title: InitializingState::initialized Pages: 1 -->
<svg width="587pt" height="39pt"
 viewBox="0.00 0.00 587.00 39.00" xmlns="http://www.w3.org/2000/svg" xmlns:xlink="http://www.w3.org/1999/xlink">
<g id="graph0" class="graph" transform="scale(1 1) rotate(0) translate(4 34.5)">
<title>InitializingState::initialized</title>
<!-- Node1 -->
<g id="Node000001" class="node">
<title>Node1</title>
<g id="a_Node000001"><a xlink:title=" ">
<polygon fill="#999999" stroke="#666666" points="88.75,-30.5 0,-30.5 0,0 88.75,0 88.75,-30.5"/>
<text xml:space="preserve" text-anchor="start" x="8" y="-17" font-family="Helvetica,sans-Serif" font-size="10.00">InitializingState::</text>
<text xml:space="preserve" text-anchor="middle" x="44.38" y="-5.75" font-family="Helvetica,sans-Serif" font-size="10.00">initialized</text>
</a>
</g>
</g>
<!-- Node2 -->
<g id="Node000002" class="node">
<title>Node2</title>
<g id="a_Node000002"><a xlink:href="class_ready_state.html#a078711a8e92dab314ef4fd17e67a2a95" target="_top" xlink:title=" ">
<polygon fill="white" stroke="#666666" points="249.5,-24.88 124.75,-24.88 124.75,-5.63 249.5,-5.63 249.5,-24.88"/>
<text xml:space="preserve" text-anchor="middle" x="187.12" y="-11.38" font-family="Helvetica,sans-Serif" font-size="10.00">ReadyState::getInstance</text>
</a>
</g>
</g>
<!-- Node1&#45;&gt;Node2 -->
<g id="edge1_Node000001_Node000002" class="edge">
<title>Node1&#45;&gt;Node2</title>
<g id="a_edge1_Node000001_Node000002"><a xlink:title=" ">
<path fill="none" stroke="#63b8ff" d="M89.14,-15.25C96.71,-15.25 104.76,-15.25 112.86,-15.25"/>
<polygon fill="#63b8ff" stroke="#63b8ff" points="112.79,-18.75 122.79,-15.25 112.79,-11.75 112.79,-18.75"/>
</a>
</g>
</g>
<!-- Node3 -->
<g id="Node000003" class="node">
<title>Node3</title>
<g id="a_Node000003"><a xlink:href="class_ready_state.html#a497319f3099ba7ab061bfae0658da9bd" target="_top" xlink:title=" ">
<polygon fill="white" stroke="#666666" points="411,-24.88 285.5,-24.88 285.5,-5.63 411,-5.63 411,-24.88"/>
<text xml:space="preserve" text-anchor="middle" x="348.25" y="-11.38" font-family="Helvetica,sans-Serif" font-size="10.00">ReadyState::ReadyState</text>
</a>
</g>
</g>
<!-- Node2&#45;&gt;Node3 -->
<g id="edge2_Node000002_Node000003" class="edge">
<title>Node2&#45;&gt;Node3</title>
<g id="a_edge2_Node000002_Node000003"><a xlink:title=" ">
<path fill="none" stroke="#63b8ff" d="M249.65,-15.25C257.55,-15.25 265.71,-15.25 273.78,-15.25"/>
<polygon fill="#63b8ff" stroke="#63b8ff" points="273.59,-18.75 283.59,-15.25 273.59,-11.75 273.59,-18.75"/>
</a>
</g>
</g>
<!-- Node4 -->
<g id="Node000004" class="node">
<title>Node4</title>
<g id="a_Node000004"><a xlink:href="class_embedded_system_x_state.html#a5630d67a88100d0e67c1578a7ee43e91" target="_top" xlink:title=" ">
<polygon fill="white" stroke="#666666" points="579.25,-30.5 447,-30.5 447,0 579.25,0 579.25,-30.5"/>
<text xml:space="preserve" text-anchor="start" x="455" y="-17" font-family="Helvetica,sans-Serif" font-size="10.00">EmbeddedSystemXState</text>
<text xml:space="preserve" text-anchor="middle" x="513.12" y="-5.75" font-family="Helvetica,sans-Serif" font-size="10.00">::EmbeddedSystemXState</text>
</a>
</g>
</g>
<!-- Node3&#45;&gt;Node4 -->
<g id="edge3_Node000003_Node000004" class="edge">
<title>Node3&#45;&gt;Node4</title>
<g id="a_edge3_Node000003_Node000004"><a xlink:title=" ">
<path fill="none" stroke="#63b8ff" d="M411.29,-15.25C419.17,-15.25 427.31,-15.25 435.39,-15.25"/>
<polygon fill="#63b8ff" stroke="#63b8ff" points="435.22,-18.75 445.22,-15.25 435.22,-11.75 435.22,-18.75"/>
</a>
</g>
</g>
</g>
</svg>
