<?xml version="1.0" encoding="UTF-8" standalone="no"?>
<!DOCTYPE svg PUBLIC "-//W3C//DTD SVG 1.1//EN"
 "http://www.w3.org/Graphics/SVG/1.1/DTD/svg11.dtd">
<!-- Generated by graphviz version 14.0.4 (20251115.1723)
 -->
<!-- Title: Machine::set_current_state Pages: 1 -->
<svg width="256pt" height="88pt"
 viewBox="0.00 0.00 256.00 88.00" xmlns="http://www.w3.org/2000/svg" xmlns:xlink="http://www.w3.org/1999/xlink">
<g id="graph0" class="graph" transform="scale(1 1) rotate(0) translate(4 83.5)">
<title>Machine::set_current_state</title>
<!-- Node1 -->
<g id="Node000001" class="node">
<title>Node1</title>
<g id="a_Node000001"><a xlink:title=" ">
<polygon fill="#999999" stroke="#666666" points="248,-54.5 140.5,-54.5 140.5,-24 248,-24 248,-54.5"/>
<text xml:space="preserve" text-anchor="start" x="148.5" y="-41" font-family="Helvetica,sans-Serif" font-size="10.00">Machine::set_current</text>
<text xml:space="preserve" text-anchor="middle" x="194.25" y="-29.75" font-family="Helvetica,sans-Serif" font-size="10.00">_state</text>
</a>
</g>
</g>
<!-- Node2 -->
<g id="Node000002" class="node">
<title>Node2</title>
<g id="a_Node000002"><a xlink:href="class_specific__state___o_n.html#a997a85f5703efcc08c407f47b8900329" target="_top" xlink:title=" ">
<polygon fill="white" stroke="#666666" points="104.5,-79.5 0,-79.5 0,-49 104.5,-49 104.5,-79.5"/>
<text xml:space="preserve" text-anchor="start" x="8" y="-66" font-family="Helvetica,sans-Serif" font-size="10.00">Specific_state_ON::</text>
<text xml:space="preserve" text-anchor="middle" x="52.25" y="-54.75" font-family="Helvetica,sans-Serif" font-size="10.00">OFF_upon_request</text>
</a>
</g>
</g>
<!-- Node1&#45;&gt;Node2 -->
<g id="edge1_Node000001_Node000002" class="edge">
<title>Node1&#45;&gt;Node2</title>
<g id="a_edge1_Node000001_Node000002"><a xlink:title=" ">
<path fill="none" stroke="#63b8ff" d="M129,-50.72C120.91,-52.17 112.72,-53.63 104.86,-55.03"/>
<polygon fill="#63b8ff" stroke="#63b8ff" points="129.6,-54.17 138.83,-48.97 128.37,-47.28 129.6,-54.17"/>
</a>
</g>
</g>
<!-- Node3 -->
<g id="Node000003" class="node">
<title>Node3</title>
<g id="a_Node000003"><a xlink:href="class_specific__state___o_f_f.html#a564b4ed740406b927baf2ea87a36c7dd" target="_top" xlink:title=" ">
<polygon fill="white" stroke="#666666" points="103.75,-30.5 0.75,-30.5 0.75,0 103.75,0 103.75,-30.5"/>
<text xml:space="preserve" text-anchor="start" x="8.75" y="-17" font-family="Helvetica,sans-Serif" font-size="10.00">Specific_state_OFF</text>
<text xml:space="preserve" text-anchor="middle" x="52.25" y="-5.75" font-family="Helvetica,sans-Serif" font-size="10.00">::ON_upon_request</text>
</a>
</g>
</g>
<!-- Node1&#45;&gt;Node3 -->
<g id="edge2_Node000001_Node000003" class="edge">
<title>Node1&#45;&gt;Node3</title>
<g id="a_edge2_Node000001_Node000003"><a xlink:title=" ">
<path fill="none" stroke="#63b8ff" d="M128.98,-28.23C120.58,-26.79 112.07,-25.33 103.94,-23.94"/>
<polygon fill="#63b8ff" stroke="#63b8ff" points="128.38,-31.68 138.83,-29.92 129.57,-24.78 128.38,-31.68"/>
</a>
</g>
</g>
</g>
</svg>
