<?xml version="1.0" encoding="UTF-8" standalone="no"?>
<!DOCTYPE svg PUBLIC "-//W3C//DTD SVG 1.1//EN"
 "http://www.w3.org/Graphics/SVG/1.1/DTD/svg11.dtd">
<!-- Generated by graphviz version 14.0.4 (20251115.1723)
 -->
<!-- Title: Graphical Class Hierarchy Pages: 1 -->
<svg width="297pt" height="286pt"
 viewBox="0.00 0.00 297.00 286.00" xmlns="http://www.w3.org/2000/svg" xmlns:xlink="http://www.w3.org/1999/xlink">
<g id="graph0" class="graph" transform="scale(1 1) rotate(0) translate(4 282.25)">
<title>Graphical Class Hierarchy</title>
<!-- Node0 -->
<g id="Node000000" class="node">
<title>Node0</title>
<g id="a_Node000000"><a xlink:href="class_embedded_system_x_state.html" target="_top" xlink:title=" ">
<polygon fill="white" stroke="#666666" points="126.25,-148.25 0,-148.25 0,-129 126.25,-129 126.25,-148.25"/>
<text xml:space="preserve" text-anchor="middle" x="63.12" y="-134.75" font-family="Helvetica,sans-Serif" font-size="10.00">EmbeddedSystemXState</text>
</a>
</g>
</g>
<!-- Node1 -->
<g id="Node000001" class="node">
<title>Node1</title>
<g id="a_Node000001"><a xlink:href="class_configuration_state.html" target="_top" xlink:title=" ">
<polygon fill="white" stroke="#666666" points="273.88,-278.25 176.88,-278.25 176.88,-259 273.88,-259 273.88,-278.25"/>
<text xml:space="preserve" text-anchor="middle" x="225.38" y="-264.75" font-family="Helvetica,sans-Serif" font-size="10.00">ConfigurationState</text>
</a>
</g>
</g>
<!-- Node0&#45;&gt;Node1 -->
<g id="edge1_Node000000_Node000001" class="edge">
<title>Node0&#45;&gt;Node1</title>
<g id="a_edge1_Node000000_Node000001"><a xlink:title=" ">
<path fill="none" stroke="#63b8ff" d="M76.16,-158.25C92.56,-183.35 124.27,-226.46 162.25,-250.62 167.18,-253.76 172.66,-256.36 178.28,-258.52"/>
<polygon fill="#63b8ff" stroke="#63b8ff" points="79.22,-156.54 70.91,-149.98 73.32,-160.3 79.22,-156.54"/>
</a>
</g>
</g>
<!-- Node2 -->
<g id="Node000002" class="node">
<title>Node2</title>
<g id="a_Node000002"><a xlink:href="class_failure_state.html" target="_top" xlink:title=" ">
<polygon fill="white" stroke="#666666" points="259.62,-241.25 191.12,-241.25 191.12,-222 259.62,-222 259.62,-241.25"/>
<text xml:space="preserve" text-anchor="middle" x="225.38" y="-227.75" font-family="Helvetica,sans-Serif" font-size="10.00">FailureState</text>
</a>
</g>
</g>
<!-- Node0&#45;&gt;Node2 -->
<g id="edge2_Node000000_Node000002" class="edge">
<title>Node0&#45;&gt;Node2</title>
<g id="a_edge2_Node000000_Node000002"><a xlink:title=" ">
<path fill="none" stroke="#63b8ff" d="M82.86,-156.39C101.61,-173.29 131.95,-198.34 162.25,-213.62 171.17,-218.13 181.4,-221.67 190.95,-224.39"/>
<polygon fill="#63b8ff" stroke="#63b8ff" points="85.25,-153.83 75.52,-149.63 80.51,-158.98 85.25,-153.83"/>
</a>
</g>
</g>
<!-- Node3 -->
<g id="Node000003" class="node">
<title>Node3</title>
<g id="a_Node000003"><a xlink:href="class_initializing_state.html" target="_top" xlink:title=" ">
<polygon fill="white" stroke="#666666" points="266.75,-204.25 184,-204.25 184,-185 266.75,-185 266.75,-204.25"/>
<text xml:space="preserve" text-anchor="middle" x="225.38" y="-190.75" font-family="Helvetica,sans-Serif" font-size="10.00">InitializingState</text>
</a>
</g>
</g>
<!-- Node0&#45;&gt;Node3 -->
<g id="edge3_Node000000_Node000003" class="edge">
<title>Node0&#45;&gt;Node3</title>
<g id="a_edge3_Node000000_Node000003"><a xlink:title=" ">
<path fill="none" stroke="#63b8ff" d="M98.76,-152.89C117.42,-160.36 140.94,-169.43 162.25,-176.62 170.44,-179.39 179.33,-182.12 187.75,-184.59"/>
<polygon fill="#63b8ff" stroke="#63b8ff" points="100.09,-149.65 89.51,-149.15 97.47,-156.14 100.09,-149.65"/>
</a>
</g>
</g>
<!-- Node4 -->
<g id="Node000004" class="node">
<title>Node4</title>
<g id="a_Node000004"><a xlink:href="class_operational_state.html" target="_top" xlink:title=" ">
<polygon fill="white" stroke="#666666" points="269.75,-167.25 181,-167.25 181,-148 269.75,-148 269.75,-167.25"/>
<text xml:space="preserve" text-anchor="middle" x="225.38" y="-153.75" font-family="Helvetica,sans-Serif" font-size="10.00">OperationalState</text>
</a>
</g>
</g>
<!-- Node0&#45;&gt;Node4 -->
<g id="edge4_Node000000_Node000004" class="edge">
<title>Node0&#45;&gt;Node4</title>
<g id="a_edge4_Node000000_Node000004"><a xlink:title=" ">
<path fill="none" stroke="#63b8ff" d="M137.7,-147.35C152.4,-149.09 167.41,-150.87 180.71,-152.45"/>
<polygon fill="#63b8ff" stroke="#63b8ff" points="138.39,-143.91 128.04,-146.2 137.56,-150.86 138.39,-143.91"/>
</a>
</g>
</g>
<!-- Node5 -->
<g id="Node000005" class="node">
<title>Node5</title>
<g id="a_Node000005"><a xlink:href="class_power_on_self_test_state.html" target="_top" xlink:title=" ">
<polygon fill="white" stroke="#666666" points="283.25,-130.25 167.5,-130.25 167.5,-111 283.25,-111 283.25,-130.25"/>
<text xml:space="preserve" text-anchor="middle" x="225.38" y="-116.75" font-family="Helvetica,sans-Serif" font-size="10.00">PowerOnSelfTestState</text>
</a>
</g>
</g>
<!-- Node0&#45;&gt;Node5 -->
<g id="edge5_Node000000_Node000005" class="edge">
<title>Node0&#45;&gt;Node5</title>
<g id="a_edge5_Node000000_Node000005"><a xlink:title=" ">
<path fill="none" stroke="#63b8ff" d="M137.94,-130.33C147.73,-129.23 157.65,-128.12 167.1,-127.06"/>
<polygon fill="#63b8ff" stroke="#63b8ff" points="137.59,-126.85 128.04,-131.45 138.37,-133.81 137.59,-126.85"/>
</a>
</g>
</g>
<!-- Node6 -->
<g id="Node000006" class="node">
<title>Node6</title>
<g id="a_Node000006"><a xlink:href="class_ready_state.html" target="_top" xlink:title=" ">
<polygon fill="white" stroke="#666666" points="259.25,-93.25 191.5,-93.25 191.5,-74 259.25,-74 259.25,-93.25"/>
<text xml:space="preserve" text-anchor="middle" x="225.38" y="-79.75" font-family="Helvetica,sans-Serif" font-size="10.00">ReadyState</text>
</a>
</g>
</g>
<!-- Node0&#45;&gt;Node6 -->
<g id="edge6_Node000000_Node000006" class="edge">
<title>Node0&#45;&gt;Node6</title>
<g id="a_edge6_Node000000_Node000006"><a xlink:title=" ">
<path fill="none" stroke="#63b8ff" d="M99.55,-124.5C118.1,-117.3 141.27,-108.61 162.25,-101.62 171.52,-98.54 181.66,-95.47 191.02,-92.77"/>
<polygon fill="#63b8ff" stroke="#63b8ff" points="98.38,-121.2 90.35,-128.1 100.93,-127.72 98.38,-121.2"/>
</a>
</g>
</g>
<!-- Node7 -->
<g id="Node000007" class="node">
<title>Node7</title>
<g id="a_Node000007"><a xlink:href="class_real_time_loop_outer_state.html" target="_top" xlink:title=" ">
<polygon fill="white" stroke="#666666" points="288.5,-56.25 162.25,-56.25 162.25,-37 288.5,-37 288.5,-56.25"/>
<text xml:space="preserve" text-anchor="middle" x="225.38" y="-42.75" font-family="Helvetica,sans-Serif" font-size="10.00">RealTimeLoopOuterState</text>
</a>
</g>
</g>
<!-- Node0&#45;&gt;Node7 -->
<g id="edge7_Node000000_Node000007" class="edge">
<title>Node0&#45;&gt;Node7</title>
<g id="a_edge7_Node000000_Node000007"><a xlink:title=" ">
<path fill="none" stroke="#63b8ff" d="M83.21,-120.84C102.02,-104.18 132.22,-79.66 162.25,-64.62 168.38,-61.56 175.11,-58.93 181.81,-56.71"/>
<polygon fill="#63b8ff" stroke="#63b8ff" points="80.91,-118.21 75.84,-127.51 85.6,-123.4 80.91,-118.21"/>
</a>
</g>
</g>
<!-- Node8 -->
<g id="Node000008" class="node">
<title>Node8</title>
<g id="a_Node000008"><a xlink:href="class_suspended_state.html" target="_top" xlink:title=" ">
<polygon fill="white" stroke="#666666" points="269.38,-19.25 181.38,-19.25 181.38,0 269.38,0 269.38,-19.25"/>
<text xml:space="preserve" text-anchor="middle" x="225.38" y="-5.75" font-family="Helvetica,sans-Serif" font-size="10.00">SuspendedState</text>
</a>
</g>
</g>
<!-- Node0&#45;&gt;Node8 -->
<g id="edge8_Node000000_Node000008" class="edge">
<title>Node0&#45;&gt;Node8</title>
<g id="a_edge8_Node000000_Node000008"><a xlink:title=" ">
<path fill="none" stroke="#63b8ff" d="M76.2,-119.18C92.65,-94.3 124.41,-51.58 162.25,-27.62 167.94,-24.02 174.38,-21.12 180.9,-18.78"/>
<polygon fill="#63b8ff" stroke="#63b8ff" points="73.4,-117.06 70.94,-127.37 79.29,-120.85 73.4,-117.06"/>
</a>
</g>
</g>
</g>
</svg>
