<?xml version="1.0" encoding="UTF-8" standalone="no"?>
<!DOCTYPE svg PUBLIC "-//W3C//DTD SVG 1.1//EN"
 "http://www.w3.org/Graphics/SVG/1.1/DTD/svg11.dtd">
<!-- Generated by graphviz version 14.0.4 (20251115.1723)
 -->
<!-- Title: Graphical Class Hierarchy Pages: 1 -->
<svg width="215pt" height="101pt"
 viewBox="0.00 0.00 215.00 101.00" xmlns="http://www.w3.org/2000/svg" xmlns:xlink="http://www.w3.org/1999/xlink">
<g id="graph0" class="graph" transform="scale(1 1) rotate(0) translate(4 97.25)">
<title>Graphical Class Hierarchy</title>
<!-- Node0 -->
<g id="Node000000" class="node">
<title>Node0</title>
<g id="a_Node000000"><a xlink:href="class_real_time_loop_state.html" target="_top" xlink:title=" ">
<polygon fill="white" stroke="#666666" points="102.25,-56.25 0,-56.25 0,-37 102.25,-37 102.25,-56.25"/>
<text xml:space="preserve" text-anchor="middle" x="51.12" y="-42.75" font-family="Helvetica,sans-Serif" font-size="10.00">RealTimeLoopState</text>
</a>
</g>
</g>
<!-- Node1 -->
<g id="Node000001" class="node">
<title>Node1</title>
<g id="a_Node000001"><a xlink:href="class_mode1_state.html" target="_top" xlink:title=" ">
<polygon fill="white" stroke="#666666" points="206.75,-93.25 138.25,-93.25 138.25,-74 206.75,-74 206.75,-93.25"/>
<text xml:space="preserve" text-anchor="middle" x="172.5" y="-79.75" font-family="Helvetica,sans-Serif" font-size="10.00">Mode1State</text>
</a>
</g>
</g>
<!-- Node0&#45;&gt;Node1 -->
<g id="edge8_Node000000_Node000001" class="edge">
<title>Node0&#45;&gt;Node1</title>
<g id="a_edge8_Node000000_Node000001"><a xlink:title=" ">
<path fill="none" stroke="#63b8ff" d="M95.4,-60.04C109.76,-64.49 125.5,-69.37 138.92,-73.53"/>
<polygon fill="#63b8ff" stroke="#63b8ff" points="96.78,-56.8 86.19,-57.18 94.71,-63.49 96.78,-56.8"/>
</a>
</g>
</g>
<!-- Node2 -->
<g id="Node000002" class="node">
<title>Node2</title>
<g id="a_Node000002"><a xlink:href="class_mode2_state.html" target="_top" xlink:title=" ">
<polygon fill="white" stroke="#666666" points="206.75,-56.25 138.25,-56.25 138.25,-37 206.75,-37 206.75,-56.25"/>
<text xml:space="preserve" text-anchor="middle" x="172.5" y="-42.75" font-family="Helvetica,sans-Serif" font-size="10.00">Mode2State</text>
</a>
</g>
</g>
<!-- Node0&#45;&gt;Node2 -->
<g id="edge9_Node000000_Node000002" class="edge">
<title>Node0&#45;&gt;Node2</title>
<g id="a_edge9_Node000000_Node000002"><a xlink:title=" ">
<path fill="none" stroke="#63b8ff" d="M113.73,-46.62C122.05,-46.62 130.33,-46.62 137.9,-46.62"/>
<polygon fill="#63b8ff" stroke="#63b8ff" points="113.92,-43.13 103.92,-46.63 113.92,-50.13 113.92,-43.13"/>
</a>
</g>
</g>
<!-- Node3 -->
<g id="Node000003" class="node">
<title>Node3</title>
<g id="a_Node000003"><a xlink:href="class_mode3_state.html" target="_top" xlink:title=" ">
<polygon fill="white" stroke="#666666" points="206.75,-19.25 138.25,-19.25 138.25,0 206.75,0 206.75,-19.25"/>
<text xml:space="preserve" text-anchor="middle" x="172.5" y="-5.75" font-family="Helvetica,sans-Serif" font-size="10.00">Mode3State</text>
</a>
</g>
</g>
<!-- Node0&#45;&gt;Node3 -->
<g id="edge10_Node000000_Node000003" class="edge">
<title>Node0&#45;&gt;Node3</title>
<g id="a_edge10_Node000000_Node000003"><a xlink:title=" ">
<path fill="none" stroke="#63b8ff" d="M95.4,-33.21C109.76,-28.76 125.5,-23.88 138.92,-19.72"/>
<polygon fill="#63b8ff" stroke="#63b8ff" points="94.71,-29.76 86.19,-36.07 96.78,-36.45 94.71,-29.76"/>
</a>
</g>
</g>
</g>
</svg>
