<?xml version="1.0" encoding="UTF-8" standalone="no"?>
<!DOCTYPE svg PUBLIC "-//W3C//DTD SVG 1.1//EN"
 "http://www.w3.org/Graphics/SVG/1.1/DTD/svg11.dtd">
<!-- Generated by graphviz version 14.0.4 (20251115.1723)
 -->
<!-- Title: Graphical Class Hierarchy Pages: 1 -->
<svg width="286pt" height="249pt"
 viewBox="0.00 0.00 286.00 249.00" xmlns="http://www.w3.org/2000/svg" xmlns:xlink="http://www.w3.org/1999/xlink">
<g id="graph0" class="graph" transform="scale(1 1) rotate(0) translate(4 245.25)">
<title>Graphical Class Hierarchy</title>
<!-- Node0 -->
<g id="Node000000" class="node">
<title>Node0</title>
<g id="a_Node000000"><a xlink:href="class_embedded_system_x_state.html" target="_top" xlink:title=" ">
<polygon fill="white" stroke="#666666" points="126.25,-130.25 0,-130.25 0,-111 126.25,-111 126.25,-130.25"/>
<text xml:space="preserve" text-anchor="middle" x="63.12" y="-116.75" font-family="Helvetica,sans-Serif" font-size="10.00">EmbeddedSystemXState</text>
</a>
</g>
</g>
<!-- Node1 -->
<g id="Node000001" class="node">
<title>Node1</title>
<g id="a_Node000001"><a xlink:href="class_configuration_state.html" target="_top" xlink:title=" ">
<polygon fill="white" stroke="#666666" points="268.62,-241.25 171.62,-241.25 171.62,-222 268.62,-222 268.62,-241.25"/>
<text xml:space="preserve" text-anchor="middle" x="220.12" y="-227.75" font-family="Helvetica,sans-Serif" font-size="10.00">ConfigurationState</text>
</a>
</g>
</g>
<!-- Node0&#45;&gt;Node1 -->
<g id="edge1_Node000000_Node000001" class="edge">
<title>Node0&#45;&gt;Node1</title>
<g id="a_edge1_Node000000_Node000001"><a xlink:title=" ">
<path fill="none" stroke="#63b8ff" d="M79.1,-139.18C96.87,-160.06 128.41,-193.68 162.25,-213.62 167.51,-216.73 173.37,-219.36 179.27,-221.56"/>
<polygon fill="#63b8ff" stroke="#63b8ff" points="81.99,-137.18 72.91,-131.73 76.61,-141.66 81.99,-137.18"/>
</a>
</g>
</g>
<!-- Node2 -->
<g id="Node000002" class="node">
<title>Node2</title>
<g id="a_Node000002"><a xlink:href="class_failure_state.html" target="_top" xlink:title=" ">
<polygon fill="white" stroke="#666666" points="254.38,-204.25 185.88,-204.25 185.88,-185 254.38,-185 254.38,-204.25"/>
<text xml:space="preserve" text-anchor="middle" x="220.12" y="-190.75" font-family="Helvetica,sans-Serif" font-size="10.00">FailureState</text>
</a>
</g>
</g>
<!-- Node0&#45;&gt;Node2 -->
<g id="edge2_Node000000_Node000002" class="edge">
<title>Node0&#45;&gt;Node2</title>
<g id="a_edge2_Node000000_Node000002"><a xlink:title=" ">
<path fill="none" stroke="#63b8ff" d="M88.8,-136.66C108.2,-148.78 136.2,-165.23 162.25,-176.62 169.65,-179.86 177.82,-182.8 185.61,-185.32"/>
<polygon fill="#63b8ff" stroke="#63b8ff" points="90.83,-133.81 80.51,-131.41 87.08,-139.72 90.83,-133.81"/>
</a>
</g>
</g>
<!-- Node3 -->
<g id="Node000003" class="node">
<title>Node3</title>
<g id="a_Node000003"><a xlink:href="class_initializing_state.html" target="_top" xlink:title=" ">
<polygon fill="white" stroke="#666666" points="261.5,-167.25 178.75,-167.25 178.75,-148 261.5,-148 261.5,-167.25"/>
<text xml:space="preserve" text-anchor="middle" x="220.12" y="-153.75" font-family="Helvetica,sans-Serif" font-size="10.00">InitializingState</text>
</a>
</g>
</g>
<!-- Node0&#45;&gt;Node3 -->
<g id="edge3_Node000000_Node000003" class="edge">
<title>Node0&#45;&gt;Node3</title>
<g id="a_edge3_Node000000_Node000003"><a xlink:title=" ">
<path fill="none" stroke="#63b8ff" d="M117.59,-133.39C137.52,-138.15 159.82,-143.47 178.43,-147.91"/>
<polygon fill="#63b8ff" stroke="#63b8ff" points="118.49,-130 107.95,-131.09 116.87,-136.81 118.49,-130"/>
</a>
</g>
</g>
<!-- Node4 -->
<g id="Node000004" class="node">
<title>Node4</title>
<g id="a_Node000004"><a xlink:href="class_operational_state.html" target="_top" xlink:title=" ">
<polygon fill="white" stroke="#666666" points="264.5,-130.25 175.75,-130.25 175.75,-111 264.5,-111 264.5,-130.25"/>
<text xml:space="preserve" text-anchor="middle" x="220.12" y="-116.75" font-family="Helvetica,sans-Serif" font-size="10.00">OperationalState</text>
</a>
</g>
</g>
<!-- Node0&#45;&gt;Node4 -->
<g id="edge4_Node000000_Node000004" class="edge">
<title>Node0&#45;&gt;Node4</title>
<g id="a_edge4_Node000000_Node000004"><a xlink:title=" ">
<path fill="none" stroke="#63b8ff" d="M137.91,-120.62C150.71,-120.62 163.66,-120.62 175.33,-120.62"/>
<polygon fill="#63b8ff" stroke="#63b8ff" points="138.24,-117.13 128.24,-120.63 138.24,-124.13 138.24,-117.13"/>
</a>
</g>
</g>
<!-- Node5 -->
<g id="Node000005" class="node">
<title>Node5</title>
<g id="a_Node000005"><a xlink:href="class_power_on_self_test_state.html" target="_top" xlink:title=" ">
<polygon fill="white" stroke="#666666" points="278,-93.25 162.25,-93.25 162.25,-74 278,-74 278,-93.25"/>
<text xml:space="preserve" text-anchor="middle" x="220.12" y="-79.75" font-family="Helvetica,sans-Serif" font-size="10.00">PowerOnSelfTestState</text>
</a>
</g>
</g>
<!-- Node0&#45;&gt;Node5 -->
<g id="edge5_Node000000_Node000005" class="edge">
<title>Node0&#45;&gt;Node5</title>
<g id="a_edge5_Node000000_Node000005"><a xlink:title=" ">
<path fill="none" stroke="#63b8ff" d="M117.58,-107.86C136.95,-103.24 158.55,-98.09 176.82,-93.72"/>
<polygon fill="#63b8ff" stroke="#63b8ff" points="116.87,-104.44 107.95,-110.16 118.49,-111.25 116.87,-104.44"/>
</a>
</g>
</g>
<!-- Node6 -->
<g id="Node000006" class="node">
<title>Node6</title>
<g id="a_Node000006"><a xlink:href="class_ready_state.html" target="_top" xlink:title=" ">
<polygon fill="white" stroke="#666666" points="254,-56.25 186.25,-56.25 186.25,-37 254,-37 254,-56.25"/>
<text xml:space="preserve" text-anchor="middle" x="220.12" y="-42.75" font-family="Helvetica,sans-Serif" font-size="10.00">ReadyState</text>
</a>
</g>
</g>
<!-- Node0&#45;&gt;Node6 -->
<g id="edge6_Node000000_Node000006" class="edge">
<title>Node0&#45;&gt;Node6</title>
<g id="a_edge6_Node000000_Node000006"><a xlink:title=" ">
<path fill="none" stroke="#63b8ff" d="M88.8,-104.59C108.2,-92.47 136.2,-76.02 162.25,-64.62 169.75,-61.34 178.03,-58.37 185.91,-55.84"/>
<polygon fill="#63b8ff" stroke="#63b8ff" points="87.08,-101.53 80.51,-109.84 90.83,-107.44 87.08,-101.53"/>
</a>
</g>
</g>
<!-- Node7 -->
<g id="Node000007" class="node">
<title>Node7</title>
<g id="a_Node000007"><a xlink:href="class_suspended_state.html" target="_top" xlink:title=" ">
<polygon fill="white" stroke="#666666" points="264.12,-19.25 176.12,-19.25 176.12,0 264.12,0 264.12,-19.25"/>
<text xml:space="preserve" text-anchor="middle" x="220.12" y="-5.75" font-family="Helvetica,sans-Serif" font-size="10.00">SuspendedState</text>
</a>
</g>
</g>
<!-- Node0&#45;&gt;Node7 -->
<g id="edge7_Node000000_Node000007" class="edge">
<title>Node0&#45;&gt;Node7</title>
<g id="a_edge7_Node000000_Node000007"><a xlink:title=" ">
<path fill="none" stroke="#63b8ff" d="M79.1,-102.07C96.87,-81.19 128.41,-47.57 162.25,-27.62 167.51,-24.52 173.37,-21.89 179.27,-19.69"/>
<polygon fill="#63b8ff" stroke="#63b8ff" points="76.61,-99.59 72.91,-109.52 81.99,-104.07 76.61,-99.59"/>
</a>
</g>
</g>
</g>
</svg>
