<?xml version="1.0" encoding="UTF-8" standalone="no"?>
<!DOCTYPE svg PUBLIC "-//W3C//DTD SVG 1.1//EN"
 "http://www.w3.org/Graphics/SVG/1.1/DTD/svg11.dtd">
<!-- Generated by graphviz version 14.0.4 (20251115.1723)
 -->
<!-- Title: sc_main Pages: 1 -->
<svg width="722pt" height="150pt"
 viewBox="0.00 0.00 722.00 150.00" xmlns="http://www.w3.org/2000/svg" xmlns:xlink="http://www.w3.org/1999/xlink">
<g id="graph0" class="graph" transform="scale(1 1) rotate(0) translate(4 146.25)">
<title>sc_main</title>
<!-- Node1 -->
<g id="Node000001" class="node">
<title>Node1</title>
<g id="a_Node000001"><a xlink:title=" ">
<polygon fill="#999999" stroke="#666666" points="52.75,-62.25 0,-62.25 0,-43 52.75,-43 52.75,-62.25"/>
<text xml:space="preserve" text-anchor="middle" x="26.38" y="-48.75" font-family="Helvetica,sans-Serif" font-size="10.00">sc_main</text>
</a>
</g>
</g>
<!-- Node2 -->
<g id="Node000002" class="node">
<title>Node2</title>
<g id="a_Node000002"><a xlink:href="class_real_time_loop.html#a9e832a39566f0ba7950f3ffa803d1eb5" target="_top" xlink:title=" ">
<polygon fill="white" stroke="#666666" points="237.12,-105.25 96.62,-105.25 96.62,-86 237.12,-86 237.12,-105.25"/>
<text xml:space="preserve" text-anchor="middle" x="166.88" y="-91.75" font-family="Helvetica,sans-Serif" font-size="10.00">RealTimeLoop::changeMode</text>
</a>
</g>
</g>
<!-- Node1&#45;&gt;Node2 -->
<g id="edge1_Node000001_Node000002" class="edge">
<title>Node1&#45;&gt;Node2</title>
<g id="a_edge1_Node000001_Node000002"><a xlink:title=" ">
<path fill="none" stroke="#63b8ff" d="M51.02,-62.71C62.31,-67.31 76.1,-72.61 88.75,-76.62 95.48,-78.76 102.6,-80.8 109.69,-82.7"/>
<polygon fill="#63b8ff" stroke="#63b8ff" points="108.71,-86.06 119.27,-85.18 110.47,-79.28 108.71,-86.06"/>
</a>
</g>
</g>
<!-- Node10 -->
<g id="Node000010" class="node">
<title>Node10</title>
<g id="a_Node000010"><a xlink:href="class_embedded_system_x.html#a307333e66cc96873a421d642ac439f16" target="_top" xlink:title=" ">
<polygon fill="white" stroke="#666666" points="238.25,-67.88 95.5,-67.88 95.5,-37.38 238.25,-37.38 238.25,-67.88"/>
<text xml:space="preserve" text-anchor="start" x="103.5" y="-54.38" font-family="Helvetica,sans-Serif" font-size="10.00">EmbeddedSystemX::getReal</text>
<text xml:space="preserve" text-anchor="middle" x="166.88" y="-43.12" font-family="Helvetica,sans-Serif" font-size="10.00">TimeLoop</text>
</a>
</g>
</g>
<!-- Node1&#45;&gt;Node10 -->
<g id="edge11_Node000001_Node000010" class="edge">
<title>Node1&#45;&gt;Node10</title>
<g id="a_edge11_Node000001_Node000010"><a xlink:title=" ">
<path fill="none" stroke="#63b8ff" d="M53.1,-52.62C62.14,-52.62 72.83,-52.62 83.98,-52.62"/>
<polygon fill="#63b8ff" stroke="#63b8ff" points="83.73,-56.13 93.73,-52.63 83.73,-49.13 83.73,-56.13"/>
</a>
</g>
</g>
<!-- Node11 -->
<g id="Node000011" class="node">
<title>Node11</title>
<g id="a_Node000011"><a xlink:href="class_embedded_system_x.html#ab043ef3b463385ffb3587aca15db128f" target="_top" xlink:title=" ">
<polygon fill="white" stroke="#666666" points="245,-19.25 88.75,-19.25 88.75,0 245,0 245,-19.25"/>
<text xml:space="preserve" text-anchor="middle" x="166.88" y="-5.75" font-family="Helvetica,sans-Serif" font-size="10.00">EmbeddedSystemX::selfTestOk</text>
</a>
</g>
</g>
<!-- Node1&#45;&gt;Node11 -->
<g id="edge12_Node000001_Node000011" class="edge">
<title>Node1&#45;&gt;Node11</title>
<g id="a_edge12_Node000001_Node000011"><a xlink:title=" ">
<path fill="none" stroke="#63b8ff" d="M51.02,-42.54C62.31,-37.94 76.1,-32.64 88.75,-28.62 95.48,-26.49 102.6,-24.45 109.69,-22.55"/>
<polygon fill="#63b8ff" stroke="#63b8ff" points="110.47,-25.97 119.27,-20.07 108.71,-19.19 110.47,-25.97"/>
</a>
</g>
</g>
<!-- Node3 -->
<g id="Node000003" class="node">
<title>Node3</title>
<g id="a_Node000003"><a xlink:href="class_mode1_state.html#a80247eeeae6ef230cc5baa630d7d3aaa" target="_top" xlink:title=" ">
<polygon fill="white" stroke="#666666" points="406.5,-142.25 281,-142.25 281,-123 406.5,-123 406.5,-142.25"/>
<text xml:space="preserve" text-anchor="middle" x="343.75" y="-128.75" font-family="Helvetica,sans-Serif" font-size="10.00">Mode1State::getInstance</text>
</a>
</g>
</g>
<!-- Node2&#45;&gt;Node3 -->
<g id="edge2_Node000002_Node000003" class="edge">
<title>Node2&#45;&gt;Node3</title>
<g id="a_edge2_Node000002_Node000003"><a xlink:title=" ">
<path fill="none" stroke="#63b8ff" d="M215.66,-105.74C236.77,-110.2 261.79,-115.5 284.02,-120.2"/>
<polygon fill="#63b8ff" stroke="#63b8ff" points="283.03,-123.57 293.54,-122.21 284.48,-116.72 283.03,-123.57"/>
</a>
</g>
</g>
<!-- Node6 -->
<g id="Node000006" class="node">
<title>Node6</title>
<g id="a_Node000006"><a xlink:href="class_mode2_state.html#a3e155cf381133854a95dbae089f73b68" target="_top" xlink:title=" ">
<polygon fill="white" stroke="#666666" points="406.5,-105.25 281,-105.25 281,-86 406.5,-86 406.5,-105.25"/>
<text xml:space="preserve" text-anchor="middle" x="343.75" y="-91.75" font-family="Helvetica,sans-Serif" font-size="10.00">Mode2State::getInstance</text>
</a>
</g>
</g>
<!-- Node2&#45;&gt;Node6 -->
<g id="edge5_Node000002_Node000006" class="edge">
<title>Node2&#45;&gt;Node6</title>
<g id="a_edge5_Node000002_Node000006"><a xlink:title=" ">
<path fill="none" stroke="#63b8ff" d="M237.49,-95.62C247.98,-95.62 258.83,-95.62 269.4,-95.62"/>
<polygon fill="#63b8ff" stroke="#63b8ff" points="269.21,-99.13 279.21,-95.63 269.21,-92.13 269.21,-99.13"/>
</a>
</g>
</g>
<!-- Node8 -->
<g id="Node000008" class="node">
<title>Node8</title>
<g id="a_Node000008"><a xlink:href="class_mode3_state.html#a597b98e563c80d2ec1b2d1fe367221d1" target="_top" xlink:title=" ">
<polygon fill="white" stroke="#666666" points="406.5,-68.25 281,-68.25 281,-49 406.5,-49 406.5,-68.25"/>
<text xml:space="preserve" text-anchor="middle" x="343.75" y="-54.75" font-family="Helvetica,sans-Serif" font-size="10.00">Mode3State::getInstance</text>
</a>
</g>
</g>
<!-- Node2&#45;&gt;Node8 -->
<g id="edge8_Node000002_Node000008" class="edge">
<title>Node2&#45;&gt;Node8</title>
<g id="a_edge8_Node000002_Node000008"><a xlink:title=" ">
<path fill="none" stroke="#63b8ff" d="M215.66,-85.51C236.77,-81.05 261.79,-75.75 284.02,-71.05"/>
<polygon fill="#63b8ff" stroke="#63b8ff" points="284.48,-74.53 293.54,-69.04 283.03,-67.68 284.48,-74.53"/>
</a>
</g>
</g>
<!-- Node4 -->
<g id="Node000004" class="node">
<title>Node4</title>
<g id="a_Node000004"><a xlink:href="class_mode1_state.html#aef0717445295b2fe1e876a7ed72442b9" target="_top" xlink:title=" ">
<polygon fill="white" stroke="#666666" points="569.5,-142.25 442.5,-142.25 442.5,-123 569.5,-123 569.5,-142.25"/>
<text xml:space="preserve" text-anchor="middle" x="506" y="-128.75" font-family="Helvetica,sans-Serif" font-size="10.00">Mode1State::Mode1State</text>
</a>
</g>
</g>
<!-- Node3&#45;&gt;Node4 -->
<g id="edge3_Node000003_Node000004" class="edge">
<title>Node3&#45;&gt;Node4</title>
<g id="a_edge3_Node000003_Node000004"><a xlink:title=" ">
<path fill="none" stroke="#63b8ff" d="M406.71,-132.62C414.61,-132.62 422.76,-132.62 430.83,-132.62"/>
<polygon fill="#63b8ff" stroke="#63b8ff" points="430.64,-136.13 440.64,-132.63 430.64,-129.13 430.64,-136.13"/>
</a>
</g>
</g>
<!-- Node5 -->
<g id="Node000005" class="node">
<title>Node5</title>
<g id="a_Node000005"><a xlink:href="class_real_time_loop_state.html#ab5424a183c7d0bc0f850bc08d6583b3a" target="_top" xlink:title=" ">
<polygon fill="white" stroke="#666666" points="713.75,-110.88 605.5,-110.88 605.5,-80.38 713.75,-80.38 713.75,-110.88"/>
<text xml:space="preserve" text-anchor="start" x="613.5" y="-97.38" font-family="Helvetica,sans-Serif" font-size="10.00">RealTimeLoopState::</text>
<text xml:space="preserve" text-anchor="middle" x="659.62" y="-86.12" font-family="Helvetica,sans-Serif" font-size="10.00">RealTimeLoopState</text>
</a>
</g>
</g>
<!-- Node4&#45;&gt;Node5 -->
<g id="edge4_Node000004_Node000005" class="edge">
<title>Node4&#45;&gt;Node5</title>
<g id="a_edge4_Node000004_Node000005"><a xlink:title=" ">
<path fill="none" stroke="#63b8ff" d="M548.43,-122.51C562.54,-119.07 578.67,-115.14 594.15,-111.36"/>
<polygon fill="#63b8ff" stroke="#63b8ff" points="594.92,-114.77 603.8,-109 593.26,-107.97 594.92,-114.77"/>
</a>
</g>
</g>
<!-- Node7 -->
<g id="Node000007" class="node">
<title>Node7</title>
<g id="a_Node000007"><a xlink:href="class_mode2_state.html#a1c93961d41188f65efc613526d0f6a23" target="_top" xlink:title=" ">
<polygon fill="white" stroke="#666666" points="569.5,-105.25 442.5,-105.25 442.5,-86 569.5,-86 569.5,-105.25"/>
<text xml:space="preserve" text-anchor="middle" x="506" y="-91.75" font-family="Helvetica,sans-Serif" font-size="10.00">Mode2State::Mode2State</text>
</a>
</g>
</g>
<!-- Node6&#45;&gt;Node7 -->
<g id="edge6_Node000006_Node000007" class="edge">
<title>Node6&#45;&gt;Node7</title>
<g id="a_edge6_Node000006_Node000007"><a xlink:title=" ">
<path fill="none" stroke="#63b8ff" d="M406.71,-95.62C414.61,-95.62 422.76,-95.62 430.83,-95.62"/>
<polygon fill="#63b8ff" stroke="#63b8ff" points="430.64,-99.13 440.64,-95.63 430.64,-92.13 430.64,-99.13"/>
</a>
</g>
</g>
<!-- Node7&#45;&gt;Node5 -->
<g id="edge7_Node000007_Node000005" class="edge">
<title>Node7&#45;&gt;Node5</title>
<g id="a_edge7_Node000007_Node000005"><a xlink:title=" ">
<path fill="none" stroke="#63b8ff" d="M569.99,-95.62C577.86,-95.62 585.92,-95.62 593.82,-95.62"/>
<polygon fill="#63b8ff" stroke="#63b8ff" points="593.72,-99.13 603.72,-95.63 593.72,-92.13 593.72,-99.13"/>
</a>
</g>
</g>
<!-- Node9 -->
<g id="Node000009" class="node">
<title>Node9</title>
<g id="a_Node000009"><a xlink:href="class_mode3_state.html#a7b64f389a91cc6c73d87bc1a8c3efbdf" target="_top" xlink:title=" ">
<polygon fill="white" stroke="#666666" points="569.5,-68.25 442.5,-68.25 442.5,-49 569.5,-49 569.5,-68.25"/>
<text xml:space="preserve" text-anchor="middle" x="506" y="-54.75" font-family="Helvetica,sans-Serif" font-size="10.00">Mode3State::Mode3State</text>
</a>
</g>
</g>
<!-- Node8&#45;&gt;Node9 -->
<g id="edge9_Node000008_Node000009" class="edge">
<title>Node8&#45;&gt;Node9</title>
<g id="a_edge9_Node000008_Node000009"><a xlink:title=" ">
<path fill="none" stroke="#63b8ff" d="M406.71,-58.62C414.61,-58.62 422.76,-58.62 430.83,-58.62"/>
<polygon fill="#63b8ff" stroke="#63b8ff" points="430.64,-62.13 440.64,-58.63 430.64,-55.13 430.64,-62.13"/>
</a>
</g>
</g>
<!-- Node9&#45;&gt;Node5 -->
<g id="edge10_Node000009_Node000005" class="edge">
<title>Node9&#45;&gt;Node5</title>
<g id="a_edge10_Node000009_Node000005"><a xlink:title=" ">
<path fill="none" stroke="#63b8ff" d="M548.43,-68.74C562.54,-72.18 578.67,-76.11 594.15,-79.89"/>
<polygon fill="#63b8ff" stroke="#63b8ff" points="593.26,-83.28 603.8,-82.25 594.92,-76.48 593.26,-83.28"/>
</a>
</g>
</g>
</g>
</svg>
