<?xml version="1.0" encoding="UTF-8" standalone="no"?>
<!DOCTYPE svg PUBLIC "-//W3C//DTD SVG 1.1//EN"
 "http://www.w3.org/Graphics/SVG/1.1/DTD/svg11.dtd">
<!-- Generated by graphviz version 14.0.4 (20251115.1723)
 -->
<!-- Title: sc_main Pages: 1 -->
<svg width="738pt" height="618pt"
 viewBox="0.00 0.00 738.00 618.00" xmlns="http://www.w3.org/2000/svg" xmlns:xlink="http://www.w3.org/1999/xlink">
<g id="graph0" class="graph" transform="scale(1 1) rotate(0) translate(4 614.25)">
<title>sc_main</title>
<!-- Node1 -->
<g id="Node000001" class="node">
<title>Node1</title>
<g id="a_Node000001"><a xlink:title=" ">
<polygon fill="#999999" stroke="#666666" points="52.75,-290.25 0,-290.25 0,-271 52.75,-271 52.75,-290.25"/>
<text xml:space="preserve" text-anchor="middle" x="26.38" y="-276.75" font-family="Helvetica,sans-Serif" font-size="10.00">sc_main</text>
</a>
</g>
</g>
<!-- Node2 -->
<g id="Node000002" class="node">
<title>Node2</title>
<g id="a_Node000002"><a xlink:href="class_real_time_loop.html#a9e832a39566f0ba7950f3ffa803d1eb5" target="_top" xlink:title=" ">
<polygon fill="white" stroke="#666666" points="245,-573.25 104.5,-573.25 104.5,-554 245,-554 245,-573.25"/>
<text xml:space="preserve" text-anchor="middle" x="174.75" y="-559.75" font-family="Helvetica,sans-Serif" font-size="10.00">RealTimeLoop::changeMode</text>
</a>
</g>
</g>
<!-- Node1&#45;&gt;Node2 -->
<g id="edge1_Node000001_Node000002" class="edge">
<title>Node1&#45;&gt;Node2</title>
<g id="a_edge1_Node000001_Node000002"><a xlink:title=" ">
<path fill="none" stroke="#63b8ff" d="M28.29,-290.52C32.49,-334 51.41,-507.6 88.75,-544.62 90.58,-546.44 92.55,-548.1 94.62,-549.61"/>
<polygon fill="#63b8ff" stroke="#63b8ff" points="92.63,-552.5 103.02,-554.59 96.2,-546.48 92.63,-552.5"/>
</a>
</g>
</g>
<!-- Node10 -->
<g id="Node000010" class="node">
<title>Node10</title>
<g id="a_Node000010"><a xlink:href="class_embedded_system_x.html#a1db535a07c00cd4b61c8560aaa93a109" target="_top" xlink:title=" ">
<polygon fill="white" stroke="#666666" points="257,-535.88 92.5,-535.88 92.5,-505.38 257,-505.38 257,-535.88"/>
<text xml:space="preserve" text-anchor="start" x="100.5" y="-522.38" font-family="Helvetica,sans-Serif" font-size="10.00">EmbeddedSystemX::configuration</text>
<text xml:space="preserve" text-anchor="middle" x="174.75" y="-511.12" font-family="Helvetica,sans-Serif" font-size="10.00">Ended</text>
</a>
</g>
</g>
<!-- Node1&#45;&gt;Node10 -->
<g id="edge11_Node000001_Node000010" class="edge">
<title>Node1&#45;&gt;Node10</title>
<g id="a_edge11_Node000001_Node000010"><a xlink:title=" ">
<path fill="none" stroke="#63b8ff" d="M27.04,-290.44C26.43,-324.26 29.16,-437.13 88.75,-496.62 89.24,-497.12 89.74,-497.6 90.25,-498.07"/>
<polygon fill="#63b8ff" stroke="#63b8ff" points="87.92,-500.69 97.99,-503.97 92.17,-495.13 87.92,-500.69"/>
</a>
</g>
</g>
<!-- Node11 -->
<g id="Node000011" class="node">
<title>Node11</title>
<g id="a_Node000011"><a xlink:href="class_embedded_system_x.html#a5a243554e8f66701591dc80918ef8f92" target="_top" xlink:title=" ">
<polygon fill="white" stroke="#666666" points="249.12,-487.25 100.38,-487.25 100.38,-468 249.12,-468 249.12,-487.25"/>
<text xml:space="preserve" text-anchor="middle" x="174.75" y="-473.75" font-family="Helvetica,sans-Serif" font-size="10.00">EmbeddedSystemX::configure</text>
</a>
</g>
</g>
<!-- Node1&#45;&gt;Node11 -->
<g id="edge12_Node000001_Node000011" class="edge">
<title>Node1&#45;&gt;Node11</title>
<g id="a_edge12_Node000001_Node000011"><a xlink:title=" ">
<path fill="none" stroke="#63b8ff" d="M27.57,-290.58C28.73,-321 36.6,-413.46 88.75,-459.62 89.41,-460.21 90.08,-460.77 90.76,-461.32"/>
<polygon fill="#63b8ff" stroke="#63b8ff" points="88.74,-464.18 99.03,-466.71 92.57,-458.32 88.74,-464.18"/>
</a>
</g>
</g>
<!-- Node12 -->
<g id="Node000012" class="node">
<title>Node12</title>
<g id="a_Node000012"><a xlink:href="class_real_time_loop.html#a922c2155a31600937565a059ded04f7a" target="_top" xlink:title=" ">
<polygon fill="white" stroke="#666666" points="232.62,-450.25 116.88,-450.25 116.88,-431 232.62,-431 232.62,-450.25"/>
<text xml:space="preserve" text-anchor="middle" x="174.75" y="-436.75" font-family="Helvetica,sans-Serif" font-size="10.00">RealTimeLoop::eventX</text>
</a>
</g>
</g>
<!-- Node1&#45;&gt;Node12 -->
<g id="edge13_Node000001_Node000012" class="edge">
<title>Node1&#45;&gt;Node12</title>
<g id="a_edge13_Node000001_Node000012"><a xlink:title=" ">
<path fill="none" stroke="#63b8ff" d="M28.53,-290.37C32.15,-316.31 45.72,-387.42 88.75,-422.62 93.84,-426.79 99.65,-430.05 105.8,-432.61"/>
<polygon fill="#63b8ff" stroke="#63b8ff" points="104.37,-435.82 114.97,-435.78 106.66,-429.2 104.37,-435.82"/>
</a>
</g>
</g>
<!-- Node13 -->
<g id="Node000013" class="node">
<title>Node13</title>
<g id="a_Node000013"><a xlink:href="class_real_time_loop.html#aa8e6558bcf12fa434547de53732540cc" target="_top" xlink:title=" ">
<polygon fill="white" stroke="#666666" points="252.12,-413.25 97.38,-413.25 97.38,-394 252.12,-394 252.12,-413.25"/>
<text xml:space="preserve" text-anchor="middle" x="174.75" y="-399.75" font-family="Helvetica,sans-Serif" font-size="10.00">RealTimeLoop::getCurrentMode</text>
</a>
</g>
</g>
<!-- Node1&#45;&gt;Node13 -->
<g id="edge14_Node000001_Node000013" class="edge">
<title>Node1&#45;&gt;Node13</title>
<g id="a_edge14_Node000001_Node000013"><a xlink:title=" ">
<path fill="none" stroke="#63b8ff" d="M30.23,-290.46C36.82,-311.35 55.18,-360.21 88.75,-384.62 90.71,-386.05 92.75,-387.37 94.87,-388.59"/>
<polygon fill="#63b8ff" stroke="#63b8ff" points="93.32,-391.73 103.84,-392.98 96.4,-385.44 93.32,-391.73"/>
</a>
</g>
</g>
<!-- Node14 -->
<g id="Node000014" class="node">
<title>Node14</title>
<g id="a_Node000014"><a xlink:href="class_embedded_system_x.html#a307333e66cc96873a421d642ac439f16" target="_top" xlink:title=" ">
<polygon fill="white" stroke="#666666" points="246.12,-375.88 103.38,-375.88 103.38,-345.38 246.12,-345.38 246.12,-375.88"/>
<text xml:space="preserve" text-anchor="start" x="111.38" y="-362.38" font-family="Helvetica,sans-Serif" font-size="10.00">EmbeddedSystemX::getReal</text>
<text xml:space="preserve" text-anchor="middle" x="174.75" y="-351.12" font-family="Helvetica,sans-Serif" font-size="10.00">TimeLoop</text>
</a>
</g>
</g>
<!-- Node1&#45;&gt;Node14 -->
<g id="edge15_Node000001_Node000014" class="edge">
<title>Node1&#45;&gt;Node14</title>
<g id="a_edge15_Node000001_Node000014"><a xlink:title=" ">
<path fill="none" stroke="#63b8ff" d="M35.48,-290.43C46.34,-302.94 66.81,-324.43 88.75,-336.62 91.12,-337.95 93.58,-339.2 96.09,-340.39"/>
<polygon fill="#63b8ff" stroke="#63b8ff" points="94.7,-343.6 105.27,-344.32 97.46,-337.16 94.7,-343.6"/>
</a>
</g>
</g>
<!-- Node15 -->
<g id="Node000015" class="node">
<title>Node15</title>
<g id="a_Node000015"><a xlink:href="class_embedded_system_x.html#a1886e1d66fe63c21c0333c8900cdad0d" target="_top" xlink:title=" ">
<polygon fill="white" stroke="#666666" points="260.75,-327.25 88.75,-327.25 88.75,-308 260.75,-308 260.75,-327.25"/>
<text xml:space="preserve" text-anchor="middle" x="174.75" y="-313.75" font-family="Helvetica,sans-Serif" font-size="10.00">EmbeddedSystemX::getStateName</text>
</a>
</g>
</g>
<!-- Node1&#45;&gt;Node15 -->
<g id="edge16_Node000001_Node000015" class="edge">
<title>Node1&#45;&gt;Node15</title>
<g id="a_edge16_Node000001_Node000015"><a xlink:title=" ">
<path fill="none" stroke="#63b8ff" d="M53.21,-289.2C64.11,-292.67 76.98,-296.56 88.75,-299.62 96.01,-301.51 103.65,-303.35 111.26,-305.08"/>
<polygon fill="#63b8ff" stroke="#63b8ff" points="110.33,-308.45 120.85,-307.2 111.85,-301.62 110.33,-308.45"/>
</a>
</g>
</g>
<!-- Node16 -->
<g id="Node000016" class="node">
<title>Node16</title>
<g id="a_Node000016"><a xlink:href="class_embedded_system_x.html#a7ceff0f335a80b4421a0be8adf18d004" target="_top" xlink:title=" ">
<polygon fill="white" stroke="#666666" points="249.5,-290.25 100,-290.25 100,-271 249.5,-271 249.5,-290.25"/>
<text xml:space="preserve" text-anchor="middle" x="174.75" y="-276.75" font-family="Helvetica,sans-Serif" font-size="10.00">EmbeddedSystemX::initialized</text>
</a>
</g>
</g>
<!-- Node1&#45;&gt;Node16 -->
<g id="edge17_Node000001_Node000016" class="edge">
<title>Node1&#45;&gt;Node16</title>
<g id="a_edge17_Node000001_Node000016"><a xlink:title=" ">
<path fill="none" stroke="#63b8ff" d="M53.21,-280.62C63.36,-280.62 75.65,-280.62 88.45,-280.62"/>
<polygon fill="#63b8ff" stroke="#63b8ff" points="88.27,-284.13 98.27,-280.63 88.27,-277.13 88.27,-284.13"/>
</a>
</g>
</g>
<!-- Node17 -->
<g id="Node000017" class="node">
<title>Node17</title>
<g id="a_Node000017"><a xlink:href="class_embedded_system_x.html#af8bb9d0d010e5e326083d66c8206e9d9" target="_top" xlink:title=" ">
<polygon fill="white" stroke="#666666" points="243.12,-253.25 106.38,-253.25 106.38,-234 243.12,-234 243.12,-253.25"/>
<text xml:space="preserve" text-anchor="middle" x="174.75" y="-239.75" font-family="Helvetica,sans-Serif" font-size="10.00">EmbeddedSystemX::restart</text>
</a>
</g>
</g>
<!-- Node1&#45;&gt;Node17 -->
<g id="edge18_Node000001_Node000017" class="edge">
<title>Node1&#45;&gt;Node17</title>
<g id="a_edge18_Node000001_Node000017"><a xlink:title=" ">
<path fill="none" stroke="#63b8ff" d="M53.21,-272.05C64.11,-268.58 76.98,-264.69 88.75,-261.62 96.01,-259.74 103.65,-257.9 111.26,-256.17"/>
<polygon fill="#63b8ff" stroke="#63b8ff" points="111.85,-259.63 120.85,-254.05 110.33,-252.8 111.85,-259.63"/>
</a>
</g>
</g>
<!-- Node18 -->
<g id="Node000018" class="node">
<title>Node18</title>
<g id="a_Node000018"><a xlink:href="class_embedded_system_x.html#a5e66835e849cbe7611b7c7ff581c62be" target="_top" xlink:title=" ">
<polygon fill="white" stroke="#666666" points="245.38,-216.25 104.12,-216.25 104.12,-197 245.38,-197 245.38,-216.25"/>
<text xml:space="preserve" text-anchor="middle" x="174.75" y="-202.75" font-family="Helvetica,sans-Serif" font-size="10.00">EmbeddedSystemX::resume</text>
</a>
</g>
</g>
<!-- Node1&#45;&gt;Node18 -->
<g id="edge19_Node000001_Node000018" class="edge">
<title>Node1&#45;&gt;Node18</title>
<g id="a_edge19_Node000001_Node000018"><a xlink:title=" ">
<path fill="none" stroke="#63b8ff" d="M35.36,-270.6C46.09,-257.84 66.42,-236.08 88.75,-224.62 91.64,-223.14 94.65,-221.78 97.74,-220.53"/>
<polygon fill="#63b8ff" stroke="#63b8ff" points="98.8,-223.87 107.03,-217.2 96.44,-217.27 98.8,-223.87"/>
</a>
</g>
</g>
<!-- Node19 -->
<g id="Node000019" class="node">
<title>Node19</title>
<g id="a_Node000019"><a xlink:href="class_embedded_system_x.html#a77a35bde3aa1584a956805cf049d06e8" target="_top" xlink:title=" ">
<polygon fill="white" stroke="#666666" points="246.5,-178.88 103,-178.88 103,-148.38 246.5,-148.38 246.5,-178.88"/>
<text xml:space="preserve" text-anchor="start" x="111" y="-165.38" font-family="Helvetica,sans-Serif" font-size="10.00">EmbeddedSystemX::selfTest</text>
<text xml:space="preserve" text-anchor="middle" x="174.75" y="-154.12" font-family="Helvetica,sans-Serif" font-size="10.00">Failed</text>
</a>
</g>
</g>
<!-- Node1&#45;&gt;Node19 -->
<g id="edge20_Node000001_Node000019" class="edge">
<title>Node1&#45;&gt;Node19</title>
<g id="a_edge20_Node000001_Node000019"><a xlink:title=" ">
<path fill="none" stroke="#63b8ff" d="M31.22,-270.5C39.03,-251.33 58.61,-209.66 88.75,-187.62 90.1,-186.64 91.5,-185.69 92.92,-184.78"/>
<polygon fill="#63b8ff" stroke="#63b8ff" points="94.39,-187.96 101.44,-180.05 91,-181.84 94.39,-187.96"/>
</a>
</g>
</g>
<!-- Node20 -->
<g id="Node000020" class="node">
<title>Node20</title>
<g id="a_Node000020"><a xlink:href="class_embedded_system_x.html#ab043ef3b463385ffb3587aca15db128f" target="_top" xlink:title=" ">
<polygon fill="white" stroke="#666666" points="252.88,-130.25 96.62,-130.25 96.62,-111 252.88,-111 252.88,-130.25"/>
<text xml:space="preserve" text-anchor="middle" x="174.75" y="-116.75" font-family="Helvetica,sans-Serif" font-size="10.00">EmbeddedSystemX::selfTestOk</text>
</a>
</g>
</g>
<!-- Node1&#45;&gt;Node20 -->
<g id="edge21_Node000001_Node000020" class="edge">
<title>Node1&#45;&gt;Node20</title>
<g id="a_edge21_Node000001_Node000020"><a xlink:title=" ">
<path fill="none" stroke="#63b8ff" d="M28.63,-270.6C32.44,-244.6 46.34,-174.64 88.75,-139.62 90.23,-138.4 91.78,-137.25 93.38,-136.17"/>
<polygon fill="#63b8ff" stroke="#63b8ff" points="94.72,-139.43 101.72,-131.47 91.29,-133.33 94.72,-139.43"/>
</a>
</g>
</g>
<!-- Node21 -->
<g id="Node000021" class="node">
<title>Node21</title>
<g id="a_Node000021"><a xlink:href="class_embedded_system_x.html#aa1e38d16fd891e7caaf8ff93e29e5112" target="_top" xlink:title=" ">
<polygon fill="white" stroke="#666666" points="239,-93.25 110.5,-93.25 110.5,-74 239,-74 239,-93.25"/>
<text xml:space="preserve" text-anchor="middle" x="174.75" y="-79.75" font-family="Helvetica,sans-Serif" font-size="10.00">EmbeddedSystemX::start</text>
</a>
</g>
</g>
<!-- Node1&#45;&gt;Node21 -->
<g id="edge22_Node000001_Node000021" class="edge">
<title>Node1&#45;&gt;Node21</title>
<g id="a_edge22_Node000001_Node000021"><a xlink:title=" ">
<path fill="none" stroke="#63b8ff" d="M27.57,-270.67C28.73,-240.25 36.6,-147.79 88.75,-101.62 92.15,-98.62 95.92,-96.07 99.93,-93.91"/>
<polygon fill="#63b8ff" stroke="#63b8ff" points="101.21,-97.17 108.94,-89.93 98.38,-90.77 101.21,-97.17"/>
</a>
</g>
</g>
<!-- Node22 -->
<g id="Node000022" class="node">
<title>Node22</title>
<g id="a_Node000022"><a xlink:href="class_embedded_system_x.html#af76cbf591323da258c5964ce18079d9b" target="_top" xlink:title=" ">
<polygon fill="white" stroke="#666666" points="238.62,-56.25 110.88,-56.25 110.88,-37 238.62,-37 238.62,-56.25"/>
<text xml:space="preserve" text-anchor="middle" x="174.75" y="-42.75" font-family="Helvetica,sans-Serif" font-size="10.00">EmbeddedSystemX::stop</text>
</a>
</g>
</g>
<!-- Node1&#45;&gt;Node22 -->
<g id="edge23_Node000001_Node000022" class="edge">
<title>Node1&#45;&gt;Node22</title>
<g id="a_edge23_Node000001_Node000022"><a xlink:title=" ">
<path fill="none" stroke="#63b8ff" d="M26.89,-270.66C25.83,-236.36 27.21,-122.1 88.75,-64.62 92.22,-61.38 96.13,-58.66 100.31,-56.39"/>
<polygon fill="#63b8ff" stroke="#63b8ff" points="101.38,-59.74 109.09,-52.48 98.53,-53.35 101.38,-59.74"/>
</a>
</g>
</g>
<!-- Node23 -->
<g id="Node000023" class="node">
<title>Node23</title>
<g id="a_Node000023"><a xlink:href="class_embedded_system_x.html#a433f5de4dce4090e609637f00c1735fd" target="_top" xlink:title=" ">
<polygon fill="white" stroke="#666666" points="247.62,-19.25 101.88,-19.25 101.88,0 247.62,0 247.62,-19.25"/>
<text xml:space="preserve" text-anchor="middle" x="174.75" y="-5.75" font-family="Helvetica,sans-Serif" font-size="10.00">EmbeddedSystemX::suspend</text>
</a>
</g>
</g>
<!-- Node1&#45;&gt;Node23 -->
<g id="edge24_Node000001_Node000023" class="edge">
<title>Node1&#45;&gt;Node23</title>
<g id="a_edge24_Node000001_Node000023"><a xlink:title=" ">
<path fill="none" stroke="#63b8ff" d="M28.4,-270.56C32.95,-227.91 52.68,-62.66 88.75,-27.62 89.82,-26.59 90.92,-25.61 92.07,-24.68"/>
<polygon fill="#63b8ff" stroke="#63b8ff" points="93.83,-27.71 100.28,-19.31 90,-21.85 93.83,-27.71"/>
</a>
</g>
</g>
<!-- Node3 -->
<g id="Node000003" class="node">
<title>Node3</title>
<g id="a_Node000003"><a xlink:href="class_mode1_state.html#a80247eeeae6ef230cc5baa630d7d3aaa" target="_top" xlink:title=" ">
<polygon fill="white" stroke="#666666" points="422.25,-610.25 296.75,-610.25 296.75,-591 422.25,-591 422.25,-610.25"/>
<text xml:space="preserve" text-anchor="middle" x="359.5" y="-596.75" font-family="Helvetica,sans-Serif" font-size="10.00">Mode1State::getInstance</text>
</a>
</g>
</g>
<!-- Node2&#45;&gt;Node3 -->
<g id="edge2_Node000002_Node000003" class="edge">
<title>Node2&#45;&gt;Node3</title>
<g id="a_edge2_Node000002_Node000003"><a xlink:title=" ">
<path fill="none" stroke="#63b8ff" d="M225.69,-573.74C247.85,-578.22 274.13,-583.54 297.45,-588.26"/>
<polygon fill="#63b8ff" stroke="#63b8ff" points="296.64,-591.67 307.14,-590.23 298.03,-584.81 296.64,-591.67"/>
</a>
</g>
</g>
<!-- Node6 -->
<g id="Node000006" class="node">
<title>Node6</title>
<g id="a_Node000006"><a xlink:href="class_mode2_state.html#a3e155cf381133854a95dbae089f73b68" target="_top" xlink:title=" ">
<polygon fill="white" stroke="#666666" points="422.25,-573.25 296.75,-573.25 296.75,-554 422.25,-554 422.25,-573.25"/>
<text xml:space="preserve" text-anchor="middle" x="359.5" y="-559.75" font-family="Helvetica,sans-Serif" font-size="10.00">Mode2State::getInstance</text>
</a>
</g>
</g>
<!-- Node2&#45;&gt;Node6 -->
<g id="edge5_Node000002_Node000006" class="edge">
<title>Node2&#45;&gt;Node6</title>
<g id="a_edge5_Node000002_Node000006"><a xlink:title=" ">
<path fill="none" stroke="#63b8ff" d="M245.36,-563.62C258.31,-563.62 271.88,-563.62 284.95,-563.62"/>
<polygon fill="#63b8ff" stroke="#63b8ff" points="284.76,-567.13 294.75,-563.63 284.75,-560.13 284.76,-567.13"/>
</a>
</g>
</g>
<!-- Node8 -->
<g id="Node000008" class="node">
<title>Node8</title>
<g id="a_Node000008"><a xlink:href="class_mode3_state.html#a597b98e563c80d2ec1b2d1fe367221d1" target="_top" xlink:title=" ">
<polygon fill="white" stroke="#666666" points="422.25,-536.25 296.75,-536.25 296.75,-517 422.25,-517 422.25,-536.25"/>
<text xml:space="preserve" text-anchor="middle" x="359.5" y="-522.75" font-family="Helvetica,sans-Serif" font-size="10.00">Mode3State::getInstance</text>
</a>
</g>
</g>
<!-- Node2&#45;&gt;Node8 -->
<g id="edge8_Node000002_Node000008" class="edge">
<title>Node2&#45;&gt;Node8</title>
<g id="a_edge8_Node000002_Node000008"><a xlink:title=" ">
<path fill="none" stroke="#63b8ff" d="M225.69,-553.51C247.85,-549.03 274.13,-543.71 297.45,-538.99"/>
<polygon fill="#63b8ff" stroke="#63b8ff" points="298.03,-542.44 307.14,-537.02 296.64,-535.58 298.03,-542.44"/>
</a>
</g>
</g>
<!-- Node4 -->
<g id="Node000004" class="node">
<title>Node4</title>
<g id="a_Node000004"><a xlink:href="class_mode1_state.html#aef0717445295b2fe1e876a7ed72442b9" target="_top" xlink:title=" ">
<polygon fill="white" stroke="#666666" points="585.25,-610.25 458.25,-610.25 458.25,-591 585.25,-591 585.25,-610.25"/>
<text xml:space="preserve" text-anchor="middle" x="521.75" y="-596.75" font-family="Helvetica,sans-Serif" font-size="10.00">Mode1State::Mode1State</text>
</a>
</g>
</g>
<!-- Node3&#45;&gt;Node4 -->
<g id="edge3_Node000003_Node000004" class="edge">
<title>Node3&#45;&gt;Node4</title>
<g id="a_edge3_Node000003_Node000004"><a xlink:title=" ">
<path fill="none" stroke="#63b8ff" d="M422.46,-600.62C430.36,-600.62 438.51,-600.62 446.58,-600.62"/>
<polygon fill="#63b8ff" stroke="#63b8ff" points="446.39,-604.13 456.39,-600.63 446.39,-597.13 446.39,-604.13"/>
</a>
</g>
</g>
<!-- Node5 -->
<g id="Node000005" class="node">
<title>Node5</title>
<g id="a_Node000005"><a xlink:href="class_real_time_loop_state.html#ab5424a183c7d0bc0f850bc08d6583b3a" target="_top" xlink:title=" ">
<polygon fill="white" stroke="#666666" points="729.5,-578.88 621.25,-578.88 621.25,-548.38 729.5,-548.38 729.5,-578.88"/>
<text xml:space="preserve" text-anchor="start" x="629.25" y="-565.38" font-family="Helvetica,sans-Serif" font-size="10.00">RealTimeLoopState::</text>
<text xml:space="preserve" text-anchor="middle" x="675.38" y="-554.12" font-family="Helvetica,sans-Serif" font-size="10.00">RealTimeLoopState</text>
</a>
</g>
</g>
<!-- Node4&#45;&gt;Node5 -->
<g id="edge4_Node000004_Node000005" class="edge">
<title>Node4&#45;&gt;Node5</title>
<g id="a_edge4_Node000004_Node000005"><a xlink:title=" ">
<path fill="none" stroke="#63b8ff" d="M564.18,-590.51C578.29,-587.07 594.42,-583.14 609.9,-579.36"/>
<polygon fill="#63b8ff" stroke="#63b8ff" points="610.67,-582.77 619.55,-577 609.01,-575.97 610.67,-582.77"/>
</a>
</g>
</g>
<!-- Node7 -->
<g id="Node000007" class="node">
<title>Node7</title>
<g id="a_Node000007"><a xlink:href="class_mode2_state.html#a1c93961d41188f65efc613526d0f6a23" target="_top" xlink:title=" ">
<polygon fill="white" stroke="#666666" points="585.25,-573.25 458.25,-573.25 458.25,-554 585.25,-554 585.25,-573.25"/>
<text xml:space="preserve" text-anchor="middle" x="521.75" y="-559.75" font-family="Helvetica,sans-Serif" font-size="10.00">Mode2State::Mode2State</text>
</a>
</g>
</g>
<!-- Node6&#45;&gt;Node7 -->
<g id="edge6_Node000006_Node000007" class="edge">
<title>Node6&#45;&gt;Node7</title>
<g id="a_edge6_Node000006_Node000007"><a xlink:title=" ">
<path fill="none" stroke="#63b8ff" d="M422.46,-563.62C430.36,-563.62 438.51,-563.62 446.58,-563.62"/>
<polygon fill="#63b8ff" stroke="#63b8ff" points="446.39,-567.13 456.39,-563.63 446.39,-560.13 446.39,-567.13"/>
</a>
</g>
</g>
<!-- Node7&#45;&gt;Node5 -->
<g id="edge7_Node000007_Node000005" class="edge">
<title>Node7&#45;&gt;Node5</title>
<g id="a_edge7_Node000007_Node000005"><a xlink:title=" ">
<path fill="none" stroke="#63b8ff" d="M585.74,-563.62C593.61,-563.62 601.67,-563.62 609.57,-563.62"/>
<polygon fill="#63b8ff" stroke="#63b8ff" points="609.47,-567.13 619.47,-563.63 609.47,-560.13 609.47,-567.13"/>
</a>
</g>
</g>
<!-- Node9 -->
<g id="Node000009" class="node">
<title>Node9</title>
<g id="a_Node000009"><a xlink:href="class_mode3_state.html#a7b64f389a91cc6c73d87bc1a8c3efbdf" target="_top" xlink:title=" ">
<polygon fill="white" stroke="#666666" points="585.25,-536.25 458.25,-536.25 458.25,-517 585.25,-517 585.25,-536.25"/>
<text xml:space="preserve" text-anchor="middle" x="521.75" y="-522.75" font-family="Helvetica,sans-Serif" font-size="10.00">Mode3State::Mode3State</text>
</a>
</g>
</g>
<!-- Node8&#45;&gt;Node9 -->
<g id="edge9_Node000008_Node000009" class="edge">
<title>Node8&#45;&gt;Node9</title>
<g id="a_edge9_Node000008_Node000009"><a xlink:title=" ">
<path fill="none" stroke="#63b8ff" d="M422.46,-526.62C430.36,-526.62 438.51,-526.62 446.58,-526.62"/>
<polygon fill="#63b8ff" stroke="#63b8ff" points="446.39,-530.13 456.39,-526.63 446.39,-523.13 446.39,-530.13"/>
</a>
</g>
</g>
<!-- Node9&#45;&gt;Node5 -->
<g id="edge10_Node000009_Node000005" class="edge">
<title>Node9&#45;&gt;Node5</title>
<g id="a_edge10_Node000009_Node000005"><a xlink:title=" ">
<path fill="none" stroke="#63b8ff" d="M564.18,-536.74C578.29,-540.18 594.42,-544.11 609.9,-547.89"/>
<polygon fill="#63b8ff" stroke="#63b8ff" points="609.01,-551.28 619.55,-550.25 610.67,-544.48 609.01,-551.28"/>
</a>
</g>
</g>
</g>
</svg>
