<?xml version="1.0" encoding="UTF-8" standalone="no"?>
<!DOCTYPE svg PUBLIC "-//W3C//DTD SVG 1.1//EN"
 "http://www.w3.org/Graphics/SVG/1.1/DTD/svg11.dtd">
<!-- Generated by graphviz version 14.0.4 (20251115.1723)
 -->
<!-- Title: main.cpp Pages: 1 -->
<!--zoomable 149 -->

<svg id="main" version="1.1" xmlns="http://www.w3.org/2000/svg" xmlns:xlink="http://www.w3.org/1999/xlink" xml:space="preserve" onload="init(evt)">

<style type="text/css"><![CDATA[
.node, .edge {opacity: 0.7;}
.node.selected, .edge.selected {opacity: 1;}
.edge:hover path { stroke: red; }
.edge:hover polygon { stroke: red; fill: red; }
]]></style>

<defs>
  <circle id="rim" cx="0" cy="0" r="7"/>
  <circle id="rim2" cx="0" cy="0" r="3.5"/>
  <g id="zoomPlus">
    <use xlink:href="#rim" fill="#404040"><set attributeName="fill" to="#808080" begin="zoomplus.mouseover" end="zoomplus.mouseout"/></use>
    <path d="M-4,0h8M0,-4v8" fill="none" stroke="white" stroke-width="1.5" pointer-events="none"/>
  </g>
  <g id="zoomMin">
    <use xlink:href="#rim" fill="#404040"><set attributeName="fill" to="#808080" begin="zoomminus.mouseover" end="zoomminus.mouseout"/></use>
    <path d="M-4,0h8" fill="none" stroke="white" stroke-width="1.5" pointer-events="none"/>
  </g>
  <g id="arrowUp" transform="translate(30 24)">
    <use xlink:href="#rim"/>
    <path pointer-events="none" fill="none" stroke="white" stroke-width="1.5" d="M0,-3.0v7 M-2.5,-0.5L0,-3.0L2.5,-0.5"/>
  </g>
  <g id="arrowRight" transform="rotate(90) translate(36 -43)">
    <use xlink:href="#rim"/>
    <path pointer-events="none" fill="none" stroke="white" stroke-width="1.5" d="M0,-3.0v7 M-2.5,-0.5L0,-3.0L2.5,-0.5"/>
  </g>
  <g id="arrowDown" transform="rotate(180) translate(-30 -48)">
    <use xlink:href="#rim"/>
    <path pointer-events="none" fill="none" stroke="white" stroke-width="1.5" d="M0,-3.0v7 M-2.5,-0.5L0,-3.0L2.5,-0.5"/>
  </g>
  <g id="arrowLeft" transform="rotate(270) translate(-36 17)">
    <use xlink:href="#rim"/>
    <path pointer-events="none" fill="none" stroke="white" stroke-width="1.5" d="M0,-3.0v7 M-2.5,-0.5L0,-3.0L2.5,-0.5"/>
  </g>
  <g id="resetDef">
    <use xlink:href="#rim2" fill="#404040"><set attributeName="fill" to="#808080" begin="reset.mouseover" end="reset.mouseout"/></use>
  </g>
</defs>
<script type="application/ecmascript">
var viewWidth = 1451;
var viewHeight = 149;
var sectionId = 'dynsection-0';
</script>
<script type="application/ecmascript" xlink:href="svg.min.js"/>
<svg id="graph" class="graph">
<g id="viewport">
<title>main.cpp</title>
<!-- Node1 -->
<g id="Node000001" class="node">
<title>Node1</title>
<g id="a_Node000001"><a xlink:title=" ">
<polygon fill="#999999" stroke="#666666" points="666.62,-141 610.88,-141 610.88,-121.75 666.62,-121.75 666.62,-141"/>
<text xml:space="preserve" text-anchor="middle" x="638.75" y="-127.5" font-family="Helvetica,sans-Serif" font-size="10.00">main.cpp</text>
</a>
</g>
</g>
<!-- Node2 -->
<g id="Node000002" class="node">
<title>Node2</title>
<g id="a_Node000002"><a xlink:title=" ">
<polygon fill="#e0e0e0" stroke="#999999" points="53.5,-80.12 0,-80.12 0,-60.88 53.5,-60.88 53.5,-80.12"/>
<text xml:space="preserve" text-anchor="middle" x="26.75" y="-66.62" font-family="Helvetica,sans-Serif" font-size="10.00">systemc</text>
</a>
</g>
</g>
<!-- Node1&#45;&gt;Node2 -->
<g id="edge1_Node000001_Node000002" class="edge">
<title>Node1&#45;&gt;Node2</title>
<g id="a_edge1_Node000001_Node000002"><a xlink:title=" ">
<path fill="none" stroke="#63b8ff" d="M610.45,-129.3C509.71,-125.31 168.9,-110.28 62.75,-85.75 60.99,-85.34 59.2,-84.86 57.41,-84.33"/>
<polygon fill="#63b8ff" stroke="#63b8ff" points="58.62,-81.05 48.02,-81.08 56.32,-87.66 58.62,-81.05"/>
</a>
</g>
</g>
<!-- Node3 -->
<g id="Node000003" class="node">
<title>Node3</title>
<g id="a_Node000003"><a xlink:href="simple__process__ex_8h.html" target="_top" xlink:title=" ">
<polygon fill="white" stroke="#666666" points="206,-85.75 71.5,-85.75 71.5,-55.25 206,-55.25 206,-85.75"/>
<text xml:space="preserve" text-anchor="start" x="79.5" y="-72.25" font-family="Helvetica,sans-Serif" font-size="10.00">nonassignment_exs/simple</text>
<text xml:space="preserve" text-anchor="middle" x="138.75" y="-61" font-family="Helvetica,sans-Serif" font-size="10.00">_process_ex.h</text>
</a>
</g>
</g>
<!-- Node1&#45;&gt;Node3 -->
<g id="edge2_Node000001_Node000003" class="edge">
<title>Node1&#45;&gt;Node3</title>
<g id="a_edge2_Node000001_Node000003"><a xlink:title=" ">
<path fill="none" stroke="#63b8ff" d="M610.62,-128.2C544.08,-122.9 371.58,-108.16 217.32,-86.05"/>
<polygon fill="#63b8ff" stroke="#63b8ff" points="218.14,-82.63 207.75,-84.66 217.14,-89.56 218.14,-82.63"/>
</a>
</g>
</g>
<!-- Node5 -->
<g id="Node000005" class="node">
<title>Node5</title>
<g id="a_Node000005"><a xlink:title=" ">
<polygon fill="#e0e0e0" stroke="#999999" points="323.75,-80.12 223.75,-80.12 223.75,-60.88 323.75,-60.88 323.75,-80.12"/>
<text xml:space="preserve" text-anchor="middle" x="273.75" y="-66.62" font-family="Helvetica,sans-Serif" font-size="10.00">ex1lec4slides/top.h</text>
</a>
</g>
</g>
<!-- Node1&#45;&gt;Node5 -->
<g id="edge4_Node000001_Node000005" class="edge">
<title>Node1&#45;&gt;Node5</title>
<g id="a_edge4_Node000001_Node000005"><a xlink:title=" ">
<path fill="none" stroke="#63b8ff" d="M610.76,-127.17C556.74,-120.79 434.48,-105.41 332.75,-85.75 328.68,-84.96 324.47,-84.08 320.26,-83.16"/>
<polygon fill="#63b8ff" stroke="#63b8ff" points="321.21,-79.78 310.68,-80.96 319.64,-86.6 321.21,-79.78"/>
</a>
</g>
</g>
<!-- Node6 -->
<g id="Node000006" class="node">
<title>Node6</title>
<g id="a_Node000006"><a xlink:title=" ">
<polygon fill="#e0e0e0" stroke="#999999" points="477.38,-85.75 342.12,-85.75 342.12,-55.25 477.38,-55.25 477.38,-85.75"/>
<text xml:space="preserve" text-anchor="start" x="350.12" y="-72.25" font-family="Helvetica,sans-Serif" font-size="10.00">assignmentcode/31/Module</text>
<text xml:space="preserve" text-anchor="middle" x="409.75" y="-61" font-family="Helvetica,sans-Serif" font-size="10.00">Single.h</text>
</a>
</g>
</g>
<!-- Node1&#45;&gt;Node6 -->
<g id="edge5_Node000001_Node000006" class="edge">
<title>Node1&#45;&gt;Node6</title>
<g id="a_edge5_Node000001_Node000006"><a xlink:title=" ">
<path fill="none" stroke="#63b8ff" d="M610.67,-123.16C577.86,-114.72 522.41,-100.47 478.07,-89.06"/>
<polygon fill="#63b8ff" stroke="#63b8ff" points="479.08,-85.71 468.52,-86.61 477.34,-92.49 479.08,-85.71"/>
</a>
</g>
</g>
<!-- Node7 -->
<g id="Node000007" class="node">
<title>Node7</title>
<g id="a_Node000007"><a xlink:title=" ">
<polygon fill="#e0e0e0" stroke="#999999" points="630.38,-85.75 495.12,-85.75 495.12,-55.25 630.38,-55.25 630.38,-85.75"/>
<text xml:space="preserve" text-anchor="start" x="503.12" y="-72.25" font-family="Helvetica,sans-Serif" font-size="10.00">assignmentcode/32/Module</text>
<text xml:space="preserve" text-anchor="middle" x="562.75" y="-61" font-family="Helvetica,sans-Serif" font-size="10.00">Double.h</text>
</a>
</g>
</g>
<!-- Node1&#45;&gt;Node7 -->
<g id="edge6_Node000001_Node000007" class="edge">
<title>Node1&#45;&gt;Node7</title>
<g id="a_edge6_Node000001_Node000007"><a xlink:title=" ">
<path fill="none" stroke="#63b8ff" d="M627.21,-121.43C617.45,-113.87 603.07,-102.74 590.37,-92.9"/>
<polygon fill="#63b8ff" stroke="#63b8ff" points="592.75,-90.32 582.71,-86.96 588.47,-95.85 592.75,-90.32"/>
</a>
</g>
</g>
<!-- Node8 -->
<g id="Node000008" class="node">
<title>Node8</title>
<g id="a_Node000008"><a xlink:title=" ">
<polygon fill="#e0e0e0" stroke="#999999" points="783.38,-85.75 648.12,-85.75 648.12,-55.25 783.38,-55.25 783.38,-85.75"/>
<text xml:space="preserve" text-anchor="start" x="656.12" y="-72.25" font-family="Helvetica,sans-Serif" font-size="10.00">assignmentcode/33/Module</text>
<text xml:space="preserve" text-anchor="middle" x="715.75" y="-61" font-family="Helvetica,sans-Serif" font-size="10.00">TCP.h</text>
</a>
</g>
</g>
<!-- Node1&#45;&gt;Node8 -->
<g id="edge7_Node000001_Node000008" class="edge">
<title>Node1&#45;&gt;Node8</title>
<g id="a_edge7_Node000001_Node000008"><a xlink:title=" ">
<path fill="none" stroke="#63b8ff" d="M650.44,-121.43C660.33,-113.87 674.9,-102.74 687.76,-92.9"/>
<polygon fill="#63b8ff" stroke="#63b8ff" points="689.72,-95.81 695.54,-86.95 685.47,-90.25 689.72,-95.81"/>
</a>
</g>
</g>
<!-- Node9 -->
<g id="Node000009" class="node">
<title>Node9</title>
<g id="a_Node000009"><a xlink:title=" ">
<polygon fill="#e0e0e0" stroke="#999999" points="948,-80.12 801.5,-80.12 801.5,-60.88 948,-60.88 948,-80.12"/>
<text xml:space="preserve" text-anchor="middle" x="874.75" y="-66.62" font-family="Helvetica,sans-Serif" font-size="10.00">assignmentcode/33/TopTCP.h</text>
</a>
</g>
</g>
<!-- Node1&#45;&gt;Node9 -->
<g id="edge8_Node000001_Node000009" class="edge">
<title>Node1&#45;&gt;Node9</title>
<g id="a_edge8_Node000001_Node000009"><a xlink:title=" ">
<path fill="none" stroke="#63b8ff" d="M666.75,-123.39C706.31,-113.52 779.11,-95.36 827.22,-83.36"/>
<polygon fill="#63b8ff" stroke="#63b8ff" points="827.97,-86.78 836.82,-80.96 826.27,-79.99 827.97,-86.78"/>
</a>
</g>
</g>
<!-- Node10 -->
<g id="Node000010" class="node">
<title>Node10</title>
<g id="a_Node000010"><a xlink:title=" ">
<polygon fill="#e0e0e0" stroke="#999999" points="1099.62,-85.75 965.88,-85.75 965.88,-55.25 1099.62,-55.25 1099.62,-85.75"/>
<text xml:space="preserve" text-anchor="start" x="973.88" y="-72.25" font-family="Helvetica,sans-Serif" font-size="10.00">assignmentcode/34/Avalon</text>
<text xml:space="preserve" text-anchor="middle" x="1032.75" y="-61" font-family="Helvetica,sans-Serif" font-size="10.00">STTop.h</text>
</a>
</g>
</g>
<!-- Node1&#45;&gt;Node10 -->
<g id="edge9_Node000001_Node000010" class="edge">
<title>Node1&#45;&gt;Node10</title>
<g id="a_edge9_Node000001_Node000010"><a xlink:title=" ">
<path fill="none" stroke="#63b8ff" d="M666.89,-126.87C720.64,-120.07 841.87,-104.3 954.43,-86.08"/>
<polygon fill="#63b8ff" stroke="#63b8ff" points="954.84,-89.56 964.15,-84.5 953.72,-82.65 954.84,-89.56"/>
</a>
</g>
</g>
<!-- Node11 -->
<g id="Node000011" class="node">
<title>Node11</title>
<g id="a_Node000011"><a xlink:title=" ">
<polygon fill="#e0e0e0" stroke="#999999" points="1255.88,-80.12 1117.62,-80.12 1117.62,-60.88 1255.88,-60.88 1255.88,-80.12"/>
<text xml:space="preserve" text-anchor="middle" x="1186.75" y="-66.62" font-family="Helvetica,sans-Serif" font-size="10.00">assignmentcode/35/Top35.h</text>
</a>
</g>
</g>
<!-- Node1&#45;&gt;Node11 -->
<g id="edge10_Node000001_Node000011" class="edge">
<title>Node1&#45;&gt;Node11</title>
<g id="a_edge10_Node000001_Node000011"><a xlink:title=" ">
<path fill="none" stroke="#63b8ff" d="M666.93,-128.55C740.07,-123.63 941.91,-108.87 1108.75,-85.75 1115.47,-84.82 1122.49,-83.72 1129.45,-82.55"/>
<polygon fill="#63b8ff" stroke="#63b8ff" points="1129.92,-86.02 1139.17,-80.86 1128.72,-79.12 1129.92,-86.02"/>
</a>
</g>
</g>
<!-- Node12 -->
<g id="Node000012" class="node">
<title>Node12</title>
<g id="a_Node000012"><a xlink:href="_states_as_singletons_8h.html" target="_top" xlink:title=" ">
<polygon fill="white" stroke="#666666" points="1443.25,-80.12 1274.25,-80.12 1274.25,-60.88 1443.25,-60.88 1443.25,-80.12"/>
<text xml:space="preserve" text-anchor="middle" x="1358.75" y="-66.62" font-family="Helvetica,sans-Serif" font-size="10.00">assignment3/StatesAsSingletons.h</text>
</a>
</g>
</g>
<!-- Node1&#45;&gt;Node12 -->
<g id="edge11_Node000001_Node000012" class="edge">
<title>Node1&#45;&gt;Node12</title>
<g id="a_edge11_Node000001_Node000012"><a xlink:title=" ">
<path fill="none" stroke="#63b8ff" d="M666.9,-129.17C755.22,-125.2 1034.64,-111.35 1264.75,-85.75 1273.73,-84.75 1283.17,-83.53 1292.46,-82.22"/>
<polygon fill="#63b8ff" stroke="#63b8ff" points="1292.78,-85.71 1302.18,-80.81 1291.78,-78.78 1292.78,-85.71"/>
</a>
</g>
</g>
<!-- Node4 -->
<g id="Node000004" class="node">
<title>Node4</title>
<g id="a_Node000004"><a xlink:title=" ">
<polygon fill="#e0e0e0" stroke="#999999" points="169.62,-19.25 107.88,-19.25 107.88,0 169.62,0 169.62,-19.25"/>
<text xml:space="preserve" text-anchor="middle" x="138.75" y="-5.75" font-family="Helvetica,sans-Serif" font-size="10.00">systemc.h</text>
</a>
</g>
</g>
<!-- Node3&#45;&gt;Node4 -->
<g id="edge3_Node000003_Node000004" class="edge">
<title>Node3&#45;&gt;Node4</title>
<g id="a_edge3_Node000003_Node000004"><a xlink:title=" ">
<path fill="none" stroke="#63b8ff" d="M138.75,-54.95C138.75,-47.71 138.75,-38.84 138.75,-30.94"/>
<polygon fill="#63b8ff" stroke="#63b8ff" points="142.25,-31.21 138.75,-21.21 135.25,-31.21 142.25,-31.21"/>
</a>
</g>
</g>
<!-- Node13 -->
<g id="Node000013" class="node">
<title>Node13</title>
<g id="a_Node000013"><a xlink:title=" ">
<polygon fill="#e0e0e0" stroke="#999999" points="1315.5,-19.25 1262,-19.25 1262,0 1315.5,0 1315.5,-19.25"/>
<text xml:space="preserve" text-anchor="middle" x="1288.75" y="-5.75" font-family="Helvetica,sans-Serif" font-size="10.00">iostream</text>
</a>
</g>
</g>
<!-- Node12&#45;&gt;Node13 -->
<g id="edge12_Node000012_Node000013" class="edge">
<title>Node12&#45;&gt;Node13</title>
<g id="a_edge12_Node000012_Node000013"><a xlink:title=" ">
<path fill="none" stroke="#63b8ff" d="M1348.12,-60.56C1337.53,-51.65 1321.04,-37.78 1308.12,-26.92"/>
<polygon fill="#63b8ff" stroke="#63b8ff" points="1310.55,-24.38 1300.64,-20.63 1306.04,-29.74 1310.55,-24.38"/>
</a>
</g>
</g>
<!-- Node14 -->
<g id="Node000014" class="node">
<title>Node14</title>
<g id="a_Node000014"><a xlink:title=" ">
<polygon fill="#e0e0e0" stroke="#999999" points="1384.38,-19.25 1333.12,-19.25 1333.12,0 1384.38,0 1384.38,-19.25"/>
<text xml:space="preserve" text-anchor="middle" x="1358.75" y="-5.75" font-family="Helvetica,sans-Serif" font-size="10.00">memory</text>
</a>
</g>
</g>
<!-- Node12&#45;&gt;Node14 -->
<g id="edge13_Node000012_Node000014" class="edge">
<title>Node12&#45;&gt;Node14</title>
<g id="a_edge13_Node000012_Node000014"><a xlink:title=" ">
<path fill="none" stroke="#63b8ff" d="M1358.75,-60.56C1358.75,-52.78 1358.75,-41.2 1358.75,-31.16"/>
<polygon fill="#63b8ff" stroke="#63b8ff" points="1362.25,-31.16 1358.75,-21.16 1355.25,-31.16 1362.25,-31.16"/>
</a>
</g>
</g>
<!-- Node15 -->
<g id="Node000015" class="node">
<title>Node15</title>
<g id="a_Node000015"><a xlink:title=" ">
<polygon fill="#e0e0e0" stroke="#999999" points="1442.75,-19.25 1402.75,-19.25 1402.75,0 1442.75,0 1442.75,-19.25"/>
<text xml:space="preserve" text-anchor="middle" x="1422.75" y="-5.75" font-family="Helvetica,sans-Serif" font-size="10.00">string</text>
</a>
</g>
</g>
<!-- Node12&#45;&gt;Node15 -->
<g id="edge14_Node000012_Node000015" class="edge">
<title>Node12&#45;&gt;Node15</title>
<g id="a_edge14_Node000012_Node000015"><a xlink:title=" ">
<path fill="none" stroke="#63b8ff" d="M1368.47,-60.56C1378.06,-51.74 1392.94,-38.05 1404.69,-27.23"/>
<polygon fill="#63b8ff" stroke="#63b8ff" points="1406.83,-30.02 1411.82,-20.68 1402.1,-24.87 1406.83,-30.02"/>
</a>
</g>
</g>
</g>
</svg>

<g id="navigator" transform="translate(0 0)" fill="#404254">
  <rect fill="#f2f5e9" fill-opacity="0.5" stroke="#606060" stroke-width=".5" x="0" y="0" width="60" height="60"/>
  <use id="zoomplus" xlink:href="#zoomPlus" x="17" y="9" onmousedown="handleZoom(evt,'in')"/>
  <use id="zoomminus" xlink:href="#zoomMin" x="42" y="9" onmousedown="handleZoom(evt,'out')"/>
  <use id="reset" xlink:href="#resetDef" x="30" y="36" onmousedown="handleReset()"/>
   <use id="arrowup" xlink:href="#arrowUp" x="0" y="0" onmousedown="handlePan(0,-1)"/>
  <use id="arrowright" xlink:href="#arrowRight" x="0" y="0" onmousedown="handlePan(1,0)"/>
  <use id="arrowdown" xlink:href="#arrowDown" x="0" y="0" onmousedown="handlePan(0,1)"/>
  <use id="arrowleft" xlink:href="#arrowLeft" x="0" y="0" onmousedown="handlePan(-1,0)"/>
</g>
<svg viewBox="0 0 15 15" width="100%" height="30px" preserveAspectRatio="xMaxYMin meet">
 <g id="arrow_out" transform="scale(0.3 0.3)">
  <a xlink:href="main_8cpp__incl_org.svg" target="_base">
   <rect id="button" ry="5" rx="5" y="6" x="6" height="38" width="38"
        fill="#f2f5e9" fill-opacity="0.5" stroke="#606060" stroke-width="1.0"/>
   <path id="arrow"
     d="M 11.500037,31.436501 C 11.940474,20.09759 22.043105,11.32322 32.158766,21.979434 L 37.068811,17.246167 C 37.068811,17.246167 37.088388,32 37.088388,32 L 22.160133,31.978069 C 22.160133,31.978069 26.997745,27.140456 26.997745,27.140456 C 18.528582,18.264221 13.291696,25.230495 11.500037,31.436501 z"
     style="fill:#404040;"/>
  </a>
 </g>
</svg>

<style type='text/css'>
<![CDATA[
[data-mouse-over-selected='false'] { opacity: 0.7; }
[data-mouse-over-selected='true']  { opacity: 1.0; }
]]>
</style>
<script type="application/ecmascript"><![CDATA[
document.addEventListener('DOMContentLoaded', (event) => {
  highlightEdges();
  highlightAdjacentNodes();
});
]]></script>
</svg>
