<?xml version="1.0" encoding="UTF-8" standalone="no"?>
<!DOCTYPE svg PUBLIC "-//W3C//DTD SVG 1.1//EN"
 "http://www.w3.org/Graphics/SVG/1.1/DTD/svg11.dtd">
<!-- Generated by graphviz version 14.0.4 (20251115.1723)
 -->
<!-- Title: main.cpp Pages: 1 -->
<svg width="1451pt" height="149pt"
 viewBox="0.00 0.00 1451.00 149.00" xmlns="http://www.w3.org/2000/svg" xmlns:xlink="http://www.w3.org/1999/xlink">
<g id="graph0" class="graph" transform="scale(1 1) rotate(0) translate(4 145)">
<title>main.cpp</title>
<!-- Node1 -->
<g id="Node000001" class="node">
<title>Node1</title>
<g id="a_Node000001"><a xlink:title=" ">
<polygon fill="#999999" stroke="#666666" points="666.62,-141 610.88,-141 610.88,-121.75 666.62,-121.75 666.62,-141"/>
<text xml:space="preserve" text-anchor="middle" x="638.75" y="-127.5" font-family="Helvetica,sans-Serif" font-size="10.00">main.cpp</text>
</a>
</g>
</g>
<!-- Node2 -->
<g id="Node000002" class="node">
<title>Node2</title>
<g id="a_Node000002"><a xlink:title=" ">
<polygon fill="#e0e0e0" stroke="#999999" points="53.5,-80.12 0,-80.12 0,-60.88 53.5,-60.88 53.5,-80.12"/>
<text xml:space="preserve" text-anchor="middle" x="26.75" y="-66.62" font-family="Helvetica,sans-Serif" font-size="10.00">systemc</text>
</a>
</g>
</g>
<!-- Node1&#45;&gt;Node2 -->
<g id="edge1_Node000001_Node000002" class="edge">
<title>Node1&#45;&gt;Node2</title>
<g id="a_edge1_Node000001_Node000002"><a xlink:title=" ">
<path fill="none" stroke="#63b8ff" d="M610.45,-129.3C509.71,-125.31 168.9,-110.28 62.75,-85.75 60.99,-85.34 59.2,-84.86 57.41,-84.33"/>
<polygon fill="#63b8ff" stroke="#63b8ff" points="58.62,-81.05 48.02,-81.08 56.32,-87.66 58.62,-81.05"/>
</a>
</g>
</g>
<!-- Node3 -->
<g id="Node000003" class="node">
<title>Node3</title>
<g id="a_Node000003"><a xlink:href="simple__process__ex_8h.html" target="_top" xlink:title=" ">
<polygon fill="white" stroke="#666666" points="206,-85.75 71.5,-85.75 71.5,-55.25 206,-55.25 206,-85.75"/>
<text xml:space="preserve" text-anchor="start" x="79.5" y="-72.25" font-family="Helvetica,sans-Serif" font-size="10.00">nonassignment_exs/simple</text>
<text xml:space="preserve" text-anchor="middle" x="138.75" y="-61" font-family="Helvetica,sans-Serif" font-size="10.00">_process_ex.h</text>
</a>
</g>
</g>
<!-- Node1&#45;&gt;Node3 -->
<g id="edge2_Node000001_Node000003" class="edge">
<title>Node1&#45;&gt;Node3</title>
<g id="a_edge2_Node000001_Node000003"><a xlink:title=" ">
<path fill="none" stroke="#63b8ff" d="M610.62,-128.2C544.08,-122.9 371.58,-108.16 217.32,-86.05"/>
<polygon fill="#63b8ff" stroke="#63b8ff" points="218.14,-82.63 207.75,-84.66 217.14,-89.56 218.14,-82.63"/>
</a>
</g>
</g>
<!-- Node5 -->
<g id="Node000005" class="node">
<title>Node5</title>
<g id="a_Node000005"><a xlink:title=" ">
<polygon fill="#e0e0e0" stroke="#999999" points="323.75,-80.12 223.75,-80.12 223.75,-60.88 323.75,-60.88 323.75,-80.12"/>
<text xml:space="preserve" text-anchor="middle" x="273.75" y="-66.62" font-family="Helvetica,sans-Serif" font-size="10.00">ex1lec4slides/top.h</text>
</a>
</g>
</g>
<!-- Node1&#45;&gt;Node5 -->
<g id="edge4_Node000001_Node000005" class="edge">
<title>Node1&#45;&gt;Node5</title>
<g id="a_edge4_Node000001_Node000005"><a xlink:title=" ">
<path fill="none" stroke="#63b8ff" d="M610.76,-127.17C556.74,-120.79 434.48,-105.41 332.75,-85.75 328.68,-84.96 324.47,-84.08 320.26,-83.16"/>
<polygon fill="#63b8ff" stroke="#63b8ff" points="321.21,-79.78 310.68,-80.96 319.64,-86.6 321.21,-79.78"/>
</a>
</g>
</g>
<!-- Node6 -->
<g id="Node000006" class="node">
<title>Node6</title>
<g id="a_Node000006"><a xlink:title=" ">
<polygon fill="#e0e0e0" stroke="#999999" points="477.38,-85.75 342.12,-85.75 342.12,-55.25 477.38,-55.25 477.38,-85.75"/>
<text xml:space="preserve" text-anchor="start" x="350.12" y="-72.25" font-family="Helvetica,sans-Serif" font-size="10.00">assignmentcode/31/Module</text>
<text xml:space="preserve" text-anchor="middle" x="409.75" y="-61" font-family="Helvetica,sans-Serif" font-size="10.00">Single.h</text>
</a>
</g>
</g>
<!-- Node1&#45;&gt;Node6 -->
<g id="edge5_Node000001_Node000006" class="edge">
<title>Node1&#45;&gt;Node6</title>
<g id="a_edge5_Node000001_Node000006"><a xlink:title=" ">
<path fill="none" stroke="#63b8ff" d="M610.67,-123.16C577.86,-114.72 522.41,-100.47 478.07,-89.06"/>
<polygon fill="#63b8ff" stroke="#63b8ff" points="479.08,-85.71 468.52,-86.61 477.34,-92.49 479.08,-85.71"/>
</a>
</g>
</g>
<!-- Node7 -->
<g id="Node000007" class="node">
<title>Node7</title>
<g id="a_Node000007"><a xlink:title=" ">
<polygon fill="#e0e0e0" stroke="#999999" points="630.38,-85.75 495.12,-85.75 495.12,-55.25 630.38,-55.25 630.38,-85.75"/>
<text xml:space="preserve" text-anchor="start" x="503.12" y="-72.25" font-family="Helvetica,sans-Serif" font-size="10.00">assignmentcode/32/Module</text>
<text xml:space="preserve" text-anchor="middle" x="562.75" y="-61" font-family="Helvetica,sans-Serif" font-size="10.00">Double.h</text>
</a>
</g>
</g>
<!-- Node1&#45;&gt;Node7 -->
<g id="edge6_Node000001_Node000007" class="edge">
<title>Node1&#45;&gt;Node7</title>
<g id="a_edge6_Node000001_Node000007"><a xlink:title=" ">
<path fill="none" stroke="#63b8ff" d="M627.21,-121.43C617.45,-113.87 603.07,-102.74 590.37,-92.9"/>
<polygon fill="#63b8ff" stroke="#63b8ff" points="592.75,-90.32 582.71,-86.96 588.47,-95.85 592.75,-90.32"/>
</a>
</g>
</g>
<!-- Node8 -->
<g id="Node000008" class="node">
<title>Node8</title>
<g id="a_Node000008"><a xlink:title=" ">
<polygon fill="#e0e0e0" stroke="#999999" points="783.38,-85.75 648.12,-85.75 648.12,-55.25 783.38,-55.25 783.38,-85.75"/>
<text xml:space="preserve" text-anchor="start" x="656.12" y="-72.25" font-family="Helvetica,sans-Serif" font-size="10.00">assignmentcode/33/Module</text>
<text xml:space="preserve" text-anchor="middle" x="715.75" y="-61" font-family="Helvetica,sans-Serif" font-size="10.00">TCP.h</text>
</a>
</g>
</g>
<!-- Node1&#45;&gt;Node8 -->
<g id="edge7_Node000001_Node000008" class="edge">
<title>Node1&#45;&gt;Node8</title>
<g id="a_edge7_Node000001_Node000008"><a xlink:title=" ">
<path fill="none" stroke="#63b8ff" d="M650.44,-121.43C660.33,-113.87 674.9,-102.74 687.76,-92.9"/>
<polygon fill="#63b8ff" stroke="#63b8ff" points="689.72,-95.81 695.54,-86.95 685.47,-90.25 689.72,-95.81"/>
</a>
</g>
</g>
<!-- Node9 -->
<g id="Node000009" class="node">
<title>Node9</title>
<g id="a_Node000009"><a xlink:title=" ">
<polygon fill="#e0e0e0" stroke="#999999" points="948,-80.12 801.5,-80.12 801.5,-60.88 948,-60.88 948,-80.12"/>
<text xml:space="preserve" text-anchor="middle" x="874.75" y="-66.62" font-family="Helvetica,sans-Serif" font-size="10.00">assignmentcode/33/TopTCP.h</text>
</a>
</g>
</g>
<!-- Node1&#45;&gt;Node9 -->
<g id="edge8_Node000001_Node000009" class="edge">
<title>Node1&#45;&gt;Node9</title>
<g id="a_edge8_Node000001_Node000009"><a xlink:title=" ">
<path fill="none" stroke="#63b8ff" d="M666.75,-123.39C706.31,-113.52 779.11,-95.36 827.22,-83.36"/>
<polygon fill="#63b8ff" stroke="#63b8ff" points="827.97,-86.78 836.82,-80.96 826.27,-79.99 827.97,-86.78"/>
</a>
</g>
</g>
<!-- Node10 -->
<g id="Node000010" class="node">
<title>Node10</title>
<g id="a_Node000010"><a xlink:title=" ">
<polygon fill="#e0e0e0" stroke="#999999" points="1099.62,-85.75 965.88,-85.75 965.88,-55.25 1099.62,-55.25 1099.62,-85.75"/>
<text xml:space="preserve" text-anchor="start" x="973.88" y="-72.25" font-family="Helvetica,sans-Serif" font-size="10.00">assignmentcode/34/Avalon</text>
<text xml:space="preserve" text-anchor="middle" x="1032.75" y="-61" font-family="Helvetica,sans-Serif" font-size="10.00">STTop.h</text>
</a>
</g>
</g>
<!-- Node1&#45;&gt;Node10 -->
<g id="edge9_Node000001_Node000010" class="edge">
<title>Node1&#45;&gt;Node10</title>
<g id="a_edge9_Node000001_Node000010"><a xlink:title=" ">
<path fill="none" stroke="#63b8ff" d="M666.89,-126.87C720.64,-120.07 841.87,-104.3 954.43,-86.08"/>
<polygon fill="#63b8ff" stroke="#63b8ff" points="954.84,-89.56 964.15,-84.5 953.72,-82.65 954.84,-89.56"/>
</a>
</g>
</g>
<!-- Node11 -->
<g id="Node000011" class="node">
<title>Node11</title>
<g id="a_Node000011"><a xlink:title=" ">
<polygon fill="#e0e0e0" stroke="#999999" points="1255.88,-80.12 1117.62,-80.12 1117.62,-60.88 1255.88,-60.88 1255.88,-80.12"/>
<text xml:space="preserve" text-anchor="middle" x="1186.75" y="-66.62" font-family="Helvetica,sans-Serif" font-size="10.00">assignmentcode/35/Top35.h</text>
</a>
</g>
</g>
<!-- Node1&#45;&gt;Node11 -->
<g id="edge10_Node000001_Node000011" class="edge">
<title>Node1&#45;&gt;Node11</title>
<g id="a_edge10_Node000001_Node000011"><a xlink:title=" ">
<path fill="none" stroke="#63b8ff" d="M666.93,-128.55C740.07,-123.63 941.91,-108.87 1108.75,-85.75 1115.47,-84.82 1122.49,-83.72 1129.45,-82.55"/>
<polygon fill="#63b8ff" stroke="#63b8ff" points="1129.92,-86.02 1139.17,-80.86 1128.72,-79.12 1129.92,-86.02"/>
</a>
</g>
</g>
<!-- Node12 -->
<g id="Node000012" class="node">
<title>Node12</title>
<g id="a_Node000012"><a xlink:href="_states_as_singletons_8h.html" target="_top" xlink:title=" ">
<polygon fill="white" stroke="#666666" points="1443.25,-80.12 1274.25,-80.12 1274.25,-60.88 1443.25,-60.88 1443.25,-80.12"/>
<text xml:space="preserve" text-anchor="middle" x="1358.75" y="-66.62" font-family="Helvetica,sans-Serif" font-size="10.00">assignment3/StatesAsSingletons.h</text>
</a>
</g>
</g>
<!-- Node1&#45;&gt;Node12 -->
<g id="edge11_Node000001_Node000012" class="edge">
<title>Node1&#45;&gt;Node12</title>
<g id="a_edge11_Node000001_Node000012"><a xlink:title=" ">
<path fill="none" stroke="#63b8ff" d="M666.9,-129.17C755.22,-125.2 1034.64,-111.35 1264.75,-85.75 1273.73,-84.75 1283.17,-83.53 1292.46,-82.22"/>
<polygon fill="#63b8ff" stroke="#63b8ff" points="1292.78,-85.71 1302.18,-80.81 1291.78,-78.78 1292.78,-85.71"/>
</a>
</g>
</g>
<!-- Node4 -->
<g id="Node000004" class="node">
<title>Node4</title>
<g id="a_Node000004"><a xlink:title=" ">
<polygon fill="#e0e0e0" stroke="#999999" points="169.62,-19.25 107.88,-19.25 107.88,0 169.62,0 169.62,-19.25"/>
<text xml:space="preserve" text-anchor="middle" x="138.75" y="-5.75" font-family="Helvetica,sans-Serif" font-size="10.00">systemc.h</text>
</a>
</g>
</g>
<!-- Node3&#45;&gt;Node4 -->
<g id="edge3_Node000003_Node000004" class="edge">
<title>Node3&#45;&gt;Node4</title>
<g id="a_edge3_Node000003_Node000004"><a xlink:title=" ">
<path fill="none" stroke="#63b8ff" d="M138.75,-54.95C138.75,-47.71 138.75,-38.84 138.75,-30.94"/>
<polygon fill="#63b8ff" stroke="#63b8ff" points="142.25,-31.21 138.75,-21.21 135.25,-31.21 142.25,-31.21"/>
</a>
</g>
</g>
<!-- Node13 -->
<g id="Node000013" class="node">
<title>Node13</title>
<g id="a_Node000013"><a xlink:title=" ">
<polygon fill="#e0e0e0" stroke="#999999" points="1315.5,-19.25 1262,-19.25 1262,0 1315.5,0 1315.5,-19.25"/>
<text xml:space="preserve" text-anchor="middle" x="1288.75" y="-5.75" font-family="Helvetica,sans-Serif" font-size="10.00">iostream</text>
</a>
</g>
</g>
<!-- Node12&#45;&gt;Node13 -->
<g id="edge12_Node000012_Node000013" class="edge">
<title>Node12&#45;&gt;Node13</title>
<g id="a_edge12_Node000012_Node000013"><a xlink:title=" ">
<path fill="none" stroke="#63b8ff" d="M1348.12,-60.56C1337.53,-51.65 1321.04,-37.78 1308.12,-26.92"/>
<polygon fill="#63b8ff" stroke="#63b8ff" points="1310.55,-24.38 1300.64,-20.63 1306.04,-29.74 1310.55,-24.38"/>
</a>
</g>
</g>
<!-- Node14 -->
<g id="Node000014" class="node">
<title>Node14</title>
<g id="a_Node000014"><a xlink:title=" ">
<polygon fill="#e0e0e0" stroke="#999999" points="1384.38,-19.25 1333.12,-19.25 1333.12,0 1384.38,0 1384.38,-19.25"/>
<text xml:space="preserve" text-anchor="middle" x="1358.75" y="-5.75" font-family="Helvetica,sans-Serif" font-size="10.00">memory</text>
</a>
</g>
</g>
<!-- Node12&#45;&gt;Node14 -->
<g id="edge13_Node000012_Node000014" class="edge">
<title>Node12&#45;&gt;Node14</title>
<g id="a_edge13_Node000012_Node000014"><a xlink:title=" ">
<path fill="none" stroke="#63b8ff" d="M1358.75,-60.56C1358.75,-52.78 1358.75,-41.2 1358.75,-31.16"/>
<polygon fill="#63b8ff" stroke="#63b8ff" points="1362.25,-31.16 1358.75,-21.16 1355.25,-31.16 1362.25,-31.16"/>
</a>
</g>
</g>
<!-- Node15 -->
<g id="Node000015" class="node">
<title>Node15</title>
<g id="a_Node000015"><a xlink:title=" ">
<polygon fill="#e0e0e0" stroke="#999999" points="1442.75,-19.25 1402.75,-19.25 1402.75,0 1442.75,0 1442.75,-19.25"/>
<text xml:space="preserve" text-anchor="middle" x="1422.75" y="-5.75" font-family="Helvetica,sans-Serif" font-size="10.00">string</text>
</a>
</g>
</g>
<!-- Node12&#45;&gt;Node15 -->
<g id="edge14_Node000012_Node000015" class="edge">
<title>Node12&#45;&gt;Node15</title>
<g id="a_edge14_Node000012_Node000015"><a xlink:title=" ">
<path fill="none" stroke="#63b8ff" d="M1368.47,-60.56C1378.06,-51.74 1392.94,-38.05 1404.69,-27.23"/>
<polygon fill="#63b8ff" stroke="#63b8ff" points="1406.83,-30.02 1411.82,-20.68 1402.1,-24.87 1406.83,-30.02"/>
</a>
</g>
</g>
</g>
</svg>
