<?xml version="1.0" encoding="UTF-8" standalone="no"?>
<!DOCTYPE svg PUBLIC "-//W3C//DTD SVG 1.1//EN"
 "http://www.w3.org/Graphics/SVG/1.1/DTD/svg11.dtd">
<!-- Generated by graphviz version 14.0.4 (20251115.1723)
 -->
<!-- Title: nonassignment_exs/simple_process_ex.h Pages: 1 -->
<svg width="216pt" height="105pt"
 viewBox="0.00 0.00 216.00 105.00" xmlns="http://www.w3.org/2000/svg" xmlns:xlink="http://www.w3.org/1999/xlink">
<g id="graph0" class="graph" transform="scale(1 1) rotate(0) translate(4 101)">
<title>nonassignment_exs/simple_process_ex.h</title>
<!-- Node1 -->
<g id="Node000001" class="node">
<title>Node1</title>
<g id="a_Node000001"><a xlink:title=" ">
<polygon fill="#999999" stroke="#666666" points="151.12,-97 16.62,-97 16.62,-66.5 151.12,-66.5 151.12,-97"/>
<text xml:space="preserve" text-anchor="start" x="24.62" y="-83.5" font-family="Helvetica,sans-Serif" font-size="10.00">nonassignment_exs/simple</text>
<text xml:space="preserve" text-anchor="middle" x="83.88" y="-72.25" font-family="Helvetica,sans-Serif" font-size="10.00">_process_ex.h</text>
</a>
</g>
</g>
<!-- Node2 -->
<g id="Node000002" class="node">
<title>Node2</title>
<g id="a_Node000002"><a xlink:href="main_8cpp.html" target="_top" xlink:title=" ">
<polygon fill="white" stroke="#666666" points="55.75,-24.88 0,-24.88 0,-5.63 55.75,-5.63 55.75,-24.88"/>
<text xml:space="preserve" text-anchor="middle" x="27.88" y="-11.38" font-family="Helvetica,sans-Serif" font-size="10.00">main.cpp</text>
</a>
</g>
</g>
<!-- Node1&#45;&gt;Node2 -->
<g id="edge1_Node000001_Node000002" class="edge">
<title>Node1&#45;&gt;Node2</title>
<g id="a_edge1_Node000001_Node000002"><a xlink:title=" ">
<path fill="none" stroke="#63b8ff" d="M63.72,-57.54C53.94,-46.27 42.77,-33.41 35.53,-25.07"/>
<polygon fill="#63b8ff" stroke="#63b8ff" points="60.98,-59.71 70.18,-64.97 66.26,-55.13 60.98,-59.71"/>
</a>
</g>
</g>
<!-- Node3 -->
<g id="Node000003" class="node">
<title>Node3</title>
<g id="a_Node000003"><a xlink:href="simple__process__ex_8cpp.html" target="_top" xlink:title=" ">
<polygon fill="white" stroke="#666666" points="208.12,-30.5 73.62,-30.5 73.62,0 208.12,0 208.12,-30.5"/>
<text xml:space="preserve" text-anchor="start" x="81.62" y="-17" font-family="Helvetica,sans-Serif" font-size="10.00">nonassignment_exs/simple</text>
<text xml:space="preserve" text-anchor="middle" x="140.88" y="-5.75" font-family="Helvetica,sans-Serif" font-size="10.00">_process_ex.cpp</text>
</a>
</g>
</g>
<!-- Node1&#45;&gt;Node3 -->
<g id="edge2_Node000001_Node000003" class="edge">
<title>Node1&#45;&gt;Node3</title>
<g id="a_edge2_Node000001_Node000003"><a xlink:title=" ">
<path fill="none" stroke="#63b8ff" d="M104.31,-57.63C112.21,-48.69 121,-38.74 127.99,-30.83"/>
<polygon fill="#63b8ff" stroke="#63b8ff" points="101.81,-55.17 97.81,-64.98 107.06,-59.8 101.81,-55.17"/>
</a>
</g>
</g>
</g>
</svg>
